<svg width="46" height="46" viewBox="0 0 46 46" fill="none" xmlns="http://www.w3.org/2000/svg">
<g clip-path="url(#clip0_2624_30993)">
<path fill-rule="evenodd" clip-rule="evenodd" d="M33.7119 42.6392C40.3487 42.6576 44.8216 37.2047 44.8216 30.5029V15.515C44.8216 8.8132 40.3487 3.36035 33.7119 3.36035H12.2881C5.65134 3.36035 1.17837 8.8132 1.17837 15.515V30.5029C1.17837 37.2047 5.65134 42.6576 12.2881 42.6392H33.7119Z" fill="#FF5B5D"/>
<path fill-rule="evenodd" clip-rule="evenodd" d="M0 15.5147C0 8.30149 4.86936 2.18164 12.2881 2.18164H33.7119C41.1306 2.18164 46 8.30149 46 15.5147V30.5025C46 37.7144 41.1312 43.837 33.71 43.8172C33.7096 43.8172 33.7091 43.8172 33.7087 43.8172H12.2913C12.2909 43.8172 12.2904 43.8172 12.29 43.8172C4.86877 43.837 0 37.7144 0 30.5025V15.5147ZM12.2881 4.53838C6.43331 4.53838 2.35674 9.32422 2.35674 15.5147V30.5025C2.35674 36.694 6.43332 41.4767 12.2848 41.4605L12.2881 41.4605L33.7119 41.4605L33.7152 41.4605C39.5667 41.4767 43.6433 36.694 43.6433 30.5025V15.5147C43.6433 9.32422 39.5667 4.53838 33.7119 4.53838H12.2881Z" fill="#1F2E54"/>
<path fill-rule="evenodd" clip-rule="evenodd" d="M9.24964 15.3889C9.65815 14.8823 10.4 14.8028 10.9066 15.2113L20.6805 23.0924C22.0815 24.2013 24.0469 24.2018 25.4484 23.0938L35.1385 15.2143C35.6435 14.8038 36.3856 14.8802 36.7962 15.3852C37.2068 15.8901 37.1303 16.6323 36.6254 17.0429L26.9294 24.9271L26.9184 24.936C24.6575 26.7296 21.4732 26.7296 19.2124 24.936L19.2051 24.9302L19.2051 24.9301L9.42729 17.0459C8.92067 16.6374 8.84114 15.8956 9.24964 15.3889Z" fill="#1F2E54"/>
</g>
<defs>
<clipPath id="clip0_2624_30993">
<rect width="46" height="46" fill="white"/>
</clipPath>
</defs>
</svg>
