<svg width="42" height="43" viewBox="0 0 42 43" fill="none" xmlns="http://www.w3.org/2000/svg">
<g clip-path="url(#clip0_2619_29194)">
<path fill-rule="evenodd" clip-rule="evenodd" d="M29.8794 2.54224H12.1185C5.92917 2.54224 2.04878 6.92458 2.04878 13.1262V29.8607C2.04878 36.0623 5.91073 40.4447 12.1185 40.4447H29.8774C36.0872 40.4447 39.9512 36.0623 39.9512 29.8607V13.1262C39.9512 6.92458 36.0872 2.54224 29.8794 2.54224Z" fill="#66DA78"/>
<path fill-rule="evenodd" clip-rule="evenodd" d="M3.26395 4.11163C5.43486 1.78259 8.51632 0.493408 12.1185 0.493408H29.8794C33.4895 0.493408 36.5724 1.78171 38.7427 4.1124C40.8975 6.4266 42 9.60223 42 13.1262V29.8606C42 33.3846 40.8975 36.5603 38.7423 38.8745C36.5717 41.2052 33.4883 42.4934 29.8774 42.4934H12.1185C8.50844 42.4934 5.42586 41.2051 3.25612 38.8742C1.10181 36.5599 0 33.3843 0 29.8606V13.1262C0 9.59996 1.10795 6.42469 3.26395 4.11163ZM6.26134 6.9055C4.92981 8.33402 4.09756 10.4508 4.09756 13.1262V29.8606C4.09756 32.5386 4.92673 34.655 6.25535 36.0823C7.56853 37.493 9.52083 38.3958 12.1185 38.3958H29.8774C32.4763 38.3958 34.4298 37.4928 35.7437 36.082C37.0729 34.6546 37.9024 32.5383 37.9024 29.8606V13.1262C37.9024 10.4485 37.0729 8.33212 35.7438 6.90473C34.4301 5.49384 32.4772 4.59097 29.8794 4.59097H12.1185C9.53138 4.59097 7.57797 5.49296 6.26134 6.9055Z" fill="#1F2E54"/>
<path fill-rule="evenodd" clip-rule="evenodd" d="M29.7412 15.1828C30.5413 15.9829 30.5413 17.2802 29.7412 18.0803L20.0177 27.8038C19.2178 28.6037 17.9208 28.6039 17.1206 27.8041L12.2568 22.9423C11.4566 22.1424 11.4563 20.8452 12.2562 20.0449C13.0561 19.2446 14.3534 19.2444 15.1536 20.0443L18.5687 23.4579L26.8438 15.1828C27.6439 14.3827 28.9411 14.3827 29.7412 15.1828Z" fill="#1F2E54"/>
</g>
<defs>
<clipPath id="clip0_2619_29194">
<rect width="42" height="42" fill="white" transform="translate(0 0.493408)"/>
</clipPath>
</defs>
</svg>
