<svg width="1440" height="578" viewBox="0 0 1440 578" fill="none" xmlns="http://www.w3.org/2000/svg">
<g clip-path="url(#clip0_2789_42386)">
<path d="M240.035 221.538L268.748 228.716" stroke="#1F2E54" stroke-width="4" stroke-linecap="round" stroke-linejoin="round"/>
<path d="M260.495 201.879L276.551 216.857" stroke="#1F2E54" stroke-width="4" stroke-linecap="round" stroke-linejoin="round"/>
<path d="M282.792 184.398L288.41 209.366" stroke="#1F2E54" stroke-width="4" stroke-linecap="round" stroke-linejoin="round"/>
<path d="M1482.03 576.453L-42.0264 576.453" stroke="#1F2E54" stroke-width="4"/>
<rect x="402.093" y="98.4057" width="209.307" height="148.065" rx="22" fill="white" stroke="#1F2E54" stroke-width="4"/>
<path d="M505.127 178.487C503.268 194.333 491.921 207.438 476.503 211.544C461.085 215.649 444.724 209.924 435.23 197.101C425.736 184.278 425.035 166.957 433.462 153.409C441.889 139.861 457.735 132.833 473.434 135.679C474.112 135.813 474.706 136.219 475.077 136.802C475.448 137.385 475.564 138.096 475.397 138.767L474.625 141.755L467.753 168.602C467.53 169.473 467.789 170.397 468.432 171.026C469.075 171.655 470.005 171.894 470.871 171.652L497.551 164.187L501.2 163.168C501.861 162.985 502.567 163.08 503.157 163.429C503.746 163.779 504.168 164.353 504.325 165.02C505.378 169.428 505.65 173.986 505.127 178.487V178.487Z" fill="#21B577" stroke="#1F2E54" stroke-width="4"/>
<path d="M506.071 150.825C506.327 151.487 506.29 152.226 505.97 152.859C505.65 153.492 505.076 153.96 504.392 154.147L501.879 154.851L480.145 160.92C479.283 161.151 478.364 160.909 477.729 160.282C477.094 159.656 476.839 158.741 477.057 157.876L482.651 136.019L483.195 133.919C483.363 133.244 483.804 132.669 484.413 132.333C485.023 131.996 485.745 131.929 486.406 132.147C495.35 135.241 502.521 142.052 506.071 150.825V150.825Z" fill="#66DA78" stroke="#1F2E54" stroke-width="4"/>
<line x1="522.848" y1="153.74" x2="551.372" y2="153.74" stroke="#1F2E54" stroke-width="4" stroke-linecap="round"/>
<line x1="522.849" y1="170.438" x2="583.897" y2="170.438" stroke="#1F2E54" stroke-width="4" stroke-linecap="round"/>
<line x1="522.848" y1="187.135" x2="577.816" y2="187.135" stroke="#1F2E54" stroke-width="4" stroke-linecap="round"/>
<rect x="850" y="106.909" width="186.167" height="142.206" rx="22" fill="white" stroke="#1F2E54" stroke-width="4"/>
<line x1="873.991" y1="132.329" x2="908.968" y2="132.329" stroke="#1F2E54" stroke-width="4" stroke-linecap="round"/>
<rect x="874" y="161.584" width="10" height="64" rx="2" fill="#016BFF" stroke="#1F2E54" stroke-width="4"/>
<rect x="899" y="187.584" width="11" height="38" rx="2" fill="#6B2EFF" stroke="#1F2E54" stroke-width="4"/>
<rect x="925" y="151.584" width="10" height="74" rx="2" fill="#016BFF" stroke="#1F2E54" stroke-width="4"/>
<rect x="951" y="195.584" width="10" height="30" rx="2" fill="#6B2EFF" stroke="#1F2E54" stroke-width="4"/>
<rect x="976" y="164.584" width="10" height="61" rx="2" fill="#016BFF" stroke="#1F2E54" stroke-width="4"/>
<rect x="1002" y="151.584" width="10" height="74" rx="2" fill="#6B2EFF" stroke="#1F2E54" stroke-width="4"/>
<path d="M514.215 359.803L530.666 356.658L527.037 372.836L601.747 348.262L635.457 369.413L649.1 424.45H487.283L514.215 359.803Z" fill="#FF5B5D"/>
<path fill-rule="evenodd" clip-rule="evenodd" d="M760.65 352.726C804.532 366.874 831.541 406.404 839.169 450.578C842.343 469.073 842.581 488.475 838.575 506.889C836.309 517.226 833.033 528.854 825.427 536.623C822.236 539.894 818.033 541.99 813.501 542.57C814.608 540.332 815.187 537.871 815.193 535.374C815.226 526.183 807.825 518.692 798.634 518.615L788.07 518.555L772.257 518.474C771.786 518.415 771.289 518.415 770.797 518.415H760.152L751.184 518.377L702.43 518.118C701.803 518.118 701.149 518.161 700.5 518.22L700.601 518.235C700.982 518.29 701.381 518.347 701.744 518.437C701.326 518.437 700.912 518.471 700.481 518.507L700.419 518.512C708.675 519.527 714.937 526.443 715.13 534.758V535.071C715.14 535.275 715.14 535.479 715.13 535.682C714.641 543.781 708.422 550.366 700.365 551.317C700.79 551.372 701.218 551.404 701.647 551.414C701.249 551.504 700.846 551.571 700.441 551.614L700.516 551.621C701.143 551.678 701.747 551.733 702.376 551.733H701.765C693.11 551.733 687.785 557.053 687.785 563.54C687.791 566.676 689.039 569.681 691.256 571.898C693.402 574.05 696.359 575.369 701.765 575.369H635.129L623.462 545.403L582.299 439.82H491.681C482.468 439.825 473.772 435.559 468.138 428.27C462.503 420.981 460.566 411.491 462.893 402.576L484.782 341.384C484.908 341.734 485.043 342.173 485.199 342.682C486.939 348.35 491.341 362.69 514.819 359.689C518.506 376.475 523.945 392.829 532.308 407.831C535.244 413.113 539.007 418.892 544.629 421.649C545.202 421.928 545.795 422.164 546.402 422.358C552.041 424.185 558.982 422.693 564.324 420.941C577.277 416.708 590.463 411.616 602.292 404.815C612.531 398.965 624.716 389.456 623.376 376.8V376.621C622.758 369.498 617.947 363.432 611.152 361.208C607.678 366.918 603.52 372.182 598.772 376.886C594.965 373.17 591.895 368.768 589.722 363.911C588.17 360.428 586.943 356.808 586.057 353.099C611.617 346.747 643.514 341.167 677.421 340.892C673.421 344.579 670.577 349.861 671.41 355.44C672.14 360.392 676.178 364.982 680.341 367.588C687.255 371.923 696.484 371.566 703.933 368.809C711.232 366.128 717.535 360.981 722.109 354.715C724.266 351.688 725.703 348.208 726.31 344.541V344.481C737.946 346.371 749.424 349.127 760.65 352.726ZM691.17 464.688C691.17 464.688 706.81 465.958 715.996 451.821C725.229 437.705 717.277 422.974 717.277 422.974C717.277 422.974 691.149 400.873 686.678 398.332C682.207 395.791 659.074 382.935 644.234 386.168C629.394 389.401 644.017 401.646 644.807 401.803C645.596 401.96 662.015 406.182 662.015 406.182L656.338 409.177C656.338 409.177 651.532 411.896 650.326 420.098C650.213 420.868 650.073 421.703 649.924 422.593C648.484 431.173 646.192 444.826 658.976 454.476C673.087 465.126 674.508 456.908 675.195 451.502C675.195 451.502 683.818 455.184 686.845 460.568C689.873 465.953 691.17 464.688 691.17 464.688Z" fill="#FF5B5D"/>
<path d="M534.958 309.228C538.094 314.332 541.245 319.424 544.5 324.452C546.506 327.55 550.16 331.967 546.273 335.205C545.008 336.175 543.48 336.74 541.889 336.827C539.391 337.049 536.769 336.448 535.25 334.302L527.681 321.76C524.553 316.573 517.966 314.658 512.544 317.359" stroke="#1F2E54" stroke-width="4" stroke-linecap="round"/>
<path d="M563.583 325.749C565.562 330.453 564.221 333.485 561.907 335.01C558.123 337.491 553.057 336.302 550.376 332.68L534.984 309.255" stroke="#1F2E54" stroke-width="4" stroke-linecap="round"/>
<path d="M547.986 302.416C553.587 309.228 560.653 321.879 564.562 327.16C568.47 332.442 574.514 329.258 574.514 329.258C579.423 326.614 578.591 322.23 576.445 316.905C571.157 303.833 563.61 295.14 555.193 289.441C529.108 271.796 502.347 284.814 494.384 315.272L462.893 402.577C460.566 411.491 462.503 420.981 468.138 428.27C473.772 435.56 482.468 439.826 491.681 439.82H582.299L635.145 575.375" stroke="#1F2E54" stroke-width="4" stroke-linecap="round"/>
<path d="M580.342 310.91C586.83 308.661 586.532 298.313 577.326 294.821C567.157 290.961 549.1 285.501 544.564 284.138C544.536 284.116 544.502 284.103 544.467 284.1C544.148 284.003 543.926 283.922 543.753 283.884L543.499 283.803" stroke="#1F2E54" stroke-width="4" stroke-linecap="round"/>
<path d="M676.194 414.368C670.518 407.545 654.98 403.679 644.838 401.809C641.337 401.151 638.692 398.257 638.351 394.711C638.233 393.546 638.368 392.369 638.745 391.261C639.99 387.76 643.466 385.563 647.163 385.942C664.463 387.693 682.303 393.137 695.5 404.863C695.5 404.863 759.471 453.681 767.11 458.433C770.262 460.347 773.203 458.087 771.067 455.082L770.397 453.935C766.637 447.482 762.187 441.457 757.125 435.965" stroke="#1F2E54" stroke-width="4" stroke-linecap="round"/>
<path d="M677.378 340.887C596.923 341.557 527.767 372.016 527.767 372.016L534.67 333.318" stroke="#1F2E54" stroke-width="4"/>
<path d="M802.338 551.495C802.338 551.495 793.574 549.511 791.244 556.529C788.914 563.546 786.482 574.71 803.235 575.369C819.989 576.029 810.15 572.736 809.182 567.314C808.214 561.892 802.338 551.495 802.338 551.495Z" fill="#1F2E54"/>
<path d="M668.464 423.271C668.464 423.271 659.008 416.103 650.493 423.368C650.135 423.684 649.822 424.048 649.564 424.45" stroke="#1F2E54" stroke-width="4" stroke-linecap="round"/>
<path d="M667.324 433.706C667.324 433.706 649.37 427.802 649.1 437.728" stroke="#1F2E54" stroke-width="4" stroke-linecap="round"/>
<path d="M673.167 448.924C673.167 448.924 676.081 451.595 674.973 455.411C674.151 458.239 671.34 460.023 668.555 459.055C659.689 455.99 651.704 450.784 649.758 441.934C648.838 437.453 648.639 432.854 649.169 428.31C649.596 424.099 650.218 419.552 651.634 415.546C653.797 409.394 660.419 405.107 666.847 408.069" stroke="#1F2E54" stroke-width="4"/>
<path d="M787.898 518.124L812.637 575.37" stroke="#1F2E54" stroke-width="4"/>
<path d="M675.153 316.997C671.142 320.96 665.152 320.954 661.74 317.289" stroke="#1F2E54" stroke-width="4" stroke-linecap="round"/>
<path d="M628.902 264.383C630.762 272.14 637.365 277.845 645.31 278.558C645.632 276.997 646.33 275.539 647.343 274.309C651.668 269.211 653.511 278.774 667.346 271.909C686.516 262.372 693.793 267.843 693.793 267.843C694.431 268.319 694.333 272.709 694.442 273.509C694.982 278.066 695.469 282.602 696.004 287.154C696.328 289.933 696.647 292.69 696.95 295.447C697.211 294.978 697.5 294.525 697.815 294.09C699.561 287.911 702.681 280.613 709.406 283.754C710.768 284.417 711.953 285.394 712.866 286.603C717.326 292.463 713.947 298.123 709.282 302.313C708.112 303.613 706.805 304.782 705.384 305.8C706.151 307.389 709.287 313.698 709.287 313.72C709.611 314.358 720.57 301.956 721.386 300.605C722.606 297.294 723.26 293.801 723.321 290.273C723.5 275.769 717.596 258.885 705.849 250.565C702.935 248.505 703.865 246.521 703.686 243.721C703.661 243.411 703.447 243.149 703.149 243.061C702.85 242.974 702.529 243.079 702.34 243.326C698.658 247.564 689.544 247.143 689.544 247.143C657.907 239.217 647.273 253.284 640.888 255.793C638.283 256.78 635.415 256.827 632.779 255.928C632.462 257.707 631.186 259.164 629.465 259.712L629.627 261.177C629.764 262.298 629.508 263.431 628.902 264.383V264.383Z" fill="#FFC452"/>
<path d="M645.332 278.58C637.387 277.867 630.784 272.162 628.924 264.405C628.569 262.954 628.345 261.474 628.254 259.983L628.503 259.956C628.843 259.93 629.177 259.857 629.497 259.739C631.219 259.191 632.495 257.734 632.811 255.955C632.91 255.471 632.93 254.975 632.871 254.485L632.06 247.327C632.06 247.327 637.78 251.581 644.126 249.095C650.473 246.608 661.129 232.541 692.782 240.445C692.782 240.445 699.929 240.866 703.595 236.628C703.783 236.381 704.105 236.275 704.403 236.363C704.702 236.45 704.915 236.713 704.941 237.023C705.13 239.828 706.168 241.812 709.087 243.867C720.835 252.192 726.739 269.07 726.555 283.575C726.501 289.592 724.5 295.534 721.413 300.632C720.597 301.983 709.639 314.385 709.314 313.747C709.314 313.747 706.179 307.417 705.411 305.827L705.227 305.476L705.579 305.243C706.884 304.357 708.13 303.388 709.309 302.34C713.969 298.15 717.353 292.49 712.893 286.63C711.98 285.421 710.795 284.445 709.433 283.781C702.686 280.64 699.589 287.938 697.842 294.117C697.503 295.298 697.295 296.513 697.221 297.74C697.14 296.983 697.059 296.253 696.977 295.496C696.675 292.739 696.356 289.982 696.031 287.203C695.491 282.651 694.983 278.115 694.469 273.558C694.388 272.779 694.469 268.368 693.82 267.892C693.82 267.892 686.538 262.421 667.373 271.957C653.539 278.823 651.695 269.254 647.37 274.358C646.357 275.588 645.659 277.046 645.337 278.607C645.239 279.108 645.175 279.616 645.148 280.126C645.138 280.192 645.138 280.26 645.148 280.326C645.083 281.445 645.062 282.559 645.035 283.651C644.932 294.188 646.089 305.195 650.225 314.98C655.252 326.841 668.557 338.54 682.392 333.01C686.716 331.274 690.593 328.479 694.139 325.511" stroke="#1F2E54" stroke-width="4" stroke-linecap="round"/>
<ellipse cx="653.79" cy="301.264" rx="2.62741" ry="3.17884" transform="rotate(-18.5 653.79 301.264)" fill="#1F2E54"/>
<ellipse cx="674.375" cy="300.606" rx="2.62741" ry="3.17884" transform="rotate(-18.5 674.375 300.606)" fill="#1F2E54"/>
<path d="M667.513 307.184C667.513 307.184 660.663 311.071 660.247 307.038C660.117 305.795 658.441 293.615 658.441 293.615C658.441 293.615 652.905 287.749 644.423 292.085" stroke="#1F2E54" stroke-width="4" stroke-linecap="round"/>
<path d="M665.972 290.203C665.972 290.203 677.033 284.678 684.353 292.642" stroke="#1F2E54" stroke-width="4" stroke-linecap="round"/>
<path d="M676.114 334.367L677.384 340.887C673.378 344.579 670.545 349.872 671.373 355.445C672.108 360.387 676.152 364.987 680.298 367.577C687.229 371.902 696.446 371.561 703.907 368.81C711.2 366.106 717.509 360.976 722.083 354.716C724.236 351.689 725.671 348.211 726.278 344.547V344.482" stroke="#1F2E54" stroke-width="4"/>
<path d="M677.385 340.886L679.861 352.661" stroke="#1F2E54" stroke-width="4" stroke-linecap="round"/>
<path d="M712.401 310.909L716.142 335.751C716.904 340.776 721.228 344.488 726.311 344.482C737.954 346.369 749.44 349.123 760.672 352.721C804.555 366.874 831.564 406.404 839.192 450.573C842.365 469.067 842.603 488.465 838.619 506.857C836.354 517.21 833.078 528.838 825.471 536.591C815.594 546.7 800.435 542.538 788.763 537.969C752.525 523.875 722.386 498.801 696.36 470.095C682.445 454.741 664.464 442.436 664.464 442.436" stroke="#1F2E54" stroke-width="4"/>
<path d="M799.709 551.793C799.455 551.831 799.168 551.869 798.92 551.928H798.822L760.368 551.728L702.668 551.431C702.446 551.431 702.23 551.431 702.014 551.431C701.585 551.42 701.158 551.388 700.732 551.333C708.802 550.396 715.031 543.793 715.497 535.682C715.508 535.479 715.508 535.275 715.497 535.071V534.758C715.464 526.834 709.876 520.019 702.111 518.437C701.716 518.339 701.284 518.28 700.868 518.22C701.522 518.161 702.17 518.118 702.803 518.118L751.551 518.377L760.525 518.415L772.629 518.474C781.218 519.258 787.801 526.447 787.826 535.071C787.827 535.857 787.767 536.641 787.648 537.418C786.457 545.606 779.455 551.691 771.181 551.728H800.471C798.785 551.728 799.255 551.728 799.709 551.793V551.793Z" fill="white"/>
<path d="M721.709 571.899C723.928 574.131 726.948 575.381 730.094 575.37H701.777C696.371 575.37 693.419 574.051 691.267 571.899C689.056 569.679 687.811 566.675 687.802 563.541C687.802 557.054 693.121 551.734 701.777 551.734H730.094C725.313 551.727 721 554.604 719.169 559.02C717.338 563.437 718.352 568.522 721.736 571.899H721.709Z" fill="#FFC452"/>
<path d="M815.232 535.369C815.224 537.866 814.644 540.328 813.534 542.565C812.742 544.256 811.654 545.792 810.323 547.101C808.128 549.276 805.37 550.798 802.359 551.496C801.118 551.782 799.849 551.928 798.575 551.928C798.835 551.869 799.116 551.831 799.364 551.793C798.91 551.75 798.44 551.734 800.132 551.734H770.836C779.116 551.702 786.125 545.613 787.314 537.418C787.433 536.642 787.493 535.857 787.492 535.072C787.466 526.446 780.881 519.256 772.29 518.475L788.103 518.556L798.667 518.615C807.857 518.693 815.259 526.179 815.232 535.369V535.369Z" fill="#FF8A1D"/>
<path fill-rule="evenodd" clip-rule="evenodd" d="M815.232 535.364C815.164 544.561 807.67 551.97 798.473 551.934L702.286 551.437C701.643 551.437 700.999 551.388 700.351 551.323C708.743 550.372 715.097 543.295 715.141 534.849C715.185 526.403 708.905 519.26 700.524 518.221C701.167 518.154 701.813 518.121 702.459 518.124L798.646 518.621C807.842 518.684 815.256 526.168 815.232 535.364V535.364Z" stroke="#1F2E54" stroke-width="4" stroke-linecap="square" stroke-linejoin="round"/>
<path fill-rule="evenodd" clip-rule="evenodd" d="M787.482 535.067C787.464 544.261 780.014 551.711 770.82 551.728H702.383C701.736 551.725 701.09 551.689 700.447 551.62C708.833 550.625 715.15 543.514 715.15 535.069C715.15 526.624 708.833 519.514 700.447 518.518C701.091 518.459 701.739 518.416 702.383 518.416H770.82C780.009 518.436 787.455 525.877 787.482 535.067V535.067Z" stroke="#1F2E54" stroke-width="4" stroke-linecap="square" stroke-linejoin="round"/>
<path fill-rule="evenodd" clip-rule="evenodd" d="M687.803 563.546C687.802 566.678 689.047 569.681 691.263 571.894C693.425 574.056 696.361 575.37 701.772 575.37H800.127C798.435 575.37 798.895 575.337 799.354 575.294C793.397 574.593 788.908 569.544 788.908 563.546C788.908 557.548 793.397 552.5 799.354 551.799C798.895 551.755 798.435 551.723 800.127 551.723H701.772C693.112 551.728 687.803 557.048 687.803 563.546V563.546Z" stroke="#1F2E54" stroke-width="4" stroke-linecap="square" stroke-linejoin="round"/>
<path fill-rule="evenodd" clip-rule="evenodd" d="M718.24 563.546C718.255 570.07 723.54 575.355 730.064 575.37H797.982C798.436 575.37 798.895 575.337 799.355 575.294C793.398 574.593 788.909 569.544 788.909 563.546C788.909 557.549 793.398 552.5 799.355 551.799C798.895 551.756 798.436 551.723 797.982 551.723H730.064C723.541 551.741 718.258 557.024 718.24 563.546H718.24Z" stroke="#1F2E54" stroke-width="4" stroke-linecap="square" stroke-linejoin="round"/>
<ellipse rx="10.732" ry="10.4774" transform="matrix(-0.726737 -0.686916 -0.686916 0.726737 1039.8 291.809)" fill="#016BFF" fill-opacity="0.25"/>
<ellipse rx="10.6319" ry="10.3858" transform="matrix(-0.727174 -0.686453 -0.686453 0.727174 1011.01 288.609)" fill="#016BFF" fill-opacity="0.25"/>
<path d="M1120.36 459.246C1120.36 459.246 1176.02 419.336 1197.5 463.474C1197.5 463.474 1174.9 383.384 1097.83 354.739C1097.83 354.739 1075.8 342.482 1074.83 349.886C1073.86 357.289 1067.47 361.069 1064.67 360.98C1061.88 360.89 1038.27 362.366 1037.45 358.84C1036.63 355.313 1038.2 344.749 1026.49 344.674C1014.79 344.599 951.27 360.204 933.108 376.696C933.108 376.696 964.72 414.862 947.818 456.942L962.058 453.49C962.058 453.49 953.276 529.539 965.249 573.774H1172.07C1172.07 573.774 1151.4 576.376 1130.19 561.248L1099.4 521.733C1099.4 521.733 1085.9 501.274 1058.31 498.352C1058.31 498.352 1042.61 496.637 1042.76 489.174C1042.91 481.71 1037.1 493.953 1029.34 483.164C1028.39 483.164 1009.53 484.253 1009.53 484.253C1009.53 484.253 995.363 485.58 992.701 472.935C990.04 460.29 980.228 371.537 983.755 366.206C987.281 360.875 988.631 360.808 1018.39 360.987C1048.16 361.166 1074.31 355.231 1078.1 370.038C1081.89 384.846 1086.26 440.95 1086.26 440.95C1086.26 440.95 1103.04 445.341 1115.82 463.511C1115.77 463.503 1120.36 472.361 1120.36 459.246V459.246Z" fill="#016BFF"/>
<path d="M963.012 449.763C930.169 467.209 839.403 502.855 836.182 365.751C836.182 365.751 840.089 329.748 829.905 325.051C819.72 320.353 803.295 305.479 824.447 269.468L810.646 255.697C808.135 253.112 807.193 249.383 808.175 245.916C809.158 242.448 811.917 239.768 815.411 238.885C818.906 238.002 822.606 239.051 825.118 241.636L852.548 270.713C852.548 270.713 856.522 263.257 863.567 267.142C870.613 271.026 896.454 287.511 884.719 321.934L915.243 409.613" stroke="#1F2E54" stroke-width="4" stroke-linecap="round"/>
<path d="M1120.36 432.294V467.231" stroke="#1F2E54" stroke-width="4"/>
<path d="M852.585 270.698C852.585 270.698 845.271 281.829 860.839 293.207" stroke="#1F2E54" stroke-width="4" stroke-linecap="round"/>
<path d="M819.944 278.117C819.944 278.117 815.389 292.424 833.767 301.655C840.268 304.92 847.404 298.046 844.332 291.448C844.28 291.351 844.235 291.246 844.183 291.142" stroke="#1F2E54" stroke-width="4" stroke-linecap="round"/>
<path d="M814.382 295.787C814.382 295.787 818.4 309.759 829.398 310.43C839.127 311.019 837.495 301.095 837.495 301.095" stroke="#1F2E54" stroke-width="4" stroke-linecap="round"/>
<path d="M1002.52 287.034C1003.27 287.228 1003.74 286.609 1004.43 286.728C1014.4 284.909 1021.81 277.036 1022.64 273.248C1022.36 275.314 1018.57 275.105 1019.21 277.215C1019.33 277.617 1019.57 277.461 1019.77 277.848C1020.08 278.594 1020.07 277.573 1020.51 278.244C1022.96 274.628 1024.37 272.831 1024.81 270.84C1024.51 272.977 1024.68 275.152 1025.31 277.215C1025.43 277.618 1025.58 278.01 1025.77 278.385C1027.26 281.904 1030.37 284.879 1035.56 285.617C1036.87 285.782 1038.18 285.825 1039.49 285.744C1043.22 285.528 1046.44 285.312 1049.19 285.192C1058.36 284.782 1061.64 285.476 1060.62 291.396C1060.05 294.073 1059.24 296.696 1058.21 299.231C1056.4 304.018 1055.13 312.309 1056.99 321.338V321.39C1059.15 331.903 1066 340.029 1080.66 347.664C1083.26 349.005 1085.94 350.183 1088.69 351.19C1114.13 360.629 1175 384.54 1200.23 472.219C1202.92 481.561 1204.92 490.061 1206.34 497.822L1207.03 497.42C1224.26 487.094 1235.5 463.929 1232.08 443.999C1230.38 434.106 1223.94 427.202 1215.68 422.005C1209.88 418.411 1203.68 415.466 1198.48 411.03C1181.26 396.32 1195.03 373.446 1185.49 355.858C1174.74 336.07 1157.9 323.873 1135.93 322.866C1130.39 323.105 1124.17 323.753 1118.13 323.463C1109.36 323.776 1100.4 323.06 1093.98 317.312C1088.92 312.838 1087.87 305.546 1085.96 299.463C1083.8 292.602 1082 285.634 1080.57 278.587C1079.25 271.905 1076.81 265.497 1073.33 259.642C1069.58 253.296 1064.29 247.998 1057.95 244.238C1052.42 241.116 1046.26 239.289 1039.92 238.892C1034.15 239.233 1028.53 240.907 1023.52 243.783C1021.8 244.796 1020.18 245.958 1018.68 247.258C1007.58 256.726 1002.26 272.756 1002.52 287.034V287.034Z" fill="#1F2E54"/>
<path d="M834.081 309.594C834.081 309.594 837.637 314.008 835.691 318.198C833.745 322.389 828.914 323.365 824.217 321.531" stroke="#1F2E54" stroke-width="4" stroke-linecap="round"/>
<path d="M824.462 269.467L834.289 279.287" stroke="#1F2E54" stroke-width="4" stroke-linecap="round"/>
<path d="M1086.23 439.987L1078.23 371.022C1077.56 365.246 1072.66 360.889 1066.85 360.89H993.38C990.129 360.888 987.031 362.268 984.857 364.686C982.684 367.104 981.641 370.332 981.988 373.564L992.694 472.942C993.323 478.76 998.234 483.171 1004.09 483.171H1030.38" stroke="#1F2E54" stroke-width="4"/>
<circle r="2.9972" transform="matrix(-1 0 0 1 999.389 375.459)" fill="#1F2E54"/>
<path d="M1048.86 455.987C1041.11 457.732 1039.56 457.762 1032.04 458.88C1027.3 459.589 1016.45 460.178 1016.26 452.819C1016.08 446.355 1023.34 442.56 1028.46 440.494C1034.37 438.246 1040.56 436.799 1046.85 436.193C1049.45 435.894 1052.05 435.691 1054.67 435.581C1072.83 434.836 1093.77 439.227 1106.27 453.43C1135.24 486.295 1173.76 507.425 1173.76 507.425" stroke="#1F2E54" stroke-width="4" stroke-linecap="round"/>
<path d="M1028.1 459.246C1024.37 460.826 1018.06 464.196 1020.64 470.653C1021.82 473.635 1023.96 474.694 1026.9 475.126C1033.24 476.044 1040.05 474.694 1046.28 473.389C1048.59 472.905 1052.67 472.017 1054.95 471.391" stroke="#1F2E54" stroke-width="4" stroke-linecap="round"/>
<path d="M1034.73 475.276C1034.73 475.276 1027.95 475.194 1029.58 481.494C1032.28 491.932 1053.19 487.205 1062.97 485.013" stroke="#1F2E54" stroke-width="4" stroke-linecap="round"/>
<path d="M1034.31 345.24C1002.44 346.635 953.886 355.977 909.852 394.068" stroke="#1F2E54" stroke-width="4"/>
<path d="M963.012 435.507C963.012 435.507 955.556 504.898 963.012 573.237" stroke="#1F2E54" stroke-width="4" stroke-linecap="round"/>
<path d="M1205.09 501.341C1207.87 500.246 1210.55 498.933 1213.12 497.412C1230.37 487.086 1241.6 463.929 1238.18 443.992C1236.47 434.098 1230.03 427.202 1221.74 421.998C1215.95 418.404 1209.72 415.466 1204.54 411.03C1187.32 396.32 1201.1 373.438 1191.56 355.858C1179.97 334.534 1161.33 322.031 1136.77 322.844C1124.98 323.231 1109.67 325.938 1100.05 317.312C1094.99 312.838 1093.94 305.546 1092.02 299.463C1089.86 292.602 1088.06 285.634 1086.62 278.587C1085.33 271.906 1082.9 265.497 1079.43 259.642C1075.68 253.29 1070.39 247.984 1064.05 244.216C1052.12 237.334 1035.49 236.7 1023.5 243.776C1021.79 244.791 1020.18 245.95 1018.67 247.243C1007.58 256.756 1002.27 272.779 1002.52 287.064" stroke="#1F2E54" stroke-width="4"/>
<path d="M1025.05 269.58C1024.43 273.785 1021.88 277.662 1017.33 278.825C1012.21 280.13 1009.48 285.125 1008.04 290.143C1005.98 297.504 1006.51 305.347 1009.53 312.368C1012.33 318.974 1017.33 326.534 1025.77 327.72C1041.23 329.956 1048.92 323.41 1048.92 323.41" stroke="#1F2E54" stroke-width="4"/>
<circle r="2.65424" transform="matrix(-1 0 0 1 1037.93 289.39)" fill="#1F2E54"/>
<circle r="2.65424" transform="matrix(-1 0 0 1 1014.58 287.63)" fill="#1F2E54"/>
<path d="M1044.09 487.973C1040.22 490.344 1043.34 494.25 1046.14 495.57C1050.96 497.807 1057.19 498.202 1062.43 498.828C1102.35 503.525 1115.67 558.31 1140.72 568.495C1165.77 578.679 1233 586.12 1200.21 472.211C1174.96 384.547 1114.1 360.636 1088.65 351.197C1085.91 350.19 1083.24 349.015 1080.64 347.678C1065.98 340.059 1059.11 331.902 1056.95 321.382C1056.95 321.382 1056.95 321.382 1056.95 321.337C1055.09 312.308 1056.34 304.018 1058.17 299.224C1059.22 296.691 1060.03 294.068 1060.6 291.388C1061.96 283.76 1056.07 284.834 1039.53 285.744C1031.94 286.191 1027.65 282.761 1025.8 278.392C1025.62 278.013 1025.47 277.619 1025.36 277.214C1024.58 274.74 1024.49 272.102 1025.09 269.58" stroke="#1F2E54" stroke-width="4"/>
<path d="M1026.49 290.03C1026.49 290.03 1023.7 300.222 1023.99 301.728C1024.27 303.235 1027.84 302.071 1027.84 302.071" stroke="#1F2E54" stroke-width="4" stroke-linecap="round"/>
<path d="M1028.41 311.406C1033.76 314.284 1039.94 312.472 1042.36 307.678" stroke="#1F2E54" stroke-width="4" stroke-linecap="round"/>
<ellipse rx="12.3989" ry="12.1006" transform="matrix(-0.727174 -0.686453 -0.686453 0.727174 1041.97 291.436)" stroke="#1F2E54" stroke-width="4"/>
<ellipse rx="12.3989" ry="12.1006" transform="matrix(-0.727174 -0.686453 -0.686453 0.727174 1011.01 288.609)" stroke="#1F2E54" stroke-width="4"/>
<path fill-rule="evenodd" clip-rule="evenodd" d="M1011.71 278.392C1011.39 278.348 1011.07 278.348 1010.75 278.348V278.281C1005.44 278.26 1001.03 282.398 1000.72 287.705C1000.38 293.408 1004.62 298.356 1010.31 298.888C1010.63 298.933 1010.95 298.933 1011.27 298.933C1016.56 298.956 1020.96 294.857 1021.3 289.576C1021.63 283.874 1017.39 278.932 1011.71 278.392ZM1002.51 287.794C1002.79 283.452 1006.4 280.079 1010.75 280.107V280.145H1011.54C1016.28 280.59 1019.8 284.717 1019.5 289.464C1019.19 293.777 1015.59 297.107 1011.27 297.077H1010.48C1005.76 296.631 1002.24 292.528 1002.51 287.794Z" fill="white"/>
<path d="M1029.74 290.329L1023.24 289.733" stroke="#1F2E54" stroke-width="4"/>
<path fill-rule="evenodd" clip-rule="evenodd" d="M1042.69 280.905C1042.36 280.875 1042.04 280.86 1041.71 280.86V280.927C1036.29 280.904 1031.78 285.106 1031.43 290.515C1031.08 296.365 1035.43 301.442 1041.26 301.99C1041.59 302.035 1041.92 302.035 1042.24 302.035C1047.66 302.058 1052.16 297.857 1052.52 292.446C1052.92 286.571 1048.56 281.45 1042.69 280.905ZM1033.22 290.605C1033.49 286.129 1037.22 282.65 1041.71 282.694V282.657C1041.98 282.654 1042.26 282.667 1042.53 282.694C1047.39 283.152 1051.02 287.378 1050.73 292.252C1050.46 296.731 1046.72 300.211 1042.24 300.17H1041.42C1036.56 299.713 1032.93 295.482 1033.22 290.605Z" fill="white"/>
<path d="M1068.26 360.98C1071.54 357.558 1074.39 352.525 1076.26 345.241" stroke="#1F2E54" stroke-width="4"/>
<path d="M1037.93 360.89L1034.31 345.241L1030.38 328.376" stroke="#1F2E54" stroke-width="4"/>
<ellipse rx="12.6002" ry="11.1389" transform="matrix(-0.19971 -0.979855 -0.979855 0.19971 1034.06 420.978)" fill="#016BFF"/>
<path d="M416.823 376.722C416.378 376.851 410.695 378.503 408.459 382.44C407.59 380.6 405.738 379.428 403.703 379.429H336.966C334.521 379.425 332.397 381.112 331.849 383.496L318.706 439.847C317.815 439.673 316.925 439.566 315.998 439.477L284.984 431.737C282.227 431.045 279.396 432.563 278.446 435.242C278.239 435.822 278.137 436.434 278.143 437.05C278.143 439.952 280.387 442.36 283.282 442.563L297.948 443.508C283.821 450.157 266.635 462.823 252.29 474.46C238.332 452.606 251.43 430.757 261.282 418.991C260.012 406.022 253.581 375.911 221.493 376.731C232.547 362.555 246.331 350.405 263.41 342.273C321.913 407.117 388.841 354.102 390.262 352.962C400.271 359.491 409.227 367.505 416.823 376.731" fill="#21B577"/>
<path d="M410.744 562.739V573.944H217.543V558.072C225.07 558.517 232.988 556.736 240.189 553.489C249.306 549.338 257.18 542.89 263.914 535.532C270.839 527.917 274.642 517.357 279.056 508.174C285.683 494.345 294.461 484.494 308.392 480.321L307.501 484.151C307.139 485.713 307.508 487.355 308.504 488.611C309.5 489.867 311.015 490.601 312.618 490.604H379.689C378.353 502.184 372.719 565.425 410.744 562.753" fill="#21B577"/>
<path d="M379.721 268.041C379.667 274.032 378.886 279.994 377.396 285.797C376.007 291.416 371.456 295.701 365.763 296.749C365.652 292.705 363.933 289.155 361.31 286.951C361.549 283.527 361.515 280.09 361.207 276.672C361.034 274.414 360.762 272.307 360.477 270.415C360.307 269.337 360.062 268.273 359.742 267.23C358.847 266.268 357.792 265.468 356.625 264.865C352.496 262.541 343.999 260.069 328.255 263.703C325.685 264.291 323.266 265.413 321.156 266.994C321.109 267.023 321.067 267.059 321.032 267.101C319.611 268.41 317.803 270.067 315.932 270.927C313.995 271.817 311.973 271.853 310.276 269.747C310.232 269.702 310.209 269.662 310.169 269.617C309.279 268.455 308.428 266.945 306.856 266.647C303.542 266.023 301.93 269.319 301.511 272.089C301.146 274.65 301.899 276.908 302.999 279.059C303.92 280.808 305.124 282.392 306.562 283.749C306.931 284.105 307.269 284.493 307.573 284.907C307.435 284.931 307.299 284.968 307.168 285.018C306.863 285.12 306.565 285.242 306.277 285.383C302.269 287.187 299.414 291.707 299.351 296.998C299.351 297.163 292.631 297.065 291.78 296.998C288.503 296.695 285.274 295.751 282.967 293.279C276.42 286.265 276.451 275.857 279.141 267.716C281.689 259.989 284.931 252.444 289.179 245.492C298.385 230.448 312.668 219.35 330.749 218.352C335.085 218.134 339.432 218.388 343.714 219.109C345.739 219.428 347.743 219.875 349.713 220.445C368.146 228.488 379.846 246.721 379.739 268.041" fill="#1F2E54"/>
<path d="M369.045 439.549C366.867 445.138 361.683 448.336 357.466 446.674C353.248 445.013 351.591 439.17 353.765 433.581C355.938 427.992 361.127 424.789 365.344 426.455C369.562 428.121 371.223 433.964 369.045 439.553" fill="#66DA78"/>
<path d="M380.251 489.465C380.251 489.465 368.423 571.923 415.738 562.784C462.794 553.686 480.604 362.248 344.396 334.716" stroke="#1F2E54" stroke-width="4"/>
<path d="M269.473 410.08C269.473 410.08 231.297 442.275 251.868 474.474" stroke="#1F2E54" stroke-width="4" stroke-linecap="round"/>
<path d="M381.111 466.56C380.456 466.6 379.521 466.164 378.884 465.99C378.076 465.776 377.276 465.548 376.484 465.304C371.832 463.857 367.456 461.641 363.537 458.749C362.646 458.112 361.061 457.702 359.974 458.121C358.742 458.573 357.854 459.66 357.658 460.958C357.324 463.256 358.945 465.505 360.713 466.979C362.811 468.733 364.989 470.35 367.532 471.401C369.986 472.387 372.519 473.166 375.103 473.73C376.274 474.002 377.463 474.176 378.626 474.474" stroke="#1F2E54" stroke-width="4" stroke-linecap="round"/>
<path d="M395.764 444.252C396.245 446.791 396.597 449.427 396.357 452.006C396.156 454.188 395.372 456.735 392.945 457.265C392.484 457.387 392.005 457.431 391.529 457.395C382.39 456.856 374.859 453.698 366.259 447.481C357.659 441.264 354.631 455.582 362.487 458.121" stroke="#1F2E54" stroke-width="4"/>
<path d="M362.816 468.707C362.605 468.533 362.404 468.347 362.215 468.15C357.935 463.674 357.16 472.666 361.653 475.311L362.232 475.654C362.535 475.783 362.86 475.935 363.181 476.1C363.332 476.14 363.502 476.207 363.658 476.251C367.719 478.033 372.044 479.173 376.301 480.335C372.088 478.959 367.889 477.605 363.658 476.251C363.292 476.1 362.945 475.948 362.58 475.775C362.468 475.728 362.351 475.692 362.232 475.668C362.078 475.598 361.899 475.615 361.76 475.712C361.659 475.795 361.584 475.907 361.547 476.033C360.856 477.69 361.417 479.778 362.299 481.261C363.226 482.829 364.816 484.036 366.383 484.896C370.601 487.26 375.504 488.659 380.238 489.496C381.117 489.678 382.016 489.736 382.91 489.67" stroke="#1F2E54" stroke-width="4" stroke-linecap="round"/>
<path d="M421.101 499.873C421.101 499.873 406.587 475.137 404.97 453.631C403.982 440.319 400.071 437.5 397.274 437.309" stroke="#1F2E54" stroke-width="4" stroke-linecap="round"/>
<path d="M392.944 457.261L395.768 444.252L397.273 437.305L408.434 385.795C408.769 384.241 408.384 382.619 407.386 381.382C406.388 380.146 404.884 379.427 403.295 379.426H336.553C334.108 379.423 331.986 381.11 331.436 383.492L318.293 439.848L308.7 480.968L307.81 484.82C307.451 486.382 307.822 488.022 308.819 489.277C309.815 490.532 311.329 491.265 312.931 491.269H379.998" stroke="#1F2E54" stroke-width="4"/>
<path d="M310.196 268.264C310.196 268.264 313.728 253.286 333.671 251.3C353.614 249.314 358.611 264.215 358.611 264.215L357.983 265.716C357.983 265.716 331.765 255.197 317.286 270.21C317.286 270.21 312.071 272.575 310.196 268.272" fill="#66DA78"/>
<path d="M315.574 439.477L284.555 431.728C282.538 431.228 280.411 431.91 279.059 433.489C277.707 435.068 277.362 437.274 278.167 439.191C278.972 441.107 280.789 442.405 282.863 442.546L297.528 443.512" stroke="#1F2E54" stroke-width="4"/>
<path d="M389.86 352.94C389.86 352.94 322.108 407.826 262.991 342.274" stroke="#1F2E54" stroke-width="4"/>
<path d="M260.866 418.982C259.597 406.013 253.17 375.881 221.056 376.722" stroke="#1F2E54" stroke-width="4"/>
<path d="M416.416 376.713C416.416 376.713 410.363 378.379 408.043 382.449" stroke="#1F2E54" stroke-width="4"/>
<path d="M361.31 286.969C364.022 289.249 365.764 292.972 365.764 297.185C365.764 304.177 360.905 309.833 354.901 309.833C354.222 309.83 353.545 309.751 352.884 309.597C359.876 304.253 361.292 286.969 361.292 286.969" fill="#66DA78"/>
<path d="M321.757 315.191C328.575 318.584 336.52 318.891 343.579 316.033C363.255 307.816 362.503 283.598 360.458 270.433C360.295 269.365 360.063 268.309 359.764 267.271C357.506 259.744 351.613 253.612 343.851 251.87C328.816 248.472 315.067 256.996 309.362 268.473" stroke="#1F2E54" stroke-width="4" stroke-linecap="round"/>
<path d="M359.952 267.507C359.952 267.507 359.889 267.418 359.76 267.271C358.424 265.765 350.688 258.582 328.296 263.743C325.726 264.331 323.309 265.452 321.201 267.035C321.151 267.063 321.106 267.099 321.067 267.141" stroke="#1F2E54" stroke-width="4"/>
<path d="M300.263 303.99H289.187C281.193 303.99 274.856 296.669 272.099 289.797C268.224 280.133 270.705 270.241 274.192 260.848C277.114 252.988 280.828 245.35 285.714 238.514C296.652 223.216 313.166 214.549 332.147 216.152C333.83 216.295 335.506 216.503 337.175 216.776C362.663 220.909 379.849 242.219 379.72 268.028C379.667 274.023 378.886 279.99 377.395 285.797C375.996 291.412 371.447 295.693 365.758 296.749" stroke="#1F2E54" stroke-width="4"/>
<path d="M307.582 284.907C307.277 284.493 306.939 284.104 306.571 283.744C305.132 282.391 303.929 280.807 303.008 279.059C301.908 276.908 301.156 274.65 301.521 272.089C301.931 269.337 303.543 266.024 306.865 266.647C308.437 266.95 309.275 268.455 310.179 269.618C313.617 274.071 318.351 269.595 321.255 266.905" stroke="#1F2E54" stroke-width="4"/>
<path d="M361.308 286.968C364.02 289.249 365.762 292.972 365.762 297.185C365.762 304.177 360.903 309.833 354.899 309.833C354.22 309.829 353.543 309.75 352.882 309.597" stroke="#1F2E54" stroke-width="4"/>
<path d="M338.066 295.551C340.498 297.185 346.372 298.526 345.192 293.68C343.776 287.94 341.87 275.675 353.543 274.739C353.543 274.739 358.682 274.958 361.221 276.703" stroke="#1F2E54" stroke-width="4" stroke-linecap="round"/>
<path d="M342.462 305.148C342.462 305.148 336.584 308.266 333.671 302.053" stroke="#1F2E54" stroke-width="4" stroke-linecap="round"/>
<path d="M330.539 283.125C330.312 285.098 331.082 286.804 332.262 286.942C333.442 287.08 334.583 285.606 334.814 283.62C335.046 281.633 334.266 279.945 333.091 279.807C331.915 279.669 330.766 281.143 330.539 283.125" fill="#1F2E54"/>
<path d="M349.682 284.288C349.455 286.256 350.226 287.966 351.406 288.104C352.586 288.242 353.726 286.768 353.953 284.782C354.18 282.796 353.41 281.103 352.234 280.97C351.058 280.836 349.909 282.306 349.682 284.288" fill="#1F2E54"/>
<path d="M338.066 276C338.066 276 334.467 270.451 326.312 275.715" stroke="#1F2E54" stroke-width="4" stroke-linecap="round"/>
<path d="M344.39 315.668V346.451" stroke="#1F2E54" stroke-width="4" stroke-linecap="round"/>
<path d="M222.69 499.873C222.69 499.873 235.379 487.848 251.857 474.488C266.202 462.85 283.406 450.162 297.537 443.517C299.346 442.676 301.1 441.923 302.806 441.29C306.876 439.739 311.244 439.13 315.583 439.509C316.492 439.584 317.396 439.706 318.291 439.874" stroke="#1F2E54" stroke-width="4" stroke-linecap="round"/>
<path d="M308.698 480.967C294.763 485.14 285.985 494.991 279.363 508.82C274.958 518.003 271.146 528.563 264.22 536.178C257.491 543.531 249.617 549.984 240.501 554.135C223.96 561.662 203.594 561.083 192.847 544.716C185.579 533.617 182.72 519.829 181.268 506.86C178.774 484.321 186.648 420.786 221.056 376.717C232.11 362.542 245.898 350.392 262.973 342.26C274.958 336.568 288.506 332.845 303.862 331.79L308.164 309.597" stroke="#1F2E54" stroke-width="4"/>
<path d="M411.05 563.488V574.613" stroke="#1F2E54" stroke-width="4"/>
<path d="M217.85 559.515V574.613" stroke="#1F2E54" stroke-width="4"/>
<path d="M321.043 297.185C321.085 300.524 319.9 303.762 317.712 306.284C316.485 306.851 315.149 307.145 313.797 307.143C307.798 307.143 302.935 301.487 302.935 294.495C302.892 291.157 304.079 287.92 306.27 285.401C307.497 284.831 308.833 284.536 310.185 284.537C316.184 284.537 321.043 290.198 321.043 297.185" fill="#66DA78"/>
<ellipse cx="310.194" cy="297.185" rx="10.8489" ry="12.6482" stroke="#1F2E54" stroke-width="4"/>
<rect x="646.026" y="3.54681" width="169.249" height="202.724" rx="22" fill="white" stroke="#1F2E54" stroke-width="4"/>
<path d="M772.34 71.8221C772.34 77.2969 771.261 82.718 769.166 87.776C767.071 92.8339 764 97.4297 760.129 101.301C756.258 105.172 751.662 108.243 746.604 110.338C741.546 112.433 736.125 113.511 730.65 113.511C725.176 113.511 719.754 112.433 714.696 110.338C709.638 108.243 705.043 105.172 701.171 101.301C697.3 97.4297 694.229 92.8339 692.134 87.776C690.039 82.718 688.961 77.2968 688.961 71.8221C688.961 66.3474 690.039 60.9263 692.134 55.8683C694.229 50.8103 697.3 46.2145 701.171 42.3433C705.043 38.4721 709.638 35.4013 714.696 33.3062C719.754 31.2111 725.176 30.1328 730.65 30.1328C736.125 30.1328 741.546 31.2111 746.604 33.3062C751.662 35.4013 756.258 38.4721 760.129 42.3433C764 46.2145 767.071 50.8103 769.166 55.8683C771.261 60.9263 772.34 66.3474 772.34 71.8221L772.34 71.8221Z" stroke="#FF5B5D" stroke-width="18" stroke-linecap="round"/>
<path d="M772.34 71.8221C772.34 79.1153 770.426 86.2809 766.791 92.6034C763.155 98.9259 757.925 104.184 751.622 107.853C745.318 111.522 738.163 113.473 730.87 113.511C723.577 113.549 716.401 111.674 710.06 108.072" stroke="#FFC452" stroke-width="18" stroke-linecap="round"/>
<path d="M754.686 37.7594C761.376 42.4799 766.528 49.0657 769.498 56.6952C772.469 64.3247 773.128 72.6601 771.392 80.6615" stroke="#FF8A1D" stroke-width="18" stroke-linecap="round"/>
<line x1="670.791" y1="143.828" x2="703.851" y2="143.828" stroke="#1F2E54" stroke-width="4" stroke-linecap="round"/>
<line x1="670.792" y1="160.526" x2="715.742" y2="160.526" stroke="#1F2E54" stroke-width="4" stroke-linecap="round"/>
<line x1="670.791" y1="177.223" x2="715.742" y2="177.223" stroke="#1F2E54" stroke-width="4" stroke-linecap="round"/>
<line x1="745.558" y1="143.828" x2="780.535" y2="143.828" stroke="#1F2E54" stroke-width="4" stroke-linecap="round"/>
<line x1="745.559" y1="160.526" x2="790.509" y2="160.526" stroke="#1F2E54" stroke-width="4" stroke-linecap="round"/>
<line x1="745.558" y1="177.223" x2="790.509" y2="177.223" stroke="#1F2E54" stroke-width="4" stroke-linecap="round"/>
<path fill-rule="evenodd" clip-rule="evenodd" d="M665.416 550.602H629.211C628.45 557.681 622.47 563.044 615.351 563.035H493.661C493.675 569.887 499.226 575.438 506.079 575.453H665.416C672.28 575.45 677.849 569.899 677.875 563.035V554.688C677.875 552.42 676.036 550.582 673.768 550.582L665.416 550.602Z" fill="#FF5B5D" stroke="#1F2E54" stroke-width="4"/>
<path fill-rule="evenodd" clip-rule="evenodd" d="M609.511 469.409C610.577 470.885 611.345 472.556 611.769 474.327L628.92 545.855C629.298 547.407 629.397 549.015 629.212 550.603C628.451 557.681 622.472 563.045 615.352 563.036H491.404C484.96 563.035 479.357 558.615 477.857 552.348L460.737 480.826C459.74 476.677 460.7 472.3 463.342 468.949C465.984 465.598 470.017 463.643 474.284 463.645H598.222C602.345 463.637 606.256 465.468 608.889 468.639L609.511 469.409Z" fill="white" stroke="#1F2E54" stroke-width="4"/>
<ellipse cx="541.96" cy="511.247" rx="13.403" ry="15.0611" transform="rotate(-17.5 541.96 511.247)" fill="#FF5B5D"/>
<path d="M1033.56 63.7184L1031.48 93.2417" stroke="#1F2E54" stroke-width="4" stroke-linecap="round" stroke-linejoin="round"/>
<path d="M1058.85 80.9401L1044.51 98.8653" stroke="#1F2E54" stroke-width="4" stroke-linecap="round" stroke-linejoin="round"/>
<path d="M1080.58 101.173L1053.95 109.244" stroke="#1F2E54" stroke-width="4" stroke-linecap="round" stroke-linejoin="round"/>
<path d="M507.518 20.7864C507.85 18.4028 510.713 17.3608 512.5 18.9734L517.169 23.1875C517.614 23.5897 518.17 23.8489 518.765 23.9318L524.994 24.7997C527.378 25.1318 528.42 27.9944 526.807 29.781L522.593 34.4501C522.191 34.8957 521.932 35.4517 521.849 36.0462L520.981 42.2757C520.649 44.6593 517.786 45.7013 516 44.0887L511.331 39.8746C510.885 39.4724 510.329 39.2131 509.735 39.1303L503.505 38.2624C501.121 37.9303 500.079 35.0676 501.692 33.281L505.906 28.612C506.308 28.1664 506.568 27.6104 506.65 27.0159L507.518 20.7864Z" fill="#FFC452" stroke="#1F2E54" stroke-width="4" stroke-linecap="round"/>
<path d="M1313.55 439.804C1315.47 438.353 1318.23 439.64 1318.35 442.044L1318.67 448.325C1318.7 448.925 1318.91 449.501 1319.27 449.98L1323.07 454.999C1324.52 456.919 1323.23 459.68 1320.83 459.803L1314.54 460.125C1313.94 460.156 1313.37 460.365 1312.89 460.727L1307.87 464.518C1305.95 465.969 1303.19 464.682 1303.07 462.278L1302.74 455.997C1302.71 455.397 1302.5 454.821 1302.14 454.342L1298.35 449.323C1296.9 447.403 1298.19 444.642 1300.59 444.519L1306.87 444.197C1307.47 444.166 1308.05 443.957 1308.53 443.595L1313.55 439.804Z" fill="#FFC452" stroke="#1F2E54" stroke-width="4" stroke-linecap="round"/>
<path d="M1110.87 198.623C1111.2 196.239 1114.07 195.198 1115.85 196.81L1120.52 201.024C1120.97 201.426 1121.52 201.686 1122.12 201.768L1128.35 202.636C1130.73 202.968 1131.77 205.831 1130.16 207.618L1125.95 212.287C1125.54 212.732 1125.28 213.288 1125.2 213.883L1124.33 220.112C1124 222.496 1121.14 223.538 1119.35 221.925L1114.68 217.711C1114.24 217.309 1113.68 217.05 1113.09 216.967L1106.86 216.099C1104.47 215.767 1103.43 212.904 1105.04 211.118L1109.26 206.449C1109.66 206.003 1109.92 205.447 1110 204.853L1110.87 198.623Z" fill="#FFC452" stroke="#1F2E54" stroke-width="4" stroke-linecap="round"/>
<path d="M78.5935 426.525C78.9256 424.141 81.7883 423.099 83.5749 424.712L88.2439 428.926C88.6895 429.328 89.2455 429.587 89.84 429.67L96.0695 430.538C98.4532 430.87 99.4951 433.733 97.8825 435.52L93.6684 440.189C93.2662 440.634 93.007 441.19 92.9241 441.785L92.0562 448.014C91.7241 450.398 88.8615 451.44 87.0749 449.827L82.4058 445.613C81.9602 445.211 81.4042 444.952 80.8097 444.869L74.5802 444.001C72.1966 443.669 71.1547 440.806 72.7672 439.02L76.9813 434.35C77.3835 433.905 77.6428 433.349 77.7256 432.754L78.5935 426.525Z" fill="#FFC452" stroke="#1F2E54" stroke-width="4" stroke-linecap="round"/>
<path d="M1167.74 265.325C1198.49 276.519 1241.58 266.922 1227.5 251.394C1216.06 238.783 1194.62 255.582 1234.21 293.603" stroke="#1F2E54" stroke-width="4" stroke-linecap="round" stroke-linejoin="round"/>
<circle cx="730.5" cy="71.084" r="49.5" stroke="#1F2E54" stroke-width="4"/>
<circle cx="730.5" cy="71.084" r="31.5" stroke="#1F2E54" stroke-width="4"/>
</g>
<defs>
<clipPath id="clip0_2789_42386">
<rect width="1440" height="578" fill="white"/>
</clipPath>
</defs>
</svg>
