<svg width="794" height="722" viewBox="0 0 794 722" fill="none" xmlns="http://www.w3.org/2000/svg">
<g clip-path="url(#clip0_2619_29782)">
<path d="M682.348 284.385L667.687 305.151L667.687 305.151L641.412 342.367C640.517 343.634 638.804 344.01 637.461 343.234L621.606 334.077C620.171 333.248 619.68 331.413 620.509 329.979L655.851 268.781C656.679 267.347 658.513 266.855 659.948 267.683L681.397 280.056C682.926 280.938 683.366 282.943 682.348 284.385Z" fill="white" stroke="#1F2E54" stroke-width="4"/>
<path opacity="0.1" d="M687.143 281.062L669.321 306.305L641.24 290.089L656.619 263.453L687.143 281.062Z" fill="#FF5B5D"/>
<path d="M665.986 246.498L695.305 263.426C696.74 264.254 697.232 266.089 696.403 267.524L684.749 287.71C683.921 289.145 682.086 289.636 680.651 288.808L651.331 271.88C649.896 271.052 649.405 269.217 650.233 267.782L661.887 247.596C662.716 246.161 664.551 245.67 665.986 246.498Z" fill="white" stroke="#1F2E54" stroke-width="4"/>
<path d="M728.914 264.62L706.87 254.665C705.252 253.935 704.619 251.968 705.506 250.432L726.93 213.309C727.818 211.771 729.84 211.336 731.281 212.373L750.909 226.497C752.159 227.397 752.525 229.097 751.756 230.431L732.748 263.385C731.977 264.721 730.32 265.255 728.914 264.62Z" fill="white" stroke="#1F2E54" stroke-width="4"/>
<mask id="path-5-inside-1_2619_29782" fill="white">
<path fill-rule="evenodd" clip-rule="evenodd" d="M581.355 46.2483C580.633 45.47 579.823 44.8169 578.922 44.2966C564.165 35.777 530.711 66.0946 504.201 112.013C477.69 157.931 468.161 202.061 482.917 210.581C484.292 211.375 485.829 211.831 487.508 211.97L625.409 235.786L678.345 258.435L718.106 189.519L672.024 155.024L581.383 46.2002L581.355 46.2483Z"/>
</mask>
<path fill-rule="evenodd" clip-rule="evenodd" d="M581.355 46.2483C580.633 45.47 579.823 44.8169 578.922 44.2966C564.165 35.777 530.711 66.0946 504.201 112.013C477.69 157.931 468.161 202.061 482.917 210.581C484.292 211.375 485.829 211.831 487.508 211.97L625.409 235.786L678.345 258.435L718.106 189.519L672.024 155.024L581.383 46.2002L581.355 46.2483Z" fill="white"/>
<path d="M581.355 46.2483L578.422 48.9681L582.109 52.9435L584.819 48.2482L581.355 46.2483ZM578.922 44.2966L580.922 40.8324L580.922 40.8324L578.922 44.2966ZM504.201 112.013L500.736 110.013L504.201 112.013ZM482.917 210.581L484.917 207.117L484.917 207.117L482.917 210.581ZM487.508 211.97L488.189 208.028L488.013 207.998L487.836 207.983L487.508 211.97ZM625.409 235.786L626.982 232.109L626.552 231.924L626.09 231.845L625.409 235.786ZM678.345 258.435L676.772 262.112L680.036 263.509L681.81 260.434L678.345 258.435ZM718.106 189.519L721.57 191.518L723.344 188.444L720.503 186.317L718.106 189.519ZM672.024 155.024L668.95 157.584L669.251 157.944L669.627 158.226L672.024 155.024ZM581.383 46.2002L584.456 43.6402L580.786 39.2336L577.919 44.2003L581.383 46.2002ZM584.288 43.5284C583.306 42.4695 582.184 41.5613 580.922 40.8324L576.922 47.7607C577.462 48.0724 577.961 48.4705 578.422 48.9681L584.288 43.5284ZM580.922 40.8324C575.661 37.795 569.333 38.5632 563.201 41.1376C556.996 43.7425 550.218 48.4914 543.283 54.7765C529.377 67.3788 514.141 86.7953 500.736 110.013L507.665 114.013C520.771 91.312 535.517 72.6106 548.655 60.7044C555.242 54.7354 561.251 50.6324 566.297 48.5139C571.416 46.365 574.804 46.5383 576.922 47.7607L580.922 40.8324ZM500.736 110.013C487.332 133.23 478.135 156.133 474.174 174.477C472.198 183.626 471.474 191.87 472.321 198.546C473.158 205.144 475.656 211.008 480.917 214.045L484.917 207.117C482.8 205.895 480.956 203.047 480.257 197.54C479.569 192.11 480.117 184.854 481.994 176.166C485.736 158.835 494.558 136.714 507.665 114.013L500.736 110.013ZM480.917 214.045C482.852 215.162 484.97 215.774 487.179 215.956L487.836 207.983C486.689 207.889 485.732 207.588 484.917 207.117L480.917 214.045ZM626.09 231.845L488.189 208.028L486.827 215.911L624.728 239.728L626.09 231.845ZM679.919 254.757L626.982 232.109L623.836 239.464L676.772 262.112L679.919 254.757ZM714.641 187.52L674.88 256.436L681.81 260.434L721.57 191.518L714.641 187.52ZM669.627 158.226L715.709 192.721L720.503 186.317L674.421 151.821L669.627 158.226ZM578.309 48.7602L668.95 157.584L675.097 152.464L584.456 43.6402L578.309 48.7602ZM584.819 48.2482L584.847 48.2001L577.919 44.2003L577.891 44.2484L584.819 48.2482Z" fill="#1F2E54" mask="url(#path-5-inside-1_2619_29782)"/>
<path d="M515.526 200.007C529.363 192.285 547.494 171.921 562.851 145.323C574.204 125.659 581.847 106.386 584.968 91.2715C586.52 83.7575 586.953 77.2713 586.169 72.2757" stroke="#1F2E54" stroke-width="4" stroke-linecap="round"/>
<path d="M552.251 137.847C575.788 97.0813 585.89 58.8511 574.816 52.4575C563.743 46.064 535.686 73.9283 512.149 114.694C488.613 155.46 478.51 193.69 489.584 200.084C500.658 206.477 528.715 178.613 552.251 137.847Z" fill="#FF5B5D"/>
<mask id="mask0_2619_29782" style="mask-type:alpha" maskUnits="userSpaceOnUse" x="485" y="51" width="95" height="150">
<path d="M552.253 137.85C575.79 97.0837 585.892 58.8535 574.818 52.46C563.744 46.0665 535.687 73.9308 512.151 114.697C488.615 155.463 478.512 193.693 489.586 200.086C500.66 206.48 528.717 178.615 552.253 137.85Z" fill="#FF5B5D"/>
</mask>
<g mask="url(#mask0_2619_29782)">
<circle cx="559.895" cy="141.514" r="36.7487" transform="rotate(20 559.895 141.514)" fill="#FFC452" stroke="#1F2E54" stroke-width="4"/>
</g>
<path d="M705.104 273.744C703.819 275.969 701.058 276.858 698.716 275.801L647.523 252.693C644.827 251.476 643.771 248.198 645.249 245.636L691.848 164.911C693.327 162.349 696.694 161.624 699.096 163.35L744.716 196.127C746.803 197.626 747.414 200.462 746.129 202.687L705.104 273.744Z" fill="#FF5B5D" stroke="#1F2E54" stroke-width="4"/>
<path d="M518.29 67.0975L516.782 46.0688" stroke="#1F2E54" stroke-width="4" stroke-linecap="round"/>
<path d="M473.969 147.214L413.445 157.499" stroke="#1F2E54" stroke-width="4" stroke-linecap="round"/>
<path d="M481.227 127.275L447.18 120.329" stroke="#1F2E54" stroke-width="4" stroke-linecap="round"/>
<path d="M503.202 82.2377L476.326 43.9971" stroke="#1F2E54" stroke-width="4" stroke-linecap="round"/>
<path d="M489.201 105.368L440.007 74.1133" stroke="#1F2E54" stroke-width="4" stroke-linecap="round"/>
<path d="M663.092 512.063C688.119 524.758 697.971 672.7 667.197 721.425H633.546L620.524 702.55L626.091 677.227L582.357 621.534L563.884 566.114C581.217 540.115 625.324 492.906 663.092 512.063Z" fill="white"/>
<path d="M225.715 410.014L321.289 399.834C344.617 404.242 336.88 498.788 333.821 520.092L225.715 525.019C225.715 525.019 142.514 537.275 119.293 513.886C96.0719 490.496 101.88 469.256 101.88 469.256C119.67 406.354 155.956 277.546 158.787 265.528C162.326 250.505 151.345 231.421 148.351 222.867C145.357 214.312 158.029 216.411 155.249 213.845C152.469 211.279 150.116 193.314 155.249 190.748C160.381 188.182 170.433 187.754 164.659 176.633C158.885 165.512 177.04 158.688 183.903 160.399C190.767 162.11 190.028 142.656 199.519 127.659C207.978 114.292 247.769 107.693 234.968 132.081C218.382 163.683 222.361 188.395 242.464 190.748C262.567 193.1 240.184 138.817 268.086 141.369C291.521 143.512 287.97 189.144 276.542 228.829C268.133 253.686 252.048 275.115 243.811 285.598C238.835 291.931 229.673 371.181 225.715 410.014Z" fill="white"/>
<path d="M563.246 344.387C586.28 375.761 591.708 412.397 591.543 426.793C564.875 429.267 510.903 485.306 475.38 483.385C434.856 481.195 414.011 419.895 409.355 402.964C400.618 371.193 410.842 341.739 417.046 330.983C414.313 296.729 412.333 158.723 514.101 188.012C615.868 217.301 534.454 305.169 563.246 344.387Z" fill="white" stroke="#1F2E54" stroke-width="4"/>
<ellipse opacity="0.4" cx="473.939" cy="283.766" rx="18.3388" ry="18.7814" transform="rotate(-44.95 473.939 283.766)" fill="#FFC452"/>
<ellipse opacity="0.4" cx="421.184" cy="277.352" rx="18.3474" ry="18.7901" transform="rotate(-44.95 421.184 277.352)" fill="#FFC452"/>
<path fill-rule="evenodd" clip-rule="evenodd" d="M669.296 517.294C681.307 546.881 688.121 580.946 689.162 614.846C689.396 583.984 684.979 549.884 671.014 517.641C666.567 507.398 661.204 497.577 654.993 488.298C654.967 488.228 654.922 488.168 654.862 488.124C635.699 459.483 606.72 434.054 563.915 415.906L528.166 405.491C528.166 405.491 533.825 418.18 525.936 434.601C518.046 451.021 498.614 471.339 477.967 466.548C457.319 461.757 434.624 450.761 438.043 428.464C441.463 406.168 442.938 398.244 442.938 398.244L320.833 399.433C333.921 417.043 352.034 457.513 315.443 522.927L338.174 522.059C338.174 522.059 323.003 664.803 357.398 720.158C357.641 720.6 357.91 721.026 358.179 721.407L552.372 720.6H565.868C565.923 720.456 565.967 720.308 565.998 720.158H519.045C513.688 720.154 508.554 718.018 504.776 714.221C502.466 711.913 500.753 709.077 499.786 705.959C499.186 704.014 498.893 701.988 498.918 699.953C498.937 688.796 507.966 679.752 519.123 679.713H635.283C635.855 679.713 636.463 679.713 637.018 679.783C637.119 679.799 637.222 679.799 637.322 679.783H637.496C637.423 679.796 637.351 679.808 637.279 679.82C637.215 679.83 637.152 679.84 637.088 679.849L637.088 679.849C636.85 679.886 636.613 679.922 636.376 679.982H636.315C636.878 679.995 637.44 679.971 637.999 679.913C638.918 679.855 639.834 679.748 640.742 679.592C641.254 679.514 641.757 679.418 642.261 679.305L642.79 679.21C643.24 679.113 643.689 678.986 644.139 678.859C644.331 678.804 644.524 678.75 644.717 678.698C645.35 678.498 645.958 678.264 646.565 678.03C647.173 677.795 647.78 677.552 648.388 677.249C648.451 677.246 648.511 677.225 648.562 677.188C649.1 676.919 649.638 676.641 650.141 676.372C651.223 675.771 652.261 675.096 653.248 674.35L654.116 673.647C654.886 673.04 655.616 672.385 656.303 671.685C656.947 671.045 657.555 670.37 658.126 669.663L658.218 669.549L658.218 669.549C658.76 668.876 659.299 668.206 659.784 667.467C660.217 666.825 660.651 666.157 660.999 665.48C661.233 665.072 661.467 664.612 661.667 664.195C661.678 664.179 661.69 664.164 661.701 664.149L661.702 664.148C661.758 664.075 661.806 664.013 661.806 663.926C661.981 663.588 662.138 663.24 662.274 662.885C662.693 661.961 663.055 661.014 663.359 660.047C663.628 659.179 663.863 658.259 664.062 657.348C664.166 656.879 664.262 656.402 664.331 655.933C664.47 655.065 664.566 654.197 664.635 653.268C664.635 652.999 664.652 652.722 664.67 652.444C664.687 652.166 664.705 651.888 664.705 651.619C664.71 648.724 664.277 645.845 663.42 643.079C663.307 642.633 663.162 642.195 662.986 641.769C662.846 641.318 662.675 640.877 662.474 640.45C661.03 637.085 658.97 634.021 656.399 631.415C656.089 631.082 655.762 630.766 655.418 630.469C654.426 629.533 653.354 628.685 652.215 627.934C652.07 627.843 651.927 627.747 651.782 627.65C651.553 627.496 651.319 627.34 651.07 627.197C647.934 625.239 644.436 623.931 640.785 623.352C639.369 623.11 637.935 622.985 636.498 622.979L618.419 622.874L591.974 622.744H591.185C590.403 622.675 589.631 622.64 588.815 622.64H584.84C585.109 597.037 580.501 577.674 574.243 563.276L574.243 563.275C574.346 563.074 604.385 503.999 669.296 517.294ZM671.613 720.122C671.613 720.122 673.401 715.166 675.865 706.496C674.205 711.16 672.359 715.702 670.328 720.122H671.613ZM635.282 720.123C636.048 720.123 636.805 720.098 637.561 720.032C637.472 720.04 637.384 720.047 637.303 720.054C636.694 720.104 636.457 720.123 638.962 720.123H635.282Z" fill="#1F2E54"/>
<path d="M448.848 364.294C448.848 364.294 445.915 382.103 442.877 398.229C434.198 398.324 425.519 398.393 416.936 398.463C412.596 374.04 417.309 354.912 422.907 342.162C429.963 358.253 440.621 363.148 448.848 364.294Z" fill="#FFC452"/>
<path d="M591.499 428.551C573.852 419.049 555.043 411.887 535.546 407.244L529.158 406.142C529.158 406.142 524.402 395.328 524.376 395.293C522.145 389.626 518.448 382.101 517.302 376.13C515.907 369.076 515.568 361.855 516.296 354.701C517.545 344.078 522.493 321.608 531.432 314.526C538.887 308.659 541.96 309.892 546.186 300.718C549.224 294.174 550.456 283.178 544.555 278.352C538.011 273.058 535.216 275.748 527.387 276.564C497.636 279.515 480.634 258.104 469.698 233.36C467.962 229.342 466.157 225.098 463.319 221.678C460.064 217.738 455.56 216.852 451.871 213.667C450.3 212.296 449.224 210.057 449.979 208.113C450.424 207.184 451.071 206.366 451.871 205.717C458.842 199.296 467.213 194.586 476.32 191.961C490.725 187.796 505.947 187.321 520.583 190.581C535.858 195.641 549.588 205.223 558.832 219.864C571.581 240.095 574.653 261.081 567.511 281.997C560.194 303.417 552.027 328.577 565.775 349.19C584.079 376.572 595.11 395.831 591.499 428.551Z" fill="#FFC452"/>
<path d="M442.913 398.229C434.234 398.324 425.555 398.393 416.972 398.463C351.567 398.801 288.965 397.89 223.352 409.659" stroke="#1F2E54" stroke-width="4"/>
<path d="M528.125 405.51C530.616 406.057 533.081 406.629 535.546 407.246C545.154 409.568 554.614 412.466 563.874 415.925C573.375 419.46 582.607 423.677 591.499 428.544C591.519 428.526 591.549 428.526 591.569 428.544C605.559 436.124 618.489 445.515 630.025 456.473C639.671 465.872 648.011 476.524 654.821 488.143C654.881 488.187 654.926 488.247 654.952 488.316C660.476 497.59 665.273 507.279 669.298 517.296C681.31 546.882 688.123 580.947 689.164 614.848C690.11 646.865 685.892 678.743 675.911 706.498C674.251 711.162 672.405 715.704 670.374 720.124C670.244 720.463 670.07 720.766 669.94 721.105" stroke="#1F2E54" stroke-width="4"/>
<path d="M565.834 720.67C565.834 720.67 565.834 720.601 565.834 720.566C565.889 720.422 565.933 720.274 565.964 720.123" stroke="#1F2E54" stroke-width="4"/>
<path d="M542.931 525.496C542.931 525.496 561.816 534.67 574.227 563.311C580.468 577.709 585.093 597.072 584.824 622.675V622.744C584.686 639.07 582.533 657.921 577.534 679.644V679.766" stroke="#1F2E54" stroke-width="4"/>
<path d="M185.519 161.899C188.851 149.288 194.198 136.287 198.216 130.819C204.534 122.314 212.779 114.207 223.385 114.936C230.198 115.379 236.89 119.146 237.194 126.61C237.48 134.707 228.94 143.699 226.197 151.31C223.594 158.653 222.404 167.201 223.776 174.926C225.147 182.65 232.082 188.682 239.563 190.34C242.401 191.087 245.419 190.678 247.956 189.203C255.281 184.568 253.744 172.227 253.449 164.945C253.102 156.778 253.111 147.543 260.08 141.954C265.201 137.849 272.968 140.574 276.744 145.087C283.305 152.898 283.626 164.658 283.956 174.275C284.937 203.245 279.79 231.018 262.918 255.406C254.239 267.999 245.3 279.3 241.785 294.748C230.849 342.761 229.634 376.045 223.351 424.803" stroke="#1F2E54" stroke-width="4"/>
<path d="M355.936 720.776C322.4 625.463 338.175 521.982 338.175 521.982L158.033 527.693C142.516 528.184 127.545 521.935 116.982 510.556C106.419 499.178 101.298 483.785 102.939 468.346L147.063 307.437L156.61 273.111C159.654 262.311 158.957 250.798 154.631 240.444L150.136 229.716C150.136 229.716 141.986 213.096 160.255 214.658C170.08 215.526 179.826 219.701 188.071 224.943C194.546 229.065 204.423 237.041 201.368 245.885C197.757 256.3 183.602 258.904 175.287 253.046" stroke="#1F2E54" stroke-width="4"/>
<path d="M154.179 214.571C154.179 214.571 138.748 179.855 181.084 188.838C223.42 197.821 233.557 244.08 201.245 238.873" stroke="#1F2E54" stroke-width="4"/>
<path d="M168.136 186.851C168.136 186.851 154.597 170.405 174.836 162.55C195.076 154.696 268.57 191.79 221.425 228.329" stroke="#1F2E54" stroke-width="4"/>
<path d="M461.002 363.512C457.073 364.59 452.965 364.856 448.93 364.293C440.667 363.148 430.01 358.218 422.988 342.162C421.53 338.88 420.345 335.484 419.447 332.007C415.871 318.72 414.309 300.233 416.401 274.457C416.809 269.501 417.416 264.467 418.258 259.442C419.651 250.7 421.899 242.116 424.967 233.813C424.967 233.813 424.967 233.744 425.036 233.709C432.691 213.469 446.153 196.389 468.787 189.819C485.762 184.922 503.809 185.182 520.636 190.565C535.911 195.625 549.641 205.207 558.884 219.848C571.634 240.079 574.706 261.065 567.563 281.982C560.247 303.401 552.08 328.562 565.827 349.174C584.105 376.6 595.137 395.859 591.595 428.579" stroke="#1F2E54" stroke-width="4"/>
<path d="M410.029 399.479C403.381 367.6 412.355 344.358 419.402 332.008" stroke="#1F2E54" stroke-width="4"/>
<path d="M418.256 259.408C418.256 259.408 432.811 244.193 449.674 268.226" stroke="#1F2E54" stroke-width="4"/>
<path fill-rule="evenodd" clip-rule="evenodd" d="M455.315 336.017C461.469 340.001 469.8 337.528 474.331 331.392C479.252 324.735 481.222 315.847 482.29 307.785C482.359 307.203 482.437 306.63 482.489 306.049C474.982 317.844 460.41 320.673 447.582 321.905C448.068 325.763 449.503 329.439 451.757 332.607C452.722 333.954 453.928 335.11 455.315 336.017V336.017Z" stroke="#1F2E54" stroke-width="4" stroke-linecap="round" stroke-linejoin="round"/>
<path d="M522.153 389.114L522.118 389.08" stroke="#1F2E54" stroke-width="4"/>
<path d="M464.897 254.729C464.897 254.729 469.844 246.719 486.75 252.62C503.657 258.522 503.857 268.165 503.857 268.165" stroke="#1F2E54" stroke-width="4"/>
<path d="M426.466 274.648C426.466 274.648 434.277 270.699 440.396 274.648" stroke="#1F2E54" stroke-width="4"/>
<path d="M468.56 278.284C468.56 278.284 476.371 274.335 482.446 278.284" stroke="#1F2E54" stroke-width="4"/>
<path d="M448.849 364.293C448.849 364.293 445.916 382.102 442.878 398.228C442.435 400.519 442.01 402.776 441.628 405.006C439.641 415.864 438.052 425.515 437.983 428.44C437.48 452.741 460.453 466.758 482.645 466.523C513.786 466.185 531.994 437.214 529.061 408.2C527.143 402.906 525.181 397.612 523.263 392.318C520.798 385.531 517.596 378.926 516.207 371.774C514.981 364.729 514.846 357.537 515.808 350.45C517.058 339.862 519.114 324.075 528.054 316.993C535.509 311.126 543.294 307.272 547.547 298.098C550.585 291.554 550.446 283.127 544.544 278.301C538 273.007 527.646 273.65 519.817 274.422C469.323 279.586 460.922 228.475 447.261 221.298C436.065 215.387 427.664 228.649 425.034 233.57L424.93 233.778C424.926 233.827 424.904 233.873 424.869 233.908C424.392 234.776 424.157 235.358 424.157 235.358" stroke="#1F2E54" stroke-width="4"/>
<path d="M447.558 280.531C447.558 280.531 442.281 297.802 442.689 300.389C443.097 302.975 449.25 301.17 449.25 301.17" stroke="#1F2E54" stroke-width="4"/>
<ellipse cx="473.937" cy="283.767" rx="20.6821" ry="21.1855" transform="rotate(-44.95 473.937 283.767)" stroke="#1F2E54" stroke-width="4"/>
<ellipse cx="421.183" cy="277.352" rx="20.6821" ry="21.1855" transform="rotate(-44.95 421.183 277.352)" stroke="#1F2E54" stroke-width="4"/>
<path fill-rule="evenodd" clip-rule="evenodd" d="M402.851 275.098C403.721 265.886 411.468 258.854 420.721 258.877H420.747C421.501 258.88 422.255 258.927 423.004 259.016C433.169 260.271 440.502 269.368 439.572 279.568C438.701 288.79 430.939 295.825 421.676 295.789C420.922 295.786 420.168 295.739 419.419 295.65C409.255 294.394 401.921 285.298 402.851 275.098ZM432.973 266.644C429.831 263.203 425.38 261.251 420.72 261.273C412.69 261.241 405.961 267.338 405.202 275.333C404.758 279.971 406.298 284.581 409.439 288.022C412.581 291.464 417.033 293.415 421.692 293.394C429.723 293.425 436.452 287.328 437.21 279.334C437.654 274.695 436.115 270.085 432.973 266.644Z" fill="white"/>
<path d="M453.093 281.216L442.019 279.871" stroke="#1F2E54" stroke-width="4"/>
<path d="M637.479 679.713L638.217 679.783C637.818 679.852 637.349 679.922 636.941 680.017H636.316L577.551 679.713H570.911L472.179 679.21C471.806 679.21 471.433 679.21 471.059 679.21C470.97 679.227 470.879 679.227 470.79 679.21C470.79 679.21 470.79 679.21 470.73 679.21C470.108 679.215 469.487 679.172 468.872 679.08C474.153 678.483 479.156 676.403 483.305 673.083C483.956 672.536 484.625 672.015 485.232 671.425L485.302 671.356C485.443 671.241 485.577 671.116 485.701 670.982C490.719 666.02 493.723 659.376 494.137 652.331C494.137 651.993 494.137 651.619 494.137 651.281V650.743C494.075 637.186 484.516 625.529 471.233 622.814C471.213 622.796 471.183 622.796 471.163 622.814C470.521 622.649 469.783 622.545 469.107 622.441L470.556 622.345C470.793 622.328 471.031 622.328 471.268 622.345H472.413L555.827 622.779L571.18 622.849L584.807 622.918H591.151H591.923H592.192C606.764 624.386 617.867 636.635 617.9 651.281C617.899 652.626 617.797 653.969 617.596 655.299C615.566 668.933 604.093 679.175 590.318 679.653C590.014 679.653 589.71 679.653 589.45 679.653H639.007C638.287 679.679 637.818 679.679 637.479 679.713V679.713Z" fill="white"/>
<path d="M504.767 714.205C508.553 718.011 513.702 720.149 519.07 720.142H470.659C461.39 720.142 456.356 717.885 452.685 714.205C448.892 710.41 446.757 705.267 446.748 699.902C446.748 688.81 455.852 679.697 470.659 679.697H519.07C510.888 679.684 503.506 684.607 500.373 692.166C497.24 699.724 498.975 708.426 504.767 714.205Z" fill="#FF8A1D"/>
<path d="M664.803 651.689C664.803 652.227 664.803 652.8 664.733 653.338C664.664 654.249 664.568 655.126 664.429 656.002C664.36 656.471 664.264 656.948 664.16 657.417C663.961 658.285 663.726 659.239 663.457 660.116C663.153 661.083 662.791 662.031 662.372 662.954C662.236 663.31 662.079 663.657 661.904 663.996C661.904 664.1 661.834 664.169 661.765 664.265C661.565 664.707 661.331 665.132 661.097 665.549C660.723 666.226 660.315 666.894 659.882 667.537C659.369 668.318 658.797 669.021 658.224 669.732C657.653 670.439 657.045 671.114 656.401 671.755C655.714 672.454 654.984 673.109 654.214 673.716L653.346 674.419C652.359 675.165 651.321 675.841 650.239 676.441C649.736 676.71 649.198 676.988 648.66 677.257C648.609 677.294 648.549 677.315 648.486 677.318C647.878 677.622 647.271 677.865 646.663 678.099C646.056 678.333 645.448 678.568 644.815 678.767C644.172 678.941 643.53 679.14 642.888 679.279C641.312 679.64 639.71 679.875 638.097 679.982C637.759 679.982 637.429 679.982 637.09 679.982H636.544C636.917 679.887 637.29 679.852 637.663 679.783C637.705 679.767 637.751 679.767 637.793 679.783C637.624 679.778 637.455 679.755 637.29 679.713C637.402 679.696 637.516 679.696 637.629 679.713H639.113H589.451H590.319C596.427 679.386 602.267 677.101 606.974 673.195C607.684 672.616 608.362 671.999 609.005 671.347C609.543 670.824 610.05 670.27 610.524 669.689C610.886 669.286 611.223 668.859 611.531 668.413C611.73 668.17 611.904 667.936 612.069 667.701C612.39 667.271 612.68 666.819 612.937 666.348C613.331 665.797 613.683 665.217 613.987 664.612C614.311 664.033 614.601 663.436 614.855 662.824C614.985 662.555 615.089 662.251 615.263 661.956C615.497 661.348 615.697 660.741 615.896 660.133C616.174 659.265 616.443 658.345 616.643 657.443C616.764 656.954 616.854 656.459 616.912 655.959C616.951 655.838 616.974 655.712 616.981 655.586C617.02 655.488 617.043 655.386 617.051 655.282C617.051 654.943 617.146 654.64 617.181 654.301C617.181 654.232 617.181 654.171 617.181 654.101C617.308 653.161 617.366 652.212 617.354 651.263C617.366 650.825 617.343 650.387 617.285 649.953V649.649C617.285 649.219 617.25 648.789 617.181 648.365C616.952 646.023 616.418 643.721 615.592 641.517C615.136 640.195 614.555 638.919 613.857 637.707C613.22 636.486 612.476 635.325 611.635 634.235C611.417 633.917 611.179 633.613 610.923 633.324C610.819 633.22 610.724 633.081 610.585 632.951C610.135 632.36 609.639 631.805 609.101 631.293C608.701 630.894 608.233 630.486 607.825 630.052C607.417 629.618 606.74 629.106 606.167 628.698C605.594 628.29 605.221 627.995 604.718 627.656C603.97 627.113 603.18 626.628 602.357 626.207C601.59 625.76 600.789 625.374 599.962 625.053C599.003 624.642 598.024 624.283 597.028 623.977C596.688 623.851 596.336 623.76 595.978 623.708C595.049 623.443 594.104 623.24 593.149 623.1C592.671 622.996 592.203 622.961 591.699 622.9H591.63C591.564 622.918 591.496 622.918 591.43 622.9H591.933L618.378 623.031L636.457 623.135C637.894 623.141 639.328 623.266 640.744 623.508C644.42 624.078 647.942 625.386 651.098 627.353C651.506 627.587 651.871 627.856 652.244 628.09C653.383 628.841 654.455 629.689 655.447 630.625C655.79 630.922 656.118 631.238 656.427 631.571C658.998 634.177 661.059 637.241 662.503 640.606C662.703 641.033 662.874 641.474 663.015 641.925C663.19 642.351 663.335 642.789 663.449 643.235C664.321 645.969 664.777 648.819 664.803 651.689V651.689Z" fill="#FFC452"/>
<path fill-rule="evenodd" clip-rule="evenodd" d="M664.805 651.69C664.805 652.228 664.805 652.801 664.735 653.339C664.666 654.25 664.57 655.127 664.432 656.003C664.362 656.472 664.267 656.949 664.163 657.418C663.963 658.286 663.729 659.241 663.46 660.117C663.155 661.084 662.793 662.032 662.375 662.955C662.24 663.318 662.072 663.666 661.871 663.997C661.871 664.101 661.802 664.17 661.732 664.266C661.533 664.708 661.298 665.134 661.064 665.55C660.691 666.227 660.283 666.895 659.849 667.538C659.337 668.319 658.764 669.022 658.191 669.733C657.609 670.44 656.989 671.115 656.334 671.756C655.647 672.455 654.917 673.11 654.147 673.717L653.279 674.42C652.292 675.166 651.254 675.842 650.172 676.442C649.669 676.711 649.131 676.989 648.592 677.258C648.542 677.295 648.481 677.317 648.419 677.319C647.811 677.623 647.204 677.866 646.596 678.1C645.989 678.334 645.381 678.569 644.748 678.768C644.105 678.942 643.463 679.142 642.821 679.28L642.291 679.376C641.788 679.489 641.285 679.584 640.773 679.662C639.865 679.818 638.949 679.926 638.03 679.983C637.471 680.042 636.908 680.065 636.346 680.053C636.346 680.053 636.242 680.053 636.207 680.053L577.537 679.766L563.712 679.697L471.558 679.228C471.218 679.222 470.879 679.199 470.542 679.159C469.77 679.159 469.024 679.089 468.251 679.029C482.028 677.386 492.661 666.129 493.516 652.28C493.516 651.941 493.516 651.568 493.516 651.195V650.831C493.532 637.197 483.937 625.442 470.577 622.728C469.9 622.589 469.223 622.494 468.52 622.389C469.192 622.311 469.867 622.268 470.542 622.259C470.779 622.242 471.017 622.242 471.254 622.259H471.827L563.981 622.728L584.81 622.832H591.623H592.196L636.459 623.066C637.912 623.072 639.362 623.185 640.799 623.405C644.466 624.007 647.982 625.312 651.153 627.25C651.561 627.484 651.925 627.753 652.298 627.987C653.423 628.757 654.493 629.604 655.501 630.522C655.839 630.825 656.143 631.129 656.482 631.468C659.053 634.074 661.113 637.138 662.557 640.503L663.069 641.822C663.24 642.25 663.384 642.687 663.503 643.132C664.368 645.902 664.807 648.788 664.805 651.69V651.69Z" stroke="#1F2E54" stroke-width="4" stroke-linecap="square" stroke-linejoin="round"/>
<path fill-rule="evenodd" clip-rule="evenodd" d="M617.311 651.177C617.317 652.125 617.271 653.073 617.173 654.015V654.215C617.103 654.658 617.042 655.083 616.973 655.5C616.966 655.626 616.943 655.752 616.904 655.873C616.846 656.373 616.756 656.868 616.635 657.357C616.435 658.225 616.166 659.171 615.888 660.047C615.689 660.655 615.489 661.262 615.255 661.87C615.081 662.174 614.977 662.477 614.847 662.738C614.592 663.35 614.303 663.947 613.979 664.526C613.674 665.131 613.323 665.711 612.929 666.261C612.672 666.733 612.382 667.185 612.061 667.615C611.896 667.85 611.722 668.084 611.523 668.327C611.215 668.773 610.878 669.2 610.516 669.603C610.042 670.184 609.534 670.737 608.997 671.261C608.351 671.899 607.673 672.504 606.966 673.075C602.269 677 596.432 679.307 590.32 679.653C590.016 679.653 589.712 679.653 589.452 679.653H471.686C470.61 679.653 469.499 679.592 468.38 679.488C469.106 679.401 469.827 679.277 470.541 679.115C470.597 679.135 470.658 679.135 470.714 679.115H470.775C476.247 677.974 481.267 675.259 485.217 671.304L485.286 671.235C490.31 666.158 493.246 659.382 493.514 652.245C493.514 651.906 493.514 651.533 493.514 651.16V651.125C493.402 636.735 482.629 624.662 468.345 622.918C469.091 622.823 469.829 622.788 470.575 622.754C470.765 622.719 470.959 622.719 471.148 622.754C471.168 622.736 471.198 622.736 471.218 622.754C471.362 622.736 471.507 622.736 471.652 622.754H588.801C589.617 622.754 590.389 622.754 591.17 622.858H591.439C591.505 622.875 591.574 622.875 591.639 622.858H591.778L593.158 623.057C594.113 623.197 595.058 623.4 595.987 623.665C596.326 623.734 596.699 623.83 597.037 623.934C598.034 624.241 599.013 624.6 599.971 625.01C600.778 625.349 601.594 625.757 602.366 626.164C603.182 626.598 603.971 627.082 604.727 627.614C605.23 627.952 605.708 628.282 606.176 628.655C606.645 629.029 607.287 629.523 607.834 630.009C608.381 630.495 608.702 630.877 609.11 631.25C609.622 631.797 610.125 632.335 610.594 632.908C610.733 633.038 610.828 633.177 610.932 633.281L611.644 634.193C612.457 635.302 613.199 636.461 613.866 637.664C614.521 638.898 615.101 640.17 615.602 641.474C616.398 643.687 616.931 645.985 617.19 648.322C617.19 648.765 617.259 649.19 617.294 649.606V649.91C617.312 650.301 617.311 650.743 617.311 651.177V651.177Z" stroke="#1F2E54" stroke-width="4" stroke-linecap="square" stroke-linejoin="round"/>
<path fill-rule="evenodd" clip-rule="evenodd" d="M638.966 720.123H470.645C466.894 720.224 463.153 719.69 459.58 718.544C458.868 718.275 458.2 718.006 457.558 717.676C456.915 717.337 456.342 716.999 455.77 716.66C455.197 716.322 454.693 715.888 454.181 715.48C453.678 715.037 453.209 714.612 452.767 714.161C450.457 711.853 448.744 709.017 447.776 705.898C447.162 703.956 446.854 701.93 446.865 699.893C446.859 699.103 446.905 698.315 447.004 697.532C447.132 696.432 447.367 695.348 447.707 694.295C448.177 692.629 448.906 691.047 449.868 689.608C450.417 688.668 451.073 687.795 451.821 687.004C452.28 686.493 452.767 686.006 453.279 685.546C457.393 681.875 463.364 679.61 470.75 679.61H638.966C638.289 679.61 637.821 679.61 637.482 679.61C637.37 679.592 637.256 679.592 637.144 679.61C636.805 679.61 636.875 679.61 637.04 679.61C637.059 679.627 637.089 679.627 637.109 679.61C637.186 679.626 637.266 679.626 637.343 679.61H637.517C637.144 679.679 636.771 679.714 636.397 679.809H636.319C636.319 679.809 636.215 679.809 636.18 679.809C626.695 681.696 619.853 690.005 619.82 699.676C619.876 709.908 627.511 718.513 637.665 719.785C636.84 720.097 636.068 720.123 638.966 720.123V720.123Z" stroke="#1F2E54" stroke-width="4" stroke-linecap="square" stroke-linejoin="round"/>
<path fill-rule="evenodd" clip-rule="evenodd" d="M637.613 720.027C636.841 720.097 636.068 720.123 635.287 720.123H519.049C513.693 720.12 508.559 717.984 504.781 714.186C502.471 711.879 500.758 709.043 499.79 705.924C499.191 703.979 498.898 701.953 498.922 699.918C498.941 688.762 507.971 679.717 519.127 679.679H635.287C635.86 679.679 636.468 679.679 637.023 679.748C637.124 679.765 637.226 679.765 637.327 679.748H637.5C637.127 679.818 636.754 679.852 636.381 679.948H636.32C636.32 679.948 636.216 679.948 636.181 679.948C626.696 681.835 619.854 690.143 619.821 699.814C619.877 710.046 627.512 718.651 637.665 719.923L637.613 720.027Z" fill="white" stroke="#1F2E54" stroke-width="4" stroke-linecap="square" stroke-linejoin="round"/>
<path fill-rule="evenodd" clip-rule="evenodd" d="M498.844 699.918C498.844 711.077 507.89 720.123 519.048 720.123H470.646C461.402 720.123 456.343 717.866 452.663 714.186C448.875 710.405 446.751 705.27 446.761 699.918C446.761 688.792 455.839 679.679 470.646 679.679H519.048C507.892 679.717 498.863 688.762 498.844 699.918V699.918Z" stroke="#1F2E54" stroke-width="4" stroke-linecap="square" stroke-linejoin="round"/>
<path fill-rule="evenodd" clip-rule="evenodd" d="M638.967 720.123H635.287C636.068 720.123 636.841 720.123 637.613 720.028C636.841 720.097 636.068 720.123 638.967 720.123V720.123Z" stroke="#1F2E54" stroke-width="4" stroke-linecap="square" stroke-linejoin="round"/>
<path fill-rule="evenodd" clip-rule="evenodd" d="M637.344 679.766C636.676 679.766 635.964 679.662 635.287 679.662H638.967C636.398 679.68 636.702 679.766 637.344 679.766Z" stroke="#1F2E54" stroke-width="4" stroke-linecap="square" stroke-linejoin="round"/>
<path fill-rule="evenodd" clip-rule="evenodd" d="M373.497 674.65H308.247C306.875 687.407 296.099 697.074 283.268 697.057H63.9552C63.9806 709.406 73.9852 719.411 86.3343 719.436H373.497C385.866 719.431 395.904 709.427 395.95 697.057V682.014C395.95 677.927 392.636 674.613 388.549 674.613L373.497 674.65Z" fill="white" stroke="#1F2E54" stroke-width="4"/>
<path fill-rule="evenodd" clip-rule="evenodd" d="M272.74 528.322C274.663 530.982 276.046 533.993 276.811 537.185L307.72 666.093C308.403 668.892 308.581 671.79 308.247 674.651C306.875 687.408 296.099 697.075 283.269 697.058H59.8849C48.2716 697.056 38.1749 689.09 35.4705 677.796L4.61718 548.897C2.81998 541.419 4.55014 533.531 9.3118 527.491C14.0735 521.452 21.341 517.929 29.0316 517.933H252.397C259.826 517.918 266.875 521.218 271.621 526.934L272.74 528.322Z" fill="#FF5B5D" stroke="#1F2E54" stroke-width="4"/>
<ellipse cx="150.999" cy="612.487" rx="24.1553" ry="27.1435" transform="rotate(-17.5 150.999 612.487)" fill="white"/>
<rect x="129.114" y="14.8828" width="200.345" height="134.783" rx="8" fill="#FFC452" stroke="#1F2E54" stroke-width="4"/>
<mask id="mask1_2619_29782" style="mask-type:alpha" maskUnits="userSpaceOnUse" x="127" y="12" width="205" height="140">
<rect x="129.233" y="14.8105" width="200.226" height="134.555" rx="5" fill="#FF5B5D" stroke="#1F2E54" stroke-width="4"/>
</mask>
<g mask="url(#mask1_2619_29782)">
<path d="M131.022 18.4434L224.177 92.3112C227.851 95.2242 233.055 95.194 236.694 92.2384L327.565 18.4434" stroke="#1F2E54" stroke-width="4"/>
</g>
<path d="M39.2951 381.944C40.0361 379.654 43.0362 379.125 44.5157 381.023L51.0526 389.411C51.4216 389.884 51.9241 390.236 52.4952 390.421L62.6126 393.695C64.9024 394.436 65.4314 397.436 63.5332 398.915L55.1456 405.452C54.6722 405.821 54.3203 406.324 54.1355 406.895L50.8615 417.012C50.1205 419.302 47.1204 419.831 45.641 417.933L39.1041 409.545C38.7351 409.072 38.2326 408.72 37.6615 408.535L27.544 405.261C25.2542 404.52 24.7252 401.52 26.6235 400.041L35.011 393.504C35.4845 393.135 35.8363 392.632 36.0211 392.061L39.2951 381.944Z" stroke="#1F2E54" stroke-width="4" stroke-linecap="round"/>
<path d="M327.35 289.295C328.091 287.005 331.091 286.476 332.57 288.375L339.107 296.762C339.476 297.236 339.979 297.587 340.55 297.772L350.667 301.046C352.957 301.787 353.486 304.787 351.588 306.267L343.2 312.804C342.727 313.173 342.375 313.675 342.19 314.246L338.916 324.364C338.175 326.654 335.175 327.183 333.696 325.284L327.159 316.897C326.79 316.423 326.287 316.072 325.716 315.887L315.599 312.613C313.309 311.872 312.78 308.872 314.678 307.392L323.066 300.855C323.539 300.486 323.891 299.984 324.076 299.413L327.35 289.295Z" stroke="#1F2E54" stroke-width="4" stroke-linecap="round"/>
<path d="M401.094 15.2152C403.134 13.9374 405.772 15.4606 405.685 17.8657L405.301 28.4928C405.279 29.0926 405.438 29.6852 405.757 30.1938L411.403 39.2052C412.681 41.2447 411.157 43.8829 408.752 43.7961L398.125 43.4123C397.525 43.3906 396.933 43.5494 396.424 43.8681L387.413 49.514C385.373 50.7918 382.735 49.2686 382.822 46.8635L383.206 36.2364C383.227 35.6366 383.069 35.044 382.75 34.5353L377.104 25.5239C375.826 23.4845 377.349 20.8462 379.755 20.9331L390.382 21.3169C390.981 21.3385 391.574 21.1798 392.083 20.8611L401.094 15.2152Z" stroke="#1F2E54" stroke-width="4" stroke-linecap="round"/>
<path d="M723.602 411.429C725.641 410.151 728.28 411.674 728.193 414.079L727.809 424.706C727.787 425.306 727.946 425.899 728.265 426.407L733.911 435.419C735.188 437.458 733.665 440.096 731.26 440.009L720.633 439.626C720.033 439.604 719.441 439.763 718.932 440.081L709.921 445.727C707.881 447.005 705.243 445.482 705.33 443.077L705.714 432.45C705.735 431.85 705.576 431.257 705.258 430.749L699.612 421.737C698.334 419.698 699.857 417.06 702.262 417.146L712.889 417.53C713.489 417.552 714.082 417.393 714.59 417.074L723.602 411.429Z" stroke="#1F2E54" stroke-width="4" stroke-linecap="round"/>
</g>
<defs>
<clipPath id="clip0_2619_29782">
<rect width="794" height="722" fill="white"/>
</clipPath>
</defs>
</svg>
