<svg width="62" height="62" viewBox="0 0 62 62" fill="none" xmlns="http://www.w3.org/2000/svg">
<rect width="62" height="62" fill="#016BFF"/>
<mask id="mask0_2624_30793" style="mask-type:alpha" maskUnits="userSpaceOnUse" x="0" y="0" width="62" height="62">
<rect width="62" height="62" fill="#FF5B5D"/>
</mask>
<g mask="url(#mask0_2624_30793)">
<path d="M42.194 43.8949C42.5864 53.6171 57.2594 59.275 64.175 60.4619L70.5685 70.8852H-3.05469L-0.428388 61.3862C7.14244 57.9422 22.1858 50.1378 22.9696 49.4253C23.7534 48.7127 24.0298 44.4849 24.6533 42.9767C19.4873 39.0758 21.984 33.5443 20.7393 32.3943C19.4162 31.172 19.3448 27.8073 19.2558 25.6697C19.1667 23.532 23.3754 25.6455 23.107 23.4065C22.8431 21.205 25.5242 19.5 23.8318 19.5891C22.1395 19.6782 16.9397 17.8009 18.5165 12.8241C20.0627 7.94364 22.3054 10.7748 23.107 9.97318C23.9086 9.17156 23.772 4.51273 25.9097 4.51273C44.5134 4.51273 45.1236 16.9171 45.4799 19.5891C45.8361 22.2612 44.7587 25.0665 47.0745 26.4025C49.3903 27.7385 45.389 34.1869 44.3201 34.8104C43.4651 35.3092 42.4647 40.9497 42.194 43.8949Z" fill="white"/>
<path fill-rule="evenodd" clip-rule="evenodd" d="M65.8916 61.7706C65.8916 61.7706 56.5134 56.7171 50.4653 55.4951C50.4653 55.4951 50.4235 56.3978 49.4172 58.6262C48.4108 60.8545 45.4419 67.4393 45.4419 67.4393L40.9852 64.0541L41.0521 69.1009L28.8254 82.1601L21.0973 65.2427L22.127 60.4834L17.7238 62.1701L15.3717 53.7783C15.3717 53.7783 3.77699 56.3861 -6.20963 64.4219C-16.1962 72.4577 -19.0565 84.9836 -19.9843 95.7241C-20.912 106.465 -19.797 117.79 -5.60782 121.617C-5.60782 121.617 1.05884 123.288 6.48678 121.052C8.17852 120.353 10.6359 119.701 13.2136 119.129L13.13 119.159C13.13 119.159 11.9599 123.22 8.56969 125.43C8.56969 125.43 14.5092 129.943 24.6579 131.911C34.8067 133.879 56.2527 135.055 67.0617 125.677C77.8708 116.299 78.3121 100.838 78.3121 100.838C78.3121 100.838 81.8227 70.9866 65.8916 61.7706ZM10.3555 88.153C9.32849 88.1191 8.51956 87.2659 8.54043 86.2386C8.5613 85.2113 9.40421 84.3916 10.4317 84.3995C11.4592 84.4073 12.2895 85.2398 12.2946 86.2673C12.2763 87.322 11.4102 88.1642 10.3555 88.153ZM51.5122 105.661C51.5348 105.541 51.5536 105.441 51.5689 105.364C51.8219 104.097 50.1005 103.313 45.6926 101.305C45.0624 101.018 44.3772 100.706 43.6351 100.364C37.7023 97.6288 25.2584 101.419 25.2584 101.419C25.2584 101.419 19.7468 110.561 25.2216 116.975C27.8428 116.741 29.7351 116.669 29.7351 116.669C34.437 116.181 37.6867 116.624 40.2693 116.975C42.5099 117.281 44.2483 117.517 45.9972 117.019C49.5595 116.003 51.1146 107.767 51.5122 105.661Z" fill="#7A97FF"/>
<path d="M34.2927 60.6447L31.2536 64.06C31.0522 64.2219 30.7932 64.2943 30.537 64.2601C30.2809 64.226 30.0498 64.0884 29.8978 63.8794L27.7598 59.279L31.9222 55.9707L34.2927 60.6447Z" fill="#016BFF"/>
<path d="M45.1656 25.7219C44.4969 25.8724 43.9118 26.3906 43.4655 26.9439C43.0505 27.4629 42.6992 28.0297 42.419 28.6323C42.419 28.6323 41.0081 22.6143 40.413 17.3936C40.2141 15.6952 39.619 14.7858 38.8951 14.3277C37.4023 13.3816 35.3846 14.3929 35.3846 14.3929L28.6812 18.0439C27.3951 18.7525 25.9794 19.1949 24.5187 19.3445C23.8361 19.423 23.1468 19.423 22.4642 19.3445C18.7714 17.519 18.718 10.3174 23.2047 10.2672C23.3397 10.3933 23.4665 10.5278 23.5842 10.6701C23.5196 10.5375 23.4594 10.4054 23.4037 10.2739C23.6546 10.2816 23.9045 10.3095 24.1509 10.3575C24.5187 10.4294 24.8614 10.8089 25.0904 11.0747C23.8985 8.76106 25.169 5.84565 27.5177 4.96133C28.9453 4.42472 30.5417 4.52669 32.0312 4.84097C32.2669 4.88778 32.5009 4.94294 32.7367 5.00814C36.4712 6.13485 39.741 8.09239 42.1566 11.3605C45.2141 15.4946 45.978 20.7286 45.1656 25.7219V25.7219Z" fill="#1F2E54"/>
<path d="M15.371 53.7764C6.09818 56.0582 -4.84129 61.5931 -10.8593 69.1057C-18.738 78.9268 -20.3879 91.9859 -20.209 104.211C-20.0419 116.155 -7.526 124.405 3.83473 121.824" stroke="#1F2E54" stroke-width="1.2" stroke-linejoin="round"/>
<path d="M20.174 49.315H20.1807" stroke="#1F2E54" stroke-width="1.2" stroke-linejoin="round"/>
<path d="M52.6961 88.9192C52.6961 88.9192 53.0304 96.8246 51.6931 104.658C51.0862 108.234 50.1317 111.794 48.6422 114.583C47.8283 116.082 46.2725 117.03 44.5667 117.065C43.0393 117.093 41.5116 117.032 39.9913 116.883C26.8887 115.653 14.6085 118.352 5.65333 121.32C5.05153 121.517 4.44638 121.684 3.83789 121.821C9.4865 126.947 24.0184 136.422 51.4941 132.313C88.4382 126.796 76.8919 78.0115 76.8919 78.0115C75.8889 72.7557 72.7562 67.8761 68.9899 64.18C64.7238 60.0008 56.4523 57.2376 50.8288 55.4873" stroke="#1F2E54" stroke-width="1.2" stroke-linejoin="round"/>
<path d="M31.0684 46.3031C31.0684 46.3031 19.828 44.297 21.3342 31.0406C22.0029 25.1429 23.2917 21.5355 24.5104 19.3389" stroke="#1F2E54" stroke-width="1.2" stroke-linejoin="round"/>
<path d="M41.7132 42.8158C43.7894 39.7132 43.4718 35.5941 44.1237 34.5577C45.1267 32.9495 49.1387 27.9328 46.7315 26.1258C46.1765 25.7095 45.6466 25.6242 45.1652 25.7212C43.5453 26.0823 42.4186 28.6316 42.4186 28.6316C42.4186 28.6316 41.0094 22.6136 40.4126 17.3912C39.8158 12.1689 35.3825 14.3922 35.3825 14.3922L28.6791 18.0415C27.3935 18.7516 25.9777 19.1946 24.5166 19.3437C23.7521 19.4338 22.9793 19.4276 22.2164 19.3254C17.0342 18.6567 16.6998 8.8456 22.6443 9.96396C23.0121 10.0358 23.3548 10.4153 23.5838 10.6811C22.3902 8.3675 23.6624 5.45209 26.0111 4.56778C27.4387 4.03117 29.0351 4.13314 30.5246 4.44742C35.1752 5.42869 39.2758 7.45644 42.1561 11.3615C45.2153 15.4989 45.9809 20.7329 45.1652 25.7262" stroke="#1F2E54" stroke-width="1.2" stroke-linejoin="round"/>
<path d="M29.6638 33.8521H27.2549L27.412 31.943L28.0556 24.2148" stroke="#1F2E54" stroke-width="1.2" stroke-linejoin="round"/>
<path d="M27.4077 31.9443H20.7912C19.8144 31.9443 19.0226 31.1524 19.0226 30.1756V24.2178H30.2061V30.1756C30.207 31.1527 30.9993 31.9443 31.9764 31.9443H38.5377C39.5148 31.9443 40.3071 31.1527 40.308 30.1756V24.2178H30.2061" stroke="#1F2E54" stroke-width="1.2" stroke-linejoin="round"/>
<path d="M29.6641 36.1569C29.6641 36.1569 31.3708 36.7587 33.2782 33.8467" stroke="#1F2E54" stroke-width="1.2" stroke-linejoin="round"/>
<path d="M28.7567 82.7454L41.2141 68.9206L40.9867 64.0527L45.2947 67.7655L50.8296 55.4937L50.8446 55.4619C49.4912 54.6644 48.2283 53.7221 47.0783 52.6518C46.549 52.1548 46.0475 51.6354 45.5738 51.0938C45.015 50.4595 44.4936 49.793 44.0125 49.0978L43.623 48.5479" stroke="#1F2E54" stroke-width="1.2" stroke-linejoin="round"/>
<path d="M36.9275 63.5746L34.3631 60.0423L31.6283 56.4382L37.3688 52.9644L43.6276 48.5479L45.5684 51.0938L46.2203 51.9514L44.6373 53.9791L32.2752 69.8467V69.8534L29.9365 72.7605" stroke="#1F2E54" stroke-width="1.2" stroke-linejoin="round"/>
<path d="M24.9383 61.5652L31.6251 56.4431L23.4104 48.2335L20.2978 51.169L29.935 72.7654L28.7565 82.747L21.0985 65.2429L22.1232 60.4853L17.72 62.167L15.164 53.8637C18.1018 52.7301 20.7581 50.9716 22.949 48.71L23.4138 48.2285" stroke="#1F2E54" stroke-width="1.2" stroke-linejoin="round"/>
<path d="M34.3631 60.6451L31.319 64.0603C31.1179 64.2222 30.8592 64.2945 30.6033 64.2604C30.3474 64.2262 30.1166 64.0887 29.9649 63.8798L27.8252 59.2793" stroke="#1F2E54" stroke-width="1.2" stroke-linejoin="round"/>
<path d="M43.6233 48.5484L41.7142 42.8096C41.1946 43.5378 40.5248 44.1461 39.75 44.5933" stroke="#1F2E54" stroke-width="1.2" stroke-linejoin="round"/>
<path d="M24.7263 42.8096L23.4141 48.2292" stroke="#1F2E54" stroke-width="1.2" stroke-linejoin="round"/>
<circle cx="33.8002" cy="28.1557" r="0.879303" fill="#1F2E54"/>
<circle cx="26.1322" cy="28.1557" r="0.879303" fill="#1F2E54"/>
<path d="M50.6821 55.5479C50.6821 55.5479 56.5965 57.818 51.2839 66.9972C49.6123 69.8758 48.7062 71.5809 48.2432 72.5572" stroke="#1F2E54" stroke-width="1.2" stroke-linejoin="round"/>
<path d="M13.1312 54.4141C13.1312 54.4141 9.77114 65.4471 10.4565 81.8781" stroke="#1F2E54" stroke-width="1.2" stroke-linejoin="round"/>
</g>
</svg>
