<svg width="62" height="62" viewBox="0 0 62 62" fill="none" xmlns="http://www.w3.org/2000/svg">
<rect width="62" height="62" fill="#6B2EFF"/>
<mask id="mask0_2624_30794" style="mask-type:alpha" maskUnits="userSpaceOnUse" x="0" y="0" width="62" height="62">
<rect width="62" height="62" fill="#6B2EFF"/>
</mask>
<g mask="url(#mask0_2624_30794)">
<path d="M1.08879 52.0495H14.8359C14.9258 47.9592 15.2715 40.2546 16.3812 39.2143C17.7683 37.9138 15.886 30.4154 15.886 29.8085C15.886 29.2016 16.3812 24.6321 16.3812 24.6321C16.3812 24.6321 18.0619 18.7714 17.2527 20.4474C18.6601 13.1759 25.0581 6.0029 28.9223 5.61121C37.6012 4.73147 51.9351 8.44048 49.5959 25.0376C48.3897 33.5959 47.8648 35.6269 47.6392 35.7605C48.6452 39.5635 54.0913 54.0878 54.8996 58.331C55.7907 63.0094 96.2886 65.4724 56.3908 65.5838C24.4725 65.6729 5.6643 64.804 0.25 64.3585L1.08879 52.0495Z" fill="white"/>
<ellipse opacity="0.7" cx="29.1039" cy="26.8643" rx="4.05587" ry="4.15376" transform="rotate(-44.95 29.1039 26.8643)" fill="#6B2EFF"/>
<ellipse opacity="0.7" cx="17.4357" cy="25.4464" rx="4.05779" ry="4.15568" transform="rotate(-44.95 17.4357 25.4464)" fill="#6B2EFF"/>
<path fill-rule="evenodd" clip-rule="evenodd" d="M72.3101 78.5132C74.9666 85.0567 76.4734 92.5907 76.7038 100.088C76.7556 93.2625 75.7786 85.7208 72.6901 78.5899C71.7065 76.3246 70.5206 74.1525 69.1468 72.1002C69.1411 72.0849 69.1311 72.0715 69.118 72.0618C64.8798 65.7275 58.4706 60.1034 49.0037 56.0897L41.0973 53.7864C41.0973 53.7864 42.3489 56.5926 40.604 60.2243C38.8592 63.856 34.5615 68.3495 29.995 67.2899C25.4286 66.2304 20.4091 63.7984 21.1654 58.8672C21.9217 53.9361 22.248 52.1836 22.248 52.1836L-4.75722 52.4466C-1.86264 56.3412 2.14333 65.2918 -5.94922 79.7589L-0.922089 79.567C-0.922089 79.567 -4.27735 111.137 3.32957 123.379C3.38332 123.477 3.44282 123.571 3.50232 123.656L46.4508 123.477H49.4356C49.4478 123.445 49.4574 123.413 49.4644 123.379H39.08C37.8954 123.378 36.7598 122.906 35.9243 122.066C35.4135 121.556 35.0346 120.929 34.8206 120.239C34.688 119.809 34.6232 119.361 34.6287 118.911C34.6329 116.443 36.6298 114.443 39.0972 114.434H64.7876C64.9143 114.434 65.0487 114.434 65.1715 114.45C65.181 114.451 65.1906 114.452 65.2001 114.452C65.213 114.453 65.2259 114.452 65.2387 114.45H65.2771C65.2471 114.455 65.217 114.46 65.187 114.464C65.1345 114.472 65.082 114.48 65.0295 114.494H65.016C65.1404 114.497 65.2647 114.491 65.3884 114.479C65.5917 114.466 65.7942 114.442 65.995 114.408C66.1082 114.39 66.2196 114.369 66.3309 114.344L66.448 114.323C66.5474 114.302 66.6468 114.273 66.7462 114.245C66.7889 114.233 66.8315 114.221 66.8741 114.21C67.0142 114.166 67.1486 114.114 67.283 114.062C67.4173 114.01 67.5517 113.956 67.686 113.889C67.6999 113.889 67.7133 113.884 67.7244 113.876C67.8434 113.816 67.9624 113.755 68.0738 113.695C68.313 113.563 68.5426 113.413 68.761 113.248L68.9529 113.093C69.1231 112.958 69.2847 112.814 69.4366 112.659C69.5789 112.517 69.7135 112.368 69.8397 112.212L69.8601 112.186C69.9799 112.038 70.0991 111.89 70.2063 111.726C70.3023 111.584 70.3983 111.436 70.4751 111.286C70.5269 111.196 70.5787 111.094 70.6229 111.002C70.6382 110.981 70.6536 110.966 70.6536 110.943C70.6924 110.868 70.727 110.791 70.7572 110.713C70.8497 110.508 70.9299 110.299 70.9972 110.085C71.0567 109.893 71.1085 109.689 71.1526 109.488C71.1757 109.384 71.1968 109.279 71.2121 109.175C71.2429 108.983 71.264 108.791 71.2793 108.586C71.2793 108.526 71.2832 108.465 71.287 108.403C71.2908 108.342 71.2947 108.281 71.2947 108.221C71.296 107.581 71.2002 106.944 71.0106 106.332C70.9856 106.233 70.9535 106.137 70.9146 106.042C70.8836 105.943 70.8457 105.845 70.8014 105.751C70.4821 105.007 70.0264 104.329 69.4577 103.752C69.3893 103.679 69.3168 103.609 69.2408 103.543C69.0214 103.336 68.7845 103.149 68.5325 102.983C68.5005 102.963 68.4687 102.941 68.4366 102.92L68.4364 102.92C68.3858 102.886 68.3343 102.851 68.2792 102.82C67.5856 102.387 66.8121 102.097 66.0046 101.969C65.6913 101.916 65.3742 101.888 65.0564 101.887L61.0581 101.864L55.2094 101.835H55.0347C54.862 101.82 54.6911 101.812 54.5107 101.812H53.6316C53.6911 96.1494 52.6718 91.867 51.2879 88.6826L51.2879 88.6825C51.3115 88.6363 57.9551 75.5728 72.3101 78.5132ZM72.8222 123.372C72.8222 123.372 73.2176 122.276 73.7627 120.358C73.3955 121.39 72.9872 122.394 72.5381 123.372H72.8222ZM64.7881 123.371C64.9608 123.371 65.1317 123.365 65.3025 123.35C65.2793 123.352 65.256 123.354 65.2349 123.356C65.1002 123.367 65.048 123.371 65.6019 123.371H64.7881Z" fill="#7A97FF"/>
<path d="M76.7038 100.088L75.9541 100.111L77.4538 100.094L76.7038 100.088ZM72.3101 78.5132L73.005 78.231L72.854 77.859L72.4606 77.7784L72.3101 78.5132ZM72.6901 78.5899L73.3784 78.2919L73.3781 78.2912L72.6901 78.5899ZM69.1468 72.1002L68.4437 72.3612L68.4744 72.444L68.5235 72.5174L69.1468 72.1002ZM69.118 72.0618L68.4946 72.4788L68.5666 72.5865L68.6706 72.6637L69.118 72.0618ZM49.0037 56.0897L49.2965 55.3992L49.2558 55.382L49.2135 55.3697L49.0037 56.0897ZM41.0973 53.7864L41.3071 53.0663L39.7531 52.6136L40.4124 54.0918L41.0973 53.7864ZM40.604 60.2243L41.2801 60.5491L41.2801 60.5491L40.604 60.2243ZM29.995 67.2899L29.8255 68.0205L29.8255 68.0205L29.995 67.2899ZM21.1654 58.8672L21.9068 58.9809L21.9068 58.9809L21.1654 58.8672ZM22.248 52.1836L22.9853 52.3209L23.1522 51.4248L22.2407 51.4336L22.248 52.1836ZM-4.75722 52.4466L-4.76452 51.6966L-6.2384 51.711L-5.35917 52.8939L-4.75722 52.4466ZM-5.94922 79.7589L-6.60377 79.3928L-7.25634 80.5594L-5.9206 80.5084L-5.94922 79.7589ZM-0.922089 79.567L-0.176289 79.6462L-0.0846977 78.7844L-0.950705 78.8175L-0.922089 79.567ZM3.32957 123.379L3.98701 123.018L3.97728 123.001L3.96661 122.983L3.32957 123.379ZM3.50232 123.656L2.88921 124.088L3.11442 124.407L3.50544 124.406L3.50232 123.656ZM46.4508 123.477L46.4508 122.727L46.4477 122.727L46.4508 123.477ZM49.4356 123.477V124.227H49.9507L50.1356 123.746L49.4356 123.477ZM49.4644 123.379L50.1987 123.532L50.3862 122.629H49.4644V123.379ZM39.08 123.379L39.0795 124.129H39.08V123.379ZM35.9243 122.066L36.456 121.537L36.4544 121.536L35.9243 122.066ZM34.8206 120.239L34.1039 120.46L34.1043 120.461L34.8206 120.239ZM34.6287 118.911L35.3787 118.92L35.3787 118.912L34.6287 118.911ZM39.0972 114.434L39.0972 113.684L39.0947 113.684L39.0972 114.434ZM65.1715 114.45L65.2931 113.71L65.2788 113.707L65.2645 113.706L65.1715 114.45ZM65.2001 114.452L65.1819 115.202L65.1822 115.202L65.2001 114.452ZM65.2387 114.45V113.7H65.1775L65.1171 113.71L65.2387 114.45ZM65.2771 114.45L65.4143 115.187L65.2771 113.7V114.45ZM65.187 114.464L65.0742 113.723L65.0741 113.723L65.187 114.464ZM65.0295 114.494V115.244H65.1239L65.2153 115.221L65.0295 114.494ZM65.016 114.494V113.744L64.9997 115.244L65.016 114.494ZM65.3884 114.479L65.3413 113.73L65.3258 113.731L65.3104 113.733L65.3884 114.479ZM65.995 114.408L65.8819 113.666L65.8749 113.667L65.8679 113.668L65.995 114.408ZM66.3309 114.344L66.1978 113.606L66.1823 113.609L66.1669 113.612L66.3309 114.344ZM66.448 114.323L66.5811 115.061L66.5938 115.059L66.6065 115.056L66.448 114.323ZM66.7462 114.245L66.5424 113.524L66.5424 113.524L66.7462 114.245ZM66.8741 114.21L67.0698 114.934L67.0847 114.93L67.0995 114.925L66.8741 114.21ZM67.686 113.889L67.6576 113.14L67.4956 113.146L67.3506 113.218L67.686 113.889ZM67.7244 113.876L67.389 113.205L67.3313 113.234L67.2794 113.272L67.7244 113.876ZM68.0738 113.695L68.4274 114.357L68.4379 114.351L68.0738 113.695ZM68.761 113.248L69.2131 113.847L69.2232 113.839L69.233 113.831L68.761 113.248ZM68.9529 113.093L68.4884 112.504L68.4808 112.51L68.9529 113.093ZM69.4366 112.659L68.9074 112.127L68.9016 112.133L69.4366 112.659ZM69.8397 112.212L70.4232 112.683L70.4239 112.682L69.8397 112.212ZM69.8601 112.186L69.276 111.716L69.2759 111.716L69.8601 112.186ZM70.2063 111.726L69.5848 111.306L69.5791 111.315L70.2063 111.726ZM70.4751 111.286L69.8247 110.913L69.8158 110.928L69.8077 110.944L70.4751 111.286ZM70.6229 111.002L70.0163 110.561L69.9761 110.617L69.9465 110.678L70.6229 111.002ZM70.6536 110.943L69.9878 110.598L69.9036 110.76V110.943H70.6536ZM70.7572 110.713L70.0741 110.403L70.065 110.423L70.0572 110.443L70.7572 110.713ZM70.9972 110.085L71.7126 110.31L71.7135 110.307L70.9972 110.085ZM71.1526 109.488L70.4205 109.325L70.42 109.327L71.1526 109.488ZM71.2121 109.175L70.4715 109.056L70.4702 109.065L71.2121 109.175ZM71.2793 108.586L72.0272 108.642L72.0293 108.614V108.586H71.2793ZM71.287 108.403L72.0355 108.45L72.0355 108.45L71.287 108.403ZM71.2947 108.221L70.5447 108.219V108.221H71.2947ZM71.0106 106.332L70.2836 106.516L70.2884 106.536L70.2942 106.554L71.0106 106.332ZM70.9146 106.042L70.1985 106.265L70.2085 106.297L70.2213 106.328L70.9146 106.042ZM70.8014 105.751L70.1121 106.046L70.1171 106.058L70.1224 106.069L70.8014 105.751ZM69.4577 103.752L68.9087 104.263L68.9161 104.271L68.9238 104.279L69.4577 103.752ZM69.2408 103.543L68.7261 104.089L68.7378 104.1L68.75 104.11L69.2408 103.543ZM68.5325 102.983L68.9451 102.356L68.9383 102.352L68.9314 102.348L68.5325 102.983ZM68.4366 102.92L68.0006 103.53L68.0097 103.537L68.019 103.543L68.4366 102.92ZM68.4364 102.92L68.8723 102.309L68.8632 102.303L68.8539 102.297L68.4364 102.92ZM68.2792 102.82L67.8819 103.456L67.8936 103.463L67.9056 103.47L68.2792 102.82ZM66.0046 101.969L65.8783 102.709L65.8871 102.71L66.0046 101.969ZM65.0564 101.887L65.052 102.637L65.053 102.637L65.0564 101.887ZM61.0581 101.864L61.0624 101.114L61.0618 101.114L61.0581 101.864ZM55.2094 101.835L55.2131 101.085H55.2094V101.835ZM55.0347 101.835L54.9683 102.582L55.0015 102.585H55.0347V101.835ZM53.6316 101.812L52.8816 101.804L52.8737 102.562H53.6316V101.812ZM51.2879 88.6826L50.6214 88.3386L50.4581 88.655L50.6 88.9815L51.2879 88.6826ZM51.2879 88.6825L51.9544 89.0265L51.9565 89.0225L51.2879 88.6825ZM73.7627 120.358L74.4841 120.563L73.0562 120.107L73.7627 120.358ZM72.8222 123.372V124.122H73.3489L73.5277 123.627L72.8222 123.372ZM72.5381 123.372L71.8566 123.059L71.3682 124.122H72.5381V123.372ZM65.3025 123.35L65.3697 124.097L65.2353 122.603L65.3025 123.35ZM65.2349 123.356L65.2964 124.103L65.2965 124.103L65.2349 123.356ZM77.4534 100.065C77.2206 92.4872 75.6981 84.8645 73.005 78.231L71.6152 78.7953C74.2352 85.2488 75.7263 92.6941 75.9541 100.111L77.4534 100.065ZM72.0019 78.888C75.0374 85.8966 76.0051 93.328 75.9538 100.082L77.4538 100.094C77.5061 93.197 76.5198 85.545 73.3784 78.2919L72.0019 78.888ZM68.5235 72.5174C69.8723 74.5322 71.0365 76.6646 72.0022 78.8887L73.3781 78.2912C72.3765 75.9845 71.1689 73.7728 69.77 71.683L68.5235 72.5174ZM68.6706 72.6637C68.5673 72.5869 68.4885 72.4818 68.4437 72.3612L69.8499 71.8391C69.7937 71.6879 69.6949 71.5561 69.5654 71.4598L68.6706 72.6637ZM48.711 56.7802C58.0509 60.7401 64.3421 66.2725 68.4946 72.4788L69.7413 71.6447C65.4175 65.1824 58.8903 59.4667 49.2965 55.3992L48.711 56.7802ZM40.8876 54.5064L48.7939 56.8098L49.2135 55.3697L41.3071 53.0663L40.8876 54.5064ZM41.2801 60.5491C42.2184 58.596 42.3565 56.8501 42.2525 55.5822C42.2006 54.95 42.0888 54.4379 41.9876 54.0783C41.9369 53.8983 41.8887 53.756 41.8517 53.6553C41.8331 53.6049 41.8174 53.5649 41.8055 53.5356C41.7995 53.521 41.7945 53.5091 41.7906 53.5C41.7887 53.4954 41.787 53.4915 41.7856 53.4883C41.7849 53.4868 41.7843 53.4853 41.7837 53.4841C41.7835 53.4835 41.7832 53.4829 41.783 53.4824C41.7829 53.4821 41.7827 53.4817 41.7826 53.4816C41.7825 53.4812 41.7823 53.4809 41.0973 53.7864C40.4124 54.0918 40.4122 54.0915 40.4121 54.0912C40.4121 54.0911 40.4119 54.0908 40.4118 54.0906C40.4117 54.0903 40.4115 54.0899 40.4114 54.0897C40.4112 54.0891 40.411 54.0887 40.4109 54.0885C40.4107 54.088 40.4108 54.0882 40.4111 54.0891C40.4119 54.0908 40.4137 54.0951 40.4165 54.1019C40.422 54.1156 40.4315 54.1394 40.4438 54.1728C40.4684 54.2397 40.5043 54.345 40.5437 54.4849C40.6226 54.7649 40.7146 55.1814 40.7575 55.7048C40.8431 56.7479 40.7345 58.2209 39.928 59.8995L41.2801 60.5491ZM29.8255 68.0205C32.4092 68.62 34.8534 67.6319 36.8172 66.109C38.7831 64.5847 40.3634 62.4571 41.2801 60.5491L39.928 59.8995C39.0999 61.6232 37.6589 63.5582 35.8981 64.9236C34.1353 66.2906 32.1474 67.0194 30.1646 66.5593L29.8255 68.0205ZM20.4241 58.7535C19.9952 61.5498 21.2325 63.6401 23.1215 65.1207C24.9779 66.5757 27.4974 67.4803 29.8255 68.0205L30.1646 66.5593C27.9262 66.04 25.6528 65.1988 24.0469 63.9401C22.4737 62.7071 21.5793 61.1159 21.9068 58.9809L20.4241 58.7535ZM22.248 52.1836C21.5107 52.0463 21.5107 52.0463 21.5107 52.0464C21.5107 52.0464 21.5107 52.0465 21.5106 52.0465C21.5106 52.0466 21.5106 52.0467 21.5106 52.0469C21.5105 52.0472 21.5104 52.0476 21.5103 52.0481C21.5102 52.0491 21.5099 52.0506 21.5095 52.0525C21.5088 52.0563 21.5078 52.0619 21.5065 52.0692C21.5038 52.0839 21.4998 52.1058 21.4945 52.1352C21.4838 52.194 21.4679 52.2829 21.4465 52.4047C21.4037 52.6483 21.3389 53.0235 21.2506 53.5527C21.0738 54.611 20.8026 56.2852 20.4241 58.7535L21.9068 58.9809C22.2845 56.5181 22.5546 54.8505 22.7301 53.7998C22.8178 53.2744 22.8819 52.9034 22.9239 52.6643C22.9449 52.5447 22.9604 52.4582 22.9706 52.4019C22.9756 52.3737 22.9794 52.3531 22.9819 52.3398C22.9831 52.3331 22.984 52.3282 22.9846 52.325C22.9849 52.3235 22.9851 52.3224 22.9852 52.3217C22.9853 52.3213 22.9853 52.3211 22.9853 52.3209C22.9853 52.3209 22.9853 52.3208 22.9853 52.3208C22.9853 52.3208 22.9853 52.3208 22.9853 52.3208C22.9853 52.3209 22.9853 52.3209 22.248 52.1836ZM-4.74992 53.1965L22.2553 52.9336L22.2407 51.4336L-4.76452 51.6966L-4.74992 53.1965ZM-5.29466 80.125C-1.18859 72.7846 -0.120282 66.7838 -0.485293 62.08C-0.850126 57.3785 -2.64194 54.0353 -4.15527 51.9992L-5.35917 52.8939C-3.97792 54.7524 -2.31946 57.8319 -1.9808 62.1961C-1.64232 66.558 -2.6173 72.2661 -6.60377 79.3928L-5.29466 80.125ZM-0.950705 78.8175L-5.97784 79.0095L-5.9206 80.5084L-0.893472 80.3164L-0.950705 78.8175ZM3.96661 122.983C2.1428 120.048 0.945989 115.895 0.196507 111.249C-0.55066 106.618 -0.843131 101.564 -0.898907 96.8732C-0.954652 92.1853 -0.773841 87.8758 -0.578932 84.7375C-0.481506 83.1688 -0.38063 81.894 -0.304204 81.0121C-0.265993 80.5713 -0.2339 80.2287 -0.211416 79.9969C-0.200174 79.881 -0.191335 79.7928 -0.185335 79.7338C-0.182335 79.7043 -0.180044 79.6822 -0.178519 79.6675C-0.177756 79.6602 -0.177184 79.6547 -0.17681 79.6512C-0.176623 79.6494 -0.176486 79.6481 -0.176398 79.6473C-0.176355 79.6468 -0.176327 79.6466 -0.176306 79.6464C-0.176291 79.6462 -0.176289 79.6462 -0.922089 79.567C-1.66789 79.4877 -1.66791 79.4879 -1.66795 79.4883C-1.66798 79.4885 -1.66803 79.489 -1.66808 79.4895C-1.6682 79.4906 -1.66837 79.4922 -1.66858 79.4943C-1.66901 79.4984 -1.66964 79.5044 -1.67046 79.5123C-1.67211 79.528 -1.67451 79.5513 -1.67763 79.582C-1.68386 79.6432 -1.69293 79.7338 -1.70441 79.8521C-1.72736 80.0887 -1.75992 80.4364 -1.7986 80.8826C-1.87595 81.7751 -1.97778 83.0622 -2.07605 84.6445C-2.27253 87.8082 -2.4551 92.1562 -2.3988 96.8911C-2.34253 101.623 -2.04751 106.757 -1.28435 111.488C-0.523496 116.205 0.712875 120.589 2.69253 123.775L3.96661 122.983ZM4.11543 123.224C4.0708 123.16 4.02634 123.09 3.98701 123.018L2.67213 123.74C2.74029 123.864 2.81483 123.982 2.88921 124.088L4.11543 123.224ZM46.4477 122.727L3.49921 122.906L3.50544 124.406L46.4539 124.227L46.4477 122.727ZM49.4356 122.727H46.4508V124.227H49.4356V122.727ZM48.7301 123.227C48.7314 123.22 48.7332 123.214 48.7356 123.208L50.1356 123.746C50.1624 123.677 50.1835 123.605 50.1987 123.532L48.7301 123.227ZM39.08 124.129H49.4644V122.629H39.08V124.129ZM35.3927 122.595C36.3688 123.576 37.6955 124.128 39.0795 124.129L39.0804 122.629C38.0952 122.629 37.1509 122.236 36.456 121.537L35.3927 122.595ZM34.1043 120.461C34.3544 121.267 34.7972 122 35.3942 122.597L36.4544 121.536C36.0298 121.111 35.7148 120.59 35.5369 120.017L34.1043 120.461ZM33.8787 118.902C33.8724 119.43 33.9483 119.955 34.1039 120.46L35.5373 120.018C35.4277 119.662 35.3741 119.292 35.3786 118.92L33.8787 118.902ZM39.0947 113.684C36.2146 113.694 33.8836 116.029 33.8787 118.909L35.3787 118.912C35.3822 116.857 37.0451 115.191 39.0998 115.184L39.0947 113.684ZM64.7876 113.684H39.0972V115.184H64.7876V113.684ZM65.2645 113.706C65.0869 113.683 64.9043 113.684 64.7876 113.684V115.184C64.9243 115.184 65.0104 115.185 65.0785 115.194L65.2645 113.706ZM65.2183 113.703C65.2432 113.703 65.2682 113.706 65.2931 113.71L65.05 115.19C65.0938 115.197 65.1379 115.201 65.1819 115.202L65.2183 113.703ZM65.1171 113.71C65.1506 113.704 65.1844 113.702 65.2181 113.703L65.1822 115.202C65.2416 115.204 65.3013 115.2 65.3603 115.19L65.1171 113.71ZM65.2771 113.7H65.2387V115.2H65.2771V113.7ZM65.2999 115.206C65.3279 115.202 65.3701 115.195 65.4143 115.187L65.1399 113.712C65.124 113.715 65.1062 113.718 65.0742 113.723L65.2999 115.206ZM65.2153 115.221C65.2259 115.218 65.2418 115.215 65.2999 115.206L65.0741 113.723C65.0272 113.73 64.9381 113.743 64.8436 113.767L65.2153 115.221ZM65.016 115.244H65.0295V113.744H65.016V115.244ZM65.3104 113.733C65.2181 113.742 65.1252 113.746 65.0324 113.744L64.9997 115.244C65.1555 115.247 65.3114 115.241 65.4664 115.224L65.3104 113.733ZM65.8679 113.668C65.6936 113.698 65.5178 113.719 65.3413 113.73L65.4355 115.227C65.6656 115.213 65.8948 115.186 66.1221 115.147L65.8679 113.668ZM66.1669 113.612C66.0717 113.634 65.9773 113.652 65.8819 113.666L66.1081 115.149C66.2391 115.129 66.3675 115.105 66.4949 115.076L66.1669 113.612ZM66.3149 113.585L66.1978 113.606L66.464 115.082L66.5811 115.061L66.3149 113.585ZM66.5424 113.524C66.4389 113.553 66.3621 113.574 66.2895 113.59L66.6065 115.056C66.7326 115.029 66.8547 114.994 66.9501 114.967L66.5424 113.524ZM66.6784 113.486C66.631 113.499 66.5843 113.512 66.5424 113.524L66.9501 114.967C66.9934 114.955 67.0319 114.944 67.0698 114.934L66.6784 113.486ZM67.013 113.362C66.8754 113.415 66.7627 113.459 66.6487 113.494L67.0995 114.925C67.2657 114.873 67.4218 114.812 67.5529 114.762L67.013 113.362ZM67.3506 113.218C67.2502 113.269 67.1439 113.312 67.013 113.362L67.5529 114.762C67.6907 114.709 67.8532 114.644 68.0215 114.56L67.3506 113.218ZM67.2794 113.272C67.3893 113.191 67.5211 113.145 67.6576 113.14L67.7145 114.639C67.8787 114.632 68.0372 114.577 68.1695 114.48L67.2794 113.272ZM67.7202 113.034C67.6154 113.09 67.5025 113.148 67.389 113.205L68.0599 114.547C68.1844 114.484 68.3095 114.42 68.4273 114.357L67.7202 113.034ZM68.3088 112.65C68.1185 112.794 67.9183 112.924 67.7097 113.04L68.4379 114.351C68.7077 114.201 68.9668 114.033 69.2131 113.847L68.3088 112.65ZM68.4808 112.51L68.2889 112.665L69.233 113.831L69.425 113.675L68.4808 112.51ZM68.9016 112.133C68.7718 112.265 68.6338 112.389 68.4884 112.504L69.4174 113.682C69.6124 113.528 69.7975 113.362 69.9716 113.184L68.9016 112.133ZM69.2563 111.74C69.1471 111.876 69.0306 112.005 68.9075 112.127L69.9658 113.19C70.1273 113.03 70.28 112.86 70.4232 112.683L69.2563 111.74ZM69.2759 111.716L69.2556 111.741L70.4239 112.682L70.4442 112.657L69.2759 111.716ZM69.5791 111.315C69.4952 111.443 69.3992 111.563 69.276 111.716L70.4442 112.657C70.5606 112.512 70.703 112.336 70.8336 112.137L69.5791 111.315ZM69.8077 110.944C69.7528 111.051 69.6783 111.168 69.5849 111.306L70.8278 112.146C70.9263 112 71.0438 111.821 71.1424 111.629L69.8077 110.944ZM69.9465 110.678C69.9073 110.76 69.8642 110.844 69.8247 110.913L71.1254 111.66C71.1895 111.548 71.2502 111.429 71.2992 111.326L69.9465 110.678ZM69.9036 110.943C69.9036 110.77 69.9664 110.643 70.0052 110.58C70.0141 110.566 70.0217 110.555 70.0267 110.548C70.0315 110.541 70.035 110.536 70.0355 110.536C70.0418 110.527 70.0249 110.549 70.0163 110.561L71.2294 111.444C71.2285 111.445 71.2192 111.457 71.2328 111.439C71.2396 111.43 71.2605 111.402 71.2828 111.366C71.3331 111.285 71.4036 111.138 71.4036 110.943H69.9036ZM70.0572 110.443C70.037 110.496 70.0138 110.547 69.9878 110.598L71.3193 111.288C71.3709 111.189 71.417 111.086 71.4572 110.982L70.0572 110.443ZM70.2817 109.86C70.2235 110.045 70.1541 110.226 70.0741 110.403L71.4404 111.022C71.5453 110.79 71.6362 110.553 71.7126 110.31L70.2817 109.86ZM70.42 109.327C70.3793 109.513 70.3327 109.695 70.2808 109.863L71.7135 110.307C71.7806 110.09 71.8376 109.866 71.8853 109.648L70.42 109.327ZM70.4702 109.065C70.4585 109.144 70.4414 109.231 70.4205 109.325L71.8848 109.651C71.9099 109.538 71.9351 109.413 71.954 109.285L70.4702 109.065ZM70.5314 108.53C70.5173 108.719 70.4983 108.889 70.4716 109.056L71.9527 109.294C71.9874 109.077 72.0106 108.864 72.0272 108.642L70.5314 108.53ZM70.5385 108.357C70.5349 108.414 70.5293 108.499 70.5293 108.586H72.0293C72.0293 108.554 72.0314 108.516 72.0355 108.45L70.5385 108.357ZM70.5447 108.221C70.5447 108.253 70.5426 108.291 70.5385 108.357L72.0355 108.45C72.0391 108.393 72.0447 108.308 72.0447 108.221H70.5447ZM70.2942 106.554C70.4614 107.094 70.5458 107.655 70.5447 108.219L72.0447 108.223C72.0462 107.506 71.939 106.794 71.727 106.11L70.2942 106.554ZM70.2213 106.328C70.2465 106.39 70.2673 106.452 70.2836 106.516L71.7376 106.148C71.7038 106.015 71.6604 105.884 71.6079 105.756L70.2213 106.328ZM70.1224 106.069C70.1522 106.133 70.1776 106.198 70.1985 106.265L71.6308 105.82C71.5895 105.687 71.5393 105.558 71.4803 105.432L70.1224 106.069ZM68.9238 104.279C69.4267 104.789 69.8298 105.388 70.1121 106.046L71.4906 105.455C71.1344 104.625 70.626 103.869 69.9916 103.226L68.9238 104.279ZM68.75 104.11C68.8056 104.158 68.8586 104.21 68.9087 104.263L70.0068 103.242C69.9199 103.148 69.8281 103.06 69.7316 102.976L68.75 104.11ZM68.12 103.609C68.3356 103.751 68.5383 103.912 68.7261 104.089L69.7556 102.998C69.5045 102.761 69.2334 102.546 68.9451 102.356L68.12 103.609ZM68.019 103.543C68.0495 103.563 68.0906 103.591 68.1337 103.618L68.9314 102.348C68.9104 102.334 68.8879 102.319 68.8541 102.297L68.019 103.543ZM68.0005 103.53L68.0006 103.53L68.8725 102.309L68.8723 102.309L68.0005 103.53ZM67.9056 103.47C67.9347 103.487 67.9653 103.507 68.0189 103.543L68.8539 102.297C68.8064 102.265 68.7338 102.216 68.6528 102.169L67.9056 103.47ZM65.8871 102.71C66.5953 102.822 67.2737 103.076 67.8819 103.456L68.6764 102.183C67.8976 101.697 67.0289 101.372 66.1221 101.229L65.8871 102.71ZM65.053 102.637C65.3296 102.638 65.6056 102.662 65.8783 102.709L66.1309 101.23C65.777 101.17 65.4187 101.138 65.0597 101.137L65.053 102.637ZM61.0537 102.614L65.052 102.637L65.0607 101.137L61.0624 101.114L61.0537 102.614ZM55.2057 102.585L61.0544 102.614L61.0618 101.114L55.2131 101.085L55.2057 102.585ZM55.0347 102.585H55.2094V101.085H55.0347V102.585ZM54.5107 102.562C54.6691 102.562 54.8178 102.569 54.9683 102.582L55.1011 101.088C54.9061 101.071 54.7131 101.062 54.5107 101.062V102.562ZM53.6316 102.562H54.5107V101.062H53.6316V102.562ZM50.6 88.9815C51.9384 92.061 52.9401 96.2377 52.8816 101.804L54.3815 101.82C54.4421 96.0611 53.4053 91.6731 51.9757 88.3837L50.6 88.9815ZM50.6215 88.3385L50.6214 88.3386L51.9544 89.0266L51.9544 89.0265L50.6215 88.3385ZM72.4606 77.7784C65.0072 76.2517 59.5314 78.8896 55.9424 81.9035C52.3733 84.9007 50.6515 88.2794 50.6194 88.3425L51.9565 89.0225C51.9565 89.0224 51.9565 89.0224 51.9566 89.0222C51.9567 89.022 51.9569 89.0216 51.9572 89.0211C51.9577 89.02 51.9587 89.0181 51.9601 89.0155C51.9628 89.0102 51.9671 89.0019 51.973 88.9907C51.9849 88.9682 52.0031 88.934 52.0278 88.8889C52.0773 88.7988 52.1524 88.6653 52.2536 88.4954C52.456 88.1556 52.7619 87.6711 53.1733 87.0978C53.9971 85.9496 55.2372 84.4544 56.907 83.0522C60.2345 80.2579 65.258 77.8342 72.1596 79.2479L72.4606 77.7784ZM73.0413 120.153C72.7715 121.102 72.5391 121.847 72.3748 122.352C72.2926 122.605 72.2274 122.798 72.1831 122.927C72.161 122.992 72.1441 123.04 72.1328 123.072C72.1272 123.088 72.123 123.1 72.1203 123.107C72.1189 123.111 72.118 123.114 72.1174 123.116C72.1171 123.116 72.1168 123.117 72.1167 123.117C72.1167 123.117 72.1166 123.118 72.1166 123.118C72.1166 123.118 72.1166 123.118 72.1166 123.118C72.1166 123.118 72.1166 123.118 72.1167 123.118C72.1167 123.118 72.1167 123.117 72.8222 123.372C73.5277 123.627 73.5277 123.626 73.5277 123.626C73.5277 123.626 73.5277 123.626 73.5277 123.626C73.5278 123.626 73.5278 123.626 73.5278 123.626C73.5279 123.626 73.528 123.625 73.5282 123.625C73.5285 123.624 73.5288 123.623 73.5293 123.622C73.5302 123.619 73.5315 123.616 73.5332 123.611C73.5365 123.602 73.5414 123.588 73.5476 123.57C73.5601 123.535 73.5783 123.483 73.6018 123.414C73.6487 123.278 73.7164 123.077 73.8013 122.816C73.9709 122.294 74.2088 121.532 74.4841 120.563L73.0413 120.153ZM73.2196 123.685C73.6782 122.687 74.0947 121.662 74.4693 120.61L73.0562 120.107C72.6962 121.118 72.2963 122.102 71.8566 123.059L73.2196 123.685ZM72.8222 122.622H72.5381V124.122H72.8222V122.622ZM65.2353 122.603C65.0921 122.616 64.9444 122.621 64.7881 122.621V124.121C64.9772 124.121 65.1712 124.115 65.3697 124.097L65.2353 122.603ZM65.2965 124.103C65.317 124.102 65.3432 124.099 65.3697 124.097L65.2353 122.603C65.2154 122.605 65.1951 122.607 65.1732 122.608L65.2965 124.103ZM65.6019 122.621C65.4639 122.621 65.3658 122.621 65.2981 122.62C65.2222 122.62 65.2024 122.619 65.2069 122.619C65.2094 122.619 65.2147 122.62 65.2219 122.62C65.2282 122.621 65.2419 122.622 65.2597 122.625C65.2699 122.626 65.3165 122.633 65.3741 122.651C65.3992 122.659 65.4693 122.683 65.5486 122.733C65.5995 122.765 65.8445 122.927 65.8894 123.268C65.9394 123.648 65.701 123.878 65.6288 123.939C65.5427 124.012 65.461 124.046 65.4352 124.057C65.3726 124.083 65.3207 124.094 65.3109 124.097C65.2787 124.104 65.2542 124.107 65.2536 124.107C65.2467 124.108 65.2519 124.107 65.2964 124.103L65.1733 122.608C65.1505 122.61 65.0987 122.614 65.0614 122.619C65.0533 122.62 65.0229 122.624 64.9866 122.632C64.9749 122.635 64.9215 122.646 64.8579 122.673C64.8315 122.684 64.7495 122.719 64.6631 122.791C64.5906 122.852 64.3521 123.083 64.4022 123.463C64.4471 123.805 64.6923 123.966 64.7435 123.999C64.823 124.049 64.8936 124.073 64.9193 124.081C64.9781 124.1 65.0264 124.107 65.0389 124.108C65.0741 124.114 65.1037 124.116 65.1135 124.116C65.1829 124.121 65.341 124.121 65.6019 124.121V122.621ZM64.7881 124.121H65.6019V122.621H64.7881V124.121Z" fill="#1F2E54"/>
<path d="M23.5552 44.674C23.5552 44.674 22.9064 48.6128 22.2346 52.1792C20.3151 52.2003 18.3956 52.2156 16.4972 52.231C15.5375 46.8296 16.5798 42.599 17.8178 39.7793C19.3784 43.338 21.7355 44.4206 23.5552 44.674Z" fill="#1F2E54"/>
<path d="M55.1037 58.8863C51.2008 56.7849 47.0409 55.2008 42.7288 54.174L41.316 53.9302C41.316 53.9302 40.2642 51.5385 40.2584 51.5309C39.7651 50.2774 38.9474 48.6133 38.694 47.2927C38.3854 45.7327 38.3103 44.1355 38.4714 42.5534C38.7478 40.204 39.8419 35.2344 41.8189 33.6681C43.4678 32.3706 44.1473 32.6431 45.0821 30.6142C45.7539 29.167 46.0265 26.735 44.7212 25.6677C43.2739 24.4969 42.6558 25.0919 40.9245 25.2723C34.3445 25.9249 30.5842 21.1896 28.1656 15.7171C27.7817 14.8284 27.3825 13.8898 26.7548 13.1335C26.035 12.2621 25.0388 12.0663 24.223 11.3618C23.8756 11.0585 23.6376 10.5633 23.8046 10.1333C23.903 9.9279 24.046 9.74694 24.223 9.60357C25.7647 8.18334 27.616 7.1417 29.6302 6.56119C32.8161 5.64002 36.1825 5.53507 39.4196 6.25599C42.7979 7.37505 45.8345 9.49416 47.8788 12.7323C50.6985 17.2066 51.378 21.848 49.7982 26.4739C48.1801 31.2112 46.3739 36.7758 49.4143 41.3346C53.4625 47.3905 55.9022 51.6499 55.1037 58.8863Z" fill="#1F2E54"/>
<path d="M22.2427 52.1797C20.3232 52.2008 18.4037 52.2162 16.5054 52.2315C2.04014 52.3064 -11.8051 52.1048 -26.3164 54.7076" stroke="#1F2E54" stroke-width="1.5"/>
<path d="M41.0889 53.79C41.6398 53.911 42.1849 54.0377 42.73 54.1739C44.855 54.6876 46.9472 55.3285 48.9952 56.0934C51.0964 56.8753 53.1383 57.808 55.1049 58.8844C55.1093 58.8804 55.1159 58.8804 55.1203 58.8844C58.2144 60.5608 61.0741 62.6376 63.6255 65.0613C65.7589 67.1399 67.6033 69.4957 69.1095 72.0655C69.1226 72.0752 69.1326 72.0885 69.1383 72.1038C70.3601 74.1549 71.4209 76.2978 72.3112 78.513C74.9678 85.0565 76.4746 92.5905 76.7049 100.088C76.9141 107.169 75.9813 114.219 73.7739 120.358C73.4066 121.389 72.9984 122.394 72.5492 123.371C72.5204 123.446 72.482 123.513 72.4532 123.588" stroke="#1F2E54" stroke-width="1.5"/>
<path d="M2.98287 123.659C-4.43401 102.579 -0.921356 79.5495 -0.921356 79.5495L-40.7622 80.8125C-44.1942 80.9211 -47.5052 79.5389 -49.8413 77.0224C-52.1775 74.506 -53.3101 71.1015 -52.9471 67.6871L-43.1884 32.0998L-41.077 24.5083C-40.4037 22.1195 -40.5579 19.5733 -41.5146 17.2833L-42.5089 14.9108C-42.5089 14.9108 -44.3113 11.235 -40.2708 11.5805C-38.0979 11.7725 -35.9423 12.6958 -34.1188 13.8551C-32.6869 14.7669 -30.5025 16.5309 -31.1782 18.4868C-31.9767 20.7902 -35.1074 21.3661 -36.9462 20.0704" stroke="#1F2E54" stroke-width="1.5"/>
<path d="M26.2432 44.5021C25.3742 44.7406 24.4657 44.7994 23.5732 44.6749C21.7458 44.4215 19.3887 43.3313 17.8358 39.7802C17.5133 39.0545 17.2514 38.3033 17.0527 37.5344C16.2619 34.5957 15.9164 30.5072 16.379 24.8063C16.4692 23.7103 16.6035 22.597 16.7897 21.4856C17.0979 19.5522 17.5949 17.6537 18.2735 15.8174C18.2735 15.8174 18.2735 15.802 18.2888 15.7943C19.9818 11.3181 22.959 7.54054 27.965 6.08749C31.7191 5.00456 35.7105 5.06201 39.432 6.25257C42.8103 7.37163 45.8469 9.49074 47.8911 12.7289C50.7109 17.2032 51.3904 21.8445 49.8106 26.4705C48.1925 31.2078 46.3863 36.7724 49.4267 41.3311C53.4692 47.3967 55.9088 51.6561 55.1257 58.8925" stroke="#1F2E54" stroke-width="1.5"/>
<path d="M14.9697 52.4563C13.4994 45.406 15.4841 40.2656 17.0428 37.5342" stroke="#1F2E54" stroke-width="1.5"/>
<path d="M16.79 21.4772C16.79 21.4772 20.009 18.1123 23.7386 23.4274" stroke="#1F2E54" stroke-width="1.5"/>
<path fill-rule="evenodd" clip-rule="evenodd" d="M24.9857 38.4209C26.3466 39.302 28.1893 38.7549 29.1912 37.3979C30.2796 35.9256 30.7153 33.9601 30.9514 32.1769C30.9668 32.0483 30.984 31.9216 30.9956 31.793C29.3352 34.4015 26.1124 35.0273 23.2754 35.2999C23.3829 36.1529 23.7001 36.9661 24.1987 37.6666C24.4121 37.9646 24.6789 38.2204 24.9857 38.4209V38.4209Z" stroke="#1F2E54" stroke-width="1.5" stroke-linecap="round" stroke-linejoin="round"/>
<path d="M39.7678 50.1643L39.7601 50.1566" stroke="#1F2E54" stroke-width="1.5"/>
<path d="M27.1055 20.4433C27.1055 20.4433 28.1996 18.6716 31.9387 19.9768C35.6779 21.2821 35.722 23.4146 35.722 23.4146" stroke="#1F2E54" stroke-width="1.5"/>
<path d="M18.6055 24.8481C18.6055 24.8481 20.333 23.9748 21.6862 24.8481" stroke="#1F2E54" stroke-width="1.5"/>
<path d="M27.915 25.6528C27.915 25.6528 29.6426 24.7794 30.9862 25.6528" stroke="#1F2E54" stroke-width="1.5"/>
<path d="M23.5557 44.6745C23.5557 44.6745 22.9069 48.6133 22.2351 52.1797C22.1372 52.6864 22.0431 53.1855 21.9586 53.6788C21.5191 56.0801 21.1678 58.2145 21.1525 58.8614C21.0411 64.236 26.122 67.3359 31.0301 67.2841C37.9172 67.2092 41.9443 60.802 41.2955 54.3852C40.8713 53.2143 40.4375 52.0434 40.0133 50.8725C39.4682 49.3715 38.7599 47.9107 38.4528 46.3291C38.1816 44.7709 38.1518 43.1802 38.3645 41.6129C38.6409 39.2711 39.0958 35.7796 41.0729 34.2133C42.7217 32.9157 44.4435 32.0635 45.384 30.0346C46.0559 28.5873 46.0251 26.7235 44.7199 25.6562C43.2726 24.4853 40.9827 24.6274 39.2513 24.7982C28.0837 25.9403 26.2257 14.6365 23.2044 13.0491C20.7283 11.7419 18.8702 14.6749 18.2886 15.7632L18.2656 15.8093C18.2646 15.8202 18.2599 15.8304 18.2521 15.8381C18.1466 16.03 18.0947 16.1586 18.0947 16.1586" stroke="#1F2E54" stroke-width="1.5"/>
<path d="M23.2703 26.1494C23.2703 26.1494 22.1032 29.9692 22.1934 30.5412C22.2837 31.1132 23.6446 30.7139 23.6446 30.7139" stroke="#1F2E54" stroke-width="1.5"/>
<ellipse cx="29.1051" cy="26.8647" rx="4.57413" ry="4.68546" transform="rotate(-44.95 29.1051 26.8647)" stroke="#1F2E54" stroke-width="1.5"/>
<ellipse cx="17.4371" cy="25.4467" rx="4.57413" ry="4.68546" transform="rotate(-44.95 17.4371 25.4467)" stroke="#1F2E54" stroke-width="1.5"/>
<path fill-rule="evenodd" clip-rule="evenodd" d="M13.3818 24.9479C13.5743 22.9104 15.2875 21.3553 17.3341 21.3604H17.3398C17.5066 21.3611 17.6732 21.3713 17.8389 21.3911C20.087 21.6688 21.7089 23.6806 21.5032 25.9364C21.3105 27.9761 19.5939 29.532 17.5452 29.5239C17.3784 29.5232 17.2118 29.513 17.0461 29.4932C14.798 29.2155 13.1762 27.2037 13.3818 24.9479ZM20.0443 23.0786C19.3494 22.3175 18.365 21.886 17.3344 21.8907C15.5584 21.8837 14.0701 23.2322 13.9023 25.0002C13.8042 26.0261 14.1446 27.0457 14.8395 27.8067C15.5344 28.5678 16.5188 28.9994 17.5494 28.9947C19.3254 29.0016 20.8136 27.6532 20.9814 25.8851C21.0796 24.8592 20.7392 23.8397 20.0443 23.0786Z" fill="white"/>
<path d="M24.4942 26.3014L22.0449 26.0039" stroke="#1F2E54" stroke-width="1.5"/>
</g>
</svg>
