<svg width="182" height="34" viewBox="0 0 182 34" fill="none" xmlns="http://www.w3.org/2000/svg">
<g clip-path="url(#clip0_2615_29370)">
<rect x="2.078" y="18.383" width="6.53492" height="11.9009" rx="3.26746" fill="#FFC452" stroke="#1F2E54" stroke-width="1.69142"/>
<rect x="11.898" y="10.4597" width="6.53492" height="19.8241" rx="3.26746" fill="#FF8A1D" stroke="#1F2E54" stroke-width="1.69142"/>
<rect x="21.7184" y="3.71609" width="6.53492" height="26.5678" rx="3.26746" fill="#FF5B5D" stroke="#1F2E54" stroke-width="1.69142"/>
<path d="M52.1768 24.9609H56.2504L49.3793 8.10215H45.3303L38.4591 24.9609H42.5082L43.6861 22.0652H50.9989L52.1768 24.9609ZM44.8395 19.2432L47.3425 13.0837L49.8456 19.2432H44.8395ZM67.9163 7.80767V14.0898C66.9102 12.7647 65.4133 11.9794 63.6219 11.9794C60.26 11.9794 57.806 14.7279 57.806 18.6051C57.806 22.5069 60.26 25.2554 63.6219 25.2554C65.4133 25.2554 66.9102 24.4701 67.9163 23.145V24.9609H71.4991V7.80767H67.9163ZM64.6771 22.237C62.6894 22.237 61.2906 20.7401 61.2906 18.6051C61.2906 16.4947 62.6894 14.9978 64.6771 14.9978C66.5667 14.9978 67.9163 16.4947 67.9163 18.6051C67.9163 20.7401 66.5667 22.237 64.6771 22.237ZM78.9841 24.9609H82.3215L87.7448 12.2739H83.9902L80.6528 20.8382L77.2418 12.2739H73.5118L78.9841 24.9609ZM95.5371 22.4824C93.7948 22.4824 92.6168 21.2799 92.2978 19.5622H101.844C101.844 14.8506 99.4389 11.9794 95.4634 11.9794C91.758 11.9794 88.8868 14.7524 88.8868 18.5806C88.8868 22.4824 91.8807 25.2554 95.6598 25.2554C97.5248 25.2554 99.7088 24.4701 100.838 23.2922L98.8254 21.2309C98.0156 21.9671 96.715 22.4824 95.5371 22.4824ZM95.5125 14.7524C97.1076 14.7524 98.1137 15.8567 98.4082 17.4272H92.3224C92.715 15.8076 93.9175 14.7524 95.5125 14.7524ZM107.85 14.6542V12.2739H104.268V24.9609H107.85V18.8996C107.85 16.5193 109.544 14.9978 112.194 14.9978V11.9794C110.255 11.9794 108.685 13.0101 107.85 14.6542ZM121.266 21.8198C121.021 22.0652 120.53 22.237 120.039 22.237C119.376 22.237 118.861 21.648 118.861 20.8137V15.1696H121.61V12.2739H118.861V8.78926H115.401V12.2739H113.659V15.1696H115.401V21.3781C115.401 23.6603 116.972 25.2554 119.229 25.2554C120.235 25.2554 121.389 24.8137 122.125 24.1511L121.266 21.8198ZM126.262 10.5316C127.317 10.5316 128.176 9.64815 128.176 8.5684C128.176 7.56227 127.317 6.65431 126.262 6.65431C125.157 6.65431 124.299 7.56227 124.299 8.5684C124.299 9.64815 125.157 10.5316 126.262 10.5316ZM124.446 24.9609H128.029V12.2739H124.446V24.9609ZM136.105 25.2554C139.222 25.2554 141.283 23.6603 141.283 21.1572C141.283 18.3843 138.829 17.6481 136.645 17.0837C134.927 16.6174 134.216 16.4211 134.216 15.734C134.216 15.0223 134.952 14.5561 135.934 14.5561C137.087 14.5561 138.461 15.1205 139.615 15.8567L140.915 13.55C139.516 12.6174 137.725 11.9794 135.934 11.9794C132.915 11.9794 130.977 13.6972 130.977 16.1021C130.977 18.6051 132.989 19.3168 135.59 19.9548C136.989 20.2984 138.019 20.6419 138.019 21.4517C138.019 22.1879 137.381 22.6296 136.179 22.6296C134.805 22.6296 133.136 22.0161 131.835 21.0836L130.388 23.3413C131.909 24.5683 134.069 25.2554 136.105 25.2554ZM149.625 22.4824C147.883 22.4824 146.705 21.2799 146.386 19.5622H155.932C155.932 14.8506 153.527 11.9794 149.551 11.9794C145.846 11.9794 142.975 14.7524 142.975 18.5806C142.975 22.4824 145.969 25.2554 149.748 25.2554C151.613 25.2554 153.797 24.4701 154.926 23.2922L152.913 21.2309C152.103 21.9671 150.803 22.4824 149.625 22.4824ZM149.6 14.7524C151.196 14.7524 152.202 15.8567 152.496 17.4272H146.41C146.803 15.8076 148.005 14.7524 149.6 14.7524ZM180.6 8.10215H176.379L172.33 13.6236L168.281 8.10215H163.986L170.17 16.5683L163.986 24.9609H168.207L172.256 19.4395L176.305 24.9609H180.6L174.416 16.4947L180.6 8.10215Z" fill="#1F2E54"/>
</g>
<defs>
<clipPath id="clip0_2615_29370">
<rect width="182" height="34" fill="white"/>
</clipPath>
</defs>
</svg>
