<svg width="44" height="30" viewBox="0 0 44 30" fill="none" xmlns="http://www.w3.org/2000/svg">
<path d="M10.4809 0C3.3618 6.64557 0 12.5316 0 18.2279C0 25.0633 3.85618 30 9.39326 30C14.3371 30 18.2921 26.1076 18.2921 21.3608C18.2921 16.7089 14.3371 12.8165 9.59101 12.8165C10.4809 9.68354 12.5573 6.55063 15.6225 3.79747L10.4809 0ZM36.1888 0C29.0697 6.64557 25.7079 12.5316 25.7079 18.2279C25.7079 25.0633 29.564 30 35.1011 30C40.0449 30 44 26.1076 44 21.3608C44 16.7089 40.0449 12.8165 35.2989 12.8165C36.1888 9.68354 38.2652 6.55063 41.3303 3.79747L36.1888 0Z" fill="#016BFF"/>
</svg>
