<svg width="606" height="774" viewBox="0 0 606 774" fill="none" xmlns="http://www.w3.org/2000/svg">
<g clip-path="url(#clip0_2619_29550)">
<path d="M37.8981 613.388H571.175" stroke="#1F2E54" stroke-width="4"/>
<circle cx="386.611" cy="152.276" r="105.23" fill="white" stroke="#1F2E54" stroke-width="4"/>
<circle cx="386.611" cy="152.276" r="87.3582" fill="#016BFF" stroke="#1F2E54" stroke-width="4"/>
<circle cx="386.611" cy="152.276" r="69.4865" fill="white" stroke="#1F2E54" stroke-width="4"/>
<circle cx="386.611" cy="152.276" r="51.6149" fill="#016BFF" stroke="#1F2E54" stroke-width="4"/>
<circle cx="386.61" cy="152.276" r="33.7433" fill="white" stroke="#1F2E54" stroke-width="4"/>
<circle cx="386.611" cy="152.277" r="18.3723" fill="#016BFF" stroke="#1F2E54" stroke-width="4"/>
<path d="M386.612 152.277L522.202 75.7476" stroke="#1F2E54" stroke-width="4" stroke-linecap="round" stroke-linejoin="round"/>
<path d="M524.594 60.3215L522.175 76.6383L540.032 81.1094L571.701 66.6555L556.327 57.248L553.38 40.5309L524.594 60.3215Z" fill="#FFC452" stroke="#1F2E54" stroke-width="4" stroke-linecap="round" stroke-linejoin="round"/>
<path d="M377.102 581.91C377.109 581.865 377.109 581.82 377.102 581.776C377.098 581.719 377.098 581.663 377.102 581.607C377.102 581.607 377.102 581.543 377.102 581.501C377.119 581.62 377.142 581.737 377.172 581.853C377.156 581.88 377.131 581.9 377.102 581.91Z" fill="white"/>
<path d="M377.08 581.931H377.101L377.08 581.952V581.931Z" fill="white"/>
<path d="M377.123 581.888C377.298 581.733 377.445 581.628 377.62 581.473C377.473 581.607 377.298 581.755 377.144 581.91C377.144 581.91 377.144 581.91 377.102 581.91L377.123 581.888Z" fill="white"/>
<path d="M376.73 581.812V581.917C376.737 581.873 376.737 581.828 376.73 581.784C376.726 581.727 376.726 581.671 376.73 581.615C376.73 581.615 376.73 581.552 376.73 581.509C376.725 581.61 376.725 581.711 376.73 581.812Z" fill="white"/>
<path d="M376.8 581.945C376.8 581.804 376.779 581.665 376.737 581.53C376.779 581.79 376.8 581.945 376.8 581.945Z" fill="white"/>
<path d="M293.534 574.125C289.706 564.878 285.241 555.906 280.172 547.275C282.225 536.404 283.625 517.361 279.173 508.717C275.882 502.33 262.597 501.36 253.426 501.493C246.345 492.14 240.62 487.32 240.62 487.32C240.62 487.32 197.988 494.22 188.255 494.277C178.522 494.333 178.529 499.723 178.529 499.723C178.529 499.723 171.749 520.164 164.084 530.319C156.418 540.473 135.798 552.805 106.085 557.556C76.3724 562.306 53.0029 556.452 47.644 553.473C42.2851 550.493 42.1093 553.367 51.7018 572.249C61.2944 591.131 76.0629 604.707 100.867 609.184C116.166 611.816 131.852 611.14 146.868 607.202C146.868 607.202 186.117 597.315 197.629 589.775C209.142 582.235 210.942 592.487 210.942 592.487L209.817 746.507L240.198 752.564L266.444 626.407L294.434 673.207L323.514 661.261C320.089 643.293 302.5 595.909 293.534 574.125V574.125Z" fill="#016BFF"/>
<path d="M214.005 368.297C213.386 372.558 211.577 376.556 208.787 379.83C206.643 382.575 203.915 384.805 200.802 386.36C200.071 386.713 199.312 387.004 198.531 387.227C198.531 384.799 198.489 382.329 198.357 379.921C197.861 370.901 196.044 361.509 190.309 354.574C187.55 351.261 184.067 348.627 180.13 346.876C180.242 345.21 180.375 343.559 180.48 341.893C180.78 339.045 180.766 336.173 180.438 333.328C180.068 331.601 179.857 329.844 179.809 328.079C179.872 326.434 179.634 320.122 180.934 318.757C183.102 319.663 185.424 320.138 187.773 320.157C193.033 320.115 197.211 316.882 200.026 312.746C201.062 312.407 202.138 312.209 203.226 312.158C206.412 312.634 196.904 321.221 200.005 320.248C197.986 320.871 196.512 323.908 195.562 325.644C194.165 328.331 193.355 331.494 194.724 334.335C196.065 337.051 198.874 339.388 200.865 341.62C203.549 344.444 206.059 347.428 208.382 350.557C212.056 355.68 214.739 361.971 214.005 368.297V368.297Z" fill="#1F2E54"/>
<path fill-rule="evenodd" clip-rule="evenodd" d="M293.239 275.478L309.126 267.806C310.578 267.106 311.847 266.076 312.83 264.798L320.247 255.179C322.023 252.752 321.548 249.353 319.174 247.505C316.8 245.656 313.387 246.028 311.467 248.343L310.11 249.924L312.971 243.157C313.364 242.216 313.329 241.151 312.874 240.238C312.42 239.324 311.59 238.654 310.602 238.4L306.082 238.998L320.212 219.71C322.215 216.977 320.268 213.674 317.336 212.74C313.962 211.665 310.841 213.885 308.746 216.345C300.128 226.491 293.597 238.225 287.53 250.029C285.492 253.997 283.526 257.997 281.632 262.03" fill="white"/>
<path d="M293.239 275.478L309.126 267.806C310.578 267.106 311.847 266.076 312.83 264.798L320.247 255.179C322.023 252.752 321.548 249.353 319.174 247.505C316.8 245.656 313.387 246.028 311.467 248.343L310.11 249.924L312.971 243.157C313.364 242.216 313.329 241.151 312.874 240.238C312.42 239.324 311.59 238.654 310.602 238.4L306.082 238.998L320.212 219.71C322.215 216.977 320.268 213.674 317.336 212.74C313.962 211.665 310.841 213.885 308.746 216.345C300.128 226.491 293.597 238.225 287.53 250.029C285.492 253.997 283.526 257.997 281.632 262.03" stroke="#1F2E54" stroke-width="4" stroke-linejoin="round"/>
<path d="M306.091 238.998C306.091 238.998 296.875 250.458 310.119 249.924" stroke="#1F2E54" stroke-width="4"/>
<path d="M165.26 343.082C170.296 343.395 175.235 344.604 179.845 346.654C183.805 348.415 187.308 351.061 190.084 354.389C195.857 361.364 197.686 370.793 198.185 379.856C198.319 382.296 198.382 384.778 198.361 387.197C198.255 408.657 194.683 429.892 188.818 450.656H241.912H286.116L288.142 445.586L289.759 441.508H296.58C298.738 441.508 300.753 442.587 301.949 444.383C303.145 446.179 303.363 448.455 302.53 450.445L296.756 464.255C293.21 472.701 285.606 478.759 276.581 480.329L275.969 480.441L274.358 480.722C265.821 482.487 246.736 485.56 228.107 488.415C211.068 491.052 194.402 493.492 186.519 494.624C183.53 495.06 180.478 495.383 177.377 495.58C158.973 496.712 139.972 492.62 135.05 471.673C131.843 458.257 132.546 443.793 132.694 429.829" stroke="#1F2E54" stroke-width="4"/>
<path d="M253.367 502.189C265.279 501.641 275.954 503.406 280.532 510.859C282.839 514.628 282.276 527.917 279.899 546.452" stroke="#1F2E54" stroke-width="4"/>
<path d="M53.7994 576.322C53.8251 576.354 53.8464 576.39 53.8627 576.428C58.9611 586.82 67.9272 595.792 79.3968 602.071C119.811 624.178 180.598 598.274 202.461 587.495C204.235 586.622 206.334 586.728 208.011 587.774C209.689 588.82 210.707 590.658 210.703 592.635V758.415L257.474 770.263C258.938 770.639 260.491 770.402 261.775 769.605C263.059 768.809 263.962 767.522 264.275 766.045C264.916 763.089 263.075 760.164 260.133 759.463L239.957 752.818C240.892 746.265 254.577 686.336 266.208 626.583" stroke="#1F2E54" stroke-width="4"/>
<path d="M239.515 486.621C251.47 496.746 260.056 512.314 268.094 525.54C287.679 557.765 302.327 592.838 313.705 628.726C317.144 639.569 320.308 650.524 323.297 661.479L346.138 656.789C348.834 655.913 351.736 657.349 352.674 660.024C353.612 662.699 352.243 665.633 349.591 666.633L300.611 684.915C300.611 684.915 286.279 658.146 266.251 626.554C236.899 580.203 182.659 508.763 168.341 524" stroke="#1F2E54" stroke-width="4"/>
<path d="M196.787 328.006C196.787 328.006 244.817 324.68 277.742 259.506C277.742 259.506 288.15 266.685 302.657 289.143C302.657 289.143 261.955 371.742 198.186 393.539" stroke="#1F2E54" stroke-width="4"/>
<path d="M192.677 252.103L195.457 256.382L197.131 258.985C198.83 262.993 200.323 267.087 201.606 271.251L201.689 271.547L204.871 283.862C204.877 283.875 204.877 283.89 204.871 283.904C205.941 285.687 207.415 287.185 209.172 288.274C209.588 288.501 209.975 288.777 210.326 289.097C212.236 291.04 207.199 291.603 206.157 292.243C205.223 292.892 204.661 293.961 204.649 295.107C198.667 320.321 202.516 313.699 199.945 319.308C202.175 317.394 207.72 311.307 207.72 311.307C208.415 310.849 209.068 309.477 209.52 308.794C210.954 306.565 212.189 304.21 213.209 301.757C216.38 294.432 217.111 286.261 215.294 278.478C212.424 266.381 205.733 254.278 192.677 252.103L192.677 252.103Z" fill="#1F2E54"/>
<path d="M191.792 259.295C191.277 261.912 190.039 264.332 188.218 266.277C186.241 268.445 183.938 270.29 181.394 271.747C176.606 274.605 171.278 276.765 167.255 280.623C163.227 284.506 160.816 289.775 160.508 295.37C160.227 301.099 162.27 307.033 163.513 312.397C167.451 329.734 166.188 346.395 164.011 363.845C161.947 380.309 157.553 396.421 149.03 410.752C138.976 427.646 122.471 441.168 103.895 448.108C88.4497 453.887 58.437 459.012 47.0848 442.935C45.1261 437.86 45.105 432.052 45.8632 426.583C50.3213 394.499 74.858 361.571 104.133 348.225C119.817 341.074 145.393 330.086 137.13 308.23C134.497 301.339 130.811 295.391 130.109 288.19C130.046 287.535 129.983 286.881 129.92 286.184C128.74 269.29 138.548 253.255 154.428 247.469C164.939 243.49 176.652 244.26 186.554 249.581C188.292 250.508 189.847 251.744 191.146 253.227C191.235 253.328 191.315 253.436 191.384 253.551C191.483 253.8 191.563 254.057 191.623 254.318C192.011 255.949 192.068 257.641 191.792 259.295V259.295Z" fill="#1F2E54"/>
<path d="M198.26 386.878C206.758 384.916 214.215 378.833 216.346 369.945C218.33 361.711 215.192 353.258 210.331 346.634C205.822 340.516 196.431 335.383 197.17 326.706C197.409 323.893 198.802 321.432 200.617 319.252C201.271 318.493 201.946 317.79 202.685 317.072" stroke="#1F2E54" stroke-width="4"/>
<path d="M180.737 318.619L180.343 347.33" stroke="#1F2E54" stroke-width="4"/>
<path fill-rule="evenodd" clip-rule="evenodd" d="M133.886 304.225C131.262 297.334 127.555 291.392 126.852 284.206C126.781 283.545 126.718 282.884 126.669 282.18C125.48 265.304 135.314 249.292 151.219 243.505C161.754 239.533 173.491 240.302 183.417 245.615C185.153 246.545 186.707 247.781 188.003 249.264L188.334 249.665C190.658 252.504 191.64 256.209 191.028 259.826C190.516 262.434 189.283 264.846 187.469 266.788C185.48 268.957 183.169 270.807 180.617 272.273C175.819 275.128 170.487 277.272 166.442 281.126C162.404 285.016 159.995 290.294 159.703 295.893C159.415 301.617 161.469 307.537 162.693 312.91C166.639 330.229 165.38 346.867 163.199 364.291C161.131 380.739 156.734 396.842 148.18 411.159C138.107 428.035 121.576 441.551 102.955 448.477C87.1764 454.356 56.2382 459.559 45.3698 442.352C41.7188 436.579 41.4796 429.273 42.4223 422.508C46.8892 390.464 71.4892 357.555 100.809 344.23C116.553 337.001 142.18 326.052 133.886 304.225Z" stroke="#1F2E54" stroke-width="4"/>
<circle cx="194.823" cy="282.13" r="2.85978" fill="#1F2E54"/>
<path d="M193.951 273.223C193.951 273.223 184.693 277.397 187.624 285.512" stroke="#1F2E54" stroke-width="4" stroke-linecap="round"/>
<path d="M202.506 317.209C204.826 316.365 207.3 313.695 208.987 311.946C210.853 309.956 212.52 307.788 213.964 305.475C222.269 292.192 222.118 275.303 213.578 262.171C210.681 257.702 206.822 253.739 201.986 251.491C197.954 249.593 193.443 248.956 189.044 249.664C191.502 251.67 193.707 253.968 195.61 256.508C198.475 260.267 200.481 264.608 201.487 269.225C201.641 270.033 201.775 270.835 201.915 271.65C202.618 275.992 203.012 280.39 205.142 283.946C206.228 285.741 207.727 287.251 209.515 288.351C209.935 288.578 210.327 288.854 210.681 289.173C212.615 291.113 207.518 291.668 206.464 292.307C203.757 293.888 204.762 298.427 204.404 301.055C203.972 304.122 203.053 307.101 201.683 309.88C201.198 310.867 200.646 311.821 200.031 312.733C197.22 316.899 193.002 320.16 187.701 320.188C185.343 320.167 183.01 319.689 180.833 318.782C177.099 317.266 173.759 314.918 171.069 311.918" stroke="#1F2E54" stroke-width="4" stroke-linecap="round"/>
<path d="M197.417 302.671C197.417 302.671 191.041 306.303 188.278 297.942" stroke="#1F2E54" stroke-width="4" stroke-linecap="round"/>
<path d="M42.6429 432.975C21.4483 490.008 31.1634 546.69 31.1634 546.69C63.1768 564.495 108.568 562.949 141.08 547.301C152.581 541.75 164.981 533.389 170 521.135C173.684 512.162 177.515 503.26 180.672 494.161" stroke="#1F2E54" stroke-width="4"/>
<path d="M188.995 450.978L186.984 457.772" stroke="#1F2E54" stroke-width="4" stroke-linecap="round"/>
<path d="M54.073 576.644C54.073 576.644 45.8623 562.001 43.191 552.255" stroke="#1F2E54" stroke-width="4"/>
<path d="M276.83 443.01L283.096 466.038L283.096 466.038L294.396 507.562C294.804 509.059 296.285 509.998 297.813 509.729L314.462 506.79C316.093 506.502 317.183 504.946 316.895 503.314L305.32 437.717C305.032 436.086 303.477 434.997 301.845 435.284L279.205 439.268C277.467 439.574 276.367 441.307 276.83 443.01Z" fill="white" stroke="#1F2E54" stroke-width="4"/>
<path opacity="0.1" d="M273.459 438.248L281.164 466.563L311.491 461.212L306.419 432.448L273.459 438.248Z" fill="#016BFF"/>
<path d="M303.338 414.418L272.17 419.914C270.538 420.201 269.449 421.757 269.737 423.389L273.493 444.693C273.781 446.324 275.337 447.414 276.968 447.126L308.136 441.631C309.768 441.343 310.857 439.787 310.57 438.155L306.813 416.851C306.526 415.22 304.97 414.13 303.338 414.418Z" fill="white" stroke="#1F2E54" stroke-width="4"/>
<path d="M241.742 409.889L264.144 408.203C265.914 408.07 267.181 406.438 266.874 404.691L259.909 365.151C259.601 363.402 257.85 362.302 256.141 362.784L234.523 368.876C233.041 369.294 232.116 370.766 232.383 372.283L238.562 407.417C238.83 408.935 240.205 410.004 241.742 409.889Z" fill="white" stroke="#1F2E54" stroke-width="4"/>
<mask id="path-41-inside-1_2619_29550" fill="white">
<path fill-rule="evenodd" clip-rule="evenodd" d="M444.129 263.06C445.026 262.6 445.962 262.28 446.935 262.109C462.871 259.299 482.878 297.22 491.622 346.809C500.365 396.397 494.535 438.875 478.599 441.685C477.117 441.946 475.599 441.855 474.058 441.435L343.251 417.896L288.655 420.913L275.556 346.498L327.885 330.682L444.12 263.008L444.129 263.06Z"/>
</mask>
<path fill-rule="evenodd" clip-rule="evenodd" d="M444.129 263.06C445.026 262.6 445.962 262.28 446.935 262.109C462.871 259.299 482.878 297.22 491.622 346.809C500.365 396.397 494.535 438.875 478.599 441.685C477.117 441.946 475.599 441.855 474.058 441.435L343.251 417.896L288.655 420.913L275.556 346.498L327.885 330.682L444.12 263.008L444.129 263.06Z" fill="white"/>
<path d="M444.129 263.06L445.955 266.619L441.131 269.094L440.19 263.755L444.129 263.06ZM446.935 262.109L447.63 266.048L447.63 266.048L446.935 262.109ZM491.622 346.809L487.682 347.503L491.622 346.809ZM478.599 441.685L477.905 437.745L477.905 437.745L478.599 441.685ZM474.058 441.435L474.767 437.498L474.941 437.529L475.111 437.576L474.058 441.435ZM343.251 417.896L343.031 413.902L343.499 413.876L343.96 413.959L343.251 417.896ZM288.655 420.913L288.875 424.907L285.331 425.103L284.715 421.607L288.655 420.913ZM275.556 346.498L271.617 347.192L271.002 343.696L274.399 342.669L275.556 346.498ZM327.885 330.682L329.897 334.139L329.491 334.375L329.042 334.511L327.885 330.682ZM444.12 263.008L442.107 259.552L447.063 256.666L448.059 262.314L444.12 263.008ZM442.303 259.501C443.54 258.866 444.856 258.413 446.241 258.169L447.63 266.048C447.067 266.147 446.511 266.333 445.955 266.619L442.303 259.501ZM446.241 258.169C452.012 257.152 457.471 259.94 462.127 264.248C466.842 268.61 471.36 275.071 475.513 282.943C483.842 298.729 491.137 321.026 495.561 346.114L487.682 347.503C483.362 323.003 476.283 301.545 468.438 286.676C464.504 279.22 460.486 273.628 456.694 270.12C452.845 266.559 449.826 265.66 447.63 266.048L446.241 258.169ZM495.561 346.114C499.985 371.202 500.755 394.65 498.328 412.333C497.118 421.15 495.082 428.767 492.143 434.478C489.241 440.119 485.065 444.606 479.294 445.624L477.905 437.745C480.101 437.358 482.63 435.482 485.03 430.818C487.393 426.225 489.256 419.596 490.403 411.245C492.689 394.589 492.003 372.004 487.682 347.503L495.561 346.114ZM479.294 445.624C477.176 445.997 475.06 445.854 473.006 445.294L475.111 437.576C476.138 437.856 477.058 437.895 477.905 437.745L479.294 445.624ZM343.96 413.959L474.767 437.498L473.35 445.371L342.543 421.832L343.96 413.959ZM288.434 416.919L343.031 413.902L343.472 421.89L288.875 424.907L288.434 416.919ZM279.496 345.805L292.594 420.22L284.715 421.607L271.617 347.192L279.496 345.805ZM329.042 334.511L276.714 350.327L274.399 342.669L326.727 326.853L329.042 334.511ZM446.132 266.465L329.897 334.139L325.872 327.225L442.107 259.552L446.132 266.465ZM440.19 263.755L440.18 263.703L448.059 262.314L448.068 262.366L440.19 263.755Z" fill="#1F2E54" mask="url(#path-41-inside-1_2619_29550)"/>
<path d="M452.939 421.656C443.099 410.271 433.533 386.209 428.468 357.484C424.724 336.249 424.162 316.567 426.287 302.065C427.343 294.856 429.063 288.926 431.385 284.723" stroke="#1F2E54" stroke-width="4" stroke-linecap="round"/>
<path d="M440.355 354.256C432.593 310.231 435.994 272.833 447.953 270.724C459.912 268.616 475.9 302.595 483.663 346.619C491.425 390.644 488.024 428.042 476.065 430.151C464.106 432.259 448.118 398.28 440.355 354.256Z" fill="#016BFF"/>
<mask id="mask0_2619_29550" style="mask-type:alpha" maskUnits="userSpaceOnUse" x="436" y="270" width="52" height="161">
<path d="M440.351 354.255C432.589 310.23 435.99 272.832 447.95 270.723C459.909 268.615 475.896 302.594 483.659 346.618C491.422 390.643 488.02 428.041 476.061 430.15C464.102 432.258 448.114 398.279 440.351 354.255Z" fill="#016BFF"/>
</mask>
<g mask="url(#mask0_2619_29550)">
<circle r="35.0001" transform="matrix(-1 0 0 1 432.34 355.041)" fill="#6B2EFF" stroke="#1F2E54" stroke-width="4"/>
</g>
<path d="M259.769 425.659C260.215 428.188 262.506 429.969 265.068 429.776L317.755 425.82C320.704 425.599 322.818 422.879 322.304 419.966L307.036 333.339C306.523 330.426 303.607 328.593 300.759 329.393L249.888 343.689C247.415 344.384 245.871 346.84 246.317 349.37L259.769 425.659Z" fill="#016BFF" stroke="#1F2E54" stroke-width="4"/>
<path d="M493.644 302.15L501.819 283.873" stroke="#1F2E54" stroke-width="4" stroke-linecap="round"/>
<path d="M507.17 388.042L557.841 416.879" stroke="#1F2E54" stroke-width="4" stroke-linecap="round"/>
<path d="M507.171 367.891L539.81 372.751" stroke="#1F2E54" stroke-width="4" stroke-linecap="round"/>
<path d="M502.189 320.562L538.593 295.166" stroke="#1F2E54" stroke-width="4" stroke-linecap="round"/>
<path d="M507.17 345.751L561.222 333.838" stroke="#1F2E54" stroke-width="4" stroke-linecap="round"/>
<path d="M601.887 608.559L578.31 622.881L577.62 591.144L519.94 550.008L601.887 518.969V608.559Z" fill="#7A97FF"/>
<path d="M578.31 622.881L576.31 622.924L576.385 626.39L579.348 624.59L578.31 622.881ZM601.887 608.559L602.925 610.268L603.887 609.684V608.559H601.887ZM601.887 518.969H603.887C603.887 518.312 603.564 517.697 603.023 517.324C602.482 516.95 601.793 516.866 601.178 517.099L601.887 518.969ZM519.94 550.008L519.232 548.138L515.732 549.464L518.779 551.637L519.94 550.008ZM577.62 591.144L579.62 591.101L579.598 590.098L578.781 589.516L577.62 591.144ZM579.348 624.59L602.925 610.268L600.848 606.849L577.271 621.172L579.348 624.59ZM603.887 608.559V518.969H599.887V608.559H603.887ZM601.178 517.099L519.232 548.138L520.648 551.879L602.595 520.84L601.178 517.099ZM518.779 551.637L576.459 592.773L578.781 589.516L521.101 548.38L518.779 551.637ZM575.621 591.188L576.31 622.924L580.309 622.838L579.62 591.101L575.621 591.188Z" fill="#1F2E54"/>
<mask id="path-55-inside-2_2619_29550" fill="white">
<path fill-rule="evenodd" clip-rule="evenodd" d="M578.98 589.816L408.654 548.792V635.497L408.649 635.497C408.65 635.514 408.652 635.532 408.654 635.549V635.598L408.659 635.599C409.544 644.046 415.455 652.249 425.817 659.413C436.221 666.605 450.757 672.502 467.999 676.524C485.241 680.547 504.598 682.558 524.172 682.361C543.745 682.163 562.865 679.763 579.656 675.396L579.619 675.369L578.98 636.175V589.816Z"/>
</mask>
<path fill-rule="evenodd" clip-rule="evenodd" d="M578.98 589.816L408.654 548.792V635.497L408.649 635.497C408.65 635.514 408.652 635.532 408.654 635.549V635.598L408.659 635.599C409.544 644.046 415.455 652.249 425.817 659.413C436.221 666.605 450.757 672.502 467.999 676.524C485.241 680.547 504.598 682.558 524.172 682.361C543.745 682.163 562.865 679.763 579.656 675.396L579.619 675.369L578.98 636.175V589.816Z" fill="#016BFF"/>
<path d="M408.654 548.792L409.591 544.903L404.654 543.714V548.792H408.654ZM578.98 589.816H582.98V586.665L579.916 585.927L578.98 589.816ZM408.654 635.497L408.729 639.496L412.654 639.423V635.497H408.654ZM408.649 635.497L408.574 631.498L404.237 631.579L404.668 635.895L408.649 635.497ZM408.654 635.549H412.654V635.345L412.633 635.141L408.654 635.549ZM408.654 635.598H404.654V638.776L407.749 639.494L408.654 635.598ZM408.659 635.599L412.637 635.182L412.34 632.347L409.564 631.703L408.659 635.599ZM425.817 659.413L423.543 662.703L423.543 662.703L425.817 659.413ZM579.656 675.396L580.663 679.267L588.882 677.13L582 672.154L579.656 675.396ZM579.619 675.369L575.62 675.434L575.652 677.437L577.276 678.611L579.619 675.369ZM578.98 636.175H574.98V636.208L574.98 636.24L578.98 636.175ZM407.717 552.68L578.043 593.705L579.916 585.927L409.591 544.903L407.717 552.68ZM412.654 635.497V548.792H404.654V635.497H412.654ZM408.723 639.496L408.729 639.496L408.579 631.497L408.574 631.498L408.723 639.496ZM412.633 635.141C412.632 635.127 412.63 635.113 412.629 635.099L404.668 635.895C404.671 635.915 404.673 635.936 404.675 635.957L412.633 635.141ZM412.654 635.598V635.549H404.654V635.598H412.654ZM409.564 631.703L409.558 631.702L407.749 639.494L407.755 639.496L409.564 631.703ZM428.092 656.122C418.217 649.296 413.352 641.999 412.637 635.182L404.681 636.016C405.737 646.092 412.692 655.202 423.543 662.703L428.092 656.122ZM468.908 672.629C451.974 668.678 437.953 662.939 428.092 656.122L423.543 662.703C434.49 670.271 449.54 676.325 467.09 680.42L468.908 672.629ZM524.131 678.361C504.843 678.556 485.808 676.572 468.908 672.629L467.09 680.42C484.674 684.522 504.352 686.561 524.212 686.36L524.131 678.361ZM578.649 671.525C562.211 675.8 543.42 678.166 524.131 678.361L524.212 686.36C544.071 686.16 563.519 683.726 580.663 679.267L578.649 671.525ZM577.276 678.611L577.313 678.638L582 672.154L581.963 672.128L577.276 678.611ZM574.98 636.24L575.62 675.434L583.619 675.304L582.979 636.11L574.98 636.24ZM574.98 589.816V636.175H582.98V589.816H574.98Z" fill="#1F2E54" mask="url(#path-55-inside-2_2619_29550)"/>
<path d="M522.078 551.39L574.991 590.406C557.404 594.267 537.671 596.117 517.771 595.743C496.265 595.339 475.51 592.354 457.937 587.16C440.325 581.954 426.814 574.797 418.793 566.672C411.309 559.091 409.009 550.499 411.557 542.704L522.078 551.39Z" fill="#016BFF" stroke="#1F2E54" stroke-width="4"/>
<path d="M520.708 549.676L412.047 542.209C415.426 534.625 423.492 527.231 435.993 520.933C449.75 514.002 467.975 508.861 488.527 506.181C509.066 503.501 530.982 503.403 551.651 505.897C570.315 508.15 587.188 512.423 600.671 518.242L520.708 549.676Z" fill="#6B2EFF" stroke="#1F2E54" stroke-width="4"/>
<path d="M16.1052 235.435C16.4373 233.051 19.2999 232.009 21.0865 233.622L25.9452 238.007C26.3908 238.409 26.9468 238.668 27.5413 238.751L34.0238 239.654C36.4074 239.986 37.4493 242.849 35.8368 244.636L31.4515 249.494C31.0493 249.94 30.7901 250.496 30.7073 251.09L29.8041 257.573C29.472 259.957 26.6093 260.998 24.8227 259.386L19.964 255.001C19.5184 254.598 18.9624 254.339 18.3679 254.256L11.8855 253.353C9.50182 253.021 8.4599 250.158 10.0724 248.372L14.4577 243.513C14.8599 243.068 15.1192 242.512 15.202 241.917L16.1052 235.435Z" stroke="#1F2E54" stroke-width="4" stroke-linecap="round"/>
<path d="M381.268 491.274C383.055 489.662 385.918 490.704 386.25 493.088L387.153 499.57C387.236 500.164 387.495 500.72 387.897 501.166L392.283 506.025C393.895 507.811 392.853 510.674 390.469 511.006L383.987 511.909C383.393 511.992 382.837 512.251 382.391 512.654L377.532 517.039C375.746 518.651 372.883 517.609 372.551 515.226L371.648 508.743C371.565 508.149 371.306 507.593 370.903 507.147L366.518 502.289C364.906 500.502 365.948 497.639 368.331 497.307L374.814 496.404C375.408 496.321 375.964 496.062 376.41 495.66L381.268 491.274Z" stroke="#1F2E54" stroke-width="4" stroke-linecap="round"/>
<path d="M243.871 11.2344C244.203 8.85074 247.066 7.80882 248.852 9.42134L253.711 13.8067C254.156 14.2088 254.712 14.4681 255.307 14.5509L261.789 15.4541C264.173 15.7862 265.215 18.6488 263.602 20.4354L259.217 25.2941C258.815 25.7397 258.556 26.2957 258.473 26.8902L257.57 33.3727C257.238 35.7564 254.375 36.7983 252.588 35.1857L247.73 30.8004C247.284 30.3983 246.728 30.139 246.134 30.0562L239.651 29.153C237.267 28.8209 236.226 25.9583 237.838 24.1717L242.223 19.3129C242.626 18.8674 242.885 18.3114 242.968 17.7169L243.871 11.2344Z" stroke="#1F2E54" stroke-width="4" stroke-linecap="round"/>
<path d="M550.301 197.878C552.087 196.266 554.95 197.308 555.282 199.692L556.185 206.174C556.268 206.768 556.527 207.324 556.929 207.77L561.315 212.629C562.927 214.415 561.885 217.278 559.502 217.61L553.019 218.513C552.425 218.596 551.869 218.855 551.423 219.258L546.564 223.643C544.778 225.255 541.915 224.213 541.583 221.83L540.68 215.347C540.597 214.753 540.338 214.197 539.936 213.751L535.55 208.893C533.938 207.106 534.98 204.243 537.363 203.911L543.846 203.008C544.44 202.925 544.996 202.666 545.442 202.264L550.301 197.878Z" stroke="#1F2E54" stroke-width="4" stroke-linecap="round"/>
<path d="M118.374 203.802C153.622 197.587 189.185 164.937 167.353 157.934C149.622 152.246 138.508 179.875 196.788 194.238" stroke="#1F2E54" stroke-width="4" stroke-linecap="round" stroke-linejoin="round"/>
</g>
<defs>
<clipPath id="clip0_2619_29550">
<rect width="606" height="774" fill="white"/>
</clipPath>
</defs>
</svg>
