<svg width="46" height="46" viewBox="0 0 46 46" fill="none" xmlns="http://www.w3.org/2000/svg">
<g clip-path="url(#clip0_2624_30992)">
<path fill-rule="evenodd" clip-rule="evenodd" d="M27.7036 1.5612C27.7804 0.869742 28.4032 0.371449 29.0947 0.448237C37.9778 1.43472 44.996 8.44323 45.9921 17.3266C46.0697 18.018 45.572 18.6413 44.8807 18.7188C44.1893 18.7963 43.566 18.2987 43.4884 17.6073C42.6236 9.89438 36.5298 3.8088 28.8166 2.95224C28.1251 2.87546 27.6269 2.25267 27.7036 1.5612Z" fill="#1F2E54"/>
<path fill-rule="evenodd" clip-rule="evenodd" d="M27.7191 9.4045C27.8517 8.72156 28.5129 8.27546 29.1959 8.40811C33.6714 9.27744 37.168 12.7773 38.0396 17.2513C38.1726 17.9342 37.7269 18.5956 37.044 18.7286C36.3611 18.8617 35.6997 18.4159 35.5667 17.7331C34.8912 14.2654 32.1816 11.5545 28.7155 10.8813C28.0325 10.7486 27.5864 10.0875 27.7191 9.4045Z" fill="#1F2E54"/>
<path fill-rule="evenodd" clip-rule="evenodd" d="M21.5096 24.0597C30.4535 33.0012 32.4825 22.6568 38.1771 28.3476C43.6671 33.8362 46.8249 34.9359 39.8667 41.8899C38.9954 42.5901 33.4596 51.0144 14.0051 31.5647C-5.45192 12.1127 2.96724 6.57111 3.66764 5.70006C10.6403 -1.27323 11.7234 1.9006 17.2134 7.38924C22.9056 13.0824 12.5658 15.1181 21.5096 24.0597Z" fill="#FF5B5D"/>
<path fill-rule="evenodd" clip-rule="evenodd" d="M4.59282 6.55656C4.50829 6.65259 4.41295 6.74549 4.35206 6.80482C4.34595 6.81077 4.34019 6.81638 4.33483 6.82162L4.32562 6.83062C4.23116 6.92289 4.1335 7.01829 4.02597 7.13147C3.80733 7.36162 3.55681 7.6567 3.32324 8.03518C2.86664 8.77505 2.43168 9.90145 2.53469 11.5879C2.74533 15.0366 5.22265 21.0035 14.8957 30.674C24.5676 40.3435 30.5334 42.8176 33.9807 43.0263C35.6665 43.1283 36.7922 42.6928 37.5318 42.2357C37.9101 42.0019 38.205 41.7512 38.4351 41.5323C38.5481 41.425 38.6432 41.3275 38.7354 41.2331L38.745 41.2232C38.7503 41.2178 38.7559 41.2121 38.7618 41.206C38.8212 41.145 38.9142 41.0494 39.0105 40.9647C40.7036 39.2691 41.6872 38.0191 42.1886 37.0386C42.6659 36.1053 42.6697 35.4956 42.4941 34.9653C42.2879 34.3425 41.777 33.6478 40.8339 32.6809C40.3738 32.2092 39.8453 31.7057 39.2431 31.133L39.211 31.1025C38.6227 30.5429 37.9731 29.925 37.2866 29.2388M4.59282 6.55656C6.29324 4.85953 7.54568 3.87407 8.52733 3.37199C9.46164 2.89412 10.0704 2.89122 10.5991 3.06698C11.221 3.2737 11.9143 3.78548 12.8807 4.73015C13.3522 5.19098 13.8553 5.72003 14.4279 6.32269L14.4392 6.33459C15.0038 6.92874 15.628 7.58566 16.3226 8.28007C17.5626 9.52032 17.7873 10.398 17.7691 11.1061C17.7587 11.5074 17.6676 11.9324 17.512 12.4376C17.4344 12.6899 17.3452 12.9482 17.2466 13.2309C17.2367 13.259 17.2268 13.2874 17.2168 13.3161C17.1284 13.5689 17.0333 13.8411 16.9434 14.1192C16.5354 15.3822 16.184 16.9168 16.6422 18.7837C17.0938 20.6237 18.2896 22.6219 20.619 24.9507C22.9484 27.2795 24.9467 28.4745 26.7865 28.9253C28.6535 29.3827 30.1875 29.0302 31.45 28.6212C31.7279 28.5312 32 28.4359 32.2526 28.3474C32.2813 28.3373 32.3097 28.3274 32.3379 28.3175C32.6204 28.2186 32.8786 28.1293 33.1307 28.0515C33.6356 27.8956 34.0603 27.8042 34.4613 27.7936C35.1687 27.775 36.0461 27.9992 37.2866 29.2388M16.2581 4.59123C16.8267 5.18965 17.4323 5.827 18.104 6.49855C19.7101 8.10488 20.3277 9.6168 20.2876 11.171C20.2688 11.9009 20.1057 12.5753 19.9199 13.1789C19.8269 13.4811 19.7235 13.7796 19.6252 14.0613C19.6153 14.0896 19.6054 14.1177 19.5957 14.1457C19.506 14.4023 19.4209 14.6458 19.3408 14.8937C18.9934 15.9689 18.7926 16.9757 19.089 18.1832C19.392 19.4176 20.2577 21.027 22.4003 23.169C24.5428 25.311 26.1521 26.1759 27.3861 26.4783C28.593 26.774 29.599 26.5726 30.6736 26.2245C30.9213 26.1442 31.1646 26.059 31.421 25.9692C31.4491 25.9593 31.4772 25.9495 31.5056 25.9396C31.7872 25.841 32.0855 25.7374 32.3875 25.6442C32.9909 25.4579 33.6651 25.2944 34.3949 25.2751C35.949 25.2341 37.4608 25.8511 39.0675 27.4567C39.7316 28.1206 40.3621 28.7203 40.9544 29.2836L40.9795 29.3075C41.5737 29.8727 42.1382 30.4099 42.6375 30.9218C43.6131 31.9221 44.4861 32.9661 44.8858 34.1735C45.3162 35.4734 45.1478 36.7855 44.4318 38.1857C43.7432 39.5322 42.5221 41.0172 40.7571 42.7811C40.725 42.8132 40.6912 42.8435 40.6558 42.872C40.6604 42.8683 40.6632 42.8659 40.6634 42.866C40.6638 42.8665 40.6364 42.8923 40.5477 42.9832L40.5329 42.9984C40.4428 43.0907 40.3189 43.2176 40.1713 43.358C39.8559 43.6579 39.4235 44.0283 38.8563 44.3788C37.7049 45.0905 36.0674 45.6766 33.8285 45.5411C29.4265 45.2746 22.8971 42.236 13.1144 32.4557C3.33049 22.6743 0.288898 16.1444 0.0199757 11.7415C-0.1168 9.50216 0.468294 7.86408 1.17924 6.71205C1.52945 6.14458 1.89958 5.71185 2.19941 5.39623C2.34011 5.24813 2.46727 5.12395 2.55974 5.03364C2.56468 5.02882 2.56953 5.02409 2.57427 5.01946C2.66541 4.93042 2.69127 4.90309 2.6917 4.90348C2.69184 4.90361 2.68951 4.90641 2.68593 4.91086C2.71439 4.87547 2.74474 4.84164 2.77685 4.80952C4.54523 3.04099 6.03265 1.81811 7.3801 1.12895C8.78148 0.412193 10.094 0.244098 11.3939 0.676218C12.6006 1.07737 13.6432 1.95234 14.6418 2.92852C15.1519 3.42713 15.6875 3.9908 16.2509 4.58373L16.2581 4.59123Z" fill="#1F2E54"/>
</g>
<defs>
<clipPath id="clip0_2624_30992">
<rect width="46" height="46" fill="white"/>
</clipPath>
</defs>
</svg>
