<svg width="404" height="320" viewBox="0 0 404 320" fill="none" xmlns="http://www.w3.org/2000/svg">
<path d="M0 0H404V320H0V0Z" fill="#F9FAFC"/>
<mask id="mask0_2619_28920" style="mask-type:alpha" maskUnits="userSpaceOnUse" x="0" y="0" width="404" height="320">
<path d="M0 0H404V320H0V0Z" fill="#EFF1F6"/>
</mask>
<g mask="url(#mask0_2619_28920)">
<rect x="1.6227" y="2.31745" width="163.07" height="203.237" rx="14" transform="matrix(0.984767 0.173879 -0.173418 0.984848 204.853 52.1609)" fill="white" stroke="#1F2E54" stroke-width="4"/>
<path d="M210.459 231.029C209.653 235.609 205.292 238.663 200.725 237.857C196.157 237.05 193.103 232.687 193.909 228.107C194.716 223.527 199.076 220.473 203.644 221.279C208.211 222.086 211.266 226.449 210.459 231.029Z" fill="white" stroke="#1F2E54" stroke-width="4"/>
<path d="M237.844 235.865C237.037 240.445 232.677 243.499 228.109 242.692C223.542 241.886 220.488 237.523 221.294 232.942C222.101 228.362 226.461 225.308 231.028 226.115C235.596 226.921 238.65 231.284 237.844 235.865Z" fill="white" stroke="#1F2E54" stroke-width="4"/>
<path d="M265.229 240.699C264.422 245.279 260.062 248.333 255.494 247.527C250.926 246.72 247.872 242.357 248.679 237.777C249.485 233.197 253.846 230.143 258.413 230.949C262.981 231.756 266.035 236.119 265.229 240.699Z" fill="white" stroke="#1F2E54" stroke-width="4"/>
<rect x="1.6227" y="2.31745" width="129.391" height="129.563" rx="14" transform="matrix(0.984767 0.173879 -0.173418 0.984848 218.264 73.1045)" fill="#7A97FF" stroke="#1F2E54" stroke-width="4"/>
<path d="M275.435 131.792L276.641 134.556L278.718 132.372C282.27 128.635 287.556 126.696 292.999 127.657C301.644 129.183 307.418 137.436 305.892 146.099C304.227 155.557 297.581 161.833 289.74 166.545C285.829 168.896 281.699 170.81 277.86 172.518C277.253 172.788 276.65 173.054 276.054 173.317C273.579 174.41 271.234 175.445 269.261 176.464C267.756 174.831 265.905 173.055 263.953 171.18C263.483 170.729 263.008 170.273 262.529 169.811C259.505 166.891 256.277 163.678 253.405 160.13C247.647 153.016 243.545 144.842 245.211 135.385C246.736 126.721 254.98 120.944 263.626 122.47C269.069 123.431 273.373 127.065 275.435 131.792Z" fill="white" stroke="#1F2E54" stroke-width="4"/>
<rect x="2.25846" y="1.70187" width="163.068" height="203.24" rx="14" transform="matrix(0.990242 -0.13936 0.138987 0.990294 34.8324 58.06)" fill="white" stroke="#1F2E54" stroke-width="4"/>
<path d="M95.9057 225.741C96.5521 230.346 93.3477 234.6 88.7547 235.246C84.1617 235.893 79.9106 232.688 79.2642 228.083C78.6178 223.477 81.8222 219.223 86.4152 218.577C91.0081 217.93 95.2593 221.135 95.9057 225.741Z" fill="white" stroke="#1F2E54" stroke-width="4"/>
<path d="M123.442 221.866C124.088 226.471 120.884 230.725 116.291 231.371C111.698 232.018 107.447 228.813 106.8 224.208C106.154 219.602 109.358 215.348 113.951 214.702C118.544 214.055 122.795 217.26 123.442 221.866Z" fill="white" stroke="#1F2E54" stroke-width="4"/>
<path d="M150.979 217.99C151.625 222.595 148.421 226.849 143.828 227.496C139.235 228.142 134.984 224.937 134.337 220.332C133.691 215.726 136.895 211.472 141.488 210.826C146.081 210.18 150.333 213.384 150.979 217.99Z" fill="white" stroke="#1F2E54" stroke-width="4"/>
<rect x="2.25846" y="1.70187" width="129.389" height="129.564" rx="14" transform="matrix(0.990242 -0.13936 0.138987 0.990294 53.8168 72.1687)" fill="#6B2EFF" stroke="#1F2E54" stroke-width="4"/>
<path d="M125.031 109.849L127.031 112.105L128.332 109.384C130.558 104.732 134.986 101.251 140.459 100.481C149.153 99.2578 157.19 105.32 158.413 114.031C159.748 123.541 155.364 131.567 149.361 138.475C146.367 141.92 143.03 145.019 139.905 147.832C139.411 148.276 138.92 148.716 138.435 149.15C136.418 150.955 134.507 152.666 132.945 154.245C131.01 153.158 128.702 152.041 126.266 150.863C125.68 150.579 125.087 150.292 124.49 150.001C120.712 148.16 116.651 146.102 112.825 143.617C105.153 138.633 98.7297 132.129 97.3949 122.618C96.1723 113.907 102.23 105.861 110.923 104.638C116.396 103.868 121.612 105.991 125.031 109.849Z" fill="white" stroke="#1F2E54" stroke-width="4"/>
</g>
</svg>
