<svg width="404" height="320" viewBox="0 0 404 320" fill="none" xmlns="http://www.w3.org/2000/svg">
<path d="M0 0H404V320H0V0Z" fill="#F9FAFC"/>
<mask id="mask0_2619_28918" style="mask-type:alpha" maskUnits="userSpaceOnUse" x="0" y="0" width="404" height="320">
<path d="M0 0H404V320H0V0Z" fill="#F9FAFC"/>
</mask>
<g mask="url(#mask0_2619_28918)">
<mask id="path-3-inside-1_2619_28918" fill="white">
<path fill-rule="evenodd" clip-rule="evenodd" d="M288.446 221.646H115.553V244.889H115.554C115.553 244.915 115.553 244.941 115.553 244.967C115.553 254.629 154.256 262.461 201.999 262.461C249.743 262.461 288.446 254.629 288.446 244.967C288.446 244.941 288.446 244.915 288.445 244.889H288.446V221.646Z"/>
</mask>
<path fill-rule="evenodd" clip-rule="evenodd" d="M288.446 221.646H115.553V244.889H115.554C115.553 244.915 115.553 244.941 115.553 244.967C115.553 254.629 154.256 262.461 201.999 262.461C249.743 262.461 288.446 254.629 288.446 244.967C288.446 244.941 288.446 244.915 288.445 244.889H288.446V221.646Z" fill="white"/>
<path d="M115.553 221.646V217.646H111.553V221.646H115.553ZM288.446 221.646H292.446V217.646H288.446V221.646ZM115.553 244.889H111.553V248.889H115.553V244.889ZM115.554 244.889L119.553 244.975L119.64 240.889H115.554V244.889ZM288.445 244.889V240.889H284.359L284.446 244.974L288.445 244.889ZM288.446 244.889V248.889H292.446V244.889H288.446ZM115.553 225.646H288.446V217.646H115.553V225.646ZM119.553 244.889V221.646H111.553V244.889H119.553ZM115.554 240.889H115.553V248.889H115.554V240.889ZM119.553 244.967C119.553 244.969 119.553 244.972 119.553 244.975L111.554 244.804C111.553 244.858 111.553 244.912 111.553 244.967H119.553ZM201.999 258.461C178.311 258.461 156.978 256.515 141.666 253.417C133.977 251.86 128.015 250.054 124.073 248.168C122.092 247.22 120.832 246.351 120.122 245.648C119.42 244.954 119.553 244.737 119.553 244.967H111.553C111.553 247.611 112.895 249.752 114.496 251.336C116.089 252.912 118.226 254.239 120.62 255.384C125.426 257.684 132.124 259.648 140.079 261.258C156.054 264.491 177.944 266.461 201.999 266.461V258.461ZM284.446 244.967C284.446 244.737 284.579 244.954 283.877 245.648C283.167 246.351 281.907 247.22 279.926 248.168C275.984 250.054 270.022 251.86 262.333 253.417C247.021 256.515 225.688 258.461 201.999 258.461V266.461C226.054 266.461 247.944 264.491 263.92 261.258C271.875 259.648 278.573 257.684 283.379 255.384C285.773 254.239 287.91 252.912 289.502 251.336C291.104 249.752 292.446 247.611 292.446 244.967H284.446ZM284.446 244.974C284.446 244.972 284.446 244.969 284.446 244.967H292.446C292.446 244.912 292.445 244.858 292.444 244.804L284.446 244.974ZM288.446 240.889H288.445V248.889H288.446V240.889ZM284.446 221.646V244.889H292.446V221.646H284.446Z" fill="#1F2E54" mask="url(#path-3-inside-1_2619_28918)"/>
<path d="M286.446 221.646C286.446 222.135 286.21 222.833 285.283 223.75C284.352 224.67 282.873 225.654 280.789 226.652C276.631 228.641 270.485 230.487 262.73 232.056C247.252 235.189 225.779 237.141 201.999 237.141C178.22 237.141 156.747 235.189 141.269 232.056C133.514 230.487 127.368 228.641 123.209 226.652C121.125 225.654 119.646 224.67 118.715 223.75C117.789 222.833 117.553 222.135 117.553 221.646C117.553 221.157 117.789 220.459 118.715 219.542C119.646 218.622 121.125 217.638 123.209 216.64C127.368 214.651 133.514 212.805 141.269 211.236C156.747 208.103 178.22 206.151 201.999 206.151C225.779 206.151 247.252 208.103 262.73 211.236C270.485 212.805 276.631 214.651 280.789 216.64C282.873 217.638 284.352 218.622 285.283 219.542C286.21 220.459 286.446 221.157 286.446 221.646Z" fill="white" stroke="#1F2E54" stroke-width="4"/>
<path d="M286.437 221.626C286.437 222.114 286.201 222.811 285.276 223.726C284.346 224.646 282.869 225.628 280.787 226.624C276.634 228.612 270.495 230.455 262.748 232.023C247.286 235.152 225.837 237.102 202.083 237.102C178.329 237.102 156.88 235.152 141.419 232.023C133.672 230.455 127.533 228.612 123.379 226.624C121.297 225.628 119.82 224.646 118.89 223.726C117.965 222.811 117.729 222.114 117.729 221.626C117.729 221.138 117.965 220.441 118.89 219.526C119.82 218.607 121.297 217.624 123.379 216.628C127.533 214.64 133.672 212.797 141.419 211.229C156.88 208.1 178.329 206.15 202.083 206.15C225.837 206.15 247.286 208.1 262.748 211.229C270.495 212.797 276.634 214.64 280.787 216.628C282.869 217.624 284.346 218.607 285.276 219.526C286.201 220.441 286.437 221.138 286.437 221.626Z" fill="#FFC452" stroke="#1F2E54" stroke-width="4"/>
<path d="M232.622 221.326C232.622 221.326 232.621 221.328 232.618 221.332C232.621 221.328 232.622 221.326 232.622 221.326ZM231.17 221.002C231.687 221.238 232.048 221.451 232.288 221.626C232.048 221.8 231.687 222.014 231.17 222.25C229.737 222.905 227.538 223.545 224.663 224.1C218.946 225.205 210.961 225.902 202.082 225.902C193.203 225.902 185.218 225.205 179.501 224.1C176.626 223.545 174.427 222.905 172.994 222.25C172.478 222.014 172.116 221.8 171.876 221.626C172.116 221.451 172.478 221.238 172.994 221.002C174.427 220.347 176.626 219.707 179.501 219.151C185.218 218.046 193.203 217.349 202.082 217.349C210.961 217.349 218.946 218.046 224.663 219.151C227.538 219.707 229.737 220.347 231.17 221.002ZM171.542 221.326C171.542 221.326 171.544 221.328 171.546 221.332C171.543 221.328 171.542 221.326 171.542 221.326ZM171.542 221.926C171.542 221.926 171.543 221.924 171.546 221.92C171.544 221.924 171.542 221.926 171.542 221.926ZM232.618 221.92C232.621 221.924 232.622 221.926 232.622 221.926C232.622 221.926 232.621 221.924 232.618 221.92Z" fill="white" stroke="#1F2E54" stroke-width="4"/>
<mask id="path-8-inside-2_2619_28918" fill="white">
<path fill-rule="evenodd" clip-rule="evenodd" d="M314.684 159.701H89.3145V189.999H89.3155C89.3148 190.033 89.3145 190.066 89.3145 190.1C89.3145 202.694 139.765 212.904 201.999 212.904C264.234 212.904 314.684 202.694 314.684 190.1C314.684 190.066 314.684 190.033 314.683 189.999H314.684V159.701Z"/>
</mask>
<path fill-rule="evenodd" clip-rule="evenodd" d="M314.684 159.701H89.3145V189.999H89.3155C89.3148 190.033 89.3145 190.066 89.3145 190.1C89.3145 202.694 139.765 212.904 201.999 212.904C264.234 212.904 314.684 202.694 314.684 190.1C314.684 190.066 314.684 190.033 314.683 189.999H314.684V159.701Z" fill="white"/>
<path d="M89.3145 159.701V155.701H85.3145V159.701H89.3145ZM314.684 159.701H318.684V155.701H314.684V159.701ZM89.3145 189.999H85.3145V193.999H89.3145V189.999ZM89.3155 189.999L93.3146 190.084L93.4017 185.999H89.3155V189.999ZM314.683 189.999V185.999H310.597L310.684 190.085L314.683 189.999ZM314.684 189.999V193.999H318.684V189.999H314.684ZM89.3145 163.701H314.684V155.701H89.3145V163.701ZM93.3145 189.999V159.701H85.3145V189.999H93.3145ZM89.3155 185.999H89.3145V193.999H89.3155V185.999ZM93.3145 190.1C93.3145 190.094 93.3145 190.089 93.3146 190.084L85.3164 189.914C85.3151 189.976 85.3145 190.038 85.3145 190.1H93.3145ZM201.999 208.904C171.066 208.904 143.173 206.364 123.113 202.304C113.049 200.268 105.167 197.89 99.8962 195.368C97.2516 194.102 95.4763 192.9 94.4165 191.851C93.3655 190.812 93.3145 190.237 93.3145 190.1H85.3145C85.3145 193.111 86.84 195.61 88.7911 197.54C90.7334 199.46 93.3859 201.121 96.4434 202.584C102.577 205.519 111.197 208.055 121.526 210.145C142.249 214.339 170.699 216.904 201.999 216.904V208.904ZM310.684 190.1C310.684 190.237 310.633 190.812 309.582 191.851C308.522 192.9 306.747 194.102 304.103 195.368C298.832 197.89 290.949 200.268 280.886 202.304C260.826 206.364 232.933 208.904 201.999 208.904V216.904C233.3 216.904 261.75 214.339 282.473 210.145C292.802 208.055 301.421 205.519 307.555 202.584C310.613 201.121 313.265 199.46 315.208 197.54C317.159 195.61 318.684 193.111 318.684 190.1H310.684ZM310.684 190.085C310.684 190.089 310.684 190.094 310.684 190.1H318.684C318.684 190.038 318.684 189.976 318.682 189.913L310.684 190.085ZM314.684 185.999H314.683V193.999H314.684V185.999ZM310.684 159.701V189.999H318.684V159.701H310.684Z" fill="#1F2E54" mask="url(#path-8-inside-2_2619_28918)"/>
<path d="M312.684 159.701C312.684 160.557 312.265 161.613 310.989 162.875C309.708 164.141 307.714 165.459 304.966 166.774C299.479 169.399 291.413 171.816 281.283 173.866C261.057 177.959 233.025 180.506 201.999 180.506C170.974 180.506 142.942 177.959 122.716 173.866C112.586 171.816 104.519 169.399 99.033 166.774C96.2851 165.459 94.2906 164.141 93.0102 162.875C91.7341 161.613 91.3145 160.557 91.3145 159.701C91.3145 158.845 91.7341 157.789 93.0102 156.527C94.2906 155.261 96.2851 153.943 99.033 152.629C104.519 150.004 112.586 147.586 122.716 145.536C142.942 141.443 170.974 138.896 201.999 138.896C233.025 138.896 261.057 141.443 281.283 145.536C291.413 147.586 299.479 150.004 304.966 152.629C307.714 153.943 309.708 155.261 310.989 156.527C312.265 157.789 312.684 158.845 312.684 159.701Z" fill="#FF8A1D" stroke="#1F2E54" stroke-width="4"/>
<path d="M242.387 159.596C242.387 159.596 242.386 159.599 242.383 159.607C242.385 159.599 242.386 159.596 242.387 159.596ZM242.137 159.504C242.224 159.587 242.282 159.653 242.32 159.701C242.282 159.75 242.224 159.815 242.137 159.898C241.796 160.22 241.183 160.626 240.21 161.07C238.276 161.954 235.352 162.8 231.581 163.529C224.072 164.98 213.612 165.891 201.999 165.891C190.386 165.891 179.926 164.98 172.417 163.529C168.646 162.8 165.722 161.954 163.788 161.07C162.815 160.626 162.202 160.22 161.861 159.898C161.774 159.815 161.716 159.75 161.678 159.701C161.716 159.653 161.774 159.587 161.861 159.504C162.202 159.182 162.815 158.777 163.788 158.332C165.722 157.448 168.646 156.602 172.417 155.873C179.926 154.422 190.386 153.511 201.999 153.511C213.612 153.511 224.072 154.422 231.581 155.873C235.352 156.602 238.276 157.448 240.21 158.332C241.183 158.777 241.796 159.182 242.137 159.504ZM161.611 159.596C161.611 159.596 161.613 159.599 161.615 159.607C161.612 159.599 161.611 159.596 161.611 159.596ZM161.611 159.806C161.611 159.806 161.612 159.803 161.615 159.796C161.613 159.803 161.611 159.806 161.611 159.806ZM242.383 159.796C242.386 159.803 242.387 159.806 242.387 159.806C242.386 159.806 242.385 159.803 242.383 159.796Z" fill="white" stroke="#1F2E54" stroke-width="4"/>
<mask id="path-12-inside-3_2619_28918" fill="white">
<path fill-rule="evenodd" clip-rule="evenodd" d="M332.629 83.9751H71.3701V119.098H71.3714C71.3705 119.137 71.3701 119.175 71.3701 119.214C71.3701 133.815 129.855 145.65 202 145.65C274.144 145.65 332.629 133.815 332.629 119.214C332.629 119.175 332.629 119.137 332.628 119.098H332.629V83.9751Z"/>
</mask>
<path fill-rule="evenodd" clip-rule="evenodd" d="M332.629 83.9751H71.3701V119.098H71.3714C71.3705 119.137 71.3701 119.175 71.3701 119.214C71.3701 133.815 129.855 145.65 202 145.65C274.144 145.65 332.629 133.815 332.629 119.214C332.629 119.175 332.629 119.137 332.628 119.098H332.629V83.9751Z" fill="white"/>
<path d="M71.3701 83.9751V79.9751H67.3701V83.9751H71.3701ZM332.629 83.9751H336.629V79.9751H332.629V83.9751ZM71.3701 119.098H67.3701V123.098H71.3701V119.098ZM71.3714 119.098L75.3705 119.183L75.4575 115.098H71.3714V119.098ZM332.628 119.098V115.098H328.542L328.629 119.183L332.628 119.098ZM332.629 119.098V123.098H336.629V119.098H332.629ZM71.3701 87.9751H332.629V79.9751H71.3701V87.9751ZM75.3701 119.098V83.9751H67.3701V119.098H75.3701ZM71.3714 115.098H71.3701V123.098H71.3714V115.098ZM75.3701 119.214C75.3701 119.204 75.3702 119.193 75.3705 119.183L67.3723 119.013C67.3708 119.08 67.3701 119.147 67.3701 119.214H75.3701ZM202 141.65C166.111 141.65 133.732 138.704 110.424 133.987C98.7373 131.622 89.5405 128.852 83.3621 125.896C80.2634 124.413 78.1356 122.982 76.8368 121.698C75.5466 120.422 75.3701 119.602 75.3701 119.214H67.3701C67.3701 122.476 69.0212 125.22 71.2113 127.386C73.3927 129.543 76.3977 131.432 79.9092 133.113C86.9512 136.482 96.8847 139.409 108.837 141.828C132.808 146.679 165.744 149.65 202 149.65V141.65ZM328.629 119.214C328.629 119.602 328.453 120.422 327.163 121.698C325.864 122.982 323.736 124.413 320.637 125.896C314.459 128.852 305.262 131.622 293.575 133.987C270.268 138.704 237.889 141.65 202 141.65V149.65C238.255 149.65 271.191 146.679 295.162 141.828C307.115 139.409 317.048 136.482 324.09 133.113C327.602 131.432 330.607 129.543 332.788 127.386C334.978 125.22 336.629 122.476 336.629 119.214H328.629ZM328.629 119.183C328.629 119.194 328.629 119.205 328.629 119.214H336.629C336.629 119.146 336.629 119.079 336.627 119.013L328.629 119.183ZM332.629 115.098H332.628V123.098H332.629V115.098ZM328.629 83.9751V119.098H336.629V83.9751H328.629Z" fill="#1F2E54" mask="url(#path-12-inside-3_2619_28918)"/>
<path d="M330.629 83.9747C330.629 85.0812 330.084 86.3821 328.569 87.8805C327.05 89.3832 324.702 90.9287 321.501 92.4607C315.106 95.5202 305.725 98.329 293.972 100.708C270.499 105.458 237.98 108.411 202 108.411C166.019 108.411 133.501 105.458 110.027 100.708C98.2741 98.329 88.8932 95.5202 82.4989 92.4607C79.297 90.9287 76.9499 89.3832 75.4304 87.8805C73.9153 86.3821 73.3701 85.0812 73.3701 83.9747C73.3701 82.8682 73.9153 81.5673 75.4304 80.0689C76.9499 78.5662 79.297 77.0207 82.4989 75.4887C88.8932 72.4292 98.2741 69.6204 110.027 67.2418C133.501 62.4914 166.019 59.5386 202 59.5386C237.98 59.5386 270.499 62.4914 293.972 67.2418C305.725 69.6204 315.106 72.4292 321.501 75.4887C324.702 77.0207 327.05 78.5662 328.569 80.0689C330.084 81.5673 330.629 82.8682 330.629 83.9747Z" fill="#FFC452" stroke="#1F2E54" stroke-width="4"/>
<path d="M249.122 83.9461C249.122 83.9461 249.122 83.949 249.12 83.9549C249.121 83.949 249.122 83.9461 249.122 83.9461ZM248.748 83.5153C249.01 83.7626 249.09 83.9152 249.113 83.9749C249.09 84.0346 249.01 84.1871 248.748 84.4345C248.317 84.8413 247.571 85.3289 246.428 85.8516C244.153 86.8913 240.734 87.878 236.353 88.725C227.623 90.4124 215.476 91.4695 201.999 91.4695C188.523 91.4695 176.376 90.4124 167.646 88.725C163.265 87.878 159.846 86.8913 157.571 85.8516C156.428 85.3289 155.682 84.8413 155.251 84.4345C154.989 84.1871 154.909 84.0345 154.886 83.9749C154.909 83.9152 154.989 83.7627 155.251 83.5153C155.682 83.1084 156.428 82.6208 157.571 82.0982C159.846 81.0584 163.265 80.0717 167.646 79.2248C176.376 77.5373 188.523 76.4802 201.999 76.4802C215.476 76.4802 227.623 77.5373 236.353 79.2248C240.734 80.0717 244.153 81.0584 246.428 82.0982C247.571 82.6208 248.317 83.1084 248.748 83.5153ZM154.877 83.9461C154.877 83.9461 154.878 83.9491 154.879 83.955C154.877 83.949 154.877 83.9461 154.877 83.9461ZM154.877 84.0037C154.877 84.0037 154.877 84.0007 154.879 83.9948C154.878 84.0007 154.877 84.0037 154.877 84.0037ZM249.12 83.9949C249.122 84.0007 249.122 84.0037 249.122 84.0037C249.122 84.0037 249.121 84.0008 249.12 83.9949Z" fill="white" stroke="#1F2E54" stroke-width="4"/>
</g>
</svg>
