<svg width="404" height="320" viewBox="0 0 404 320" fill="none" xmlns="http://www.w3.org/2000/svg">
<path d="M0 30C0 13.4315 13.4315 0 30 0H374C390.569 0 404 13.4315 404 30V320H0V30Z" fill="#F9FAFC"/>
<path d="M0 30C0 13.4315 13.4315 0 30 0H374C390.569 0 404 13.4315 404 30V320H0V30Z" fill="#F9FAFC"/>
<path d="M0 0H404V320H0V0Z" fill="#F9FAFC"/>
<path d="M294.297 220.511C296.035 220.818 297.134 222.55 296.672 224.253L291.25 244.203L291.25 244.203L281.324 280.729C280.917 282.227 279.435 283.167 277.907 282.896L264.125 280.46C262.494 280.172 261.405 278.617 261.692 276.986L271.805 219.594C272.093 217.962 273.649 216.873 275.281 217.16L294.297 220.511Z" fill="white" stroke="#1F2E54" stroke-width="4"/>
<path opacity="0.1" d="M300.038 219.492L293.181 244.727L266.189 239.959L270.704 214.323L300.038 219.492Z" fill="#016BFF"/>
<path d="M273.951 198.564L300.608 203.271C302.24 203.559 303.33 205.115 303.042 206.747L299.888 224.662C299.6 226.294 298.045 227.383 296.413 227.095L269.756 222.388C268.124 222.1 267.035 220.544 267.322 218.912L270.476 200.997C270.764 199.365 272.319 198.276 273.951 198.564Z" fill="white" stroke="#1F2E54" stroke-width="4"/>
<path d="M330.967 191.491C330.7 193.01 329.325 194.079 327.787 193.963L308.95 192.544C307.181 192.411 305.914 190.78 306.221 189.033L312.211 154.979C312.519 153.23 314.271 152.129 315.981 152.612L334.157 157.741C335.639 158.159 336.563 159.631 336.297 161.147L330.967 191.491Z" fill="white" stroke="#1F2E54" stroke-width="4"/>
<mask id="path-8-inside-1_2619_28916" fill="white">
<path fill-rule="evenodd" clip-rule="evenodd" d="M148.139 63.3588C147.34 62.9484 146.507 62.6633 145.641 62.5103C131.457 60.006 113.651 93.803 105.869 137.998C98.0868 182.193 103.276 220.05 117.459 222.555C118.778 222.787 120.129 222.706 121.5 222.332L237.922 201.353L286.514 204.043L298.171 137.721L251.598 123.625L148.147 63.3122L148.139 63.3588Z"/>
</mask>
<path fill-rule="evenodd" clip-rule="evenodd" d="M148.139 63.3588C147.34 62.9484 146.507 62.6633 145.641 62.5103C131.457 60.006 113.651 93.803 105.869 137.998C98.0868 182.193 103.276 220.05 117.459 222.555C118.778 222.787 120.129 222.706 121.5 222.332L237.922 201.353L286.514 204.043L298.171 137.721L251.598 123.625L148.147 63.3122L148.139 63.3588Z" fill="white"/>
<path d="M148.139 63.3588L146.311 66.9165L151.137 69.3971L152.078 64.0525L148.139 63.3588ZM145.641 62.5103L144.945 66.4494L145.641 62.5103ZM105.869 137.998L101.93 137.304L105.869 137.998ZM117.459 222.555L118.155 218.615H118.155L117.459 222.555ZM121.5 222.332L120.79 218.395L120.617 218.427L120.446 218.473L121.5 222.332ZM237.922 201.353L238.143 197.359L237.674 197.333L237.212 197.416L237.922 201.353ZM286.514 204.043L286.293 208.036L289.839 208.233L290.453 204.735L286.514 204.043ZM298.171 137.721L302.111 138.414L302.725 134.92L299.33 133.893L298.171 137.721ZM251.598 123.625L249.584 127.081L249.99 127.317L250.44 127.454L251.598 123.625ZM148.147 63.3122L150.162 59.8566L145.203 56.9656L144.208 62.6185L148.147 63.3122ZM149.967 59.8011C148.828 59.2156 147.614 58.7969 146.336 58.5712L144.945 66.4494C145.4 66.5297 145.853 66.6812 146.311 66.9165L149.967 59.8011ZM146.336 58.5712C141 57.6291 136.007 60.2196 131.819 64.0995C127.572 68.0334 123.524 73.8391 119.815 80.8774C112.377 94.9961 105.872 114.913 101.93 137.304L109.808 138.692C113.648 116.888 119.937 97.8089 126.893 84.6064C130.382 77.9841 133.931 73.048 137.256 69.9682C140.638 66.8344 143.189 66.1394 144.945 66.4494L146.336 58.5712ZM101.93 137.304C97.9868 159.695 97.2964 180.639 99.4641 196.453C100.545 204.337 102.366 211.179 105.012 216.329C107.622 221.408 111.429 225.552 116.764 226.494L118.155 218.615C116.398 218.305 114.237 216.777 112.128 212.673C110.056 208.64 108.407 202.785 107.39 195.367C105.363 180.578 105.969 160.496 109.808 138.692L101.93 137.304ZM116.764 226.494C118.719 226.839 120.669 226.705 122.554 226.191L120.446 218.473C119.589 218.707 118.837 218.736 118.155 218.615L116.764 226.494ZM237.212 197.416L120.79 218.395L122.209 226.269L238.631 205.29L237.212 197.416ZM286.735 200.049L238.143 197.359L237.701 205.347L286.293 208.036L286.735 200.049ZM294.232 137.029L282.574 203.35L290.453 204.735L302.111 138.414L294.232 137.029ZM250.44 127.454L297.013 141.55L299.33 133.893L252.757 119.797L250.44 127.454ZM146.133 66.7678L249.584 127.081L253.613 120.17L150.162 59.8566L146.133 66.7678ZM152.078 64.0525L152.087 64.0058L144.208 62.6185L144.2 62.6651L152.078 64.0525Z" fill="#1F2E54" mask="url(#path-8-inside-1_2619_28916)"/>
<path d="M140.299 204.705C149.056 194.558 157.571 173.113 162.078 147.513C165.411 128.587 165.91 111.046 164.02 98.1213C163.08 91.696 161.549 86.4117 159.482 82.6655" stroke="#1F2E54" stroke-width="4" stroke-linecap="round"/>
<path d="M151.499 144.635C158.408 105.399 155.381 72.0683 144.737 70.189C134.093 68.3096 119.864 98.5932 112.955 137.829C106.046 177.065 109.074 210.396 119.718 212.275C130.361 214.155 144.591 183.871 151.499 144.635Z" fill="#016BFF"/>
<mask id="mask0_2619_28916" style="mask-type:alpha" maskUnits="userSpaceOnUse" x="109" y="70" width="47" height="143">
<path d="M151.499 144.635C158.408 105.399 155.381 72.0683 144.737 70.189C134.093 68.3096 119.864 98.5932 112.955 137.829C106.046 177.065 109.074 210.396 119.718 212.275C130.361 214.155 144.591 183.871 151.499 144.635Z" fill="#016BFF"/>
</mask>
<g mask="url(#mask0_2619_28916)">
<path d="M158.628 176.748C175.957 176.748 189.999 162.682 189.999 145.337C189.999 127.992 175.957 113.926 158.628 113.926C141.3 113.926 127.258 127.992 127.258 145.337C127.258 162.682 141.3 176.748 158.628 176.748Z" fill="#6B2EFF" stroke="#1F2E54" stroke-width="4"/>
</g>
<path d="M312.309 207.786C311.864 210.316 309.573 212.097 307.01 211.905L261.22 208.462C258.271 208.24 256.158 205.521 256.67 202.609L270.051 126.589C270.563 123.674 273.481 121.841 276.329 122.642L320.542 135.084C323.014 135.779 324.557 138.235 324.112 140.764L312.309 207.786Z" fill="#016BFF" stroke="#1F2E54" stroke-width="4"/>
<path d="M104.071 98.1963L96.7949 81.9077" stroke="#1F2E54" stroke-width="4" stroke-linecap="round"/>
<path d="M92.0324 174.747L46.9336 200.447" stroke="#1F2E54" stroke-width="4" stroke-linecap="round"/>
<path d="M92.0322 156.787L62.9824 161.119" stroke="#1F2E54" stroke-width="4" stroke-linecap="round"/>
<path d="M96.4652 114.606L64.0645 91.9714" stroke="#1F2E54" stroke-width="4" stroke-linecap="round"/>
<path d="M92.0323 137.055L43.9248 126.438" stroke="#1F2E54" stroke-width="4" stroke-linecap="round"/>
</svg>
