<svg width="404" height="320" viewBox="0 0 404 320" fill="none" xmlns="http://www.w3.org/2000/svg">
<path d="M0 0H404V320H0V0Z" fill="#F9FAFC"/>
<mask id="mask0_2619_28917" style="mask-type:alpha" maskUnits="userSpaceOnUse" x="0" y="0" width="404" height="320">
<path d="M0 0H404V320H0V0Z" fill="#EFF1F6"/>
</mask>
<g mask="url(#mask0_2619_28917)">
<rect x="45.7871" y="56.3936" width="161.215" height="85.7" rx="14" fill="white" stroke="#1F2E54" stroke-width="4"/>
<line x1="60.2432" y1="78.3259" x2="108.265" y2="78.3259" stroke="#66DA78" stroke-width="4" stroke-linecap="round"/>
<line x1="60.2432" y1="94.8013" x2="160.87" y2="94.8013" stroke="#1F2E54" stroke-width="4" stroke-linecap="round"/>
<line x1="60.2432" y1="106.603" x2="184.435" y2="106.603" stroke="#1F2E54" stroke-width="4" stroke-linecap="round"/>
<line x1="60.2432" y1="119.442" x2="134.914" y2="119.442" stroke="#1F2E54" stroke-width="4" stroke-linecap="round"/>
<rect x="204.093" y="174.664" width="161.215" height="85.7" rx="14" fill="white" stroke="#1F2E54" stroke-width="4"/>
<line x1="218.549" y1="196.596" x2="266.571" y2="196.596" stroke="#66DA78" stroke-width="4" stroke-linecap="round"/>
<line x1="218.549" y1="213.071" x2="319.176" y2="213.071" stroke="#1F2E54" stroke-width="4" stroke-linecap="round"/>
<line x1="218.549" y1="224.873" x2="342.741" y2="224.873" stroke="#1F2E54" stroke-width="4" stroke-linecap="round"/>
<line x1="218.549" y1="237.712" x2="293.219" y2="237.712" stroke="#1F2E54" stroke-width="4" stroke-linecap="round"/>
<mask id="mask1_2619_28917" style="mask-type:alpha" maskUnits="userSpaceOnUse" x="143" y="93" width="144" height="144">
<path d="M207.061 235.858C193.012 234.279 179.745 228.563 168.939 219.435C158.133 210.306 150.272 198.174 146.35 184.573C142.429 170.971 142.622 156.51 146.907 143.019C151.191 129.528 159.374 117.611 170.42 108.776C181.467 99.9405 194.882 94.5833 208.968 93.3813C223.055 92.1794 237.182 95.1867 249.562 102.023C261.942 108.859 272.02 119.218 278.522 131.789C285.024 144.36 287.658 158.579 286.091 172.649C285.05 181.997 282.18 191.048 277.644 199.285C273.108 207.521 266.996 214.782 259.656 220.652C252.317 226.523 243.894 230.887 234.87 233.496C225.845 236.105 216.396 236.908 207.061 235.858Z" fill="white"/>
</mask>
<g mask="url(#mask1_2619_28917)">
<rect x="195.485" y="158.862" width="226.444" height="121.115" rx="14" fill="white" stroke="#1F2E54" stroke-width="4"/>
<line x1="215.649" y1="191.032" x2="284.211" y2="191.032" stroke="#66DA78" stroke-width="4" stroke-linecap="round"/>
<line x1="215.649" y1="214.012" x2="357.585" y2="214.012" stroke="#1F2E54" stroke-width="4" stroke-linecap="round"/>
<line x1="215.649" y1="230.473" x2="390.454" y2="230.473" stroke="#1F2E54" stroke-width="4" stroke-linecap="round"/>
<rect x="48.3311" y="62.5466" width="161.215" height="85.7" rx="14" fill="white" stroke="#1F2E54" stroke-width="4"/>
<line x1="62.7871" y1="100.954" x2="163.414" y2="100.954" stroke="#1F2E54" stroke-width="4" stroke-linecap="round"/>
<line x1="62.7871" y1="112.756" x2="186.979" y2="112.756" stroke="#1F2E54" stroke-width="4" stroke-linecap="round"/>
</g>
<path opacity="0.2" d="M207.061 235.858C193.012 234.279 179.745 228.563 168.939 219.435C158.133 210.306 150.272 198.174 146.35 184.573C142.429 170.971 142.622 156.51 146.907 143.019C151.191 129.528 159.374 117.611 170.42 108.776C181.467 99.9405 194.882 94.5833 208.968 93.3813C223.055 92.1794 237.182 95.1867 249.562 102.023C261.942 108.859 272.02 119.218 278.522 131.789C285.024 144.36 287.658 158.579 286.091 172.649C285.05 181.997 282.18 191.048 277.644 199.285C273.108 207.521 266.996 214.782 259.656 220.652C252.317 226.523 243.894 230.887 234.87 233.496C225.845 236.105 216.396 236.908 207.061 235.858Z" fill="white"/>
<path d="M287.139 129.011L287.684 130.143H287.719C296.553 148.35 298.222 169.238 292.363 188.642C286.386 208.438 273.032 225.172 255.071 235.377C237.109 245.582 215.915 248.476 195.881 243.459C175.847 238.443 158.507 225.9 147.456 208.43L146.37 206.713L144.671 207.825C138.804 211.662 132.812 215.336 126.859 218.942C118.266 224.117 109.453 229.165 100.648 233.985C91.8333 238.81 82.9138 243.564 73.9978 248.117L73.9892 248.121L73.9806 248.126C71.129 249.617 68.2718 251.042 65.3938 252.477C63.7732 253.285 62.1461 254.096 60.5097 254.925L60.4705 254.945L60.4321 254.966C58.4251 256.096 56.2167 256.82 53.9318 257.099C52.6817 257.24 51.4197 257.24 50.1697 257.098L50.1646 257.098C48.6968 256.935 47.2598 256.562 45.8978 255.991C43.5665 254.993 41.6677 253.192 40.5448 250.914C39.4224 248.637 39.1494 246.033 39.7752 243.572C40.158 242.141 40.7482 240.775 41.5269 239.515L41.5342 239.504L41.5413 239.492C42.1875 238.414 42.9508 237.411 43.8172 236.501C45.4287 234.852 47.3471 233.535 49.4638 232.624L49.5031 232.607L49.5417 232.589C51.2667 231.757 52.9717 230.923 54.67 230.092C57.4832 228.715 60.2783 227.347 63.1163 226.016L63.1239 226.012L63.1314 226.008C72.1915 221.665 81.3458 217.508 90.5491 213.427C99.7478 209.373 109.032 205.485 118.403 201.762C124.901 199.193 131.427 196.708 138.027 194.393L139.943 193.721L139.242 191.815C132.103 172.404 132.698 150.985 140.903 132.001C149.108 113.016 164.293 97.9224 183.311 89.8473C202.328 81.7722 223.718 81.3349 243.049 88.626C262.379 95.9171 278.167 110.378 287.139 129.011ZM206.272 231.29C219.424 233.018 232.792 230.803 244.687 224.924C252.586 221.019 259.64 215.595 265.445 208.961C271.25 202.327 275.693 194.612 278.521 186.259C281.348 177.905 282.504 169.076 281.923 160.275C281.342 151.473 279.036 142.873 275.135 134.965C269.262 123.056 259.994 113.159 248.502 106.524C237.011 99.8892 223.813 96.8153 210.577 97.6912C197.341 98.5672 184.662 103.354 174.143 111.445C163.624 119.536 155.737 130.569 151.48 143.147C147.223 155.726 146.786 169.286 150.224 182.114C153.663 194.941 160.823 206.46 170.799 215.213C180.775 223.966 193.12 229.561 206.272 231.29Z" fill="white" stroke="#1F2E54" stroke-width="4"/>
<mask id="path-23-inside-1_2619_28917" fill="white">
<path d="M297.818 164.638C297.818 210.594 260.715 247.848 214.945 247.848C169.176 247.848 132.073 210.594 132.073 164.638C132.073 118.683 169.176 81.4282 214.945 81.4282C260.715 81.4282 297.818 118.683 297.818 164.638ZM159.273 164.638C159.273 195.511 184.198 220.538 214.945 220.538C245.692 220.538 270.618 195.511 270.618 164.638C270.618 133.766 245.692 108.739 214.945 108.739C184.198 108.739 159.273 133.766 159.273 164.638Z"/>
</mask>
<path d="M297.818 164.638C297.818 210.594 260.715 247.848 214.945 247.848C169.176 247.848 132.073 210.594 132.073 164.638C132.073 118.683 169.176 81.4282 214.945 81.4282C260.715 81.4282 297.818 118.683 297.818 164.638ZM159.273 164.638C159.273 195.511 184.198 220.538 214.945 220.538C245.692 220.538 270.618 195.511 270.618 164.638C270.618 133.766 245.692 108.739 214.945 108.739C184.198 108.739 159.273 133.766 159.273 164.638Z" fill="#66DA78" stroke="#1F2E54" stroke-width="8" mask="url(#path-23-inside-1_2619_28917)"/>
</g>
</svg>
