<svg width="404" height="320" viewBox="0 0 404 320" fill="none" xmlns="http://www.w3.org/2000/svg">
<path d="M0 0H404V320H0V0Z" fill="#F9FAFC"/>
<mask id="mask0_2619_28915" style="mask-type:alpha" maskUnits="userSpaceOnUse" x="0" y="0" width="404" height="320">
<path d="M0 30C0 13.4315 13.4315 0 30 0H374C390.569 0 404 13.4315 404 30V320H0V30Z" fill="#F9FAFC"/>
</mask>
<g mask="url(#mask0_2619_28915)">
<rect x="203.983" y="216.357" width="16.7716" height="124.675" fill="white" stroke="#1F2E54" stroke-width="4"/>
<rect x="221.116" y="216.357" width="16.7716" height="124.675" fill="white" stroke="#1F2E54" stroke-width="4"/>
<mask id="path-5-inside-1_2619_28915" fill="white">
<path d="M70.1309 212.229H333.652C339.902 212.229 344.968 217.295 344.968 223.544V223.544C344.968 229.794 339.902 234.86 333.652 234.86H85.1309C76.8466 234.86 70.1309 228.145 70.1309 219.86V212.229Z"/>
</mask>
<path d="M70.1309 212.229H333.652C339.902 212.229 344.968 217.295 344.968 223.544V223.544C344.968 229.794 339.902 234.86 333.652 234.86H85.1309C76.8466 234.86 70.1309 228.145 70.1309 219.86V212.229Z" fill="white"/>
<path d="M70.1309 212.229V208.229H66.1309V212.229H70.1309ZM70.1309 216.229H333.652V208.229H70.1309V216.229ZM333.652 230.86H85.1309V238.86H333.652V230.86ZM74.1309 219.86V212.229H66.1309V219.86H74.1309ZM85.1309 230.86C79.0557 230.86 74.1309 225.935 74.1309 219.86H66.1309C66.1309 230.354 74.6375 238.86 85.1309 238.86V230.86ZM340.968 223.544C340.968 227.585 337.693 230.86 333.652 230.86V238.86C342.111 238.86 348.968 232.003 348.968 223.544H340.968ZM333.652 216.229C337.693 216.229 340.968 219.504 340.968 223.544H348.968C348.968 215.086 342.111 208.229 333.652 208.229V216.229Z" fill="#1F2E54" mask="url(#path-5-inside-1_2619_28915)"/>
<path d="M165.946 89.4309H287.282C313.791 89.4309 335.282 110.921 335.282 137.431V214.517H165.946V89.4309Z" fill="white" stroke="#1F2E54" stroke-width="4"/>
<path d="M335.281 139.308V214.517H235.471V139.308C235.471 111.746 257.814 89.4026 285.376 89.4026C312.938 89.4026 335.281 111.746 335.281 139.308Z" fill="white" stroke="#1F2E54" stroke-width="4"/>
<path d="M286.379 46.9891H301.753L326.13 46.8798V71.181H301.753V126.438H286.379V46.9891Z" fill="#FF5B5D" stroke="#1F2E54" stroke-width="4"/>
<path d="M319.716 149.426C319.716 163.769 308.105 175.392 293.788 175.392C279.47 175.392 267.859 163.769 267.859 149.426C267.859 135.082 279.47 123.459 293.788 123.459C308.105 123.459 319.716 135.082 319.716 149.426Z" fill="#FF5B5D" stroke="#1F2E54" stroke-width="4"/>
<path d="M307.719 149.427C307.719 157.135 301.48 163.379 293.788 163.379C286.097 163.379 279.857 157.135 279.857 149.427C279.857 141.718 286.097 135.474 293.788 135.474C301.48 135.474 307.719 141.718 307.719 149.427Z" fill="white" stroke="#1F2E54" stroke-width="4"/>
<path d="M214.523 139.308V214.517H114.713V139.308C114.713 111.746 137.056 89.4026 164.618 89.4026C192.18 89.4026 214.523 111.746 214.523 139.308Z" fill="white" stroke="#1F2E54" stroke-width="4"/>
<mask id="mask1_2619_28915" style="mask-type:alpha" maskUnits="userSpaceOnUse" x="73" y="89" width="141" height="121">
<path d="M111.602 99.5504H113.602C113.602 94.3916 118.202 90.4481 123.3 91.2372L182.443 100.392C193.455 102.096 200.806 108.321 205.333 117.003C209.901 125.763 211.595 137.061 211.024 148.68C210.942 150.346 210.947 164.99 210.971 179.093C210.982 186.172 210.999 193.151 211.013 198.36C211.02 200.964 211.026 203.127 211.03 204.638L211.031 205.059L111.745 207.913L75.4004 201.617V104.764L111.778 101.543L111.602 99.5504Z" fill="white" stroke="#1F2E54" stroke-width="4"/>
</mask>
<g mask="url(#mask1_2619_28915)">
<rect x="85.4404" y="106.89" width="142.131" height="95.3817" rx="8" fill="#FF5B5D" stroke="#1F2E54" stroke-width="4"/>
<mask id="mask2_2619_28915" style="mask-type:alpha" maskUnits="userSpaceOnUse" x="83" y="104" width="142" height="101">
<rect x="85.5254" y="106.838" width="137.066" height="95.2185" rx="5" fill="#FF5B5D" stroke="#1F2E54" stroke-width="4"/>
</mask>
<g mask="url(#mask2_2619_28915)">
<path d="M83.9434 115.257L154.047 165.442C157.513 167.924 162.172 167.935 165.65 165.47L229.927 119.91" stroke="#1F2E54" stroke-width="4"/>
</g>
</g>
</g>
</svg>
