<svg width="62" height="62" viewBox="0 0 62 62" fill="none" xmlns="http://www.w3.org/2000/svg">
<rect width="62" height="62" fill="#FF5B5D"/>
<mask id="mask0_2624_30792" style="mask-type:alpha" maskUnits="userSpaceOnUse" x="0" y="0" width="62" height="62">
<rect width="62" height="62" fill="#FF5B5D"/>
</mask>
<g mask="url(#mask0_2624_30792)">
<path d="M20.1924 23.4114C20.1924 17.4418 25.0317 12.6025 31.0012 12.6025V12.6025C36.9708 12.6025 41.8101 17.4418 41.8101 23.4114V35.012C41.8101 40.9815 36.9708 45.8208 31.0012 45.8208V45.8208C25.0317 45.8208 20.1924 40.9815 20.1924 35.012V23.4114Z" fill="white"/>
<path d="M22.3981 41.2834L39.3288 40.7773L40.2922 52.0589L40.8212 57.6242L60.9834 64.1314L77.0502 80.432L42.3505 76.1623L12.6315 83.756L-11.8496 74.1991L-1.29122 64.1314L11.109 60.0797L16.7568 58.8519L21.5451 57.6242L22.3981 41.2834Z" fill="white"/>
<path d="M47.6965 39.7C47.6965 39.7 46.2502 39.7844 44.708 39.7614C42.9664 39.7614 41.1173 39.5926 41.1787 39.0363C41.2593 38.2691 42.6825 35.4341 42.7554 33.493C42.7784 32.7257 42.5981 32.1273 42.0764 31.8204C40.703 31.0531 35.2901 26.2042 32.2902 22.8743C32.0907 22.648 31.9066 22.437 31.7224 22.2222C30.8708 21.2401 30.3222 20.4345 30.2647 20.0087C30.0268 18.1366 27.0307 27.1747 22.7534 30.2821C22.7534 30.2821 20.6204 34.1183 18.5565 34.3676C19.3526 35.2637 19.8839 36.3634 20.091 37.544C20.14 37.8296 20.172 38.1178 20.1869 38.4072C20.1927 38.503 20.1927 38.5991 20.1869 38.6949C20.1869 41.3611 16.7343 40.7089 15.3878 40.3982C14.3559 40.1642 12.15 39.4736 11.168 38.2307V27.6274C11.168 27.6274 13.8533 9.30944 32.8886 8.44629C36.6043 8.51965 40.2482 9.48259 43.515 11.2544C43.5328 11.2641 43.5495 11.2756 43.5648 11.2889C47.4855 14.3579 50.9112 19.5483 51.3831 28.4368C51.3792 28.4445 52.9214 39.7 47.6965 39.7V39.7Z" fill="#FFC452"/>
<path d="M20.1943 46.7516C20.1896 48.0663 19.3958 49.2496 18.1811 49.7526C16.9664 50.2556 15.5684 49.9799 14.6357 49.0534C13.9832 47.6216 14.4463 45.9281 15.7365 45.0274C17.0267 44.1268 18.776 44.276 19.8951 45.3821C20.0992 45.8094 20.2016 46.2782 20.1943 46.7516V46.7516Z" fill="white"/>
<path d="M47.6964 46.7516C47.6938 48.0665 46.9009 49.2508 45.6862 49.7541C44.4715 50.2574 43.0733 49.981 42.1415 49.0534C41.4891 47.6216 41.9521 45.9281 43.2424 45.0274C44.5326 44.1268 46.2819 44.276 47.401 45.3821C47.6014 45.8105 47.7024 46.2787 47.6964 46.7516V46.7516Z" fill="white"/>
<path d="M10.6416 27.3174C10.7672 16.1754 19.8219 7.20199 30.9646 7.17681C42.1073 7.15163 51.2024 16.084 51.3784 27.2253V27.3174" stroke="#1F2E54" stroke-width="1.2"/>
<path d="M28.6533 47.5602C28.6533 47.5602 28.6533 47.5602 28.6763 47.5602C29.4521 47.6467 30.232 47.6902 31.0126 47.6906C31.285 47.6906 31.5458 47.6906 31.8182 47.6676H31.8873" stroke="#1F2E54" stroke-width="1.2"/>
<path fill-rule="evenodd" clip-rule="evenodd" d="M18.9013 33.7585C19.2642 36.007 19.9167 38.1991 20.8424 40.2801C22.3002 43.399 24.7553 46.7403 28.6529 47.5689H28.676C29.6732 47.7808 30.6987 47.8249 31.7104 47.6994C31.7471 47.6969 31.7833 47.6891 31.8178 47.6763H31.8869C36.7474 47.0357 39.5286 43.3606 41.0938 39.7124C42.1253 37.3464 42.789 34.8367 43.0618 32.2701C35.9533 29.5464 30.4905 19.6221 30.4905 19.6221C30.4905 19.6221 24.2912 30.8545 18.9013 33.7585Z" stroke="#1F2E54" stroke-width="1.2"/>
<path d="M10.6416 26.6533V35.6147C10.6437 38.1853 12.7282 40.2681 15.2988 40.2681H20.8421" stroke="#1F2E54" stroke-width="1.2"/>
<path d="M51.3793 27.2285V35.3882C51.3793 37.7666 49.4612 39.6962 48.2528 39.6962H41.5586" stroke="#1F2E54" stroke-width="1.2"/>
<path d="M22.7526 43.4932L21.9201 56.402C21.8514 57.3251 21.1333 58.0674 20.213 58.1667C-47.6497 65.6665 -12.4869 154.839 -12.4869 154.839L16.5418 133.51L9.12635 104.171" stroke="#1F2E54" stroke-width="1.2"/>
<path d="M38.9023 43.4932L40.3755 56.8317C40.4793 57.6925 41.1477 58.3766 42.0058 58.5005C106.988 67.9798 76.3784 154.824 76.3784 154.824C74.3989 153.639 48.3318 131.91 48.3318 131.91L56.2344 104.267" stroke="#1F2E54" stroke-width="1.2"/>
<path d="M18.9013 33.7598C17.8928 34.2738 16.835 34.6851 15.7441 34.9874" stroke="#1F2E54" stroke-width="1.2"/>
<path d="M43.0732 32.2578C43.9649 32.5765 44.8775 32.8328 45.8046 33.0251" stroke="#1F2E54" stroke-width="1.2"/>
<circle cx="16.9308" cy="46.7511" r="3.25695" stroke="#1F2E54" stroke-width="1.2"/>
<circle cx="44.4376" cy="46.7511" r="3.25695" stroke="#1F2E54" stroke-width="1.2"/>
<path d="M16.933 43.4937V34.5898" stroke="#1F2E54" stroke-width="1.2"/>
<path d="M44.4369 43.4953V32.7002" stroke="#1F2E54" stroke-width="1.2"/>
<circle cx="35.2461" cy="31.4141" r="1.22759" fill="#1F2E54"/>
<circle cx="25.5762" cy="31.4141" r="1.22759" fill="#1F2E54"/>
<path d="M19.2578 29.0925C19.9713 29.058 30.2678 29.0925 30.2678 29.0925L28.5338 34.7816H22.1426L19.2578 29.0925Z" fill="#FF8A1D"/>
<path d="M30.5557 29.0925C31.2654 29.058 41.5656 29.0925 41.5656 29.0925L38.6463 34.7816H32.2743L30.5557 29.0925Z" fill="#FF8A1D"/>
<path fill-rule="evenodd" clip-rule="evenodd" d="M19.2568 29.0954C19.9704 29.0609 30.2668 29.0954 30.2668 29.0954L28.5328 34.7845H22.1417L19.2568 29.0954Z" stroke="#1F2E54" stroke-width="1.2"/>
<path fill-rule="evenodd" clip-rule="evenodd" d="M30.5547 29.0954C31.2644 29.0609 41.5646 29.0954 41.5646 29.0954L38.6453 34.7845H32.2733L30.5547 29.0954Z" stroke="#1F2E54" stroke-width="1.2"/>
<path d="M27.9688 39.698C27.9688 39.698 31.4751 40.8489 32.4111 39.042" stroke="#1F2E54" stroke-width="1.2"/>
</g>
</svg>
