<svg width="404" height="328" viewBox="0 0 404 328" fill="none" xmlns="http://www.w3.org/2000/svg">
<path d="M0 0H404V328H0V0Z" fill="#FF5B5D"/>
<path d="M79.777 239.786L109.032 86.7013C109.392 84.8158 111.041 83.4521 112.961 83.4521H293.911L266.25 244.537H83.7059C81.1957 244.537 79.3059 242.252 79.777 239.786Z" fill="white" stroke="#1F2E54" stroke-width="4" stroke-linecap="round" stroke-linejoin="round"/>
<path d="M117.578 210.393C117.788 209.486 118.596 208.845 119.526 208.845H250.028C251.315 208.845 252.267 210.043 251.976 211.297L247.919 228.785C247.708 229.691 246.901 230.333 245.97 230.333H115.468C114.181 230.333 113.229 229.135 113.52 227.881L117.578 210.393Z" fill="#FF5B5D"/>
<path d="M157.081 177.092C157.256 176.143 158.083 175.455 159.048 175.455H261.873C263.123 175.455 264.067 176.588 263.84 177.817L260.618 195.305C260.443 196.254 259.616 196.943 258.651 196.943H155.826C154.576 196.943 153.633 195.809 153.859 194.58L157.081 177.092Z" fill="#FF5B5D"/>
<path d="M125.146 143.413C125.321 142.465 126.148 141.776 127.113 141.776H229.938C231.187 141.776 232.131 142.909 231.905 144.138L228.682 161.627C228.508 162.575 227.68 163.264 226.715 163.264H123.89C122.641 163.264 121.697 162.131 121.924 160.902L125.146 143.413Z" fill="#FF5B5D"/>
<path d="M120.863 138.683C121.037 137.735 121.865 137.046 122.829 137.046H225.654C226.904 137.046 227.848 138.179 227.621 139.408L224.399 156.897C224.224 157.845 223.397 158.534 222.432 158.534H119.607C118.358 158.534 117.414 157.401 117.64 156.172L120.863 138.683Z" stroke="#1F2E54" stroke-width="4" stroke-linecap="round" stroke-linejoin="round"/>
<path d="M153.042 172.075C153.217 171.126 154.044 170.437 155.009 170.437H257.834C259.084 170.437 260.027 171.57 259.801 172.799L256.579 190.288C256.404 191.237 255.577 191.925 254.612 191.925H151.787C150.537 191.925 149.594 190.792 149.82 189.563L153.042 172.075Z" stroke="#1F2E54" stroke-width="4" stroke-linecap="round" stroke-linejoin="round"/>
<path d="M112.16 205.463C112.335 204.514 113.162 203.825 114.127 203.825H248.874C250.124 203.825 251.067 204.959 250.841 206.188L247.619 223.676C247.444 224.625 246.617 225.313 245.652 225.313H110.905C109.655 225.313 108.712 224.18 108.938 222.951L112.16 205.463Z" stroke="#1F2E54" stroke-width="4" stroke-linecap="round" stroke-linejoin="round"/>
<path d="M286.445 121.499H102.755" stroke="#1F2E54" stroke-width="4" stroke-linecap="round" stroke-linejoin="round"/>
<path d="M116.451 94.9742C116.714 93.5527 117.954 92.5215 119.4 92.5215L290.314 92.522L285.71 119.494H111.901L116.451 94.9742Z" fill="#FF5B5D"/>
<path d="M325.131 243.408L294.094 83.6011L266.308 244.548L325.131 243.408Z" fill="#1F2E54" stroke="#1F2E54" stroke-width="4" stroke-linecap="round" stroke-linejoin="round"/>
</svg>
