<svg width="404" height="328" viewBox="0 0 404 328" fill="none" xmlns="http://www.w3.org/2000/svg">
<path d="M0 0H404V328H0V0Z" fill="#016BFF"/>
<path d="M301.826 158.534C301.826 216.831 254.707 264.08 196.596 264.08C138.485 264.08 91.3662 216.831 91.3662 158.534C91.3662 100.238 138.485 52.9888 196.596 52.9888C254.707 52.9888 301.826 100.238 301.826 158.534Z" fill="white" stroke="#1F2E54" stroke-width="4"/>
<path d="M283.954 158.534C283.954 206.932 244.837 246.156 196.595 246.156C148.354 246.156 109.237 206.932 109.237 158.534C109.237 110.137 148.354 70.9131 196.595 70.9131C244.837 70.9131 283.954 110.137 283.954 158.534Z" fill="#016BFF" stroke="#1F2E54" stroke-width="4"/>
<path d="M266.082 158.534C266.082 197.032 234.967 228.231 196.596 228.231C158.225 228.231 127.109 197.032 127.109 158.534C127.109 120.036 158.225 88.8369 196.596 88.8369C234.967 88.8369 266.082 120.036 266.082 158.534Z" fill="white" stroke="#1F2E54" stroke-width="4"/>
<path d="M248.211 158.535C248.211 187.133 225.097 210.307 196.596 210.307C168.096 210.307 144.981 187.133 144.981 158.535C144.981 129.936 168.096 106.762 196.596 106.762C225.097 106.762 248.211 129.936 248.211 158.535Z" fill="#016BFF" stroke="#1F2E54" stroke-width="4"/>
<path d="M230.339 158.534C230.339 177.234 215.226 192.383 196.596 192.383C177.965 192.383 162.853 177.234 162.853 158.534C162.853 139.834 177.965 124.686 196.596 124.686C215.226 124.686 230.339 139.834 230.339 158.534Z" fill="white" stroke="#1F2E54" stroke-width="4"/>
<path d="M214.968 158.535C214.968 168.72 206.737 176.967 196.596 176.967C186.455 176.967 178.224 168.72 178.224 158.535C178.224 148.349 186.455 140.103 196.596 140.103C206.737 140.103 214.968 148.349 214.968 158.535Z" fill="#016BFF" stroke="#1F2E54" stroke-width="4"/>
<path d="M196.597 158.535L309.609 93.7638" stroke="#1F2E54" stroke-width="4" stroke-linecap="round" stroke-linejoin="round"/>
<path d="M312.993 77.0489L310.574 93.4137L328.43 97.898L360.1 83.4015L344.726 73.9663L341.779 57.2L312.993 77.0489Z" fill="#FFC452" stroke="#1F2E54" stroke-width="4" stroke-linecap="round" stroke-linejoin="round"/>
</svg>
