<svg width="404" height="328" viewBox="0 0 404 328" fill="none" xmlns="http://www.w3.org/2000/svg">
<path d="M0 0H404V328H0V0Z" fill="#FFC452"/>
<path d="M352.674 201.005L215.417 280.483L78.1597 201.005" stroke="#1F2E54" stroke-width="4"/>
<path d="M356.876 195.81C359.719 195.467 362.236 196.925 361.643 198.57L358.994 205.92C358.339 207.735 354.466 208.404 352.202 207.092L342.159 201.277C339.895 199.966 341.05 197.723 344.185 197.345L356.876 195.81Z" fill="#1F2E54"/>
<path d="M69.9825 194.083C67.1402 193.739 64.6228 195.197 65.2161 196.843L67.8653 204.192C68.5196 206.007 72.3929 206.676 74.6571 205.365L84.6996 199.55C86.9638 198.239 85.8088 195.996 82.6743 195.617L69.9825 194.083Z" fill="#1F2E54"/>
<mask id="path-5-inside-1_2619_30151" fill="white">
<path fill-rule="evenodd" clip-rule="evenodd" d="M215.379 53.0161L250.853 73.5578L250.848 73.5611L250.854 73.5579V134.956L215.38 156.509V156.485L215.38 156.509L179.905 134.956V73.5584L179.904 73.5578L215.379 53.0161Z"/>
</mask>
<path fill-rule="evenodd" clip-rule="evenodd" d="M215.379 53.0161L250.853 73.5578L250.848 73.5611L250.854 73.5579V134.956L215.38 156.509V156.485L215.38 156.509L179.905 134.956V73.5584L179.904 73.5578L215.379 53.0161Z" fill="white"/>
<path d="M250.853 73.5578L252.857 77.0198L258.837 73.5587L252.858 70.0962L250.853 73.5578ZM215.379 53.0161L217.383 49.5546L215.379 48.3939L213.374 49.5546L215.379 53.0161ZM250.848 73.5611L248.844 70.0991L252.613 77.1507L250.848 73.5611ZM250.854 73.5579H254.854V67.1338L249.089 69.9683L250.854 73.5579ZM250.854 134.956L252.931 138.374L254.854 137.206V134.956H250.854ZM215.38 156.509H211.38V163.62L217.457 159.928L215.38 156.509ZM215.38 156.485H219.38L211.38 156.418L215.38 156.485ZM215.38 156.509L213.303 159.928L219.262 163.549L219.379 156.576L215.38 156.509ZM179.905 134.956H175.905V137.206L177.828 138.374L179.905 134.956ZM179.905 73.5584H183.905V71.2531L181.91 70.0974L179.905 73.5584ZM179.904 73.5578L177.9 70.0962L171.923 73.5568L177.899 77.0189L179.904 73.5578ZM252.858 70.0962L217.383 49.5546L213.374 56.4777L248.849 77.0193L252.858 70.0962ZM252.851 77.0232L252.857 77.0198L248.85 70.0958L248.844 70.0991L252.851 77.0232ZM249.089 69.9683L249.083 69.9716L252.613 77.1507L252.619 77.1474L249.089 69.9683ZM254.854 134.956V73.5579H246.854V134.956H254.854ZM217.457 159.928L252.931 138.374L248.777 131.537L213.303 153.091L217.457 159.928ZM211.38 156.485V156.509H219.38V156.485H211.38ZM219.379 156.576L219.379 156.552L211.38 156.418L211.38 156.442L219.379 156.576ZM177.828 138.374L213.303 159.928L217.457 153.091L181.982 131.537L177.828 138.374ZM175.905 73.5584V134.956H183.905V73.5584H175.905ZM177.899 77.0189L177.9 77.0195L181.91 70.0974L181.909 70.0967L177.899 77.0189ZM213.374 49.5546L177.9 70.0962L181.908 77.0193L217.383 56.4777L213.374 49.5546Z" fill="#1F2E54" mask="url(#path-5-inside-1_2619_30151)"/>
<path d="M183.83 75.7939L213.329 92.9106L213.459 150.712L183.899 132.695L183.83 75.7939Z" fill="#FFC452"/>
<rect width="34.9077" height="34.9077" transform="matrix(0.865388 0.501103 -0.865388 0.501103 215.38 56.4136)" fill="#FF8A1D"/>
<rect x="-1.19209e-07" y="2.00441" width="36.9929" height="36.9929" transform="matrix(0.865388 0.501103 -0.865388 0.501103 217.114 54.0161)" stroke="#1F2E54" stroke-width="4"/>
<path d="M215.379 91.4824L215.379 153.687" stroke="#1F2E54" stroke-width="4"/>
<mask id="path-11-inside-2_2619_30151" fill="white">
<path fill-rule="evenodd" clip-rule="evenodd" d="M248.933 110.115L284.408 130.657L284.408 130.657V242.202L248.934 263.756V263.713L248.933 263.756L213.459 242.202V130.657L213.459 130.657L248.933 110.115Z"/>
</mask>
<path fill-rule="evenodd" clip-rule="evenodd" d="M248.933 110.115L284.408 130.657L284.408 130.657V242.202L248.934 263.756V263.713L248.933 263.756L213.459 242.202V130.657L213.459 130.657L248.933 110.115Z" fill="white"/>
<path d="M284.408 130.657L286.627 133.985L291.978 130.418L286.413 127.195L284.408 130.657ZM248.933 110.115L250.938 106.654L248.933 105.493L246.929 106.654L248.933 110.115ZM284.408 130.657L282.189 127.329L280.408 128.516V130.657H284.408ZM284.408 242.202L286.485 245.621L288.408 244.452V242.202H284.408ZM248.934 263.756H244.934V270.866L251.011 267.174L248.934 263.756ZM248.934 263.713H252.934L244.934 263.675L248.934 263.713ZM248.933 263.756L246.856 267.174L252.866 270.826L252.933 263.794L248.933 263.756ZM213.459 242.202H209.459V244.452L211.382 245.621L213.459 242.202ZM213.459 130.657H217.459V128.501L215.658 127.316L213.459 130.657ZM213.459 130.657L211.454 127.195L205.853 130.439L211.259 133.998L213.459 130.657ZM286.413 127.195L250.938 106.654L246.929 113.577L282.404 134.118L286.413 127.195ZM286.627 133.985L286.627 133.985L282.189 127.329L282.189 127.329L286.627 133.985ZM288.408 242.202V130.657H280.408V242.202H288.408ZM251.011 267.174L286.485 245.621L282.331 238.784L246.857 260.337L251.011 267.174ZM244.934 263.713V263.756H252.934V263.713H244.934ZM252.933 263.794L252.933 263.751L244.934 263.675L244.933 263.718L252.933 263.794ZM211.382 245.621L246.856 267.174L251.01 260.337L215.536 238.784L211.382 245.621ZM209.459 130.657V242.202H217.459V130.657H209.459ZM211.259 133.998L211.259 133.998L215.658 127.316L215.658 127.316L211.259 133.998ZM246.929 106.654L211.454 127.195L215.463 134.118L250.938 113.577L246.929 106.654Z" fill="#1F2E54" mask="url(#path-11-inside-2_2619_30151)"/>
<path d="M217.384 132.893L246.883 150.01L246.941 257.868L217.453 239.942L217.384 132.893Z" fill="#FFC452"/>
<rect width="34.9077" height="34.9077" transform="matrix(0.865388 0.501103 -0.865388 0.501103 248.933 113.513)" fill="#FF8A1D"/>
<rect x="-1.19209e-07" y="2.00441" width="36.9929" height="36.9929" transform="matrix(0.865388 0.501103 -0.865388 0.501103 250.668 111.115)" stroke="#1F2E54" stroke-width="4"/>
<path d="M248.895 148.604L248.895 261.14" stroke="#1F2E54" stroke-width="4"/>
<mask id="path-17-inside-3_2619_30151" fill="white">
<path fill-rule="evenodd" clip-rule="evenodd" d="M182.068 263.633V263.756L217.543 242.202V148.529L217.381 148.618L182.065 128.168L146.591 148.71L146.593 148.711V242.202L182.067 263.756L182.068 263.633Z"/>
</mask>
<path fill-rule="evenodd" clip-rule="evenodd" d="M182.068 263.633V263.756L217.543 242.202V148.529L217.381 148.618L182.065 128.168L146.591 148.71L146.593 148.711V242.202L182.067 263.756L182.068 263.633Z" fill="white"/>
<path d="M182.068 263.633H186.068L178.069 263.588L182.068 263.633ZM182.068 263.756H178.068V270.867L184.145 267.174L182.068 263.756ZM217.543 242.202L219.62 245.621L221.543 244.452V242.202H217.543ZM217.543 148.529H221.543V141.743L215.606 145.029L217.543 148.529ZM217.381 148.618L215.377 152.08L217.337 153.215L219.319 152.118L217.381 148.618ZM182.065 128.168L184.07 124.707L182.065 123.546L180.061 124.707L182.065 128.168ZM146.591 148.71L144.586 145.249L138.607 148.711L144.587 152.172L146.591 148.71ZM146.593 148.711H150.593V146.405L148.596 145.249L146.593 148.711ZM146.593 242.202H142.593V244.452L144.516 245.621L146.593 242.202ZM182.067 263.756L179.99 267.174L185.988 270.819L186.067 263.801L182.067 263.756ZM178.068 263.633V263.756H186.068V263.633H178.068ZM184.145 267.174L219.62 245.621L215.466 238.784L179.991 260.337L184.145 267.174ZM221.543 242.202V148.529H213.543V242.202H221.543ZM215.606 145.029L215.444 145.119L219.319 152.118L219.48 152.029L215.606 145.029ZM219.386 145.157L184.07 124.707L180.061 131.63L215.377 152.08L219.386 145.157ZM180.061 124.707L144.586 145.249L148.595 152.172L184.07 131.63L180.061 124.707ZM144.587 152.172L144.589 152.173L148.596 145.249L148.594 145.248L144.587 152.172ZM142.593 148.711V242.202H150.593V148.711H142.593ZM144.516 245.621L179.99 267.174L184.144 260.337L148.67 238.784L144.516 245.621ZM186.067 263.801L186.068 263.678L178.069 263.588L178.067 263.711L186.067 263.801Z" fill="#1F2E54" mask="url(#path-17-inside-3_2619_30151)"/>
<path d="M150.518 150.946L180.017 168.063L180.148 257.958L150.588 239.942L150.518 150.946Z" fill="#FFC452"/>
<rect width="34.9077" height="34.9077" transform="matrix(0.865388 0.501103 -0.865388 0.501103 182.068 132.048)" fill="#FF8A1D"/>
<rect x="-1.19209e-07" y="2.00441" width="36.9929" height="36.9929" transform="matrix(0.865388 0.501103 -0.865388 0.501103 183.803 129.153)" stroke="#1F2E54" stroke-width="4"/>
<path d="M182.067 167.759L182.067 260.933" stroke="#1F2E54" stroke-width="4"/>
<mask id="path-23-inside-4_2619_30151" fill="white">
<path fill-rule="evenodd" clip-rule="evenodd" d="M215.379 180.462L250.853 201.004L250.848 201.007L250.854 201.004V262.402L215.38 283.956V283.931L215.38 283.956L179.905 262.402V201.005L179.904 201.004L215.379 180.462Z"/>
</mask>
<path fill-rule="evenodd" clip-rule="evenodd" d="M215.379 180.462L250.853 201.004L250.848 201.007L250.854 201.004V262.402L215.38 283.956V283.931L215.38 283.956L179.905 262.402V201.005L179.904 201.004L215.379 180.462Z" fill="white"/>
<path d="M250.853 201.004L252.857 204.466L258.838 201.005L252.858 197.543L250.853 201.004ZM215.379 180.462L217.383 177.001L215.379 175.84L213.374 177.001L215.379 180.462ZM250.848 201.007L248.844 197.545L252.613 204.597L250.848 201.007ZM250.854 201.004H254.854V194.58L249.089 197.415L250.854 201.004ZM250.854 262.402L252.931 265.821L254.854 264.652V262.402H250.854ZM215.38 283.956H211.38V291.066L217.457 287.374L215.38 283.956ZM215.38 283.931H219.38L211.38 283.864L215.38 283.931ZM215.38 283.956L213.303 287.374L219.262 290.995L219.379 284.023L215.38 283.956ZM179.905 262.402H175.905V264.652L177.828 265.821L179.905 262.402ZM179.905 201.005H183.905V198.699L181.91 197.544L179.905 201.005ZM179.904 201.004L177.9 197.543L171.923 201.003L177.899 204.465L179.904 201.004ZM252.858 197.543L217.383 177.001L213.374 183.924L248.849 204.466L252.858 197.543ZM252.851 204.469L252.857 204.466L248.85 197.542L248.844 197.545L252.851 204.469ZM249.089 197.415L249.083 197.418L252.613 204.597L252.619 204.594L249.089 197.415ZM254.854 262.402V201.004H246.854V262.402H254.854ZM217.457 287.374L252.931 265.821L248.777 258.984L213.303 280.537L217.457 287.374ZM211.38 283.931V283.956H219.38V283.931H211.38ZM219.379 284.023L219.379 283.998L211.38 283.864L211.38 283.889L219.379 284.023ZM177.828 265.821L213.303 287.374L217.457 280.537L181.982 258.984L177.828 265.821ZM175.905 201.005V262.402H183.905V201.005H175.905ZM177.899 204.465L177.9 204.466L181.91 197.544L181.909 197.543L177.899 204.465ZM213.374 177.001L177.9 197.543L181.908 204.466L217.383 183.924L213.374 177.001Z" fill="#1F2E54" mask="url(#path-23-inside-4_2619_30151)"/>
<path d="M183.83 203.24L213.329 220.357L213.459 278.158L183.899 260.142L183.83 203.24Z" fill="#FFC452"/>
<rect width="34.9077" height="34.9077" transform="matrix(0.865388 0.501103 -0.865388 0.501103 215.38 183.86)" fill="#FF8A1D"/>
<rect x="-1.19209e-07" y="2.00441" width="36.9929" height="36.9929" transform="matrix(0.865388 0.501103 -0.865388 0.501103 217.114 181.462)" stroke="#1F2E54" stroke-width="4"/>
<path d="M215.379 218.929L215.379 281.133" stroke="#1F2E54" stroke-width="4"/>
</svg>
