<svg width="862" height="920" viewBox="0 0 862 920" fill="none" xmlns="http://www.w3.org/2000/svg">
<g clip-path="url(#clip0_2619_29457)">
<ellipse cx="392.763" cy="477.183" rx="390.091" ry="392.579" fill="#F9FAFC"/>
<path d="M768.84 369.681C724.246 216.973 594.765 112.122 446.759 91.4822L419.985 90.6296C426.376 92.52 426.333 95.8549 426.282 99.608L426.281 99.6339C426.23 103.38 426.173 107.547 428.259 111.406C430.349 115.274 434.591 118.837 439.906 122.244C445.221 125.651 451.61 128.907 455.704 132.51C459.797 136.114 461.591 140.07 462.902 144.006C464.212 147.942 465.035 151.862 464.667 153.889C464.299 155.915 462.74 156.051 459.888 155.603C457.037 155.155 452.896 154.126 450.18 155.238C447.465 156.349 446.175 159.606 446.827 162.934C447.48 166.263 450.073 169.663 454.755 173.097C460.039 176.854 465.86 179.793 472.022 181.815C476.881 183.356 481.996 183.928 487.076 183.499C491.46 183.177 495.38 182.354 497.18 179.75C498.98 177.145 498.659 172.759 497.122 169.688C495.585 166.617 492.831 164.862 488.814 163.156C484.797 161.449 479.513 159.793 476.309 157.048C473.105 154.302 471.984 150.472 471.997 148.868C472.01 147.265 473.155 147.89 478.32 147.502C483.484 147.115 492.676 145.711 496.755 143.241C500.835 140.771 499.802 137.232 497.356 133.789C494.91 130.345 491.05 126.993 489.108 123.081C487.166 119.169 487.14 114.699 492.713 115.152C498.287 115.604 509.457 120.983 515.842 126.957C522.228 132.931 523.826 139.503 522.549 144.994C521.272 150.484 517.12 154.898 513.737 160.843C510.354 166.789 507.737 174.27 508.255 179.878C508.773 185.485 512.423 189.22 515.23 189.52C518.038 189.82 520.003 186.688 521.619 185.096C523.235 183.504 524.501 183.454 528.206 185.733C533.1 188.815 537.641 192.424 541.747 196.497C545.44 200.377 546.683 203.534 546.567 205.328C546.451 207.121 544.974 207.551 542.032 209.53C539.091 211.508 534.679 215.034 533.932 220.691C533.184 226.349 536.098 234.137 541.394 238.029C546.691 241.921 554.372 241.922 558.623 240.04C562.874 238.159 563.696 234.4 564.918 230.364C566.14 226.328 567.76 222.017 568.576 217.14C569.393 212.262 569.404 206.822 569.398 201.865L569.397 201.749C569.391 196.838 569.386 192.422 572.16 190.501C574.955 188.565 580.573 189.164 585.443 188.863C590.313 188.561 594.44 187.358 594.335 183.709C594.23 180.059 586.647 180.48 585.443 173.097C584.238 165.714 586.166 157.042 589.476 154.149C592.787 151.256 597.475 154.149 599.779 158.168C602.083 162.186 605.243 160.834 607.895 165.506C610.546 170.179 615.928 174.367 621.68 175.924C627.432 177.481 623.52 185.628 629.426 188.863C635.331 192.097 644.953 192.007 647.528 196.497C650.104 200.987 650.188 201.336 649.74 204.186C649.292 207.036 654.413 210.802 652.44 212.818C650.468 214.835 646.881 214.603 642.728 215.175C638.574 215.748 633.854 217.124 629.426 217.297C625.127 217.465 621.099 216.499 616.461 215.387L616.037 215.286C611.22 214.132 605.725 212.856 602.177 215.491C598.629 218.126 597.019 224.676 592.409 237.378C587.798 250.08 580.186 268.94 576.366 283.81C572.546 298.68 572.526 309.564 573.894 319.722C575.261 329.881 578.018 339.315 580.495 352.188C582.972 365.061 585.175 381.374 589.792 391.703C594.408 402.033 601.439 406.38 608.068 411.003C614.709 415.577 621.001 420.638 626.892 426.144C632.853 431.764 638.544 438.101 647.649 440.242C656.754 442.382 669.276 440.329 680.187 437.144C691.097 433.958 700.399 429.644 705.073 424.281C709.747 418.918 709.793 412.504 711.962 407.874C714.132 403.244 718.418 400.391 725.638 397.166C732.857 393.941 743.003 390.339 744.665 392.734C746.327 395.128 739.496 403.52 738.804 411.56C738.112 419.601 743.559 427.29 752.177 436.208C760.795 445.127 759.267 460.072 762.256 469.757C765.244 479.442 772.748 483.871 770.913 501.717C755.964 647.117 803.367 487.913 768.84 369.681Z" fill="#66DA78"/>
<path d="M148.856 174.867C147.085 176.094 129.306 191.83 128.111 192.756C120.814 200.387 117.82 205.764 115.833 212.274C113.847 218.784 112.884 226.424 107.986 233.771C103.088 241.119 94.2703 248.174 91.3661 256.859C88.462 265.544 91.4779 275.859 90.7032 284.724C89.9285 293.588 85.374 300.999 80.073 307.504C74.772 314.009 68.7266 319.612 65.4668 328.721C62.207 337.831 61.7327 350.446 64.3088 365.85C66.8848 381.254 72.5186 399.447 76.4507 422.771C80.3829 446.095 82.614 474.56 90.5685 493.034C98.523 511.507 112.202 519.99 121.904 523.077C131.606 526.164 137.332 523.854 142.142 523.889C146.952 523.925 150.849 526.306 158.781 529.91C166.714 533.514 178.683 538.337 186.155 542.555C193.628 546.773 196.603 550.384 201.334 555.081C206.065 559.778 212.555 565.566 218.46 568.799C224.366 572.031 229.688 572.717 234.983 572.772C240.278 572.827 245.551 572.25 249.238 575.011C252.925 577.772 255.028 583.88 256.08 590.77C257.132 597.66 257.134 605.339 255.76 615.977C254.386 626.616 251.639 640.213 252.452 653.413C253.266 666.613 257.646 679.411 267.09 689.291C276.535 699.172 291.049 706.133 305.758 710.478C320.467 714.823 335.375 716.552 344.346 720.972C353.317 725.393 356.353 732.504 360.14 741.636C363.927 750.769 368.464 761.92 374.36 774.437C380.255 786.953 387.509 800.834 395.05 813.508C402.59 826.182 410.424 837.653 417.76 844.149C425.096 850.646 431.944 852.167 437.134 852.412C442.325 852.656 445.863 851.623 447.619 845.033C449.374 838.443 449.348 826.293 455.936 812.693C462.523 799.093 475.731 784.037 485.509 774.788C495.287 765.54 501.639 762.082 503.375 752.138C505.111 742.195 502.232 725.759 509.283 715.383C516.334 705.008 533.314 700.692 542.399 691.802C551.484 682.912 552.673 669.448 553.235 657.127C553.798 644.807 553.733 633.629 555.034 624.931C556.335 616.233 558.998 610.016 560.281 601.804C561.563 593.592 561.462 583.383 559.759 577.003C558.056 570.624 554.749 568.066 549.595 566.852C544.44 565.639 537.434 565.762 530.787 565.463C524.14 565.164 517.847 564.442 510.168 564.442C501.761 564.426 493.374 565.266 485.137 566.949C476.857 568.726 469.362 571.553 463.378 572.979C457.395 574.406 452.92 574.431 447.857 570.79C442.795 567.149 437.14 559.84 431.327 554.18C425.513 548.519 419.54 544.501 414.133 543.521C408.726 542.541 403.887 544.592 397.213 543.66C390.54 542.729 382.036 538.812 374.269 534.681C366.501 530.55 359.472 526.201 351.644 526.246C343.816 526.292 335.191 530.728 325.429 531.818C315.667 532.907 304.767 530.65 295.741 531.525C286.716 532.4 279.568 536.406 274.77 542.445C269.972 548.484 267.529 556.554 265.711 559.644C263.893 562.734 262.698 560.843 260.138 559.191C257.37 557.463 254.262 556.351 251.026 555.932C248.408 555.736 247.102 556.755 244.581 557.972C242.059 559.189 238.308 560.603 235.525 560.935C232.742 561.268 230.923 560.519 228.957 559.813C226.377 559.017 223.956 557.774 221.805 556.142C218.732 553.839 214.699 549.896 214.632 545.278C214.565 540.659 218.456 535.364 219.819 530.167C221.182 524.971 220.014 519.872 216.812 517.129C213.61 514.385 208.377 513.992 202.688 515.333C196.998 516.673 190.859 519.746 187.414 519.47C183.97 519.195 183.236 515.571 183.498 509.896C183.761 504.221 185.024 496.494 185.755 491.322C186.485 486.149 186.68 483.534 184.64 480.93C182.599 478.326 178.323 475.736 175.097 476.197C171.871 476.658 169.697 480.173 166.221 484.706C162.746 489.239 157.967 494.793 152.776 498.388C147.585 501.982 141.983 503.617 138.308 503.089C134.633 502.562 132.889 499.87 131.007 495.622C129.126 491.373 127.109 485.563 127.094 475.65C127.079 465.737 129.069 451.719 131.978 444.152C134.888 436.584 138.721 435.466 142.591 433.377C146.46 431.288 150.368 428.227 155.098 425.247C159.976 422.126 165.174 419.537 170.603 417.523C175.827 415.679 180.72 414.89 184.885 416.554C189.05 418.218 192.492 422.331 195.964 428.197C199.437 434.062 202.942 441.679 206.887 445.326C210.832 448.972 215.22 448.65 216.81 446.427C218.399 444.205 217.195 440.08 215.603 434.628L215.602 434.623L215.598 434.609C214.006 429.157 212.03 422.386 211.85 416.845C211.67 411.298 213.294 406.987 217.254 402.471C221.214 397.956 227.518 393.238 231.897 387.961C236.277 382.683 238.733 376.849 239.229 371.424C239.725 365.999 238.263 360.99 239.035 355.965C239.807 350.939 242.818 345.903 246.761 341.873C250.704 337.843 255.579 334.821 258.567 332.988L258.672 332.924C261.58 331.14 262.663 330.475 263.956 326.778C265.265 323.036 266.788 316.193 269.845 312.422C272.903 308.651 277.5 307.952 282.893 306.698C288.287 305.443 294.479 303.637 298.073 301.148C301.667 298.659 302.664 295.49 301.722 293.365C300.792 291.267 297.98 290.187 294.266 288.76L294.121 288.705C290.335 287.25 285.64 285.42 283.305 282.902C280.97 280.385 280.994 277.18 283.451 275.183C285.908 273.185 290.799 272.399 293.189 273.461C295.578 274.522 301.731 277.888 304.428 281.099C307.125 284.31 312.632 287.822 320.57 288.705C328.509 289.587 338.88 287.841 342.854 285.561C346.828 283.281 344.406 280.47 340.338 277.498C336.27 274.526 324.294 270.941 323.034 268.269C321.774 265.597 324.969 263.387 325.201 259.799C325.433 256.211 322.705 251.251 318.133 248.745C313.561 246.24 307.146 246.193 302.711 245.247C298.276 244.302 295.818 242.462 293.493 238.341C291.169 234.219 288.981 227.819 286.492 224.227C284.002 220.634 281.213 219.851 278.835 221.024C276.457 222.197 274.493 225.328 271.636 227.602C268.779 229.875 269.875 233.967 267.257 233.771C264.639 233.575 261.366 229.763 259.454 227.602C257.543 225.441 255.974 229.082 252.822 227.602C249.67 226.122 250.887 221.692 247.212 221.164C243.537 220.637 245.219 220.581 243.689 218.628C242.158 216.675 254.659 208.583 256.507 207.244C258.354 205.904 256.675 205.961 261.05 207.244C265.424 208.526 266.123 208.987 270.54 210.418C274.957 211.848 274.089 211.406 277.081 210.693C280.072 209.98 282.59 207.644 284.87 203.94C287.336 199.775 289.146 195.254 290.236 190.538C291.286 185.913 291.345 181.736 289.79 179.151C288.236 176.566 285.065 175.572 280.691 174.289C276.316 173.006 275.148 172.827 272.277 169.026C269.407 165.225 271.375 162.632 272.277 158.049C273.179 153.465 275.146 150.335 277.081 149.29C279.015 148.245 283.554 147.898 286.562 148.736C290.764 149.428 295.762 149.736 300.769 150.994C305.776 152.252 310.054 154.842 312.992 159.423C315.93 164.005 317.529 170.576 319.226 175.84C320.586 180.301 322.482 184.582 324.87 188.589C327.025 192.121 329.53 195.229 332.751 197.488C335.973 199.746 339.904 201.158 344.057 200.585C348.21 200.012 352.582 197.459 354.396 193.25C356.209 189.042 355.454 183.184 356.209 178.643C356.964 174.103 359.225 170.882 360.705 167.734C362.185 164.585 362.883 161.502 364.665 159.383C366.447 157.264 369.309 156.107 372.855 156.192C376.401 156.278 380.626 157.603 387.256 158.387C393.886 159.172 402.919 159.414 409.554 157.478C416.189 155.542 420.425 151.427 421.42 148.257C422.415 145.087 420.167 142.865 416.179 142.909C412.191 142.953 408.257 139.316 402.298 141.375C396.338 143.434 389.845 146.604 385.735 147.323C381.625 148.042 379.596 147.676 379.006 144.008C378.416 140.341 377.771 137.958 376.315 134.068C374.858 130.178 371.094 129.357 366.661 128.411L366.364 128.348C362.001 127.418 357.024 126.357 353.053 124.544C348.992 122.69 345.982 120.049 342.7 118.128C339.418 116.206 335.866 115.004 332.229 113.506C328.592 112.008 324.868 110.216 320.42 110.874C315.972 111.533 310.8 114.643 306.917 118.335C303.034 122.026 300.444 126.303 298.41 128.655C296.377 131.007 294.904 131.438 292.451 130.714C289.999 129.989 286.57 128.112 282.184 128.432C277.798 128.752 272.454 131.271 267.932 133.87C263.409 136.47 259.713 139.148 256.715 142.582C253.718 146.017 251.421 150.207 249.081 154.249C246.74 158.291 244.358 162.186 242.694 166.35C241.03 170.514 240.085 174.952 239.035 179.574C237.986 184.196 238.847 188.045 239.293 193.218C239.738 198.392 227.585 209.696 228.397 215.217C229.209 220.739 228.792 226.248 229.055 230.622C229.318 234.997 230.264 238.239 230.641 241.169C231.019 244.099 230.821 246.716 227.112 250.997C223.402 255.279 216.177 261.226 207.975 262.18C199.773 263.134 190.594 259.096 185.523 254.337C180.453 249.578 179.494 244.097 180.9 239.05C182.305 234.003 186.076 229.38 191.986 226.056C197.896 222.732 205.943 220.703 210.803 218.165C215.663 215.627 207.588 213.206 207.975 210.693C208.362 208.18 217.208 205.579 218.098 202.6C218.988 199.62 215.343 195.363 219.077 187.878C222.81 180.393 220.827 168.905 221.937 163.941C223.048 158.978 221.6 160.531 217.719 164.223C213.213 168.712 214.426 172.966 210.803 178.193C207.664 182.787 206.583 185.663 205.005 186.283C203.427 186.903 201.348 185.275 198.566 185.603C195.785 185.932 192.294 188.234 188.442 189.838C184.59 191.442 180.375 192.352 176.971 191.105C173.567 189.859 177.648 187.373 176.356 182.95C175.065 178.528 175.075 173.087 172.335 169.985C166.956 163.9 156.075 169.852 148.856 174.867Z" fill="#66DA78"/>
<path d="M447.653 89.6596C595.66 110.299 725.14 215.151 769.735 367.858C804.262 486.09 756.858 645.294 771.808 499.895C773.643 482.049 766.139 477.619 763.15 467.935C760.162 458.25 761.689 443.304 753.071 434.386C744.453 425.467 739.007 417.778 739.699 409.738C740.39 401.698 747.221 393.306 745.559 390.911C743.898 388.516 733.752 392.119 726.532 395.344C719.312 398.569 715.027 401.421 712.857 406.051C710.687 410.681 710.641 417.096 705.967 422.458C701.294 427.821 691.992 432.136 681.081 435.321C670.171 438.507 657.649 440.56 648.544 438.419C639.439 436.278 633.748 429.941 627.786 424.321C621.895 418.816 615.603 413.755 608.962 409.18C602.333 404.558 595.303 400.21 590.686 389.881C586.07 379.551 583.867 363.238 581.39 350.365C578.913 337.492 576.156 328.058 574.788 317.9C573.421 307.742 573.441 296.857 577.26 281.987C581.08 267.117 588.693 248.257 593.303 235.555C597.914 222.854 599.523 216.304 603.071 213.669C606.62 211.033 612.115 212.31 616.932 213.463C621.749 214.617 625.891 215.647 630.32 215.474C634.749 215.301 639.469 213.925 643.622 213.353C647.775 212.78 651.362 213.012 653.335 210.996C655.307 208.979 650.186 205.213 650.634 202.363C651.082 199.513 650.998 199.164 648.423 194.674C645.848 190.184 636.225 190.275 630.32 187.04C624.415 183.805 628.326 175.658 622.574 174.101C616.823 172.544 611.441 168.356 608.789 163.684C606.138 159.011 602.978 160.364 600.674 156.345C598.37 152.327 593.681 149.433 590.371 152.326C587.061 155.219 585.133 163.892 586.337 171.275C587.542 178.658 595.124 178.237 595.229 181.886C595.335 185.536 591.207 186.738 586.337 187.04C581.467 187.342 575.85 186.742 573.054 188.678C570.258 190.615 570.286 195.085 570.292 200.042C570.298 204.999 570.287 210.439 569.471 215.317C568.654 220.195 567.034 224.506 565.812 228.542C564.59 232.577 563.768 236.336 559.518 238.218C555.267 240.099 547.586 240.098 542.289 236.207C536.992 232.315 534.078 224.526 534.826 218.869C535.574 213.211 539.985 209.686 542.927 207.707C545.869 205.729 547.345 205.298 547.461 203.505C547.577 201.712 546.335 198.555 542.641 194.674C538.535 190.602 533.995 186.992 529.101 183.911C525.396 181.632 524.129 181.681 522.513 183.273C520.897 184.865 518.933 187.997 516.125 187.697C513.317 187.398 509.667 183.662 509.149 178.055C508.631 172.448 511.248 164.967 514.631 159.021C518.014 153.075 522.167 148.662 523.443 143.171C524.72 137.681 523.122 131.109 516.737 125.135C510.351 119.16 499.181 113.782 493.608 113.329C488.035 112.877 488.06 117.346 490.003 121.258C491.945 125.17 495.805 128.523 498.251 131.966C500.697 135.409 501.729 138.948 497.65 141.418C493.57 143.889 484.379 145.292 479.214 145.68C474.049 146.068 472.905 145.442 472.892 147.046C472.879 148.649 473.999 152.48 477.203 155.225C480.407 157.971 485.691 159.627 489.708 161.333C493.725 163.04 496.48 164.795 498.016 167.866C499.553 170.937 499.875 175.322 498.075 177.927C496.275 180.532 492.355 181.355 487.97 181.676C482.89 182.106 477.775 181.534 472.916 179.992C466.755 177.971 460.934 175.032 455.65 171.275C450.967 167.84 448.374 164.44 447.722 161.112C447.07 157.784 448.359 154.527 451.075 153.415C453.79 152.303 457.931 153.333 460.783 153.781C463.634 154.229 465.194 154.093 465.562 152.066C465.93 150.04 465.106 146.12 463.796 142.183C462.486 138.247 460.692 134.291 456.598 130.688C452.504 127.084 446.115 123.829 440.8 120.422C435.485 117.015 431.244 113.452 429.153 109.583C427.063 105.715 427.125 101.538 427.176 97.7854C427.227 94.0323 427.27 90.6974 420.88 88.807C389.308 79.4678 314.855 92.713 283.993 101.722C238.267 115.066 179.455 151.182 143.283 177.955C144.478 177.029 146.026 175.857 147.797 174.629C155.015 169.614 165.897 163.662 171.275 169.747C174.015 172.849 174.005 178.29 175.297 182.712C176.588 187.135 172.508 189.621 175.912 190.868C179.316 192.114 183.53 191.205 187.382 189.6C191.234 187.996 194.725 185.694 197.506 185.366C200.288 185.037 202.367 186.666 203.945 186.045C205.524 185.425 206.605 182.549 209.743 177.955C213.366 172.728 212.154 168.474 216.659 163.985C220.541 160.294 221.989 158.741 220.878 163.704C219.767 168.667 221.75 180.155 218.017 187.64C214.283 195.126 217.928 199.383 217.038 202.362C216.148 205.341 207.302 207.943 206.915 210.455C206.529 212.968 214.603 215.389 209.743 217.927C204.884 220.466 196.836 222.495 190.926 225.819C185.016 229.143 181.246 233.765 179.84 238.812C178.434 243.859 179.393 249.34 184.464 254.099C189.534 258.859 198.714 262.896 206.915 261.942C215.117 260.988 222.342 255.041 226.052 250.76C229.762 246.478 229.959 243.862 229.582 240.932C229.205 238.001 228.259 234.759 227.995 230.385C227.732 226.01 228.149 220.501 227.337 214.98C226.525 209.458 238.678 198.154 238.233 192.981C237.788 187.807 236.926 183.958 237.976 179.336C239.025 174.715 239.97 170.277 241.634 166.113C243.298 161.949 245.681 158.053 248.021 154.011C250.361 149.969 252.658 145.779 255.656 142.345C258.653 138.91 262.35 136.232 266.872 133.633C271.394 131.033 276.738 128.514 281.125 128.195C285.511 127.875 288.939 129.752 291.392 130.476C293.844 131.201 295.318 130.77 297.351 128.417C299.384 126.065 301.975 121.789 305.858 118.097C309.741 114.405 314.912 111.295 319.36 110.637C323.809 109.978 327.533 111.771 331.17 113.268C334.807 114.766 338.358 115.969 341.64 117.89C344.922 119.812 347.932 122.453 351.994 124.307C356.055 126.161 361.168 127.228 365.601 128.174C370.035 129.119 373.798 129.941 375.255 133.831C376.711 137.72 377.356 140.103 377.946 143.771C378.536 147.438 380.565 147.805 384.675 147.085C388.785 146.366 395.278 143.197 401.238 141.138C407.198 139.078 411.132 142.715 415.12 142.672C419.108 142.628 421.356 144.849 420.361 148.019C419.366 151.189 415.129 155.305 408.494 157.241C401.86 159.177 392.827 158.934 386.196 158.15C379.566 157.365 375.341 156.04 371.795 155.955C368.249 155.869 365.387 157.026 363.605 159.145C361.824 161.265 361.125 164.348 359.645 167.496C358.165 170.644 355.905 173.865 355.15 178.406C354.395 182.946 355.15 188.804 353.336 193.013C351.523 197.221 347.15 199.775 342.997 200.348C338.844 200.921 334.913 199.508 331.692 197.25C328.47 194.992 325.966 191.883 323.81 188.352C321.422 184.345 319.527 180.064 318.166 175.602C316.469 170.339 314.87 163.767 311.932 159.186C308.994 154.604 304.717 152.014 299.709 150.756C294.702 149.498 289.705 149.19 285.502 148.498C282.494 147.661 277.955 148.007 276.021 149.052C274.087 150.098 272.12 153.228 271.218 157.811C270.316 162.395 268.347 164.988 271.218 168.789C274.088 172.59 275.256 172.768 279.631 174.051C284.006 175.334 287.176 176.328 288.731 178.913C290.286 181.499 290.226 185.676 289.176 190.301C288.086 195.017 286.277 199.537 283.81 203.702C281.531 207.406 279.013 209.742 276.021 210.455C273.029 211.169 273.898 211.61 269.48 210.18C265.063 208.75 264.365 208.289 259.99 207.006C255.615 205.723 257.295 205.667 255.447 207.006C253.599 208.345 241.099 216.438 242.629 218.391C244.16 220.344 242.478 220.4 246.152 220.927C249.827 221.454 248.611 225.884 251.763 227.364C254.915 228.845 256.484 225.203 258.395 227.364C260.306 229.525 263.579 233.338 266.197 233.534C268.815 233.73 267.719 229.638 270.576 227.364C273.433 225.091 275.398 221.959 277.776 220.786C280.154 219.613 282.943 220.397 285.432 223.989C287.921 227.581 290.11 233.982 292.434 238.103C294.758 242.225 297.217 244.064 301.651 245.01C306.086 245.955 312.501 246.003 317.073 248.508C321.645 251.013 324.374 255.974 324.141 259.562C323.909 263.15 320.715 265.36 321.974 268.031C323.234 270.703 335.211 274.288 339.278 277.26C343.346 280.232 345.768 283.044 341.794 285.323C337.821 287.603 327.449 289.349 319.511 288.467C311.572 287.585 306.066 284.073 303.368 280.862C300.671 277.651 294.519 274.284 292.129 273.223C289.74 272.162 284.848 272.948 282.392 274.945C279.935 276.942 279.911 280.147 282.245 282.665C284.58 285.182 289.276 287.012 293.062 288.467C296.848 289.922 299.721 291.003 300.662 293.127C301.604 295.252 300.607 298.421 297.013 300.91C293.419 303.399 287.228 305.205 281.834 306.46C276.44 307.715 271.844 308.413 268.786 312.184C265.728 315.956 264.205 322.798 262.897 326.54C261.588 330.282 260.495 330.918 257.507 332.751C254.52 334.584 249.644 337.605 245.701 341.635C241.758 345.665 238.748 350.702 237.976 355.727C237.204 360.752 238.665 365.761 238.17 371.187C237.674 376.612 235.217 382.446 230.838 387.723C226.458 393 220.155 397.718 216.194 402.234C212.234 406.749 210.61 411.06 210.79 416.607C210.97 422.153 212.95 428.931 214.542 434.386C216.135 439.841 217.34 443.967 215.75 446.19C214.161 448.413 209.772 448.735 205.827 445.088C201.883 441.441 198.377 433.825 194.905 427.959C191.432 422.093 187.99 417.981 183.825 416.317C179.66 414.653 174.767 415.441 169.544 417.285C164.114 419.299 158.916 421.889 154.038 425.009C149.308 427.989 145.401 431.05 141.531 433.139C137.662 435.228 133.828 436.347 130.918 443.914C128.009 451.482 126.02 465.499 126.034 475.413C126.049 485.326 128.066 491.135 129.948 495.384C131.829 499.633 133.573 502.325 137.248 502.852C140.923 503.379 146.525 501.744 151.716 498.15C156.907 494.556 161.686 489.001 165.162 484.468C168.637 479.935 170.812 476.42 174.038 475.959C177.264 475.499 181.539 478.088 183.58 480.692C185.62 483.297 185.425 485.911 184.695 491.084C183.965 496.257 182.702 503.983 182.439 509.658C182.176 515.333 182.91 518.957 186.355 519.233C189.799 519.508 195.938 516.436 201.628 515.095C207.318 513.754 212.55 514.148 215.752 516.891C218.954 519.635 220.122 524.733 218.76 529.93C217.397 535.126 213.505 540.422 213.572 545.04C213.64 549.659 217.672 553.602 220.746 555.904C222.896 557.537 225.317 558.779 227.898 559.575C229.863 560.281 231.682 561.031 234.465 560.698C237.248 560.365 241 558.952 243.521 557.735C246.043 556.518 247.348 555.498 249.966 555.694C253.202 556.114 256.31 557.225 259.078 558.954C261.638 560.606 262.833 562.496 264.652 559.406C266.47 556.316 268.912 548.246 273.71 542.207C278.508 536.168 285.656 532.162 294.682 531.287C303.707 530.413 314.608 532.67 324.37 531.58C334.132 530.491 342.756 526.055 350.584 526.009C358.412 525.963 365.442 530.312 373.209 534.443C380.976 538.574 389.481 542.491 396.154 543.423C402.827 544.354 407.666 542.303 413.073 543.283C418.48 544.263 424.453 548.281 430.267 553.942C436.081 559.603 441.735 566.912 446.798 570.552C451.86 574.193 456.335 574.168 462.319 572.742C468.302 571.315 475.797 568.488 484.078 566.711C492.314 565.028 500.701 564.188 509.108 564.204C516.788 564.204 523.08 564.926 529.727 565.225C536.374 565.524 543.38 565.401 548.535 566.615C553.69 567.828 556.996 570.386 558.699 576.766C560.402 583.145 560.504 593.354 559.221 601.566C557.939 609.778 555.275 615.996 553.974 624.694C552.673 633.392 552.738 644.569 552.175 656.89C551.613 669.21 550.424 682.674 541.339 691.564C532.254 700.455 515.275 704.77 508.224 715.146C501.172 725.521 504.052 741.957 502.316 751.901C500.58 761.844 494.228 765.302 484.45 774.551C474.672 783.799 461.464 798.855 454.876 812.455C448.288 826.055 448.315 838.205 446.559 844.795C444.804 851.386 441.265 852.419 436.075 852.174C430.884 851.93 424.036 850.409 416.7 843.912C409.364 837.415 401.531 825.944 393.99 813.27C386.449 800.596 379.195 786.716 373.3 774.199C367.405 761.683 362.868 750.531 359.08 741.399C355.293 732.266 352.257 725.155 343.286 720.735C334.315 716.314 319.408 714.585 304.698 710.24C289.989 705.895 275.475 698.935 266.031 689.054C256.586 679.173 252.207 666.376 251.393 653.176C250.579 639.975 253.327 626.378 254.7 615.74C256.074 605.101 256.073 597.422 255.02 590.532C253.968 583.642 251.865 577.535 248.178 574.773C244.491 572.012 239.218 572.589 233.924 572.534C228.629 572.479 223.306 571.794 217.401 568.561C211.496 565.328 205.006 559.541 200.274 554.844C195.543 550.146 192.568 546.535 185.096 542.318C177.624 538.1 165.654 533.277 157.722 529.672C149.789 526.068 145.892 523.688 141.082 523.652C136.273 523.616 130.546 525.927 120.844 522.84C111.142 519.753 97.4633 511.269 89.5088 492.796C81.5543 474.323 79.3232 445.857 75.3911 422.533C71.459 399.209 65.8252 381.016 63.2491 365.613C60.673 350.209 61.1473 337.593 64.4071 328.484C67.6669 319.374 73.7123 313.771 79.0133 307.266C84.3143 300.761 88.8689 293.351 89.6436 284.486C90.4183 275.622 87.4023 265.307 90.3065 256.621C93.2106 247.936 102.028 240.881 106.926 233.534C111.824 226.186 112.787 218.546 114.774 212.036C116.76 205.526 119.755 200.149 127.051 192.518C25.2887 290.32 -24.5335 442.467 17.7646 587.314C78.3848 794.9 295.86 914.054 503.511 853.452C627.588 817.242 720.083 725.044 761.503 612.412C762.732 609.07 772.459 573.578 773.598 570.2" stroke="#1F2E54" stroke-width="4" stroke-linecap="round" stroke-linejoin="round"/>
<path d="M141.028 60.3779C141.36 57.9943 144.223 56.9523 146.01 58.5649L153.741 65.5427C154.186 65.9448 154.742 66.2041 155.337 66.2869L165.651 67.724C168.035 68.0561 169.077 70.9188 167.464 72.7054L160.487 80.4364C160.085 80.882 159.825 81.438 159.742 82.0325L158.305 92.3472C157.973 94.7309 155.111 95.7728 153.324 94.1603L145.593 87.1825C145.147 86.7803 144.591 86.521 143.997 86.4382L133.682 85.0011C131.298 84.669 130.257 81.8064 131.869 80.0198L138.847 72.2887C139.249 71.8431 139.508 71.2871 139.591 70.6926L141.028 60.3779Z" fill="#66DA78" stroke="#1F2E54" stroke-width="4" stroke-linecap="round"/>
<path d="M836.452 224.506C838.239 222.893 841.102 223.935 841.434 226.319L842.871 236.634C842.954 237.228 843.213 237.784 843.615 238.23L850.593 245.961C852.205 247.747 851.163 250.61 848.78 250.942L838.465 252.379C837.87 252.462 837.314 252.721 836.869 253.124L829.138 260.101C827.351 261.714 824.489 260.672 824.157 258.288L822.719 247.974C822.637 247.379 822.377 246.823 821.975 246.377L814.997 238.646C813.385 236.86 814.427 233.997 816.81 233.665L827.125 232.228C827.72 232.145 828.276 231.886 828.721 231.484L836.452 224.506Z" fill="#016BFF" stroke="#1F2E54" stroke-width="4" stroke-linecap="round"/>
<path d="M182.771 647.775C184.557 646.163 187.42 647.205 187.752 649.589L189.189 659.903C189.272 660.498 189.531 661.054 189.933 661.499L196.911 669.23C198.524 671.017 197.482 673.88 195.098 674.212L184.783 675.649C184.189 675.732 183.633 675.991 183.187 676.393L175.456 683.371C173.67 684.983 170.807 683.941 170.475 681.558L169.038 671.243C168.955 670.649 168.696 670.093 168.294 669.647L161.316 661.916C159.703 660.129 160.745 657.267 163.129 656.935L173.444 655.498C174.038 655.415 174.594 655.155 175.04 654.753L182.771 647.775Z" fill="#FFC452" stroke="#1F2E54" stroke-width="4" stroke-linecap="round"/>
<path d="M573.778 461.199C574.11 458.815 576.973 457.773 578.76 459.386L586.491 466.363C586.936 466.766 587.492 467.025 588.087 467.108L598.401 468.545C600.785 468.877 601.827 471.74 600.214 473.526L593.237 481.257C592.835 481.703 592.575 482.259 592.492 482.853L591.055 493.168C590.723 495.552 587.861 496.594 586.074 494.981L578.343 488.003C577.897 487.601 577.341 487.342 576.747 487.259L566.432 485.822C564.048 485.49 563.007 482.627 564.619 480.841L571.597 473.11C571.999 472.664 572.258 472.108 572.341 471.513L573.778 461.199Z" fill="#66DA78" stroke="#1F2E54" stroke-width="4" stroke-linecap="round"/>
<path d="M162.391 875.117C162.723 872.734 165.585 871.692 167.372 873.304L175.103 880.282C175.549 880.684 176.105 880.943 176.699 881.026L187.014 882.463C189.397 882.795 190.439 885.658 188.827 887.445L181.849 895.176C181.447 895.621 181.188 896.177 181.105 896.772L179.668 907.086C179.336 909.47 176.473 910.512 174.686 908.9L166.955 901.922C166.51 901.52 165.954 901.26 165.359 901.177L155.044 899.74C152.661 899.408 151.619 896.546 153.231 894.759L160.209 887.028C160.611 886.582 160.871 886.026 160.953 885.432L162.391 875.117Z" fill="#016BFF" stroke="#1F2E54" stroke-width="4" stroke-linecap="round"/>
<rect x="342.422" y="449.883" width="99.7496" height="99.7496" rx="21.25" fill="#016BFF" stroke="#1F2E54" stroke-width="3.5"/>
<mask id="mask0_2619_29457" style="mask-type:alpha" maskUnits="userSpaceOnUse" x="345" y="452" width="95" height="95">
<rect x="345.309" y="452.756" width="94.1035" height="94.1035" rx="19" fill="#016BFF"/>
</mask>
<g mask="url(#mask0_2619_29457)">
<path d="M408.068 564.882L385.573 584.486L379.805 583.333L369.231 564.497L362.118 547.584V538.935L368.078 536.436L372.692 533.553L376.537 529.517L377.691 523.943L379.036 521.637L377.306 519.715L374.422 514.91L372.692 506.645L373.845 498.189L376.537 486.657L378.075 482.813L374.807 483.582L370.577 481.467L368.462 476.662V472.626L370.385 469.359L375.383 468.398L376.537 469.359V464.362L378.46 460.71L382.689 459.365H386.919L397.109 464.362L411.528 493.576L413.835 493.96L415.181 496.267L414.22 500.495L412.105 504.531L409.798 508.375L408.452 514.526L406.914 518.946L406.337 521.253L408.068 528.172L411.144 532.977L415.181 537.397L421.141 541.433L414.412 561.23L408.068 564.882Z" fill="white"/>
<path fill-rule="evenodd" clip-rule="evenodd" d="M444.61 551.3C444.61 551.3 429.601 543.214 419.921 541.259C419.921 541.259 419.854 542.704 418.244 546.269C416.633 549.834 411.881 560.369 411.881 560.369L404.749 554.953L404.856 563.028L385.287 583.922L372.919 556.855L374.567 549.24L367.52 551.939L363.756 538.512C363.756 538.512 345.199 542.685 329.216 555.542C313.232 568.398 308.655 588.439 307.17 605.623C305.685 622.808 307.47 640.928 330.179 647.05C330.179 647.05 340.848 649.725 349.536 646.146C352.243 645.028 356.176 643.985 360.302 643.071L360.168 643.119C360.168 643.119 358.295 649.615 352.869 653.151C352.869 653.151 362.375 660.373 378.618 663.521C394.86 666.669 429.184 668.551 446.483 653.547C463.782 638.542 464.489 613.805 464.489 613.805C464.489 613.805 470.107 566.045 444.61 551.3ZM355.73 593.51C354.086 593.456 352.791 592.09 352.825 590.447C352.858 588.803 354.207 587.492 355.852 587.504C357.496 587.517 358.825 588.849 358.833 590.493C358.804 592.18 357.418 593.528 355.73 593.51ZM421.595 621.52C421.631 621.329 421.661 621.169 421.686 621.045C422.091 619.018 419.336 617.764 412.281 614.551C411.272 614.092 410.176 613.593 408.988 613.045C399.493 608.67 379.577 614.733 379.577 614.733C379.577 614.733 370.756 629.36 379.518 639.623C383.713 639.248 386.742 639.133 386.742 639.133C394.267 638.353 399.468 639.061 403.601 639.623C407.187 640.111 409.97 640.49 412.769 639.692C418.47 638.067 420.959 624.89 421.595 621.52Z" fill="#016BFF"/>
<path d="M394.037 549.498L389.173 554.962C388.851 555.221 388.436 555.337 388.026 555.282C387.616 555.228 387.246 555.008 387.003 554.673L383.581 547.313L390.243 542.02L394.037 549.498Z" fill="#7A97FF"/>
<path d="M411.439 493.626C410.369 493.866 409.432 494.696 408.718 495.581C408.054 496.411 407.491 497.318 407.043 498.282C407.043 498.282 404.785 488.654 403.833 480.301C403.514 477.583 402.562 476.128 401.403 475.396C399.014 473.882 395.785 475.5 395.785 475.5L385.056 481.341C382.998 482.475 380.732 483.183 378.394 483.422C377.302 483.548 376.199 483.548 375.106 483.422C369.196 480.501 369.111 468.979 376.292 468.899C376.508 469.101 376.71 469.316 376.899 469.544C376.795 469.331 376.699 469.12 376.61 468.91C377.011 468.922 377.411 468.967 377.806 469.043C378.394 469.158 378.943 469.766 379.309 470.191C377.402 466.489 379.435 461.825 383.194 460.41C385.479 459.551 388.034 459.714 390.418 460.217C390.795 460.292 391.17 460.38 391.547 460.485C397.524 462.287 402.757 465.419 406.623 470.648C411.516 477.262 412.739 485.637 411.439 493.626V493.626Z" fill="#1F2E54"/>
<path d="M363.756 538.51C348.915 542.161 331.407 551.017 321.775 563.037C309.166 578.75 306.525 599.644 306.812 619.203C307.079 638.313 327.11 651.512 345.292 647.383" stroke="#1F2E54" stroke-width="3.5" stroke-linejoin="round"/>
<path d="M371.443 531.373H371.454" stroke="#1F2E54" stroke-width="3.5" stroke-linejoin="round"/>
<path d="M423.492 594.737C423.492 594.737 424.027 607.385 421.887 619.918C420.916 625.639 419.388 631.336 417.004 635.797C415.702 638.196 413.212 639.712 410.482 639.769C408.037 639.813 405.592 639.716 403.159 639.477C382.189 637.509 362.535 641.828 348.203 646.576C347.239 646.891 346.271 647.159 345.297 647.378C354.337 655.578 377.595 670.738 421.569 664.164C480.696 655.338 462.217 577.285 462.217 577.285C460.611 568.876 455.598 561.069 449.57 555.155C442.742 548.469 429.504 544.048 420.504 541.247" stroke="#1F2E54" stroke-width="3.5" stroke-linejoin="round"/>
<path d="M388.879 526.552C388.879 526.552 370.889 523.343 373.3 502.133C374.37 492.697 376.433 486.926 378.383 483.411" stroke="#1F2E54" stroke-width="3.5" stroke-linecap="round" stroke-linejoin="round"/>
<path d="M405.915 520.974C409.238 516.01 408.729 509.42 409.773 507.761C411.378 505.188 417.799 497.162 413.946 494.271C413.058 493.605 412.21 493.468 411.44 493.623C408.847 494.201 407.044 498.28 407.044 498.28C407.044 498.28 404.788 488.651 403.833 480.296C402.878 471.94 395.783 475.498 395.783 475.498L385.054 481.336C382.997 482.472 380.731 483.181 378.392 483.42C377.169 483.564 375.932 483.554 374.711 483.39C366.417 482.321 365.882 466.623 375.396 468.413C375.985 468.528 376.533 469.135 376.9 469.56C374.989 465.858 377.025 461.194 380.784 459.779C383.069 458.92 385.624 459.084 388.008 459.586C395.451 461.156 402.014 464.401 406.624 470.649C411.52 477.268 412.745 485.642 411.44 493.631" stroke="#1F2E54" stroke-width="3.5" stroke-linejoin="round"/>
<path d="M386.631 506.633H382.776L383.027 503.578L384.057 491.214" stroke="#1F2E54" stroke-width="3.5" stroke-linecap="round" stroke-linejoin="round"/>
<path d="M383.019 503.578H372.429C370.866 503.578 369.599 502.311 369.599 500.748V491.216H387.498V500.748C387.499 502.312 388.767 503.578 390.331 503.578H400.832C402.396 503.578 403.664 502.312 403.665 500.748V491.216H387.498" stroke="#1F2E54" stroke-width="3.5" stroke-linejoin="round"/>
<path d="M386.631 510.318C386.631 510.318 389.363 511.281 392.415 506.622" stroke="#1F2E54" stroke-width="3.5" stroke-linecap="round" stroke-linejoin="round"/>
<path d="M385.178 584.859L405.116 562.74L404.752 554.952L411.647 560.892L420.505 541.258L420.529 541.207C418.363 539.931 416.342 538.424 414.501 536.711C413.654 535.916 412.851 535.085 412.093 534.218C411.199 533.203 410.365 532.137 409.595 531.025L408.971 530.145" stroke="#1F2E54" stroke-width="3.5" stroke-linejoin="round"/>
<path d="M398.255 554.187L394.151 548.536L389.774 542.769L398.962 537.211L408.978 530.145L412.085 534.218L413.128 535.591L410.594 538.835L390.81 564.222V564.233L387.067 568.884" stroke="#1F2E54" stroke-width="3.5" stroke-linejoin="round"/>
<path d="M379.067 550.972L389.769 542.777L376.622 529.642L371.64 534.338L387.064 568.891L385.178 584.861L372.922 556.856L374.562 549.244L367.515 551.934L363.424 538.65C368.126 536.836 372.377 534.022 375.883 530.404L376.627 529.634" stroke="#1F2E54" stroke-width="3.5" stroke-linejoin="round"/>
<path d="M394.15 549.499L389.278 554.963C388.956 555.222 388.542 555.338 388.133 555.283C387.723 555.228 387.354 555.008 387.111 554.674L383.687 547.313" stroke="#1F2E54" stroke-width="3.5" stroke-linejoin="round"/>
<path d="M408.97 530.145L405.915 520.963C405.083 522.129 404.011 523.102 402.771 523.817" stroke="#1F2E54" stroke-width="3.5" stroke-linecap="round" stroke-linejoin="round"/>
<path d="M378.728 520.963L376.627 529.634" stroke="#1F2E54" stroke-width="3.5" stroke-linejoin="round"/>
<ellipse cx="393.249" cy="497.517" rx="1.40768" ry="1.40684" fill="#1F2E54"/>
<ellipse cx="380.977" cy="497.517" rx="1.40768" ry="1.40684" fill="#1F2E54"/>
</g>
<rect x="45.4222" y="350.883" width="95.2299" height="95.2299" rx="21.25" fill="#016BFF" stroke="#1F2E54" stroke-width="3.5"/>
<mask id="mask1_2619_29457" style="mask-type:alpha" maskUnits="userSpaceOnUse" x="48" y="353" width="90" height="91">
<rect x="48.2289" y="353.659" width="89.7378" height="89.7378" rx="19.4" fill="#016BFF"/>
</mask>
<g mask="url(#mask1_2619_29457)">
<path d="M203.312 529.97C204.24 526.896 204.429 523.647 203.866 520.486C203.564 518.667 202.707 513.71 200.059 514.478C199.29 514.693 198.835 515.348 198.547 516.09C198.886 514.453 196.514 513.419 195.355 513.27C192.419 512.855 190.273 514.918 188.874 517.437C185.81 522.968 177.663 525.639 171.987 525.65C164.005 525.65 159.236 519.464 157.866 511.458C154.222 490.286 153.25 439.285 115.064 425.303C112.967 424.528 110.823 423.884 108.645 423.375V423.436C108.619 423.436 108.594 423.436 108.568 423.349C108.552 423.301 108.54 423.251 108.532 423.2C109.739 423.021 110.935 422.772 112.113 422.454C113.64 422.065 115.214 421.61 116.325 420.634C117.662 419.477 118.114 417.778 118.227 416.151C118.227 415.9 118.252 415.634 118.252 415.383C118.265 415.178 118.265 414.973 118.252 414.768C118.252 414.477 118.252 414.186 118.252 413.884C118.252 413.658 118.252 413.418 118.252 413.193L120.11 407.268C120.792 405.944 121.469 404.615 121.768 403.203C121.893 402.635 121.948 402.053 121.932 401.471C121.932 401.347 121.932 401.22 121.932 401.082C121.794 398.625 120.595 396.195 118.919 394.168C118.613 391.48 118.085 388.821 117.342 386.22C114.995 377.705 110.306 368.447 101.151 365.878C94.3888 363.989 86.5084 364.102 79.863 366.635C79.8514 366.639 79.8382 366.639 79.8266 366.635L79.1999 366.893L79.8266 366.635C79.3943 366.763 78.9767 366.936 78.5806 367.151C76.4128 368.323 75.666 371.005 75.7825 373.953C75.782 374.117 75.7942 374.281 75.819 374.444C75.819 374.659 75.8445 374.884 75.8809 375.099C76.2088 377.985 77.2945 380.954 78.6571 382.872C78.5952 383.021 78.5296 383.16 78.4786 383.312C77.9028 384.634 77.157 385.874 76.2598 387.002C74.256 389.55 71.5454 391.409 69.589 393.957C67.6325 396.504 66.4885 399.823 67.0059 403.011C67.5086 406.096 69.4505 408.793 69.8913 411.864C70.3067 414.674 69.527 417.887 71.243 420.143C72.2996 421.515 74.052 422.145 75.7315 422.621C76.4602 422.825 77.1889 422.985 77.9175 423.153C77.8264 423.415 77.8009 423.429 77.7499 423.44C75.6591 423.931 73.6004 424.55 71.5855 425.292L71.2831 425.405C33.4111 439.557 32.4165 490.333 28.7951 511.439C27.4361 519.445 22.6561 525.632 14.6737 525.632C8.99747 525.632 0.851083 522.95 -2.21292 517.418C-3.62651 514.9 -5.75419 512.837 -8.69433 513.252C-9.84196 513.415 -12.0862 514.373 -11.8713 515.934C-11.8764 515.992 -11.8764 516.05 -11.8713 516.108V516.17C-11.8713 516.17 -11.8713 516.21 -11.8713 516.221V516.261C-12.1482 515.453 -12.5999 514.736 -13.4233 514.496C-16.072 513.728 -16.9282 518.678 -17.2305 520.504C-17.794 523.665 -17.6043 526.914 -16.6768 529.988C-15.4526 534.056 -12.895 537.863 -9.09873 539.511C-5.96452 540.796 -2.68971 541.707 0.657988 542.226C-4.38432 547.128 -7.65235 553.489 -7.49933 561.626C-7.38639 566.72 -4.30781 570.279 0.494041 572.659C6.64755 575.73 15.6283 576.877 24.7583 576.964H24.8093C23.7698 577.161 22.7546 577.469 21.7818 577.885C20.6609 578.352 19.6063 578.963 18.6449 579.704C18.3024 579.971 17.9745 580.248 17.6612 580.534C17.4965 580.677 17.3396 580.829 17.1912 580.989C16.8925 581.291 16.601 581.608 16.3241 581.935C15.7872 582.582 15.3001 583.268 14.8668 583.987C14.6518 584.351 14.4515 584.715 14.2766 585.079C14.1017 585.443 13.9341 585.851 13.7811 586.225C13.5453 586.801 13.3565 587.395 13.2164 588.001C13.1144 588.394 13.0269 588.784 12.9504 589.188C12.2946 593.067 13.1909 597.073 15.9379 599.956C16.4387 600.476 16.9836 600.952 17.5665 601.378C17.8689 601.593 18.1858 601.797 18.5101 601.997C19.1968 602.401 19.9187 602.742 20.6669 603.016C21.4888 603.322 22.3328 603.566 23.1917 603.744C29.2323 604.963 34.0341 601.047 39.4845 599.377C42.5922 598.459 45.8274 598.046 49.0663 598.154C51.1778 598.218 53.2825 598.426 55.3656 598.777C78.2371 602.514 101.446 603.773 124.588 602.532C140.225 601.673 156.175 599.712 171.018 594.482C182.188 590.545 194.481 583.627 199.982 572.939C201.934 569.177 202.943 564.997 202.922 560.759C202.922 551.855 199.279 545.217 193.603 540.319C194.331 540.053 195.038 539.788 195.734 539.486C199.53 537.844 202.088 534.038 203.312 529.97V529.97Z" fill="white"/>
<path d="M89.9983 405.21C89.9983 405.21 91.4022 407.484 96.2949 405.906" stroke="#1F2E54" stroke-width="3.5" stroke-linecap="round" stroke-linejoin="round"/>
<path d="M114.783 425.229C114.783 425.229 114.783 425.258 114.783 425.268C116.713 431.067 119.073 436.723 121.844 442.19L121.878 442.252" stroke="#1F2E54" stroke-width="3.5"/>
<path d="M133.94 526.201C116.392 528.986 99.3718 533.253 81.4706 530.983C71.7751 529.74 62.2691 527.267 52.6975 525.335C58.6597 515.786 60.9689 503.488 60.0365 492.786C59.4319 485.757 56.1903 478.955 56.3542 471.955C56.4671 467.213 57.3485 462.493 58.5723 457.925C60.0127 452.544 61.969 447.314 64.4143 442.307C64.4143 442.285 64.4398 442.27 64.4508 442.245C67.1511 436.795 69.4516 431.157 71.3344 425.376C73.4256 424.601 75.5642 423.959 77.7374 423.455L78.1016 426.076C78.9975 432.239 81.1027 441.136 87.5712 444.047C88.9113 444.631 90.3584 444.934 91.8216 444.935C94.7062 445.225 98.5669 444.047 98.5669 444.047C105.032 441.146 107.126 432.25 108.036 426.076L108.401 423.455C110.573 423.955 112.712 424.592 114.804 425.362C116.686 431.145 118.987 436.785 121.687 442.238C121.701 442.255 121.71 442.277 121.713 442.299C124.153 447.305 126.104 452.533 127.54 457.91C128.841 462.482 129.587 467.192 129.762 471.94C129.926 478.941 126.699 485.742 126.08 492.772C125.089 503.815 127.573 516.54 133.94 526.201V526.201Z" fill="#016BFF"/>
<path d="M87.0292 417.72C86.8792 418.853 86.4753 419.938 85.8476 420.893C84.8405 422.279 83.1899 423.058 81.5066 423.298C80.4637 423.153 79.4322 422.934 78.42 422.643C76.7367 422.163 74.9988 421.533 73.9409 420.161C72.2176 417.894 73.0101 414.681 72.5957 411.876C72.1412 408.812 70.2034 406.104 69.7126 403.033C69.1854 399.845 70.3307 396.534 72.2794 393.976C73.9663 391.792 76.195 390.097 78.0455 388.07C78.0455 388.332 78.0201 388.612 78.0055 388.889C76.653 390.454 76.0036 392.507 76.2099 394.566C76.4162 396.625 77.4601 398.508 79.0962 399.773C79.8015 402.782 81.6012 409.317 86.0948 413.197C86.4797 413.728 86.7722 414.321 86.9601 414.951C87.179 415.858 87.2025 416.802 87.0292 417.72V417.72Z" fill="#FFC452"/>
<path d="M121.547 403.215C120.958 406.02 118.842 408.477 118.249 411.286C117.922 412.887 118.075 414.536 117.973 416.162C117.921 417.215 117.661 418.246 117.206 419.197C116.915 419.743 116.532 420.236 116.075 420.653C114.966 421.624 113.392 422.09 111.872 422.472C109.542 423.065 107.113 423.564 104.699 423.342C101.943 423.076 99.1621 421.326 98.1551 418.669C97.3625 416.592 97.9914 414.965 99.0494 413.466V413.44C100.205 412.57 101.264 411.578 102.209 410.482C106.572 399.59 108.564 402.647 109.091 399.106C111.091 397.746 109.582 395.278 109.582 392.684C109.582 390.832 109.473 389.853 108.378 388.543L110.651 388.011C109.72 386.902 110.338 387.284 108.902 386.858L108.378 386.916C107.597 387.04 109.127 386.578 108.189 386.734C89.9385 389.765 86.4446 369.002 85.8266 365.767C85.274 366.356 83.2271 366.003 82.7872 366.658C82.5981 366.938 84.605 370.341 84.4378 370.628C84.3905 370.414 84.3505 370.228 84.3251 370.075C83.7819 370.656 83.2858 371.279 82.8417 371.938C81.3704 374.042 80.2642 376.38 79.5696 378.852C79.5442 378.925 79.5296 379.012 79.5042 379.089C79.2445 380.37 78.9131 381.636 78.5117 382.881C76.8756 380.577 75.6031 376.723 75.6031 373.332C75.6031 370.65 76.3957 368.237 78.4062 367.146C78.4638 367.113 78.5232 367.084 78.5844 367.058C78.9285 366.887 79.286 366.743 79.6533 366.629C79.6533 366.629 79.6787 366.629 79.6932 366.629C86.3247 364.082 94.1995 363.973 100.933 365.861C110.08 368.43 114.748 377.702 117.104 386.214C117.841 388.816 118.367 391.474 118.678 394.161C120.856 396.788 122.201 400.053 121.547 403.215Z" fill="#FFC452"/>
<path d="M115.749 426.043C118.211 431.082 126.388 452.345 127.827 457.764C129.058 462.346 129.936 467.073 130.049 471.829C130.212 478.853 126.979 485.675 126.363 492.728C124.812 510.607 132.248 532.903 150.572 539.586C157.793 542.222 165.575 543.2 173.24 543.018C180.523 542.847 188.979 542.113 195.719 539.208C199.513 537.564 202.07 533.754 203.301 529.696C204.221 526.622 204.412 523.377 203.858 520.217C203.544 518.399 202.696 513.45 200.041 514.217C199.16 514.465 198.698 515.286 198.425 516.163C197.878 517.981 198.162 519.893 198.1 521.762C198.031 524.38 197.649 529.492 195.246 531.241" stroke="#1F2E54" stroke-width="3.5"/>
<path d="M78.0596 423.19L78.4237 425.819C79.3268 432 81.4243 440.919 87.8916 443.839C89.2275 444.43 90.6725 444.736 92.1339 444.737C95.0252 445.028 98.8779 443.839 98.8779 443.839C105.341 440.93 107.439 432.011 108.346 425.819L108.71 423.19" stroke="#1F2E54" stroke-width="3.5"/>
<path d="M71.654 425.073C71.654 425.073 71.654 425.102 71.654 425.113C69.7764 430.915 67.4786 436.573 64.7789 442.043L64.7498 442.104" stroke="#1F2E54" stroke-width="3.5"/>
<path d="M-11.6889 516.163L-11.7472 515.974C-11.7595 515.949 -11.7669 515.921 -11.769 515.894C-11.769 515.894 -11.769 515.875 -11.769 515.865C-12.1586 514.207 -9.78805 513.167 -8.60821 513.007C-5.69503 512.589 -3.53564 514.654 -2.13367 517.174C0.925171 522.697 9.07115 525.365 14.7446 525.373C22.7267 525.373 27.5079 519.192 28.8698 511.192C32.4895 490.034 33.48 439.079 71.6462 425.106C73.7428 424.338 75.8843 423.698 78.0589 423.19L78.6379 423.059" stroke="#1F2E54" stroke-width="3.5"/>
<path d="M108.114 423.085C108.303 423.114 108.478 423.165 108.674 423.205C110.848 423.71 112.988 424.348 115.083 425.114C153.25 439.087 154.24 490.042 157.86 511.2C159.222 519.199 164.003 525.38 171.989 525.38C177.659 525.38 185.805 522.704 188.863 517.181C190.265 514.661 192.406 512.596 195.338 513.014C196.576 513.185 199.18 514.345 198.419 516.17" stroke="#1F2E54" stroke-width="3.5"/>
<path d="M64.7715 442.039C62.3091 447.077 60.3455 452.344 58.9087 457.764C57.6743 462.346 56.8003 467.073 56.6874 471.828C56.5236 478.853 59.7572 485.674 60.369 492.728C61.9239 510.607 54.4844 532.903 36.1605 539.586C28.9394 542.222 21.1576 543.2 13.4959 543.018C6.21297 542.847 -2.24254 542.113 -8.98291 539.208C-12.781 537.564 -15.3336 533.754 -16.5681 529.696C-17.48 526.62 -17.6633 523.375 -17.1034 520.217C-16.7902 518.399 -15.9418 513.45 -13.2871 514.217C-12.4095 514.464 -11.9434 515.286 -11.6703 516.162C-11.1277 517.98 -11.4081 519.893 -11.3499 521.762C-11.277 524.38 -10.8947 529.492 -8.49131 531.241" stroke="#1F2E54" stroke-width="3.5"/>
<path d="M84.6658 369.788C84.0815 370.413 83.5458 371.081 83.0636 371.788C81.5321 373.955 80.3978 376.377 79.7134 378.94C79.4535 380.22 79.1191 381.484 78.712 382.725C78.6538 382.874 78.5919 383.016 78.5336 383.165C77.9608 384.487 77.2177 385.729 76.3232 386.859C74.3204 389.379 71.6111 391.255 69.6484 393.804C67.6856 396.353 66.5459 399.665 67.0666 402.854C67.5691 405.93 69.51 408.628 69.9579 411.693C70.3694 414.5 69.5938 417.707 71.3089 419.965C72.3613 421.343 74.1092 421.972 75.7916 422.441C77.5832 422.943 79.433 423.332 81.2756 423.168C83.1182 423.005 84.9754 422.201 86.0642 420.699C86.6989 419.751 87.104 418.668 87.2476 417.536C87.4184 416.621 87.3936 415.681 87.1748 414.776C86.8107 413.467 85.8566 412.409 84.9899 411.34C82.3203 407.891 80.4139 403.915 79.3966 399.676" stroke="#1F2E54" stroke-width="3.5"/>
<path d="M108.763 390.015C108.763 389.084 108.723 388.164 108.643 387.237" stroke="#1F2E54" stroke-width="3.5"/>
<path d="M78.9112 382.273C78.5061 384.402 78.2722 386.56 78.2118 388.727" stroke="#1F2E54" stroke-width="3.5"/>
<path d="M111.488 386.757C111.099 386.826 109.027 387.168 108.644 387.229C88.0662 390.502 87.1595 375.711 84.6651 369.798C84.6651 369.798 83.2923 364.526 78.6348 367.024C73.9774 369.522 75.8491 379.023 78.9116 383.023" stroke="#1F2E54" stroke-width="3.5" stroke-linecap="round"/>
<path d="M80.9947 375.424V375.413" stroke="#1F2E54" stroke-width="3.5"/>
<path d="M85.0039 411.332C85.0549 411.394 85.0949 411.452 85.1532 411.521C85.2037 411.597 85.261 411.667 85.3244 411.732C85.4255 411.873 85.5362 412.007 85.6557 412.132C85.6665 412.151 85.68 412.168 85.6958 412.183C87.491 414.22 90.0261 415.457 92.7384 415.619C96.0157 415.877 98.0804 414.579 99.2931 413.281" stroke="#1F2E54" stroke-width="3.5"/>
<ellipse cx="102.981" cy="394.844" rx="7.54878" ry="7.53747" stroke="#1F2E54" stroke-width="3.5"/>
<ellipse cx="83.9145" cy="393.654" rx="7.54878" ry="7.53747" stroke="#1F2E54" stroke-width="3.5"/>
<path d="M82.2751 391.811C82.2751 391.811 85.3522 390.662 87.7374 391.848" stroke="#1F2E54" stroke-width="3.5" stroke-linecap="round"/>
<path d="M99.2518 392.855C99.2518 392.855 102.329 391.705 104.714 392.891" stroke="#1F2E54" stroke-width="3.5" stroke-linecap="round"/>
<path d="M78.6337 367.024C85.527 363.981 94.0043 363.719 101.211 365.734C110.369 368.279 115.048 377.554 117.397 386.063C118.139 388.662 118.666 391.318 118.974 394.004C121.159 396.618 122.495 399.887 121.832 403.043C121.243 405.85 119.134 408.308 118.533 411.115C118.202 412.711 118.362 414.362 118.253 415.98C118.144 417.598 117.681 419.296 116.352 420.452C115.241 421.434 113.672 421.907 112.139 422.27C109.808 422.87 107.376 423.361 104.965 423.139C102.194 422.881 99.4156 421.132 98.4105 418.474C97.0814 414.969 99.8016 412.74 101.772 410.275C103.019 408.725 104.124 407.066 105.074 405.319C105.763 404.028 106.361 402.692 106.866 401.319" stroke="#1F2E54" stroke-width="3.5"/>
</g>
<rect x="333.422" y="717.883" width="107.466" height="107.466" rx="21.25" fill="#016BFF" stroke="#1F2E54" stroke-width="3.5"/>
<mask id="mask2_2619_29457" style="mask-type:alpha" maskUnits="userSpaceOnUse" x="336" y="721" width="102" height="102">
<rect x="336.458" y="721.031" width="101.532" height="101.532" rx="19.4" fill="#016BFF"/>
</mask>
<g mask="url(#mask2_2619_29457)">
<path d="M356.713 811.581L349.932 812.379L381.644 844.69L409.767 835.116L411.163 782.063C412.094 776.411 413.995 764.91 414.155 764.112C414.314 763.314 414.487 756.467 414.554 753.142L406.775 739.779L397.999 732.799L387.03 732.4L378.653 734.394L373.467 738.184L368.481 743.17L365.09 751.547L362.697 764.71V775.082L363.893 784.655L360.503 793.232L359.904 801.21L360.503 809.786V811.182L356.713 811.581Z" fill="white"/>
<ellipse rx="6.6004" ry="6.75971" transform="matrix(0.707835 -0.706378 0.706601 0.707612 383.41 766.828)" fill="#DCE0EB"/>
<ellipse rx="6.60353" ry="6.76283" transform="matrix(0.707835 -0.706378 0.706601 0.707612 364.418 764.52)" fill="#DCE0EB"/>
<path d="M374.56 796.594C374.56 796.594 373.481 803.53 372.364 809.81C369.171 809.848 365.979 809.875 362.822 809.902C361.225 800.39 362.959 792.941 365.018 787.975C367.613 794.242 371.534 796.148 374.56 796.594Z" fill="#1F2E54"/>
<path d="M450.927 843.788C450.927 843.788 462.863 850.974 448.133 866.91C437.75 878.15 445.413 868.14 446.082 872.23C446.449 873.069 446.697 873.956 446.816 874.864L448.133 875.75L447.231 875.664C448.868 878.978 454.508 891.882 447.508 900.25C439.411 909.924 429.277 922.52 401.928 933.178C401.928 933.178 388.343 929.189 384.642 938.472C384.642 938.472 389.035 937.69 390.809 938.983C382.645 938.182 355.636 938.804 355.636 938.804C355.636 938.804 338.878 941.284 334.732 956.385C330.585 971.485 336.135 974.665 344.397 984.35C345.96 986.167 348.695 987.679 352.256 988.87L331.433 988.843L333.196 985.78C335.15 981.01 330.409 980.095 330.409 980.095C325.583 979.681 326.83 976.853 326.83 976.853C321.702 944.621 322.757 896.324 324.254 884.072C325.751 871.82 323.558 875.383 323.558 875.383C319.693 879.567 297.194 884.072 297.194 884.072C307.824 877.641 302.361 869.106 304.205 849.251C305.768 845.38 306.366 847.379 305.768 846.977C305.76 846.973 305.777 843.784 305.768 843.788L319.925 826.446L330.692 818.672L343.852 813.489L362.795 809.901C362.381 811.179 370.137 810.109 368.777 810.3L370.372 810.101C370.56 810.112 371.766 812.603 371.768 810.101C371.768 812.603 371.764 810.794 371.768 810.898C372.033 816.501 368.446 823.629 373.163 826.446C379.415 837.427 390.51 831.429 396.891 829.037C400.68 825.848 404.069 815.483 402.873 810.498C429.392 817.875 439.561 827.044 450.927 843.788Z" fill="#016BFF"/>
<path d="M425.727 818.931C419.375 815.511 412.604 812.934 405.585 811.263L403.286 810.867C403.286 810.867 401.574 806.975 401.565 806.962C400.762 804.923 399.431 802.215 399.018 800.066C398.516 797.528 398.394 794.929 398.656 792.355C399.106 788.532 400.887 780.446 404.105 777.898C406.788 775.787 407.894 776.23 409.416 772.929C410.509 770.574 410.953 766.617 408.828 764.88C406.473 762.975 405.467 763.943 402.649 764.237C391.939 765.299 385.819 757.594 381.882 748.689C381.257 747.243 380.607 745.716 379.586 744.486C378.414 743.068 376.793 742.749 375.465 741.603C374.899 741.109 374.512 740.304 374.784 739.604C374.944 739.27 375.177 738.975 375.465 738.742C377.974 736.431 380.988 734.736 384.266 733.792C389.451 732.293 394.931 732.122 400.199 733.295C405.698 735.116 410.64 738.564 413.968 743.833C418.557 751.113 419.663 758.665 417.092 766.192C414.458 773.9 411.518 782.954 416.467 790.372C423.056 800.226 427.027 807.156 425.727 818.931Z" fill="#1F2E54"/>
<path d="M372.243 810.41C369.119 810.444 365.995 810.469 362.905 810.494C339.361 810.616 313.944 824.851 304.971 848.372" stroke="#1F2E54" stroke-width="3.5"/>
<path d="M402.917 810.639C403.813 810.835 404.701 811.042 405.588 811.263C409.047 812.099 412.452 813.142 415.785 814.387C419.205 815.659 422.529 817.176 425.73 818.928C425.737 818.921 425.747 818.921 425.755 818.928C430.791 821.655 435.445 825.035 439.598 828.978C443.07 832.36 446.072 836.194 448.524 840.375C448.545 840.391 448.561 840.412 448.571 840.437C450.559 843.775 452.286 847.261 453.735 850.866C458.059 861.513 460.511 873.771 460.886 885.971C461.227 897.492 459.708 908.964 456.116 918.952C455.518 920.63 454.853 922.265 454.122 923.855C454.075 923.977 454.013 924.086 453.966 924.208" stroke="#1F2E54" stroke-width="3.5"/>
<path d="M378.755 795.525C377.34 795.913 375.861 796.008 374.409 795.806C371.435 795.394 367.598 793.62 365.071 787.842C364.546 786.661 364.119 785.439 363.796 784.188C362.509 779.406 361.946 772.753 362.699 763.478C362.846 761.694 363.065 759.883 363.368 758.074C363.869 754.929 364.678 751.84 365.783 748.851C365.783 748.851 365.783 748.827 365.808 748.814C368.563 741.531 373.409 735.384 381.557 733.02C387.667 731.258 394.164 731.351 400.221 733.289C405.72 735.109 410.662 738.557 413.989 743.826C418.579 751.106 419.685 758.658 417.114 766.185C414.48 773.893 411.54 782.948 416.489 790.365C423.068 800.235 427.039 807.165 425.764 818.94" stroke="#1F2E54" stroke-width="3.5" stroke-linecap="round"/>
<path d="M360.602 810.101C358.209 798.629 361.243 788.632 363.78 784.188" stroke="#1F2E54" stroke-width="3.5"/>
<path d="M363.367 758.062C363.367 758.062 368.606 752.587 374.677 761.235" stroke="#1F2E54" stroke-width="3.5"/>
<path fill-rule="evenodd" clip-rule="evenodd" d="M376.707 785.63C378.923 787.064 381.922 786.174 383.553 783.966C385.324 781.57 386.033 778.372 386.418 775.471C386.443 775.261 386.471 775.055 386.489 774.846C383.787 779.09 378.541 780.109 373.924 780.552C374.099 781.94 374.615 783.263 375.427 784.403C375.774 784.888 376.208 785.304 376.707 785.63V785.63Z" stroke="#1F2E54" stroke-width="3.5" stroke-linecap="round" stroke-linejoin="round"/>
<path d="M400.767 804.738L400.755 804.726" stroke="#1F2E54" stroke-width="3.5"/>
<path d="M380.155 756.378C380.155 756.378 381.936 753.495 388.022 755.619C394.108 757.743 394.18 761.213 394.18 761.213" stroke="#1F2E54" stroke-width="3.5"/>
<path d="M366.323 763.547C366.323 763.547 369.135 762.125 371.338 763.547" stroke="#1F2E54" stroke-width="3.5" stroke-linecap="round"/>
<path d="M381.475 764.855C381.475 764.855 384.287 763.433 386.474 764.855" stroke="#1F2E54" stroke-width="3.5" stroke-linecap="round"/>
<path d="M374.379 795.806C374.379 795.806 373.323 802.215 372.23 808.018C372.07 808.842 371.917 809.654 371.78 810.457C371.064 814.364 370.492 817.837 370.467 818.889C370.286 827.634 378.556 832.678 386.545 832.594C397.754 832.472 404.309 822.047 403.253 811.606C402.562 809.701 401.856 807.796 401.166 805.891C400.279 803.448 399.126 801.072 398.626 798.498C398.185 795.963 398.136 793.374 398.482 790.824C398.932 787.014 399.673 781.333 402.89 778.784C405.574 776.673 408.377 775.286 409.907 771.985C411.001 769.63 410.951 766.597 408.826 764.861C406.471 762.956 402.744 763.187 399.926 763.465C381.749 765.323 378.725 746.931 373.807 744.348C369.777 742.221 366.753 746.993 365.806 748.764L365.769 748.839C365.767 748.857 365.759 748.873 365.747 748.886C365.575 749.198 365.491 749.407 365.491 749.407" stroke="#1F2E54" stroke-width="3.5"/>
<path d="M373.914 765.664C373.914 765.664 372.014 771.879 372.161 772.81C372.308 773.741 374.523 773.091 374.523 773.091" stroke="#1F2E54" stroke-width="3.5"/>
<ellipse rx="7.44381" ry="7.62498" transform="matrix(0.707835 -0.706378 0.706601 0.707612 383.411 766.828)" stroke="#1F2E54" stroke-width="3.5"/>
<ellipse rx="7.44381" ry="7.62498" transform="matrix(0.707835 -0.706378 0.706601 0.707612 364.42 764.519)" stroke="#1F2E54" stroke-width="3.5"/>
<path fill-rule="evenodd" clip-rule="evenodd" d="M357.821 763.709C358.134 760.394 360.923 757.863 364.254 757.872H364.263C364.535 757.873 364.806 757.889 365.076 757.922C368.735 758.373 371.374 761.647 371.04 765.317C370.726 768.636 367.932 771.168 364.598 771.155C364.326 771.153 364.055 771.137 363.785 771.105C360.126 770.653 357.486 767.379 357.821 763.709ZM368.664 760.666C367.533 759.428 365.931 758.726 364.253 758.733C361.363 758.722 358.94 760.916 358.667 763.793C358.507 765.462 359.062 767.121 360.193 768.36C361.324 769.598 362.926 770.3 364.603 770.292C367.494 770.304 369.916 768.11 370.189 765.233C370.349 763.564 369.795 761.905 368.664 760.666Z" fill="white"/>
<path d="M375.906 765.911L371.919 765.427" stroke="#1F2E54" stroke-width="3.5"/>
</g>
<rect x="284.672" y="23.1328" width="105.852" height="105.852" rx="21" fill="#016BFF" stroke="#1F2E54" stroke-width="4"/>
<mask id="mask3_2619_29457" style="mask-type:alpha" maskUnits="userSpaceOnUse" x="287" y="25" width="101" height="102">
<rect x="287.254" y="25.8091" width="100.499" height="100.499" rx="19.4" fill="#016BFF"/>
</mask>
<g mask="url(#mask3_2619_29457)">
<path d="M294.75 122.348L277.538 129.369L310.378 142.505H333.705L354.768 129.369L355.674 113.062L357.939 93.5847L361.336 90.6404L366.319 85.2049V81.5811L363.148 79.7693L361.336 78.6368L363.828 71.1629L361.336 61.4241L356.58 53.9502L348.653 48.9675L337.782 46.9292L327.364 51.0059L322.155 58.4798L318.078 76.372L317.172 88.1491L320.343 98.7938L323.967 103.776L319.21 118.271L294.75 122.348Z" fill="white"/>
<path d="M395.451 201.323L389.228 218.269C389.228 218.269 373.862 183.116 339.468 197.045C339.468 197.045 334.054 217.851 305.532 212.233C276.127 206.45 259.235 199.2 259.952 195.247C260.728 190.996 264.649 183.017 265.558 183.62C267.289 178.803 269.494 174.168 272.139 169.785C273.301 167.868 251.134 174.756 251.194 173.43C237.156 166.64 240.779 165.734 240.779 165.734C254.137 136.988 280.515 123.638 299.65 120.428C319.146 113.811 301.798 132.06 312.327 135.177C322.29 138.799 338.139 141.289 357.448 121.254C357.461 121.294 415.873 133.127 395.451 201.323Z" fill="#21B577"/>
<ellipse cx="321.176" cy="72.6111" rx="8.9369" ry="8.93408" fill="#DCE0EB"/>
<ellipse cx="345.863" cy="75.8216" rx="7.27823" ry="7.27594" fill="#DCE0EB"/>
<path d="M309.724 119.703C309.724 119.703 301.292 135.356 321.441 136.656C341.591 137.955 354.734 121.931 354.734 121.931" stroke="#1F2E54" stroke-width="3.2" stroke-linecap="round" stroke-linejoin="round"/>
<path d="M317.813 117.685C315.026 117.937 312.251 118.293 309.486 118.753C290.352 121.969 271.609 130.532 256.668 144.62C252.99 148.079 249.597 151.83 246.523 155.835C242.954 160.438 239.637 168.61 233.221 169.678C226.082 170.852 220.29 163.794 216.316 158.92C209.953 151.12 203.537 143.379 197.513 135.308C194.78 131.64 192.205 127.063 187.369 125.949C183.468 125.054 179.062 127.859 176.023 130.002" stroke="#1F2E54" stroke-width="3.2" stroke-linecap="round" stroke-linejoin="round"/>
<path d="M354.669 121.292C356.852 121.876 359.035 122.539 361.217 123.282L361.961 123.521C372.821 127.182 384.054 132.88 390.788 142.53C397.609 152.353 399.971 164.504 399.413 176.316C398.126 204.12 386.423 232.952 364.422 250.714C351.571 261.081 335.448 265.239 319.114 264.337C311.039 263.812 303.044 262.415 295.269 260.172C286.929 257.851 278.536 255.078 270.774 251.218C268.306 249.991 265.884 248.658 263.535 247.239C255.633 242.403 248.508 236.441 241.641 230.233C238.416 227.301 235.112 224.396 231.987 221.371C229.333 218.818 226.573 216.112 223.011 214.931C221.618 214.475 220.155 214.273 218.691 214.334C214.147 214.547 209.834 216.384 205.236 215.78C192.146 214.082 187.548 201.759 185.75 190.258C185.266 187.121 185.087 182.81 188.364 181.052C188.947 180.73 189.558 180.462 190.189 180.249C192.377 179.584 194.735 180.516 195.875 182.498C197.609 185.795 201.4 187.449 204.997 186.477L207.499 185.814L207.923 185.695" stroke="#1F2E54" stroke-width="3.2" stroke-linecap="round" stroke-linejoin="round"/>
<path d="M360.846 63.2786V63.2189C360.171 59.2054 358.216 55.5177 355.273 52.7062C350.721 48.5277 344.239 47.2476 338.414 47.1216C333.734 47.0361 329.225 48.8809 325.947 52.2221C323.406 49.1578 325.025 45.1451 325.025 45.1451C327.016 40.6084 330.333 38.8972 334.314 38.9105C344.451 38.9436 358.53 50.3583 363.367 54.6032C364.077 55.22 364.581 55.6909 364.853 55.9297C367.746 58.6822 363.765 73.9769 360.846 63.2786V63.2786Z" fill="#016BFF"/>
<path d="M334.294 38.9107C337.97 35.926 344.585 32.6628 353.316 37.0138C363.149 41.9219 363.799 50.2325 363.348 54.6034L334.294 38.9107Z" fill="#016BFF"/>
<path d="M340.611 106.205C340.611 106.205 315.4 113.593 317.715 82.2612C318.283 75.5586 319.35 68.9076 320.906 62.3635C321.072 61.7002 321.225 61.0369 321.391 60.3273C322.123 57.2767 323.674 54.4837 325.876 52.2488" stroke="#1F2E54" stroke-width="3.2" stroke-linecap="round" stroke-linejoin="round"/>
<path d="M360.775 63.2183V63.278C362.454 71.7743 359.84 80.6288 359.66 81.1859" stroke="#1F2E54" stroke-width="3.2" stroke-linecap="round" stroke-linejoin="round"/>
<path d="M359.66 81.2733C362.314 77.7779 367.933 81.0146 366.062 84.9875C364.112 89.1329 358.101 93.0992 358.101 93.0992L354.352 122.667" stroke="#1F2E54" stroke-width="3.2" stroke-linecap="round" stroke-linejoin="round"/>
<path d="M323.414 105.203L316.872 124.603" stroke="#1F2E54" stroke-width="3.2" stroke-linecap="round" stroke-linejoin="round"/>
<path fill-rule="evenodd" clip-rule="evenodd" d="M346.455 89.6965C347.663 88.4297 349.043 94.2663 349.109 94.8765C349.195 96.674 348.087 97.2842 346.455 97.6688C341.949 98.6644 337.232 97.8979 333.272 95.5265C332.609 95.1286 331.282 94.4122 331.249 93.5367C335.933 93.8219 342.362 93.3709 346.031 90.1409C346.163 89.9817 346.316 89.8424 346.455 89.6965Z" stroke="#1F2E54" stroke-width="3.2"/>
<path d="M341.925 75.3635C343.618 75.1334 345.33 75.6138 346.656 76.6908" stroke="#1F2E54" stroke-width="3.2" stroke-linecap="round" stroke-linejoin="round"/>
<path d="M323.162 72.6508C324.855 72.4208 326.567 72.9012 327.893 73.9782" stroke="#1F2E54" stroke-width="3.2" stroke-linecap="round" stroke-linejoin="round"/>
<path d="M361.264 64.5864C358.312 53.9743 344.392 58.4049 333.187 56.7733C329.624 56.2559 327.54 55.0289 326.366 53.5896C329.643 50.2484 334.152 48.4037 338.833 48.4892C344.658 48.6152 351.14 49.8953 355.691 54.0738C358.635 56.8852 360.59 60.573 361.264 64.5864V64.5864Z" fill="#FFC452"/>
<path fill-rule="evenodd" clip-rule="evenodd" d="M360.785 63.2795V63.2199C360.111 59.2064 358.156 55.5187 355.212 52.7072C350.661 48.5287 344.179 47.2486 338.353 47.1226C333.673 47.0371 329.164 48.8819 325.887 52.223C323.346 49.1588 324.965 45.1461 324.965 45.1461C326.955 40.6094 330.272 38.8982 334.253 38.9115C344.391 38.9446 358.47 50.3593 363.306 54.6041C364.016 55.221 364.521 55.6919 364.793 55.9306C367.685 58.6832 363.704 73.9779 360.785 63.2795Z" stroke="#1F2E54" stroke-width="3.2"/>
<path d="M334.233 38.9116C337.909 35.927 344.523 32.6638 353.255 37.0147C363.087 41.9228 363.737 50.2335 363.286 54.6043" stroke="#1F2E54" stroke-width="3.2"/>
<ellipse cx="345.865" cy="75.8221" rx="10.2638" ry="10.2606" stroke="#1F2E54" stroke-width="3.2"/>
<ellipse cx="321.178" cy="72.6116" rx="8.9369" ry="8.93408" stroke="white" stroke-width="0.383764"/>
<ellipse cx="321.176" cy="72.6122" rx="10.2638" ry="10.2606" stroke="#1F2E54" stroke-width="3.2"/>
<path d="M335.759 74.0511L331.4 73.4807L328.766 85.5785L333.304 85.625" stroke="#1F2E54" stroke-width="3.2" stroke-linecap="round"/>
<path d="M363.853 66.6809C364.919 71.0246 364.726 75.5822 363.295 79.82C363.295 79.82 359.454 82.0486 360.602 77.7706C361.75 73.4926 361.265 66.8268 361.265 66.8268L363.853 66.6809Z" fill="#1F2E54"/>
</g>
<rect x="531.422" y="273.883" width="101.655" height="101.655" rx="21.25" fill="#016BFF" stroke="#1F2E54" stroke-width="3.5"/>
<mask id="mask4_2619_29457" style="mask-type:alpha" maskUnits="userSpaceOnUse" x="534" y="276" width="97" height="97">
<rect x="534.305" y="276.701" width="96.0199" height="96.0199" rx="19.4" fill="#016BFF"/>
</mask>
<g mask="url(#mask4_2619_29457)">
<path d="M546.881 366.529L529.776 376.421L565.841 390.229L603.966 372.918L600.875 344.272L611.798 337.677L617.774 327.579L619.217 314.596L615.507 302.23L613.034 297.697L611.798 294.193H608.912H603.966L598.196 291.102L588.51 288.011H579.855L571.199 290.278L566.459 289.453L563.78 287.186L561.719 292.957L565.841 308.619L561.719 324.075V337.059L565.841 344.272L573.26 351.485L571.199 362.407H563.78L546.881 366.529Z" fill="white"/>
<path d="M577.457 339.74C574.092 341.508 570.224 340.31 568.741 337.3" stroke="#1F2E54" stroke-width="3.5"/>
<path d="M557.921 296.775C557.609 302.139 560.75 307.105 565.73 309.126C566.243 308.183 566.98 307.381 567.874 306.788C571.656 304.341 570.983 310.876 581.25 309.154C595.481 306.753 599.109 311.709 599.109 311.709C599.423 312.142 598.539 314.97 598.413 315.489C597.843 318.528 597.272 321.55 596.753 324.613C596.419 326.468 596.08 328.311 595.738 330.144C595.997 329.893 596.271 329.659 596.559 329.442C598.898 325.793 602.326 321.699 606.062 325.04C606.812 325.736 607.387 326.6 607.739 327.561C609.45 332.208 606.176 335.196 602.349 336.986C601.339 337.597 600.266 338.096 599.149 338.474C599.337 339.649 600.119 344.331 600.119 344.342C600.198 344.821 609.701 338.965 610.494 338.252C611.927 336.359 613.031 334.238 613.762 331.98C616.717 322.662 616.215 310.619 610.266 302.956C608.789 301.057 609.775 299.962 610.203 298.115C610.245 297.911 610.159 297.703 609.985 297.589C609.812 297.474 609.587 297.477 609.416 297.596C606.21 299.609 600.41 297.55 600.41 297.55C581.587 286.249 571.941 293.239 567.327 293.593C565.455 293.721 563.597 293.193 562.073 292.099C561.527 293.177 560.43 293.866 559.221 293.889L559.039 294.87C558.899 295.616 558.504 296.289 557.921 296.775V296.775Z" fill="#1F2E54"/>
<path d="M565.741 309.148C560.761 307.128 557.621 302.161 557.933 296.797C557.988 295.792 558.133 294.794 558.366 293.815L558.532 293.849C558.756 293.9 558.987 293.917 559.216 293.901C560.425 293.877 561.522 293.188 562.068 292.11C562.225 291.816 562.335 291.498 562.393 291.169L563.271 286.397C563.271 286.397 566.123 290.257 570.687 289.898C575.25 289.539 584.895 282.548 603.769 293.855C603.769 293.855 608.298 295.526 611.504 293.513C611.674 293.394 611.9 293.392 612.073 293.506C612.247 293.62 612.333 293.829 612.291 294.032C611.863 295.874 612.149 297.362 613.626 299.261C619.575 306.924 620.077 318.967 617.122 328.285C615.829 332.146 613.531 335.594 610.466 338.275C609.673 338.988 600.17 344.844 600.09 344.365C600.09 344.365 599.309 339.672 599.121 338.497L599.075 338.229L599.343 338.149C600.36 337.835 601.354 337.454 602.321 337.009C606.148 335.218 609.439 332.231 607.711 327.583C607.359 326.623 606.784 325.759 606.034 325.063C602.298 321.721 599.575 324.856 597.237 328.505C596.785 329.198 595.591 330.207 595.308 330.984C595.651 329.148 596.385 326.504 596.719 324.652C597.29 321.607 597.82 318.585 598.379 315.529C598.482 315.01 599.389 312.182 599.075 311.748C599.075 311.748 595.447 306.793 581.216 309.194C570.949 310.905 571.622 304.381 567.84 306.827C566.946 307.42 566.209 308.223 565.696 309.165C565.537 309.472 565.396 309.788 565.274 310.112C565.253 310.152 565.236 310.194 565.222 310.237C564.966 310.944 564.732 311.657 564.504 312.353C562.37 319.133 560.961 326.454 561.714 333.576C562.633 342.209 568.924 352.359 578.934 351.498C582.084 351.129 585.156 350.267 588.038 348.943" stroke="#1F2E54" stroke-width="3.5" stroke-linecap="round"/>
<ellipse rx="1.77442" ry="2.144" transform="matrix(0.999601 -0.0282617 0.0282795 0.9996 566.772 325.405)" fill="#1F2E54"/>
<ellipse rx="1.77442" ry="2.144" transform="matrix(0.999601 -0.0282617 0.0282795 0.9996 580.177 329.005)" fill="#1F2E54"/>
<path d="M574.451 331.94C574.451 331.94 569.266 333.08 569.791 330.423C569.95 329.59 571.251 321.413 571.251 321.413C571.251 321.413 568.832 316.544 562.507 317.679" stroke="#1F2E54" stroke-width="3.5" stroke-linecap="round"/>
<path d="M576.779 320.684C576.779 320.684 584.998 319.287 588.147 325.85" stroke="#1F2E54" stroke-width="3.5" stroke-linecap="round"/>
<path d="M573.098 350.649C572.728 350.5 573.098 365.862 563.932 372.533" stroke="#1F2E54" stroke-width="3.5" stroke-linecap="round"/>
<path d="M561.297 363.557C561.297 363.557 553.624 377.8 571.958 378.983C590.293 380.166 602.253 365.585 602.253 365.585" stroke="#1F2E54" stroke-width="3.5" stroke-linecap="round" stroke-linejoin="round"/>
<path d="M639.305 437.826L633.642 453.246C633.642 453.246 619.66 421.259 588.364 433.933C588.364 433.933 583.438 452.866 557.484 447.754C530.728 442.491 515.357 435.895 516.009 432.298C516.715 428.429 520.283 421.169 521.11 421.718C522.686 417.334 512.02 417.464 514.427 413.475C515.484 411.731 504.483 420.449 504.538 419.242C505.371 401.263 503.714 404.001 503.714 404.001C516.009 380.109 543.677 365.579 561.088 362.658C578.499 359.737 553.881 374.801 563.462 377.638C573.042 380.474 586.537 382.581 604.725 364.969C604.737 365.005 657.887 375.772 639.305 437.826Z" fill="#016BFF"/>
<path d="M568.2 361.722C565.665 361.951 563.139 362.275 560.624 362.694C543.213 365.621 530.655 373.47 517.059 386.289C511.748 392.467 505.728 399.882 504.08 404.001C500.832 408.19 497.065 408.06 491.227 409.032C484.731 410.1 479.461 403.679 475.844 399.243C470.055 392.145 464.217 385.102 458.735 377.757C456.248 374.42 453.905 370.256 449.504 369.242C445.955 368.427 441.946 370.98 439.181 372.929" stroke="#1F2E54" stroke-width="3.5" stroke-linecap="round" stroke-linejoin="round"/>
<path d="M602.195 365.005C604.181 365.536 606.168 366.14 608.154 366.816L608.83 367.033C618.713 370.364 628.934 375.549 635.061 384.33C641.267 393.268 643.417 404.325 642.91 415.073C641.738 440.373 631.089 466.608 611.07 482.77C599.376 492.203 584.706 495.987 569.842 495.167C562.494 494.688 555.22 493.418 548.145 491.376C540.556 489.264 532.919 486.741 525.856 483.229C523.61 482.112 521.406 480.899 519.269 479.608C512.079 475.208 505.595 469.782 499.347 464.133C496.413 461.466 493.406 458.822 490.563 456.07C488.148 453.747 485.637 451.285 482.395 450.21C481.128 449.795 479.797 449.611 478.464 449.667C474.329 449.86 470.405 451.532 466.221 450.983C454.31 449.438 450.126 438.224 448.49 427.759C448.049 424.905 447.886 420.982 450.869 419.382C451.399 419.09 451.955 418.845 452.529 418.652C454.52 418.046 456.665 418.895 457.703 420.698C459.281 423.699 462.73 425.203 466.004 424.319L468.28 423.716L468.666 423.607" stroke="#1F2E54" stroke-width="3.5" stroke-linecap="round" stroke-linejoin="round"/>
<line x1="601.149" y1="345.418" x2="602.847" y2="361.721" stroke="#1F2E54" stroke-width="3.5" stroke-linecap="round"/>
</g>
<path d="M674.777 764.843C714.695 757.804 754.97 720.828 730.246 712.897C710.165 706.456 697.579 737.745 763.58 754.011" stroke="#1F2E54" stroke-width="4" stroke-linecap="round" stroke-linejoin="round"/>
<path d="M645.687 12.7445C646.019 10.3609 648.882 9.31895 650.669 10.9315L657.248 16.8697C657.693 17.2718 658.249 17.5311 658.844 17.6139L667.622 18.8369C670.006 19.169 671.048 22.0317 669.435 23.8183L663.497 30.3975C663.095 30.8431 662.835 31.3991 662.753 31.9936L661.53 40.7715C661.197 43.1552 658.335 44.1971 656.548 42.5846L649.969 36.6464C649.523 36.2442 648.967 35.985 648.373 35.9021L639.595 34.6791C637.211 34.347 636.169 31.4844 637.782 29.6978L643.72 23.1186C644.122 22.673 644.382 22.117 644.464 21.5225L645.687 12.7445Z" fill="#016BFF" stroke="#1F2E54" stroke-width="4" stroke-linecap="round"/>
</g>
<defs>
<clipPath id="clip0_2619_29457">
<rect width="862" height="920" fill="white"/>
</clipPath>
</defs>
</svg>
