<svg width="138" height="28" viewBox="0 0 138 28" fill="none" xmlns="http://www.w3.org/2000/svg">
<path d="M9.30324 26.9596H4.15168V13.9801H0.642334V9.75427H4.15154V6.74728C4.15154 3.18399 5.70367 0.628418 10.8413 0.628418C11.9279 0.628418 13.6338 0.849776 13.6338 0.849776V4.77371H11.842C10.0163 4.77371 9.30351 5.33498 9.30351 6.8867V9.75427H13.5655L13.186 13.9801H9.30338L9.30324 26.9596ZM21.1236 9.41657C21.0486 9.41657 20.9713 9.41933 20.8949 9.42127C16.1181 9.42127 13.9326 13.0528 13.9326 18.2079C13.9326 24.7019 16.7675 27.301 20.9322 27.301C23.315 27.301 24.8806 26.2873 25.8321 24.3957V26.9614H30.732V9.75607H25.8321V12.402C25.0552 10.6997 23.4459 9.43674 21.1236 9.41657ZM22.3695 13.4821C24.3758 13.4821 25.58 14.8965 25.58 17.3023L25.5847 19.7595C25.5847 21.381 24.59 23.278 22.3695 23.278C18.9557 23.278 19.0469 19.5525 19.0469 18.3117C19.0469 14.1378 20.8658 13.4821 22.3695 13.4821ZM32.7108 18.3596C32.7108 16.2689 32.6118 9.42776 41.4305 9.42776C44.9705 9.42776 46.4486 10.5654 46.4486 10.5654L45.2606 14.2896C45.2606 14.2896 43.7843 13.468 41.8607 13.468C39.397 13.468 37.8249 14.9116 37.8249 17.4514L37.8276 19.2725C37.8276 21.713 39.3445 23.3421 41.8658 23.3421C43.6182 23.3421 45.2334 22.5128 45.2334 22.5128L46.4184 26.1593C46.4184 26.1593 45.0668 27.304 41.4552 27.304C33.0585 27.304 32.7109 21.1663 32.7109 18.3596H32.7108ZM75.1784 9.42127C79.9553 9.42127 82.1753 13.0528 82.1753 18.2079C82.1753 24.7019 79.3402 27.301 75.1755 27.301C72.7927 27.301 71.0312 26.2875 70.0797 24.3957V26.9614L65.2415 26.9594V1.15155L70.3784 0.69875V12.1689C71.1198 10.1622 73.5564 9.42127 75.1785 9.42127H75.1784ZM73.7382 13.4821C71.7319 13.4821 70.3784 14.8965 70.3784 17.3023L70.3736 19.7595C70.3706 21.381 71.311 23.278 73.7382 23.278C77.152 23.278 77.0608 19.5525 77.0608 18.3117C77.0608 14.1378 75.2421 13.4821 73.7382 13.4821ZM55.3616 9.4355C49.9436 9.4355 47.0833 12.4211 47.0833 17.7268V18.7125C47.0833 25.5988 51.1001 27.3718 55.8889 27.3718C60.5437 27.3718 62.6506 26.0559 62.6506 26.0559L61.6894 22.5517C61.6894 22.5517 59.211 23.6175 56.5048 23.6175C53.6994 23.6175 52.4929 22.8948 52.1837 20.17H63.0613V17.3588C63.0613 11.6035 59.8511 9.43536 55.3615 9.43536L55.3616 9.4355ZM55.4922 12.9443C57.3677 12.9443 58.5829 14.1067 58.5162 16.8024H52.1931C52.3028 13.9652 53.6133 12.9445 55.4922 12.9445V12.9443ZM92.4181 9.41187C86.8542 9.41187 83.9251 12.5808 83.9251 18.2597C83.9251 26.0515 88.9743 27.3057 92.4274 27.3057C97.4826 27.3057 100.846 24.555 100.846 18.3305C100.846 11.8518 97.0643 9.41187 92.4181 9.41187ZM92.3482 13.4962C94.7947 13.4962 95.7641 15.3468 95.7641 17.4533V19.2644C95.7641 21.8162 94.4076 23.2922 92.3389 23.2922C90.4041 23.2922 89.0443 21.9116 89.0443 19.2644V17.4533C89.0443 14.6301 90.6623 13.4962 92.3482 13.4962ZM111.079 9.41187C105.516 9.41187 102.586 12.5808 102.586 18.2597C102.586 26.0515 107.636 27.3057 111.089 27.3057C116.144 27.3057 119.507 24.555 119.507 18.3305C119.507 11.8518 115.725 9.41187 111.079 9.41187ZM111.009 13.4962C113.456 13.4962 114.425 15.3468 114.425 17.4533V19.2644C114.425 21.8162 113.069 23.2922 111 23.2922C109.065 23.2922 107.706 21.9116 107.706 19.2644V17.4533C107.706 14.6301 109.324 13.4962 111.009 13.4962ZM121.448 26.9596V1.15155L126.6 0.69875V17.9969L131.711 9.75427H137.152L131.82 18.2912L137.358 26.9596H131.901L126.6 18.5427V26.9596H121.448Z" fill="#0084FF"/>
</svg>
