<svg width="112" height="38" viewBox="0 0 112 38" fill="none" xmlns="http://www.w3.org/2000/svg">
<path d="M13.9106 0.575806H14.9038C18.3521 0.651569 21.7441 2.05318 24.1804 4.53442C23.2808 5.46252 22.3625 6.35274 21.4817 7.28083C20.1137 6.03074 18.4645 5.06476 16.6654 4.72383C14.0043 4.15561 11.137 4.66701 8.90689 6.20121C6.47062 7.81117 4.82146 10.5386 4.46539 13.4555C4.07184 16.3345 4.87768 19.365 6.73299 21.6C8.51334 23.7782 11.2307 25.142 14.0418 25.2367C16.6654 25.3882 19.4015 24.5737 21.3131 22.7175C22.8123 21.4106 23.5057 19.4219 23.7306 17.4899C20.6197 17.4899 17.5088 17.5088 14.3978 17.4899V13.5881H27.4974C28.1721 17.774 27.1976 22.4903 24.0492 25.4829C21.9503 27.6043 19.0455 28.8543 16.0845 29.1006C13.2172 29.3847 10.2562 28.8354 7.7075 27.4338C4.6528 25.7859 2.21654 23.0017 1.01715 19.7249C-0.10728 16.7133 -0.126021 13.304 0.923446 10.2735C1.87921 7.50812 3.71578 5.06476 6.07708 3.3601C8.34467 1.67437 11.0995 0.746272 13.9106 0.575806Z" fill="#4285F4"/>
<path d="M89.0608 1.56091H93.0712V28.6083C91.7407 28.6083 90.3914 28.6272 89.0608 28.5893C89.0795 19.5925 89.0608 10.5767 89.0608 1.56091Z" fill="#34A853"/>
<path d="M36.417 10.9365C38.8908 10.4629 41.5707 10.9933 43.6134 12.4896C45.4687 13.8154 46.7618 15.8989 47.1553 18.1718C47.6613 20.8045 47.0241 23.6835 45.3375 25.7669C43.5197 28.0966 40.5399 29.3467 37.6351 29.1573C34.974 29.0058 32.3878 27.661 30.8136 25.4639C29.0333 23.0395 28.6022 19.706 29.5767 16.8649C30.5512 13.8154 33.3061 11.4857 36.417 10.9365ZM36.9792 14.5352C35.9672 14.8003 35.0302 15.3875 34.3556 16.2209C32.5377 18.418 32.6502 21.9978 34.6554 24.0433C35.7986 25.2177 37.5227 25.7669 39.1156 25.445C40.5961 25.1798 41.8892 24.1759 42.6014 22.8501C43.8383 20.5962 43.4822 17.4899 41.5894 15.7284C40.3713 14.592 38.5909 14.1185 36.9792 14.5352Z" fill="#EA4335"/>
<path d="M56.2812 10.9364C59.1111 10.3871 62.2032 11.1826 64.3209 13.1903C67.7692 16.3156 68.144 22.1683 65.2017 25.767C63.4214 28.0399 60.5353 29.29 57.6868 29.1574C54.9694 29.0817 52.2895 27.7179 50.6778 25.464C48.86 22.9827 48.4665 19.5734 49.4972 16.6754C50.5279 13.7207 53.2265 11.4667 56.2812 10.9364ZM56.8435 14.5351C55.8315 14.8003 54.8944 15.3875 54.2198 16.2019C52.4207 18.3612 52.4957 21.8842 54.4259 23.9487C55.5691 25.1799 57.3495 25.786 58.9986 25.445C60.4604 25.1609 61.7722 24.176 62.4843 22.8501C63.7025 20.5772 63.3464 17.471 61.4349 15.7095C60.2167 14.573 58.4364 14.1184 56.8435 14.5351Z" fill="#FBBC05"/>
<path d="M73.1301 12.035C75.2852 10.6713 78.1525 10.2925 80.4764 11.4668C81.2072 11.7888 81.8069 12.3381 82.3879 12.8874C82.4066 12.376 82.3879 11.8456 82.4066 11.3153C83.6623 11.3342 84.9179 11.3153 86.1922 11.3342V28.0399C86.1735 30.5591 85.5363 33.2297 83.7372 35.067C81.7695 37.0936 78.7522 37.7186 76.0349 37.302C73.1301 36.8663 70.6001 34.726 69.4757 32.0175C70.6001 31.4682 71.7808 31.0326 72.9427 30.5212C73.5986 32.0743 74.9292 33.4002 76.5971 33.7032C78.265 34.0063 80.1953 33.5896 81.2822 32.188C82.4441 30.7485 82.4441 28.7786 82.3879 27.0171C81.5258 27.8695 80.5326 28.6271 79.3332 28.9112C76.7283 29.6499 73.861 28.7408 71.8557 26.9603C69.8318 25.1799 68.6324 22.4335 68.7448 19.706C68.801 16.6187 70.5252 13.645 73.1301 12.035ZM77.0094 14.4595C75.8662 14.6489 74.798 15.2928 74.0671 16.1831C72.3055 18.3044 72.3055 21.6948 74.0859 23.7783C75.0978 25.0094 76.7283 25.6913 78.3025 25.5208C79.783 25.3693 81.151 24.4223 81.8819 23.1154C83.1188 20.8993 82.9126 17.8877 81.2447 15.9558C80.214 14.7625 78.5648 14.1753 77.0094 14.4595Z" fill="#4285F4"/>
<path d="M97.8837 13.0011C100.133 10.8798 103.6 10.16 106.486 11.2775C109.222 12.3193 110.965 14.952 111.845 17.6605C107.779 19.3652 103.731 21.0509 99.664 22.7556C100.226 23.8352 101.088 24.8201 102.25 25.2179C103.881 25.8051 105.83 25.5967 107.198 24.4982C107.741 24.0815 108.172 23.5322 108.584 23.0018C109.615 23.7026 110.646 24.3845 111.677 25.0853C110.215 27.3014 107.76 28.8545 105.118 29.1007C102.194 29.4606 99.0831 28.3242 97.1903 26.0134C94.0794 22.3768 94.3792 16.2779 97.8837 13.0011ZM99.8889 16.5052C99.2517 17.4333 98.9894 18.5697 99.0081 19.6872C101.725 18.5508 104.443 17.4143 107.16 16.2589C106.71 15.1983 105.624 14.5543 104.518 14.3838C102.737 14.0618 100.882 15.0278 99.8889 16.5052Z" fill="#EA4335"/>
</svg>
