<svg width="142" height="36" viewBox="0 0 142 36" fill="none" xmlns="http://www.w3.org/2000/svg">
<path d="M15.6009 0.959566C13.7743 1.16645 11.0344 2.02584 9.47552 2.88522C5.287 5.161 2.45266 8.70994 1.03549 13.4366C0.752053 14.3596 0.42138 16.8741 0.437126 18.0518C0.437126 19.0862 0.752053 21.6166 0.941009 22.2214C1.03549 22.5078 1.24019 23.1922 1.4134 23.7173C1.69683 24.6086 3.06676 27.4095 3.30296 27.6005C3.3502 27.6482 3.60214 27.9665 3.83834 28.3326C4.42095 29.2079 5.94835 30.7675 7.09783 31.6587C7.97962 32.343 10.4675 33.7912 10.7825 33.8072C10.8612 33.8072 10.8769 33.2024 10.8297 32.4067C10.7195 30.6402 11.0502 28.2371 11.7587 25.7862C11.8847 25.3725 11.9792 24.8314 11.9792 24.5926C11.9792 24.3539 12.0422 24.0993 12.1209 24.0197C12.1996 23.9242 12.3414 23.4627 12.4201 22.9853C12.5146 22.5078 12.672 21.7758 12.7823 21.362C12.9397 20.7413 12.924 20.5026 12.7035 19.8342C12.3886 18.8157 12.3729 17.1606 12.6878 16.3648C13.4279 14.471 14.2467 13.7548 15.6323 13.7548C17.3015 13.7548 18.1045 15.028 17.7896 17.1606C17.6479 18.1313 17.2542 19.6591 17.0023 20.1366C16.9393 20.2798 16.8291 20.6777 16.7818 21.0119C16.7188 21.362 16.5929 21.8553 16.5141 22.1259C16.2937 22.7466 16.7188 23.9561 17.2857 24.4176C17.8211 24.8473 18.9391 24.9746 19.9626 24.7359C20.6869 24.5767 20.9861 24.3858 21.7419 23.6537C22.6395 22.7625 23.3166 21.728 23.3166 21.2347C23.3166 21.0914 23.3953 20.9005 23.4898 20.805C23.9307 20.3594 24.1669 16.89 23.8362 15.4259C23.474 13.8185 22.356 12.243 20.9074 11.3199C19.4587 10.381 16.4669 10.1104 14.6246 10.747C13.3334 11.1926 12.1839 11.9406 11.4438 12.8159C10.7825 13.5957 10.0896 14.8689 10.0896 15.3145C10.0896 15.4736 10.0109 15.6805 9.91642 15.776C9.82195 15.8715 9.71172 16.4762 9.66448 17.1287C9.58575 18.0995 9.64874 18.5451 9.93217 19.5C10.1211 20.1525 10.4675 20.9164 10.6722 21.2028C11.0974 21.7758 11.0974 21.9986 10.7037 23.5264C10.5935 23.9401 10.4046 24.3221 10.2943 24.3698C9.30232 24.7518 7.28678 22.3487 6.60969 19.9615C6.35775 19.0544 6.342 15.8237 6.59395 14.8689C6.70417 14.471 6.89313 13.9299 7.0191 13.6434C7.14507 13.3729 7.25529 13.1024 7.25529 13.0387C7.25529 12.975 7.57022 12.4339 7.96388 11.8451C10.0109 8.72586 13.3334 7.07074 17.5377 7.07074C18.4982 7.07074 19.4902 7.1344 19.7579 7.21398C21.9309 7.8983 22.5135 8.1211 23.3638 8.63037C25.0172 9.63298 26.2139 11.0016 27.4106 13.2933C27.4893 13.4366 27.5996 13.8185 27.6468 14.1368C27.7098 14.4551 27.82 14.7575 27.8987 14.8052C27.9775 14.8529 28.0405 15.8874 28.0405 17.1128C28.0405 19.3249 27.883 20.2161 27.2217 22.0304C26.4816 24.0197 24.5763 26.2159 22.8442 27.0753C21.8521 27.5527 19.9941 28.0779 19.254 28.0779C18.262 28.0779 16.3094 27.2504 15.7741 26.582C15.5221 26.2796 15.2859 26.391 15.2859 26.8207C15.2859 26.9798 15.2229 27.2504 15.1285 27.4095C15.0497 27.5527 14.908 27.9984 14.8293 28.3962C14.3726 30.4969 13.727 32.1998 12.735 33.7912C12.4358 34.2846 12.6878 34.571 13.5066 34.6824C13.916 34.7461 14.4671 34.8575 14.7191 34.9371C15.3489 35.144 18.7659 35.1121 19.9153 34.9053C20.9546 34.7143 22.6395 34.2368 23.3953 33.9186C28.1507 31.9452 31.7566 27.9347 33.3155 22.8261C34.15 20.1047 34.1973 16.9378 33.4415 13.7548C33.1895 12.7204 33.1108 12.4817 32.4337 10.8902C31.4574 8.56671 29.2529 5.84533 27.0169 4.1743C25.0959 2.74199 23.2063 1.91444 20.2618 1.19828C19.443 1.00731 16.5299 0.848164 15.6009 0.959566ZM57.5963 6.70471C56.9822 6.8002 56.006 7.81873 55.754 8.61445C55.4863 9.48975 55.754 10.4287 56.5098 11.1608C58.179 12.8 61.0763 11.2563 60.7141 8.90092C60.4937 7.40495 59.1395 6.45008 57.5963 6.70471ZM40.4328 7.64367C40.2911 7.80281 40.2911 26.9957 40.4486 27.2185C40.5273 27.3459 41.2044 27.3936 42.5271 27.3777L44.4954 27.3618L44.5741 24.1311C44.6371 21.5052 44.7001 20.8686 44.889 20.7572C45.015 20.6777 46.0858 20.5981 47.2667 20.5981C49.8491 20.5981 50.9356 20.4071 52.1166 19.7705C53.6598 18.9271 54.5573 17.7176 55.0454 15.7919C55.3446 14.5824 55.3446 13.7071 55.0297 12.4658C54.7463 11.3518 54.6203 11.0812 53.9432 10.1741C53.1086 9.04415 52.2583 8.42348 50.8727 7.93013C50.1011 7.6755 49.4555 7.62775 45.2827 7.58001C42.6846 7.54818 40.4958 7.58001 40.4328 7.64367ZM49.0776 11.6064C50.1326 11.9406 50.6522 12.418 50.8884 13.2774C51.1876 14.4073 50.9671 15.4577 50.3058 16.0943C49.5815 16.7786 48.9358 16.9378 46.8258 16.9378C45.4402 16.9378 45.015 16.89 44.8261 16.6831C44.6214 16.4921 44.5741 16.0306 44.5741 14.2164C44.5741 11.3518 44.5584 11.3677 46.7471 11.3677C47.6919 11.3677 48.6052 11.4632 49.0776 11.6064ZM76.6966 10.6674C76.6966 11.7655 76.6179 12.8 76.5392 12.975C76.429 13.1819 76.2085 13.2774 75.8306 13.2774C75.5472 13.2774 75.2795 13.3411 75.248 13.4366C75.2322 13.5161 75.2322 14.0731 75.2795 14.662C75.3582 15.7123 75.374 15.7282 75.8463 15.8396C76.114 15.8874 76.4132 15.9829 76.5077 16.0465C76.6494 16.1261 76.6966 17.3834 76.6966 20.5663C76.6966 24.8473 76.7124 25.0064 77.0588 25.643C77.7831 26.9957 78.9169 27.4732 81.2159 27.4095L82.759 27.3618L82.8062 25.8181L82.8535 24.2584H82.4598C81.8615 24.2584 80.9797 23.781 80.8852 23.3991C80.8379 23.2081 80.7907 21.5211 80.7907 19.6273C80.7907 17.0173 80.8379 16.142 80.9954 16.0147C81.1056 15.9192 81.5465 15.8237 81.9717 15.7919L82.759 15.7442V13.357L81.8929 13.3092C81.4206 13.2774 80.9797 13.166 80.9167 13.0705C80.8537 12.9591 80.7907 11.9247 80.7907 10.7629V8.6622H76.6966V10.6674ZM135.226 8.75768C135.163 8.82134 135.116 9.82396 135.116 10.9857C135.116 13.2456 135.1 13.2774 134.234 13.2774C133.84 13.2774 133.84 13.2933 133.887 14.5028C133.935 15.7123 133.95 15.7442 134.36 15.7919C134.58 15.8237 134.848 15.9351 134.927 16.0306C135.021 16.142 135.116 18.0677 135.163 20.5185C135.21 22.8739 135.289 25.0223 135.352 25.277C135.541 25.9772 136.517 26.8684 137.446 27.1708C138.485 27.5209 141.131 27.5527 141.398 27.2185C141.524 27.0753 141.572 26.5024 141.54 25.6748L141.493 24.338L140.942 24.2425C140.343 24.147 139.666 23.8287 139.493 23.5582C139.43 23.4627 139.367 21.728 139.367 19.7069C139.367 15.5532 139.273 15.8237 140.643 15.8237C141.54 15.8237 141.619 15.6646 141.54 14.2164L141.493 13.357L140.469 13.2774L139.446 13.1978L139.367 10.9698L139.288 8.74177L137.304 8.69403C136.218 8.67811 135.289 8.70994 135.226 8.75768ZM68.9022 12.8955C68.1306 13.1023 67.2331 13.6275 66.6347 14.2482C65.9104 15.0121 65.7215 14.9643 65.6427 13.9936L65.5955 13.357H61.6589V27.3618L63.6429 27.3936C65.5955 27.4413 65.6427 27.4254 65.7372 27.0753C65.7844 26.8843 65.8317 24.8632 65.8317 22.5715C65.8317 18.0359 65.8474 17.9085 66.7765 17.0173C67.1859 16.6195 67.4063 16.5399 68.2881 16.4921L69.3116 16.4285L69.9257 17.081C70.6501 17.8449 70.5713 17.1128 70.6343 23.7014C70.6501 25.452 70.6658 26.9957 70.6815 27.1549C70.713 27.3777 70.965 27.4095 72.7286 27.3777L74.7284 27.3618V16.1898L74.2717 15.2826C73.4844 13.7071 72.2719 12.9591 70.4139 12.8636C69.7525 12.8477 69.0754 12.8477 68.9022 12.8955ZM88.5851 12.8955C86.8845 13.357 86.0657 13.8185 85.0107 14.8689C83.5936 16.3171 82.948 18.004 82.948 20.2798C82.9637 24.2743 85.4359 27.2345 89.089 27.5846C92.2068 27.8869 94.616 26.9639 96.1591 24.8791C96.3796 24.5767 96.852 23.6059 96.852 23.4309C96.852 23.3672 95.9387 23.3036 94.8364 23.3036H92.8209L92.3485 23.7969C91.7974 24.3698 91.0258 24.7359 90.3172 24.7359C89.6087 24.7359 88.5222 24.2266 88.0183 23.6855C87.6404 23.2558 87.0892 22.0145 87.0892 21.5848C87.0892 21.4416 88.2387 21.3938 91.9391 21.3938C94.6002 21.3938 96.852 21.3302 96.9622 21.2665C97.1984 21.1074 96.9779 18.5769 96.6315 17.6539C95.9229 15.7282 94.5845 14.105 93.2303 13.532C92.8367 13.3729 92.38 13.166 92.2225 13.0864C91.8919 12.9114 89.089 12.7681 88.5851 12.8955ZM91.6557 16.3807C92.2698 16.8104 92.8052 17.829 92.7264 18.4019C92.6792 18.7679 92.6477 18.7679 89.9866 18.8157C86.916 18.8634 86.9003 18.8475 87.3884 17.7016C87.7348 16.9059 88.4277 16.1898 89.0733 15.9829C89.8134 15.7442 91.0101 15.9351 91.6557 16.3807ZM111.89 12.8955C110.063 13.3888 108.788 14.2005 107.796 15.4577C107.402 15.967 107.087 16.4444 107.087 16.5399C107.087 16.6195 106.977 16.9059 106.835 17.1765C106.693 17.4311 106.489 18.2268 106.379 18.943C105.827 22.3487 107.339 25.5316 110.173 26.9639L111.26 27.5209H113.543C115.905 27.5209 116.11 27.4732 117.558 26.6934C118.613 26.1204 120.346 23.8924 120.078 23.4468C120.015 23.3672 119.117 23.3036 118.062 23.3036H116.125L115.732 23.7651C114.157 25.5634 111.213 24.6404 110.583 22.1418C110.488 21.8076 110.488 21.5211 110.567 21.4575C110.646 21.4097 112.897 21.3779 115.59 21.3938C119.432 21.3938 120.471 21.362 120.487 21.2028C120.629 19.2135 119.684 16.2693 118.503 14.9962C117.842 14.28 116.692 13.4843 116.125 13.3411C115.874 13.2774 115.59 13.166 115.48 13.0864C115.259 12.9114 112.378 12.7681 111.89 12.8955ZM114.346 15.9988C115.055 16.2534 115.874 17.1446 116 17.829C116.188 18.8634 116.204 18.8634 113.275 18.8157C110.646 18.7679 110.63 18.7679 110.583 18.4019C110.52 17.9563 111.071 16.8582 111.543 16.4444C112.22 15.8715 113.401 15.6805 114.346 15.9988ZM125.589 12.8955C122.361 13.6753 121.196 14.837 121.18 17.256C121.18 19.866 122.471 20.9641 126.298 21.6485C128.927 22.11 129.683 22.5238 129.652 23.5264C129.636 24.2425 129.148 24.704 128.171 24.9109C126.943 25.1815 125.983 24.8791 125.211 24.0038L124.597 23.3036H122.692C121.149 23.3036 120.786 23.3513 120.786 23.5264C120.786 23.9879 121.416 25.1974 121.936 25.8021C122.424 26.3273 122.802 26.582 124.282 27.2981C124.424 27.3777 125.195 27.505 125.967 27.6005C127.4 27.7755 129.888 27.6164 130.518 27.2981C130.659 27.2345 131.069 27.0276 131.415 26.8684C132.313 26.4387 133.163 25.4679 133.478 24.5449C133.824 23.4945 133.73 22.0304 133.242 21.0119C132.659 19.8183 131.116 18.9589 128.817 18.5451C125.857 18.0199 125.809 18.004 125.337 17.5425C124.77 16.9537 124.77 16.7468 125.337 16.1102C125.794 15.6009 125.825 15.585 127.085 15.585C128.345 15.585 128.376 15.6009 128.833 16.1102C129.085 16.3967 129.289 16.7309 129.289 16.8582C129.289 17.0492 129.62 17.0969 131.258 17.0969C133.431 17.0969 133.368 17.1446 132.99 16.0147C132.297 14.0095 130.518 12.9909 127.557 12.8795C126.644 12.8477 125.762 12.8477 125.589 12.8955ZM104.646 13.2297C103.954 13.4684 102.993 14.2641 102.694 14.837C102.395 15.41 102.127 15.1712 102.048 14.2164L101.97 13.357H98.0329L97.9857 20.0411C97.97 23.7173 97.9857 26.8843 98.0329 27.0912C98.1117 27.4413 98.1589 27.4413 100.048 27.4095C101.135 27.3936 102.017 27.2981 102.08 27.2026C102.143 27.1231 102.206 25.4361 102.206 23.4627C102.206 20.3435 102.237 19.7865 102.505 19.0862C103.056 17.638 104.237 16.7786 105.717 16.7786C106.127 16.7786 106.3 16.699 106.347 16.4921C106.457 16.0306 106.473 13.8822 106.379 13.4047C106.284 13.0228 106.205 12.9591 105.78 12.975C105.497 12.9909 104.993 13.1023 104.646 13.2297ZM56.1477 13.4684C56.1004 13.5798 56.0847 16.7149 56.1004 20.4389L56.1477 27.2026L58.0215 27.2822C59.1552 27.3299 59.974 27.2981 60.1 27.2026C60.2732 27.0753 60.3205 25.7226 60.3205 20.3116C60.3362 16.6195 60.289 13.5161 60.2417 13.4366C60.0843 13.1978 56.2264 13.2297 56.1477 13.4684Z" fill="#D71818"/>
</svg>
