<svg width="108" height="36" viewBox="0 0 108 36" fill="none" xmlns="http://www.w3.org/2000/svg">
<g clip-path="url(#clip0_2616_28667)">
<path d="M103.428 6.5935H98.6755V-0.0603027H88.2395L83.4402 6.5935H74.912L72.0603 9.44512V6.5935H65.4065V-0.0603027H44.4946V6.5935H15.0753L10.2751 -0.0603027H-0.180908V22.7527L13.1267 36.0603H26.4343V32.2581L30.2365 36.0603H55.9011V32.2581L59.7033 36.0603H72.0603V32.2581L75.8625 36.0603H99.6261L108.181 27.5054V11.3462L103.428 6.5935ZM15.9783 16.0989H9.32452V18H15.9783V25.6043H5.52235L1.72018 21.8022V1.84078H9.32452V8.49458H15.9783V16.0989ZM44.4946 25.6043H21.6816L17.8794 21.8022V8.49458H25.4837V18H27.3848V8.49458H34.9892V18H36.8903V8.49458H44.4946V25.6043ZM54 25.6043H46.3957V8.49458H54V25.6043ZM54 6.5935H46.3957V1.84078H54V6.5935ZM70.1592 16.0989H63.5054V18H70.1592V25.6043H59.7033L55.9011 21.8022V1.84078H63.5054V8.49458H70.1592V16.0989ZM87.269 16.0989H79.6647V18H87.269V25.6043H75.8625L72.0603 21.8022V12.2968L75.8625 8.49458H87.269V16.0989ZM106.28 25.6043H98.6755V16.0989H96.7744V25.6043H89.1701V1.84078H96.7744V8.49458H102.478L106.28 12.2968V25.6043Z" fill="#9146FF"/>
</g>
<defs>
<clipPath id="clip0_2616_28667">
<rect width="108" height="36" fill="white"/>
</clipPath>
</defs>
</svg>
