<svg width="126" height="28" viewBox="0 0 126 28" fill="none" xmlns="http://www.w3.org/2000/svg">
<g clip-path="url(#clip0_2616_28665)">
<path d="M21.0537 28.0195L12.8044 27.867C10.1334 27.8139 7.45581 27.92 4.83731 27.3695C0.853762 26.547 0.571567 22.5143 0.276246 19.1316C-0.13064 14.3759 0.0268646 9.53404 0.794698 4.81815C1.22783 2.17169 2.93413 0.593091 5.57232 0.420639C14.4779 -0.202839 23.4425 -0.129879 32.3284 0.161962C33.2668 0.188493 34.2118 0.334413 35.1372 0.500232C39.7048 1.30943 39.8164 5.87939 40.1117 9.72639C40.407 13.6132 40.2823 17.5199 39.7179 21.3801C39.2651 24.5771 38.3988 27.2568 34.7434 27.5154C30.1627 27.8537 25.6869 28.1256 21.0931 28.0394C21.0931 28.0195 21.0668 28.0195 21.0537 28.0195V28.0195ZM16.2039 19.9276C19.6558 17.9245 23.0422 15.9545 26.4744 13.9647C23.0159 11.9616 19.6361 9.9917 16.2039 8.00187V19.9276Z" fill="#FF0000"/>
<path d="M106.279 24.3848C106.122 25.0348 105.984 25.5455 105.846 26.0894H102.617V0.917847H106.384V10.2038C106.581 9.95175 106.679 9.84562 106.765 9.73286C107.408 8.83743 108.241 8.25374 109.318 8.02823C111.03 7.68995 112.494 8.45273 113.012 10.1176C113.347 11.1523 113.564 12.26 113.59 13.3411C113.642 16.1203 113.603 18.8928 113.505 21.6719C113.465 22.5209 113.209 23.3898 112.888 24.1858C111.831 26.8124 108.379 27.2103 106.666 24.9353C106.561 24.796 106.463 24.6434 106.279 24.3848V24.3848ZM106.463 17.4601V22.0633C106.463 22.8128 106.857 23.2704 107.598 23.4429C108.327 23.6153 108.917 23.3301 109.213 22.647C109.337 22.3617 109.462 22.0633 109.469 21.7648C109.541 18.9525 109.606 16.1402 109.626 13.3212C109.626 12.7972 109.501 12.2533 109.344 11.7426C109.049 10.8206 108.235 10.5487 107.434 11.086C106.83 11.4972 106.463 12.0809 106.463 12.8569V17.4601ZM96.2251 8.3864H100.169V26.1027H97.0914C96.9798 25.4327 96.8682 24.7429 96.737 23.9337C96.527 24.2455 96.4023 24.4445 96.271 24.6434C95.2473 26.1358 93.7969 26.6465 92.0841 26.3746C90.6206 26.1358 89.7412 24.995 89.5443 23.1245C89.4852 22.5674 89.459 22.0036 89.459 21.4464C89.4459 17.3009 89.459 13.1421 89.459 8.99662V8.37313H93.4491V9.09611C93.4491 13.1023 93.436 17.1019 93.4622 21.1081C93.4622 21.6786 93.5213 22.2689 93.6197 22.8393C93.7313 23.423 94.1513 23.6352 94.7157 23.5955C95.6279 23.5225 96.2579 22.8393 96.2579 21.924V9.16907C96.2251 8.91039 96.2251 8.67161 96.2251 8.3864V8.3864ZM69.0688 8.37313H73.0326V9.12264C73.0326 13.109 73.0195 17.0887 73.0458 21.0617C73.0458 21.6321 73.0983 22.2225 73.2164 22.7796C73.3673 23.4363 73.748 23.6485 74.3977 23.5623C75.2968 23.4363 75.8415 22.8061 75.848 21.8842V9.1956V8.39967H79.7922V26.1027H76.7274C76.6159 25.446 76.5043 24.7695 76.3599 23.9138C76.163 24.2123 76.0515 24.3848 75.9399 24.5638C74.9161 26.0828 73.4789 26.6399 71.7267 26.368C70.3223 26.1557 69.4626 25.1077 69.2 23.3898C69.1279 22.8526 69.0754 22.3219 69.0754 21.7847C69.0622 17.48 69.0622 13.1554 69.0622 8.8507L69.0688 8.37313ZM67.0344 17.8315C67.0212 18.4285 66.9819 19.0254 66.949 19.6224C66.7981 21.4133 66.7259 23.9536 65.2953 25.2603C64.383 26.0828 63.228 26.3812 62.0336 26.421C61.502 26.4343 60.9639 26.4343 60.4323 26.3613C57.9188 25.9766 56.7507 24.8557 56.3307 22.0633C55.8516 18.8397 55.8122 15.5631 56.3832 12.3396C56.9738 9.00325 59.0082 7.82261 62.1714 8.04149C65.1246 8.25374 66.4437 10.2104 66.7915 12.9962C66.9819 14.5947 67.0737 16.2131 67.0344 17.8315V17.8315ZM63.018 17.2213C63.018 16.0871 63.0443 14.9463 63.0049 13.812C62.9786 13.1554 62.8933 12.4921 62.7555 11.8421C62.598 11.0926 62.1255 10.7344 61.5348 10.7477C60.9573 10.7609 60.5504 11.1191 60.3404 11.8156C60.2683 12.0742 60.1895 12.3396 60.1895 12.5982C60.1895 14.3758 60.1764 16.1601 60.1632 17.9377C60.1501 19.5959 59.9401 21.3337 60.4586 22.9189C60.6161 23.4031 61.023 23.6684 61.5545 23.6684C62.073 23.6684 62.4142 23.4097 62.6046 22.9454C62.7555 22.5873 62.8868 22.1959 62.8868 21.8112C62.9327 20.2857 63.018 18.7535 63.018 17.2213ZM50.5424 13.885C50.8902 12.1671 51.2183 10.489 51.5793 8.80427C52.0321 6.66187 52.5374 4.51947 52.9837 2.37043C53.0953 1.84644 53.3053 1.72042 53.7975 1.73368C54.8541 1.77348 55.9303 1.74695 57.0591 1.74695C56.6916 3.11331 56.3307 4.41334 55.9763 5.69348C54.8541 9.71296 53.7318 13.7457 52.6227 17.7785C52.5374 18.0902 52.4981 18.4285 52.4981 18.7601C52.4849 20.9622 52.4981 23.1577 52.4981 25.3598V26.0761H48.6458C48.6326 25.8771 48.6064 25.6782 48.6064 25.4792C48.6064 24.2322 48.508 22.9786 48.6195 21.7449C48.9017 18.78 47.9698 16.0539 47.2151 13.2947C46.2176 9.64664 45.2069 5.98532 44.2094 2.33727C44.1569 2.16482 44.1372 1.9791 44.0847 1.76685H48.0158C48.8427 5.79297 49.6761 9.81909 50.5424 13.885ZM125.915 18.5081H119.273C119.345 19.8545 119.372 21.1347 119.509 22.4015C119.608 23.2837 120.087 23.6618 120.842 23.6684C121.629 23.6817 122.089 23.2837 122.272 22.4082C122.331 22.123 122.371 21.8378 122.397 21.5459C122.423 21.2872 122.436 21.0087 122.456 20.6372C123.578 20.6969 124.674 20.7632 125.757 20.8097C126.387 22.7 125.252 25.1276 123.342 25.8771C121.839 26.4741 120.297 26.4741 118.761 26.0164C117.626 25.6782 116.779 24.9485 116.399 23.8276C116.044 22.7796 115.71 21.6852 115.637 20.5908C115.441 17.8912 115.368 15.1651 115.775 12.459C115.847 12.0079 115.972 11.5768 116.11 11.139C116.661 9.33489 117.862 8.22721 119.719 8.04149C120.73 7.942 121.774 7.9818 122.771 8.15425C124.385 8.43946 125.245 9.61347 125.619 11.1523C125.79 11.8753 125.915 12.6181 125.941 13.3544C125.947 15.0457 125.915 16.7239 125.915 18.5081ZM122.141 16.18C122.141 14.8468 122.154 13.5932 122.128 12.3329C122.128 12.0345 122.016 11.7227 121.905 11.4375C121.682 10.8803 121.216 10.7278 120.658 10.7278C120.1 10.7278 119.746 11.013 119.608 11.5237C119.188 13.0559 119.326 14.6212 119.339 16.1932C120.343 16.18 121.255 16.18 122.141 16.18V16.18Z" fill="#282828"/>
<path d="M82.8371 4.99719H78.9324V1.80017H90.5876V4.97729H86.7091V26.0763H82.8437L82.8371 4.99719Z" fill="#282828"/>
</g>
<defs>
<clipPath id="clip0_2616_28665">
<rect width="126" height="28" fill="white"/>
</clipPath>
</defs>
</svg>
