<svg width="42" height="43" viewBox="0 0 42 43" fill="none" xmlns="http://www.w3.org/2000/svg">
<g clip-path="url(#clip0_2619_29195)">
<path fill-rule="evenodd" clip-rule="evenodd" d="M39.9806 21.3825C39.9806 31.8659 31.4834 40.3631 21 40.3631C10.5166 40.3631 2.0194 31.8659 2.0194 21.3825C2.0194 10.899 10.5166 2.40186 21 2.40186C31.4834 2.40186 39.9806 10.899 39.9806 21.3825Z" fill="#016BFF"/>
<path fill-rule="evenodd" clip-rule="evenodd" d="M21 4.42137C11.6318 4.42137 4.0388 12.0144 4.0388 21.3826C4.0388 30.7507 11.6318 38.3438 21 38.3438C30.3682 38.3438 37.9612 30.7507 37.9612 21.3826C37.9612 12.0144 30.3682 4.42137 21 4.42137ZM0 21.3826C0 9.78384 9.40127 0.382568 21 0.382568C32.5987 0.382568 42 9.78384 42 21.3826C42 32.9813 32.5987 42.3826 21 42.3826C9.40127 42.3826 0 32.9813 0 21.3826Z" fill="#1F2E54"/>
<path fill-rule="evenodd" clip-rule="evenodd" d="M27.1204 26.9663L19.6241 22.4943V12.8564" fill="#016BFF"/>
<path fill-rule="evenodd" clip-rule="evenodd" d="M19.6241 10.8369C20.7393 10.8369 21.6435 11.741 21.6435 12.8563V21.3475L28.155 25.2319C29.1128 25.8033 29.4261 27.0429 28.8547 28.0007C28.2833 28.9585 27.0437 29.2718 26.0859 28.7004L18.5895 24.2285C17.9787 23.8641 17.6047 23.2054 17.6047 22.4942V12.8563C17.6047 11.741 18.5088 10.8369 19.6241 10.8369Z" fill="white"/>
</g>
<defs>
<clipPath id="clip0_2619_29195">
<rect width="42" height="42" fill="white" transform="translate(0 0.382568)"/>
</clipPath>
</defs>
</svg>
